<svg width="376" height="64" viewBox="0 0 376 64" fill="none" xmlns="http://www.w3.org/2000/svg">
<path d="M58.2847 5.99335C56.4018 4.11084 53.8865 2.99522 51.2272 2.86309C48.5679 2.73096 45.9544 3.59176 43.8942 5.27835C41.2584 4.34976 38.4835 3.87733 35.6889 3.88135C31.5644 3.88135 27.4802 4.69374 23.6696 6.27215C19.859 7.85056 16.3966 10.1641 13.4801 13.0806C10.5636 15.9971 8.25007 19.4595 6.67168 23.2701C5.09329 27.0807 4.28091 31.1649 4.28093 35.2895C4.27672 38.0841 4.74916 40.859 5.67793 43.4948C3.99154 45.555 3.13096 48.1684 3.26328 50.8274C3.39559 53.4865 4.51138 56.0015 6.39396 57.8841C8.27653 59.7666 10.7915 60.8824 13.4506 61.0147C16.1097 61.147 18.723 60.2864 20.7832 58.6C23.419 59.5287 26.194 60.0012 28.9887 59.9971C37.3186 59.997 45.3072 56.688 51.1974 50.7979C57.0875 44.9078 60.3966 36.9191 60.3967 28.5892C60.401 25.7943 59.9287 23.0192 58.9999 20.3831C60.6836 18.3217 61.5425 15.7089 61.4104 13.0506C61.2783 10.3923 60.1645 7.87759 58.2847 5.99335ZM54.8374 20.6953C55.8713 23.1985 56.401 25.881 56.3963 28.5892C56.3963 43.7017 44.1012 55.9972 28.9883 55.9972C26.2801 56.0019 23.5976 55.4721 21.0944 54.4383L19.8032 53.9055L18.8583 54.9342C18.8208 54.9756 18.7824 55.0168 18.7423 55.0568C18.1171 55.682 17.3749 56.178 16.5581 56.5163C15.7412 56.8546 14.8658 57.0288 13.9816 57.0288C13.0975 57.0288 12.222 56.8546 11.4051 56.5163C10.5883 56.178 9.84611 55.682 9.22093 55.0568C8.59574 54.4317 8.09982 53.6895 7.76148 52.8726C7.42313 52.0558 7.24898 51.1803 7.24898 50.2962C7.24898 49.412 7.42313 48.5365 7.76148 47.7197C8.09982 46.9029 8.59574 46.1607 9.22093 45.5355C9.26093 45.4953 9.30218 45.4573 9.34355 45.4192L10.3722 44.4745L9.83943 43.1833C8.80563 40.6802 8.27585 37.9976 8.28043 35.2893C8.28043 20.1768 20.5757 7.88147 35.6885 7.88147C38.3967 7.87684 41.0792 8.40653 43.5823 9.44022L44.8728 9.97285L45.8178 8.9451C45.8553 8.90435 45.8928 8.86347 45.9344 8.82185C47.1984 7.56572 48.9088 6.86193 50.6908 6.86471C52.4728 6.86749 54.181 7.57662 55.4411 8.83668C56.7012 10.0967 57.4103 11.805 57.4131 13.5869C57.4158 15.3689 56.712 17.0794 55.4559 18.3433C55.4154 18.3837 55.3735 18.4222 55.3318 18.4607L54.305 19.4056L54.8374 20.6953Z" fill="black"/>
<path d="M15.04 28.3429L18.5989 30.1693C21.758 23.9869 27.1491 19.2366 33.68 16.8809L32.32 13.1191C24.8372 15.8177 18.6601 21.2598 15.04 28.3429Z" fill="black"/>
<path d="M136 32V56M136 32H114.667C114.667 26.3421 116.914 20.9158 120.915 16.9151C124.916 12.9143 130.342 10.6667 136 10.6667M136 32H157.333C157.333 26.3421 155.086 20.9158 151.085 16.9151C147.084 12.9143 141.658 10.6667 136 10.6667M136 10.6667V8" stroke="black" stroke-width="4" stroke-linecap="round" stroke-linejoin="round"/>
<path d="M245.333 20.24V10.6667C245.333 9.95942 245.052 9.28115 244.552 8.78105C244.052 8.28095 243.374 8 242.667 8H237.333C236.626 8 235.948 8.28095 235.448 8.78105C234.948 9.28115 234.667 9.95942 234.667 10.6667V20.24C234.665 22.651 233.706 24.9627 232 26.6667C230.294 28.3707 229.335 30.6823 229.333 33.0933V53.3333C229.333 54.0406 229.614 54.7189 230.114 55.219C230.614 55.7191 231.293 56 232 56H248C248.707 56 249.385 55.7191 249.886 55.219C250.386 54.7189 250.667 54.0406 250.667 53.3333V33.0933C250.665 30.6823 249.706 28.3707 248 26.6667C246.294 24.9627 245.335 22.651 245.333 20.24Z" stroke="black" stroke-width="5.33333" stroke-linecap="round" stroke-linejoin="round"/>
<path d="M320.67 48.8482L341.696 60.7946C343.25 61.6785 344.696 61.7053 346.304 60.7946L367.33 48.8482C369.821 47.4285 371.187 45.9821 371.187 42.0981V20.8838C371.187 17.9107 370.009 16.2231 367.813 14.9642L348.875 4.19639C345.58 2.29456 342.366 2.3213 339.125 4.19639L320.187 14.9642C317.991 16.2231 316.812 17.9107 316.812 20.8838V42.0981C316.812 45.9821 318.179 47.4285 320.67 48.8482ZM344 29.7499L323.589 18.2053L341.027 8.24096C343.062 7.08919 344.884 7.06245 346.973 8.24096L364.411 18.2053L344 29.7499ZM323.187 45.0981C321.661 44.241 321.152 43.4106 321.152 41.9642V21.982L341.75 33.741V55.6517L323.187 45.0981ZM364.813 45.0981L346.25 55.6517V33.741L366.848 21.982V41.9642C366.848 43.4106 366.339 44.241 364.813 45.0981Z" fill="black"/>
</svg>
