<svg width="2170" height="1552" viewBox="0 0 2170 1552" fill="none" xmlns="http://www.w3.org/2000/svg">
<mask id="mask0_101_6" style="mask-type:luminance" maskUnits="userSpaceOnUse" x="0" y="0" width="2170" height="1552">
<path d="M2170 0H0V1552H2170V0Z" fill="white"/>
</mask>
<g mask="url(#mask0_101_6)">
<g opacity="0.76">
<mask id="mask1_101_6" style="mask-type:luminance" maskUnits="userSpaceOnUse" x="7" y="-5" width="2283" height="1557">
<path d="M2289.95 -4.57861H7.55579V1552H2289.95V-4.57861Z" fill="white"/>
</mask>
<g mask="url(#mask1_101_6)">
<g opacity="0.3">
<path opacity="0.1091" d="M1759.68 556.668C1748.42 554.299 1737.17 551.903 1725.91 549.485C1684.78 540.272 1643.85 531.792 1602.38 523.7C1498.13 503.372 1391.17 495.963 1284.93 489.702C1179.27 483.472 1073.1 482.858 967.273 480.654C847.906 478.167 728.538 476.262 609.145 475.628C490.081 475.014 371.187 478.506 252.332 484.313C223.171 486.278 194.006 488.119 164.837 489.835C147.291 490.884 129.74 491.763 112.193 492.887C79.9034 494.963 48.2345 499.275 16.7739 505.942C4.9126 508.717 -6.64044 512.277 -17.881 516.62C-23.0457 518.945 -28.2147 521.266 -33.3835 523.594C-43.0792 527.785 -51.6332 533.372 -59.02 540.341C-57.2015 538.692 -55.3787 537.035 -53.5558 535.387C-58.2127 541.082 -63.3643 546.393 -69.0063 551.307C-76.7358 554.731 -84.2223 558.216 -91.5786 562.249C-92.4032 555.631 -93.2235 549.019 -94.0524 542.411C-81.805 552.651 -69.5532 562.894 -57.3013 573.134C-79.201 560.389 -101.096 547.638 -122.983 534.89C-59.1545 547.654 2.50391 567.957 65.0693 584.83C92.0425 592.097 119.198 598.857 146.297 605.742C162.62 609.861 178.908 614.092 195.156 618.428C239.507 632.74 284.079 646.513 328.863 659.739C483.918 706.581 638.592 754.454 793.265 802.306C969.317 856.775 1144.67 912.852 1318.8 971.992C1436.77 1012.05 1551.61 1058.88 1663.79 1110.36C1722.92 1137.5 1778.75 1169.43 1833.67 1202.68C1881.6 1231.69 1924.86 1265.93 1968.92 1299.26C1985.75 1311.99 2002.15 1325.03 2018.52 1338.24C2031.75 1345.07 2044.27 1352.81 2056.08 1361.45C2068.6 1369.69 2080.87 1378.21 2092.91 1387C2104.83 1395.8 2116.46 1404.88 2127.82 1414.23C2139.72 1422.67 2149.6 1432.68 2157.45 1444.26C2164.95 1454.78 2172.58 1465.22 2180.36 1475.58C2187.54 1485.33 2194.14 1495.38 2200.16 1505.73C2209.03 1521.08 2216.53 1536.94 2222.65 1553.3C2226.98 1565.21 2232.45 1580.16 2217 1587.62C2211.94 1590.75 2206.4 1592.82 2200.36 1593.84C2183.84 1590.67 2167.13 1588.63 2150.21 1587.73C2157.04 1587.92 2163.87 1588.1 2170.7 1588.29C2145.12 1589.94 2119.53 1591.58 2093.94 1593.24C2103.59 1592.49 2113.25 1591.75 2122.91 1591.02C2081.28 1596.66 2039.69 1602.51 1998.13 1608.56C1966.66 1613.05 1933.77 1614.49 1902.04 1616.75C1875.71 1618.15 1849.38 1619.37 1823.03 1620.41C1783.19 1622.13 1743.59 1624.78 1703.9 1628.17C1710.73 1627.35 1717.54 1626.52 1724.36 1625.69C1631.34 1639.7 1538.67 1655.33 1445.59 1669.04C1353.29 1682.62 1260.73 1694.93 1168.29 1707.75C957.018 1737.04 745.829 1766.79 534.488 1795.69C490.007 1801.88 445.705 1809.02 401.61 1817.11C358.432 1825.16 315.552 1834.33 272.986 1844.63C189.072 1863.77 107.068 1889.42 25.5883 1915.3C-49.4155 1939.12 -122.64 1967.25 -195.726 1995.27C-235.645 2010.8 -275.438 2026.57 -315.119 2042.58C-335.04 2050.66 -354.96 2058.73 -374.885 2066.8C-407.266 2079.06 -439.668 2091.25 -472.097 2103.38C-463.235 2099.89 -454.359 2096.4 -445.497 2092.91C-499.387 2115.22 -553.58 2136.86 -607.874 2158.41C-638.297 2170.71 -668.499 2183.44 -698.463 2196.61C-742.327 2217.44 -787.224 2236.37 -833.167 2253.4C-842.564 2258.55 -852.893 2260.07 -864.133 2257.95C-883.524 2257.09 -902.777 2255.14 -921.886 2252.08C-933.387 2251.89 -943.061 2248.34 -950.894 2241.44C-951.676 2238.89 -952.444 2236.34 -953.208 2233.8C-951.341 2227.24 -946.459 2223.53 -938.59 2222.68C-913.405 2216.42 -888.212 2210.16 -863.027 2203.89C-869.528 2205.97 -876.016 2208.04 -882.5 2210.11C-831.609 2187.09 -781.278 2163.25 -730.058 2140.82C-691.792 2124.08 -651.925 2109.41 -612.93 2094.06C-558.385 2072.61 -502.937 2052.72 -447.919 2032.28C-432.538 2026.26 -417.148 2020.24 -401.763 2014.23C-366.999 2000.19 -331.802 1987.07 -296.175 1974.84C-168.336 1928.77 -40.5923 1882.83 89.0912 1840.95C150.211 1821.22 212.317 1804.04 274.435 1787C358.254 1764.01 443.687 1746.45 529.406 1730.17C597.561 1717.24 666.789 1709.23 735.608 1699.74C806.12 1690.02 876.615 1680.18 947.096 1670.37C1111.38 1647.53 1275.66 1624.81 1440.29 1604.04C1510 1595.24 1579.82 1588.21 1649.86 1582C1672.59 1580.43 1695.33 1578.86 1718.05 1577.29C1754.63 1575.09 1791.17 1572.44 1827.66 1569.36C1867.65 1566.16 1908.05 1565.82 1948.17 1564.92C2000.5 1563.75 2052.87 1563.36 2105.21 1562.99C2079.23 1565.91 2053.26 1568.82 2027.28 1571.74C2041.71 1570.04 2054.67 1565.04 2066.17 1556.73C2075.57 1549.28 2085 1541.82 2094.41 1534.36C2115.22 1513.29 2139.95 1496.92 2168.62 1485.27C2177.88 1517.73 2187.15 1550.21 2196.41 1582.67C2189.06 1572.44 2180.81 1562.79 2171.69 1553.74C2165.81 1548.47 2159.94 1543.19 2154.06 1537.92C2141.97 1529.16 2131.25 1519.26 2121.9 1508.23C2108.73 1494.25 2094.44 1481.03 2080.7 1467.51C2063.17 1450.28 2045.79 1433.24 2028.72 1415.6C2033.43 1420.06 2038.13 1424.52 2042.85 1428.98C2007.01 1403.17 1972.28 1376.71 1937.72 1349.52C1900.06 1319.89 1858.26 1294.67 1816.78 1269.54C1775.67 1244.64 1731.42 1223.93 1687.58 1203.18C1641.97 1181.58 1594.13 1163.75 1546.64 1145.76C1494.59 1126.06 1440.95 1109.4 1387.87 1092.08C1366.24 1084.59 1344.6 1077.1 1322.98 1069.6C1279.62 1054.75 1236.16 1040.14 1192.61 1025.75C1127.24 1003.98 1061.49 983.098 995.787 962.146C863.92 920.109 731.411 879.657 599.063 838.862C466.888 798.122 335.004 756.643 202.73 716.17C153.705 701.174 104.246 687.346 55.3694 671.966C30.5576 664.156 6.86121 654.655 -16.7006 644.324C-23.0978 640.851 -29.5079 637.378 -35.9138 633.901C-58.9765 618.592 -81.9959 603.221 -104.963 587.785C-96.8821 592.54 -88.7924 597.29 -80.7112 602.036C-101.595 590.529 -122.488 579.023 -143.377 567.51C-134.948 571.756 -126.52 576.012 -118.096 580.264C-132.622 573.795 -147.148 567.333 -161.683 560.867C-176.044 555.038 -189.098 547.411 -200.838 537.978C-203.334 535.523 -205.829 533.077 -208.329 530.628C-210.751 525.115 -209.071 520.903 -203.264 517.995C-194.801 512.06 -185.479 508.065 -175.801 503.915C-177.641 505.607 -179.477 507.305 -181.312 508.993C-176.721 503.307 -171.595 498.039 -165.914 493.206C-161.926 490.124 -157.933 487.042 -153.944 483.966C-144.301 480.871 -135.005 477.115 -126.051 472.68C-114.841 468.402 -103.323 464.916 -91.5048 462.228C-73.0772 457.343 -53.5559 455.328 -34.5728 452.994C-4.56165 449.303 25.9659 448.49 56.1897 447.068C85.2808 445.538 114.376 443.881 143.458 442.099C214.713 437.986 286.179 436.987 357.551 435.81C475.907 433.858 594.402 436.71 712.715 439.371C824.205 441.875 935.695 444.148 1047.17 447.208C1089.5 448.45 1131.81 450.179 1174.09 452.389C1237.83 455.359 1301.13 461.468 1364.47 468.132C1449.03 477.031 1532.31 494.28 1614.49 513.637C1613.42 513.404 1612.35 513.177 1611.29 512.945C1621.47 515.117 1631.66 517.29 1641.86 519.454C1646.03 520.59 1650.16 521.831 1654.26 523.182C1669.79 528.049 1685.33 532.931 1700.84 537.848C1716.37 542.743 1731.88 547.66 1747.39 552.601C1751.54 553.849 1755.64 555.209 1759.68 556.668Z" fill="#EDEDED"/>
<path opacity="0.1091" d="M2288.2 431.136C2215.52 406.592 2143.34 380.922 2070.24 357.353C2050.88 351.192 2031.4 345.291 2011.82 339.664C1972.04 327.924 1931.86 320.698 1890.82 312.861C1848.63 305.541 1806.2 299.458 1763.54 294.615C1700.28 286.489 1636.21 283.149 1572.49 279.387C1508.97 275.638 1445.19 274.573 1381.56 273.018C1314.99 271.388 1248.37 270.28 1181.8 269.011C1133.84 268.11 1085.88 267.31 1037.93 266.608C1016.2 266.372 994.484 266.139 972.754 265.91C941.215 268.287 909.646 270.252 878.042 271.801C842.068 273.288 806.081 274.806 770.106 276.342C707.676 278.996 645.444 283.457 583.183 288.246C555.949 290.344 528.711 292.21 501.508 294.653C481.922 296.41 462.539 299.281 443.196 302.453C425.97 305.271 409.6 309.862 393.095 314.925C398.294 312.786 403.507 310.638 408.71 308.487C398.841 312.581 388.981 316.672 379.116 320.754C384.332 318.557 389.554 316.365 394.77 314.171C391.507 324.271 385.253 331.752 376.013 336.591C373.118 337.867 371.143 339.872 370.076 342.594C364.603 310.256 359.13 277.922 353.666 245.582C383.951 258.562 413.996 271.928 444.303 284.875C470.586 296.096 498.205 305.107 525.339 314.528C517.393 311.781 509.455 309.049 501.508 306.308C558.813 325.295 616.635 342.914 674.375 360.79C698.605 368.295 722.648 376.201 746.618 384.34C833.878 413.97 920.752 444.548 1007.85 474.545C1301.42 575.676 1594.35 678.757 1881.73 793.149C2000.19 840.295 2114.78 895.075 2226.23 954.004C2273.67 979.081 2319.16 1006.86 2364.54 1034.71C2404.93 1060.5 2444.84 1086.88 2484.25 1113.85C2504.52 1128.63 2525.26 1142.86 2546.46 1156.55C2589.99 1185.11 2634.05 1212.95 2676.94 1242.27C2692.77 1253.08 2708.07 1264.42 2723.25 1275.95C2752.65 1298.28 2782.87 1319.55 2809 1344.93C2811.47 1352.02 2813.95 1359.12 2816.42 1366.21C2816.43 1384.36 2810.25 1400.65 2797.88 1415.11C2795.7 1418.53 2793.51 1421.95 2791.32 1425.37C2797.07 1408.95 2802.82 1392.52 2808.55 1376.1C2810.01 1384.35 2811.79 1392.55 2813.87 1400.69C2815.03 1413.29 2815.18 1425.91 2814.29 1438.54C2814.51 1445.67 2812.28 1452.13 2807.61 1457.94C2802.12 1465.52 2796.64 1473.1 2791.16 1480.68C2784.61 1487.26 2776.75 1492.27 2767.59 1495.69C2750.15 1502.19 2732.28 1507.58 2713.97 1511.88C2688.89 1517.83 2663.79 1522.6 2638.32 1527.1C2551.73 1542.38 2464.04 1551.6 2376.45 1560.99C2289.59 1570.31 2202.61 1578.7 2115.69 1587.53C2001.41 1599.15 1887.22 1611.44 1773.05 1623.98C1658.21 1636.59 1543.26 1648.83 1428.89 1664.51C1330.64 1677.98 1235.15 1702.18 1140.81 1729.42C1155.21 1725.19 1169.61 1720.94 1184.01 1716.7C1150.67 1726.62 1117.77 1737.58 1085.31 1749.55C1040.97 1765.1 998.724 1785.3 956.64 1804.99C930.126 1817.84 903.826 1830.99 877.725 1844.48C842.424 1862.44 807.279 1880.51 773.166 1900.19C752.777 1911.64 732.305 1922.97 711.755 1934.19C699.798 1939.88 687.846 1945.58 675.885 1951.27C648.504 1963.25 620.845 1974.73 592.935 1985.72C548.185 2003.83 503.635 2022.11 459.388 2041.2C439.85 2045.66 420.315 2050.13 400.768 2054.59C318.247 2069.86 234.85 2079.34 150.558 2083.02C125.586 2084.1 100.614 2085.17 75.65 2086.25C4.76474 2084.92 -65.7559 2079.72 -135.916 2070.66C-177.563 2071.13 -213.346 2059.53 -243.288 2035.86C-257.58 2017.55 -255.982 2000.41 -238.471 1984.45C-218.025 1960.82 -197.588 1937.2 -177.138 1913.59C-148.585 1900.31 -119.676 1887.67 -90.4245 1875.67C-48.9905 1858.11 -6.74493 1841.99 34.8887 1824.79C49.623 1819.58 64.3486 1814.36 79.0699 1809.14C107.966 1799.33 136.827 1789.41 165.644 1779.4C245.27 1751.88 324.783 1724.07 404.483 1696.7C557.564 1644.12 713.778 1598.22 871.975 1559.41C1025.94 1521.66 1185.35 1505.09 1343.07 1485.12C1483.03 1467.38 1623.02 1449.9 1763.06 1432.75C1919.8 1413.54 2076.69 1395.26 2233.32 1375.33C2278.46 1369.59 2323.27 1363.28 2368.55 1358.51C2410.46 1354.1 2452.52 1350.95 2494.41 1346.38C2520.82 1343.49 2546.62 1338.62 2572.46 1333.17C2588.06 1329.62 2603.27 1325.04 2618.07 1319.44C2634.27 1312.08 2651.26 1306.65 2669.05 1303.16C2658.54 1330.87 2648.03 1358.6 2637.53 1386.31C2630.3 1376.36 2622.18 1367.03 2613.14 1358.3C2598.47 1343.23 2582.76 1329.02 2566.04 1315.69C2573.4 1321.66 2580.78 1327.62 2588.14 1333.59C2552.11 1305.72 2514.96 1279.15 2477.31 1253.04C2457.99 1239.64 2438.5 1226.42 2419.09 1213.12C2413.63 1209.3 2408.17 1205.5 2402.71 1201.68C2373.81 1179.79 2344.23 1158.63 2313.99 1138.2C2323.64 1144.72 2333.29 1151.24 2342.94 1157.77C2312.72 1137.79 2281.99 1118.47 2250.75 1099.79C2220.27 1081.58 2189.36 1063.99 2157.98 1047.03C2097.19 1013.31 2033.62 983.632 1970.04 954.352C1904.17 924.004 1836.47 896.77 1768.78 869.827C1660.35 826.675 1550.6 786.211 1440.68 746.198C1448.83 749.1 1457 752.012 1465.15 754.917C1331.5 707.814 1197.36 661.909 1062.91 616.612C999.063 595.101 935.139 573.761 871.246 552.347C828.319 537.966 785.405 523.554 742.521 509.086C713.413 498.651 684.075 488.752 654.519 479.387C591.941 459.242 528.19 442 465.447 422.252C428.991 410.776 393.082 397.985 357.307 384.951C340.316 378.749 323.959 371.433 308.231 363C294.421 357.341 282.434 349.544 272.256 339.62C262.917 326.112 259.167 311.365 260.985 295.382C260.404 279.334 265.295 264.851 275.659 251.945C288.592 243.971 302.628 239.352 317.162 233.609C310.826 236.117 304.49 238.625 298.162 241.133C308.148 228.615 321.316 220.526 337.669 216.857C344.404 214.957 351.144 213.058 357.876 211.152C368.478 206.611 379.463 203.007 390.855 200.341C427.997 189.905 467.665 186.429 506.256 183.073C523.126 181.605 540.047 180.64 556.947 179.637C606.545 176.694 656.012 173.32 705.644 170.766C769.264 167.494 832.976 166.849 896.678 166.467C942.101 166.197 986.859 168.928 1032.18 171.442C1030.04 171.411 1027.92 171.38 1025.78 171.356C1166.34 172.945 1306.86 175.748 1447.38 178.644C1511.07 179.96 1574.67 182.235 1638.31 185.013C1702.25 187.797 1765.78 193.779 1829.35 200.238C1893.56 206.766 1956.76 218.515 2019.86 230.561C2049.24 236.17 2077.98 245.392 2106.43 253.792C2190.1 278.478 2271.64 308.95 2354.01 336.762C2355.99 337.435 2322.27 385.994 2322.98 384.985C2314.36 397.448 2305.55 409.808 2296.57 422.059C2294.54 425.7 2291.75 428.724 2288.2 431.136Z" fill="#EDEDED"/>
<path opacity="0.1091" d="M1674.48 -238.788C1610.8 -242.029 1547.21 -244.614 1483.46 -246.452C1395.73 -248.994 1307.88 -249.785 1220.1 -251.176C1051.73 -253.852 883.533 -253.256 715.236 -247.6C620.095 -244.403 525.127 -236.997 430.276 -229.898C404.275 -227.955 378.656 -224.429 353.072 -219.934C328.612 -215.642 305.974 -207.661 283.936 -197.545C285.507 -198.343 287.074 -199.144 288.649 -199.938C281.805 -195.105 274.969 -190.266 268.134 -185.433C269.926 -186.709 271.727 -187.979 273.528 -189.261C269.449 -185.992 265.378 -182.72 261.307 -179.464C257.227 -173.365 252.011 -168.256 245.67 -164.124C235.766 -159.503 226.222 -155.045 217.603 -148.673C216.952 -154.735 216.288 -160.791 215.637 -166.853C229.499 -156.718 244.177 -147.62 259.666 -139.553C253.812 -142.719 247.953 -145.885 242.098 -149.054C258.581 -140.534 275.52 -132.817 292.928 -125.88C284.148 -129.533 275.364 -133.178 266.589 -136.825C284.773 -129.561 303.24 -122.913 321.985 -116.878C312.936 -119.961 303.887 -123.046 294.838 -126.128C360.515 -105.707 427.451 -89.4142 494.313 -72.4043C533.881 -62.338 571.856 -49.9283 610.699 -37.5433C699.174 -9.35898 788.005 17.9593 876.797 45.3676C1031.25 93.0575 1185.81 140.465 1339.82 189.306C1496.66 239.051 1652.26 291.8 1806.81 346.865C1853.79 363.602 1899.8 382.155 1945.71 401.015C1999.52 423.128 2051.63 447.528 2103.19 473.493C2152.4 498.275 2199.03 527.059 2244.88 556.37C2292.14 586.584 2333.87 622.485 2376.99 657.02C2417.29 689.283 2458.66 720.351 2497.96 753.614C2536.97 786.634 2572.81 823.134 2596.93 866.161C2598.56 872.671 2596.17 877.656 2589.76 881.126C2577.26 883.792 2564.75 886.465 2552.25 889.134C2535.67 891.76 2519.08 894.374 2502.49 896.99C2476.54 900.371 2450.5 902.807 2424.35 904.297C2397.75 905.818 2371.14 906.802 2344.49 907.249C2290.57 908.699 2236.58 908.394 2182.64 909.546C2155.74 910.245 2128.89 911.607 2102.07 913.619C2065.12 916.766 2028.33 920.969 1991.7 926.221C1615 973.187 1239.69 1028.7 863.716 1079.94C867.566 1079.33 871.424 1078.72 875.269 1078.11C853.595 1081.68 831.913 1085.24 810.235 1088.8C767.295 1096.56 724.637 1105.37 682.244 1115.2C618.945 1129.1 556.774 1147.01 494.703 1164.62C474.136 1170.82 453.569 1177.01 433.006 1183.2C394.293 1196.3 356.331 1210.9 319.116 1227.02C282.464 1240.87 245.544 1254.13 208.35 1266.79C169.36 1280.22 130.334 1293.6 91.2875 1306.91C36.903 1325.5 -17.4165 1344.06 -72.4607 1361.06C-118.183 1375.18 -163.722 1389.71 -209.153 1404.54C-254.953 1419.51 -299.512 1437.23 -343.98 1455.03C-373.453 1467.22 -402.409 1480.3 -430.862 1494.27C-465.956 1508.8 -499.795 1525.33 -532.418 1543.88C-543.247 1545.94 -553.558 1544.26 -563.323 1538.82C-581.217 1532.13 -598.547 1524.43 -615.304 1515.72C-626.062 1512.03 -633.753 1505.72 -638.384 1496.79C-639.773 1490.59 -637.26 1486.14 -630.845 1483.42C-608.594 1468.41 -586.347 1453.39 -564.096 1438.38C-529.103 1414.81 -491.909 1394.51 -452.493 1377.5C-394.15 1349.88 -332.231 1328.09 -270.846 1306.52C-224.968 1290.39 -177.914 1276.64 -131.389 1262.06C-58.6812 1239.29 13.762 1215.92 86.2531 1192.6C136.029 1176.59 185.908 1161.56 236.621 1148.07C268.82 1142.63 300.484 1135.3 331.602 1126.08C372.559 1113.49 413.741 1101.54 455.175 1090.24C517.406 1072.72 580.714 1058.72 644.091 1044.98C713.752 1029.86 784.65 1020.19 855.453 1010.54C1184.49 965.701 1513.03 918.125 1842.43 875.405C1902.64 867.592 1962.8 859.606 2023.31 853.823C2076.82 848.72 2131.19 849.034 2184.93 848.416C2225.24 847.941 2265.51 847.463 2305.82 846.37C2332.24 845.504 2358.61 843.89 2384.91 841.544C2410.78 839.228 2436.45 835.77 2461.93 831.164C2458.08 831.772 2454.23 832.384 2450.38 832.992C2462.88 830.326 2475.38 827.656 2487.88 824.99C2485.49 829.975 2483.1 834.966 2480.71 839.961C2475.72 829.959 2469.73 820.461 2462.73 811.453C2464.91 814.337 2467.09 817.224 2469.27 820.111C2427.93 769.441 2375.69 727.767 2323.1 686.508C2301.98 669.945 2280.67 653.6 2259.75 636.85C2234.7 615.352 2208.69 594.819 2181.7 575.264C2143.48 546.363 2101.42 521.695 2059.67 497.105C2065.51 500.312 2071.35 503.509 2077.2 506.709C2049.42 491.034 2021.08 476.197 1992.18 462.204C1963.19 448.177 1933.77 434.864 1903.94 422.271C1912.72 425.918 1921.5 429.565 1930.28 433.216C1884.32 414.325 1838.12 396.384 1791.38 379.066C1732.55 357.258 1672.81 337.231 1613.35 316.8C1622.4 319.885 1631.45 322.968 1640.5 326.053C1466.22 267.332 1290.67 211.863 1114.66 157.382C1026.21 129.998 937.661 102.875 849.186 75.5572C804.796 61.8313 760.446 48.0247 716.13 34.1343C663.725 17.7669 611.758 0.10202 558.831 -14.8996C522.84 -25.0931 486.158 -33.564 449.815 -42.7083C410.685 -52.5542 372.064 -63.4896 333.694 -75.4214C315.266 -81.6977 296.834 -87.9895 278.402 -94.2751C260.27 -100.843 242.406 -107.942 224.812 -115.559C207.317 -122.487 190.565 -130.62 174.555 -139.941C168.7 -143.11 162.845 -146.28 156.991 -149.449C137.048 -159.161 120.899 -172.626 108.552 -189.844C106.278 -195.006 108.023 -198.653 113.79 -200.776C122.344 -206.991 131.81 -211.277 141.618 -215.722C139.778 -214.363 137.947 -213.006 136.102 -211.647C142.261 -219.742 149.708 -226.763 158.44 -232.704C163.462 -236.28 168.505 -239.843 173.565 -243.382C180.136 -246.818 186.889 -249.966 193.816 -252.824C205.065 -257.229 216.644 -260.842 228.531 -263.667C253.2 -270.458 279.561 -272.885 305.08 -275.564C333.95 -278.597 363.128 -279.565 392.106 -281.415C440.198 -285.062 488.354 -287.986 536.563 -290.19C584.233 -292.375 631.913 -293.965 679.622 -294.967C773.449 -297.528 867.401 -296.715 961.249 -296.249C1054.55 -295.781 1147.83 -293.99 1241.12 -292.363C1283.54 -291.702 1325.96 -290.886 1368.37 -289.905C1432.07 -288.551 1495.54 -285.478 1559.09 -281.57C1563.12 -280.077 1567.15 -278.584 1571.18 -277.091C1586.38 -271.455 1601.58 -265.821 1616.78 -260.181C1631.98 -254.544 1647.19 -248.91 1662.39 -243.273C1666.42 -241.777 1670.45 -240.284 1674.48 -238.788Z" fill="#EDEDED"/>
<path opacity="0.1091" d="M1861 291.316C1849.11 287.467 1837.39 283.254 1825.82 278.688C1787.04 257.423 1761.7 224.129 1749.79 178.799C1773.13 203.385 1796.48 227.972 1819.82 252.565C1781.33 235.332 1742.84 218.089 1704.36 200.862C1743.68 204.264 1782.99 207.675 1822.3 211.077C1771.41 222.394 1720.25 227.143 1668.81 225.315C1654.97 224.347 1641.24 222.674 1627.62 220.315C1591.6 213.995 1555.42 208.439 1519.1 203.643C1481.77 198.643 1444.35 194.331 1406.82 190.73C1328.56 182.458 1249.64 179.062 1170.97 175.577C1087.52 171.871 1003.92 170.176 920.392 168.205C830.858 166.088 741.332 164.989 651.776 164.564C564.286 164.16 476.861 166.286 389.449 169.31C338.584 171.073 287.919 175.195 237.098 177.663C214.864 178.733 192.739 180.41 170.626 182.645C178.855 181.813 187.101 180.978 195.351 180.149C174.19 182.66 153.701 185.972 133.22 191.348C139.543 188.387 145.875 185.423 152.199 182.458C145.138 190.867 138.072 199.276 131.002 207.678C114.879 177.346 98.7561 147.007 82.6373 116.681C109.016 118.702 135.394 120.726 161.782 122.75C148.41 122.07 135.03 121.396 121.65 120.72C152.095 120.655 182.548 120.596 212.994 120.533C197.66 120.698 182.323 120.856 166.994 121.024C201.97 118.91 236.95 116.79 271.926 114.682C254.523 115.794 237.124 116.905 219.721 118.025C259.879 113.568 300.045 109.117 340.199 104.663C320.612 106.851 301.017 109.036 281.427 111.231C326.415 104.365 371.404 97.4956 416.383 90.6326C394.445 94.0098 372.506 97.3931 350.576 100.767C399.948 91.4769 449.324 82.1711 498.7 72.8809C474.231 77.5679 449.771 82.2487 425.302 86.9326C478.419 75.3051 531.541 63.6837 584.654 52.0499C557.59 58.1275 530.525 64.1959 503.461 70.2673C587.258 48.7286 671.042 27.1931 754.83 5.65442C722.939 14.535 691.049 23.4124 659.154 32.2899C717.08 15.7486 774.997 -0.798798 832.906 -17.34C799.011 -7.14026 765.107 3.05948 731.211 13.253C841.873 -20.1615 952.321 -53.961 1062.72 -88.0274C1123.3 -108.269 1186.37 -119.977 1251.9 -123.143C1276.71 -127.355 1301.51 -131.561 1326.3 -135.767C1367.3 -142.378 1408.45 -148.171 1449.73 -153.146C1515.38 -161.685 1581.6 -167.282 1647.59 -173.273C1715.04 -179.384 1782.58 -184.286 1850.27 -187.644C1906.96 -190.456 1963.99 -191.332 2020.75 -190.354C2035.9 -188.082 2051.02 -187.92 2066.12 -189.876C2081.89 -191.152 2098.47 -185.794 2112.97 -181.216C2143.75 -171.491 2163.19 -138.793 2179.95 -118C2187.32 -108.498 2193.5 -98.4165 2198.48 -87.7573C2201.18 -81.4438 2203.89 -75.1396 2206.59 -68.8323C2223.14 -23.8801 2233.76 22.354 2238.43 69.8793C2234.01 48.7317 2229.59 27.5749 2225.16 6.42111C2234.9 50.2496 2245.55 93.5535 2251.66 137.844C2253.56 151.58 2254.62 165.42 2256.15 179.19C2260.41 222.326 2264.67 265.465 2268.93 308.602C2276.11 431.852 2278.93 555.18 2277.38 678.589C2275.09 721.847 2272.8 765.101 2270.51 808.352C2260.54 847.754 2247.35 886.265 2230.94 923.911C2221.64 931.239 2212.34 938.558 2203.03 945.884C2179.46 952.408 2155.51 957.465 2131.16 961.047C2118.78 962.478 2106.4 963.918 2094.02 965.349C2068.89 967.587 2043.71 969.124 2018.47 969.943C1967.42 972.327 1916.14 972.106 1865.04 973.382C1826.79 974.341 1788.91 977.349 1750.9 980.993C1728.37 983.793 1705.82 986.587 1683.29 989.393C1639.63 994.899 1596.01 1000.69 1552.44 1006.78C1398.9 1027.71 1245.9 1051.93 1092.95 1076.03C961.097 1096.8 829.365 1118.25 697.585 1139.43C675.568 1142.96 653.56 1146.49 631.539 1150.02C590.074 1156.71 549.3 1165.86 509.22 1177.45C428.626 1198.08 349.053 1221.61 269.891 1246.16C281.817 1242.34 293.735 1238.53 305.657 1234.71C286.084 1241.14 266.519 1247.59 246.95 1254.02C207.213 1268.33 167.688 1283.09 128.377 1298.31C48.972 1328.51 -30.0855 1359.37 -108.969 1390.63C-163.423 1412.22 -217.578 1434.28 -272.596 1454.71C-302.49 1466.21 -332.514 1477.41 -362.681 1488.34C-389.429 1497.94 -416.636 1506.43 -444.269 1513.8C-431.314 1509.47 -418.351 1505.14 -405.391 1500.82C-435.051 1510.53 -464.25 1521.22 -492.986 1532.9C-537.301 1550 -579.612 1570.64 -621.753 1591.52C-656.17 1615.61 -673.655 1608.21 -674.215 1569.31C-659.342 1488.7 -629.435 1412.29 -584.494 1340.09C-513.366 1198.7 -438.293 1058.99 -359.274 920.94C-324.346 844.498 -276.276 775.779 -215.065 714.788C-255.848 758.98 -296.631 803.177 -337.41 847.372C-300.272 777.607 -245.488 725.776 -173.062 691.88C-145.265 677.211 -117.016 663.252 -88.3283 650.001C-61.0731 637.244 -33.2147 625.644 -4.74426 615.202C8.21069 610.869 21.1743 606.539 34.1335 602.206C59.1623 592.922 84.9636 585.907 111.555 581.167C134.787 576.278 158.075 571.625 181.424 567.211C212.156 559.607 242.918 552.101 273.71 544.689C319.007 533.713 364.516 523.408 410.012 513.084C472.013 499.017 533.381 483.615 594.64 467.166C641.521 454.583 689.118 444.001 736.467 432.942C769.277 425.343 801.845 417 834.165 407.88C868.121 397.339 902.516 388.008 937.322 379.91C1179.38 318.82 1422.44 259.229 1669.55 216.341C1716.03 208.271 1762.91 201.951 1809.91 196.969C1852.66 192.438 1896.21 192.326 1939.19 191.022C1960.73 190.42 1982.25 189.417 2003.75 188.024C2025.01 186.67 2046.12 184.324 2067.11 180.996C2088.08 177.61 2108.52 172.544 2128.44 165.784C2152.46 156.292 2177.11 148.333 2202.39 141.911C2206.3 400.362 2210.19 658.804 2214.09 917.246C2203.93 897.098 2193.77 876.957 2183.61 856.802C2176.47 846.748 2168.93 836.918 2160.99 827.333C2149.16 812.474 2135.92 798.528 2122.73 784.622C2109.82 771.017 2096.15 757.924 2083.01 744.503C2061.8 722.849 2040.81 701.016 2019.65 679.322C2027.95 687.501 2036.24 695.677 2044.54 703.853C2024.72 685.35 2003.9 667.793 1982.07 651.181C1951.56 626.771 1917.08 606.651 1882.9 586.667C1849.13 566.926 1812.37 551.347 1776.08 535.715C1738.59 519.556 1699.17 506.947 1660.13 494.168C1646.96 490.223 1633.78 486.287 1620.61 482.342C1583.25 470.717 1545.72 459.546 1508.01 448.831C1450.77 432.181 1392.86 417.341 1335.04 402.377C1215.72 371.492 1095.16 344.319 974.62 317.445C986.525 319.934 998.429 322.414 1010.34 324.898C968.423 316.343 926.455 308.012 884.422 299.92C818.137 286.958 751.54 275.805 684.717 265.233C634.841 258.376 584.901 251.944 534.896 245.951C524.627 245.795 514.372 245.634 504.108 245.482C479.73 245.578 455.356 246.208 431.005 247.378C403.211 249.588 375.448 252.016 347.711 254.673C295.762 259.385 243.907 261.945 191.741 263.575C175.457 263.494 159.173 263.42 142.881 263.339C113.833 262.88 84.9506 260.623 56.2719 256.591C45.079 254.276 33.8818 251.963 22.6933 249.651C4.89056 246.484 -10.6466 239.519 -23.9097 228.739C-40.5753 219.359 -49.9106 205.834 -51.933 188.179C-55.9606 170.793 -51.6162 155.401 -38.8827 142.022C-25.8193 131.484 -7.71716 126.9 8.21936 120.49C-0.738403 124.345 -9.7005 128.194 -18.6539 132.043C-12.4738 124.95 -5.15656 118.935 3.29779 114.003C11.1315 110.678 18.9608 107.345 26.7946 104.02C38.8207 100.547 50.4953 96.3223 61.814 91.3434C77.2644 85.0641 95.2927 82.2736 111.78 79.1882C131.905 75.4137 152.542 73.6848 172.948 71.6703C199.948 69.007 226.955 67.3464 254.085 66.0924C258.169 65.8751 262.266 65.6578 266.358 65.4437C309.875 62.498 353.44 60.1917 397.044 58.528C463.572 55.4892 530.221 54.9584 596.823 54.2444C710.644 53.0246 824.539 55.6661 938.307 58.3541C1068.3 61.4333 1198.12 66.4897 1327.74 75.6962C1391.92 80.2498 1455.51 88.5157 1519.09 97.2317C1583.17 106.025 1645.81 120.76 1708.36 135.56C1734.61 141.774 1759.44 153.169 1783.69 163.775C1793.41 165.281 1803.14 166.792 1812.86 168.288C1824.42 172.861 1836.14 177.067 1848.03 180.912C1852.33 183.362 1854.5 187.055 1854.53 192.009C1857.33 206.43 1859.49 220.932 1861.02 235.515C1862.91 250.054 1864.16 264.643 1864.77 279.272C1865.9 284.117 1864.64 288.131 1861 291.316Z" fill="#EDEDED"/>
<path opacity="0.1091" d="M1311 -275.918C1268.72 -279.509 1226.38 -282.294 1183.98 -284.265C1141.66 -286.236 1099.33 -287.701 1056.97 -288.669C970.549 -291.149 884.031 -291.925 797.583 -293.254C702.511 -294.716 607.443 -294.586 512.358 -293.962C417.49 -293.341 322.757 -289.889 228.045 -285.429C231.395 -285.587 234.759 -285.748 238.109 -285.907C173.751 -281.828 109.489 -276.744 45.1703 -272.246C13.1671 -270.008 -18.376 -266.252 -49.8193 -260.572C-43.1574 -261.82 -36.4955 -263.058 -29.8423 -264.297C-36.0181 -262.887 -42.2026 -261.472 -48.3871 -260.06C-29.7685 -264.824 -11.1499 -269.595 7.46436 -274.36C1.54028 -272.65 -4.38818 -270.942 -10.3123 -269.232C-3.93683 -271.346 2.44733 -273.457 8.81842 -275.567C-2.39178 -272.038 -13.129 -267.599 -23.3887 -262.251C-20.546 -264.008 -17.7032 -265.762 -14.8693 -267.509C-22.3036 -259.374 -30.4933 -251.89 -39.438 -245.064C-44.2641 -238.114 -50.2577 -232.124 -57.436 -227.095C-67.1446 -222.374 -76.493 -217.83 -84.8779 -211.377C-83.5281 -217.749 -82.1914 -224.115 -80.8547 -230.485C-73.711 -225.366 -66.5804 -220.248 -59.4368 -215.132C-44.1339 -205.684 -28.2104 -197.163 -11.6533 -189.586C22.9235 -172.437 61.4019 -161.036 98.626 -149.464C94.8372 -150.619 91.0527 -151.77 87.2683 -152.925C152.247 -134.239 218.206 -118.688 283.649 -101.343C318.039 -92.2264 352.147 -80.5212 385.726 -69.8249C474.205 -41.6436 563.032 -14.3222 651.824 13.0892C806.276 60.7852 960.837 108.183 1114.85 157.028C1262.57 203.873 1409.11 253.466 1554.69 305.337C1601.65 322.071 1647.68 340.614 1693.6 359.48C1753.52 384.11 1810.6 413.341 1866.85 443.921C1909.71 467.223 1949.38 494.628 1988.88 522.077C2026.68 548.349 2060.5 578.852 2096.45 607.04C2138.05 639.66 2179.77 671.919 2219.13 706.7C2251.31 735.142 2280.01 766.865 2300.29 803.017C2302.01 810.308 2299.37 816.144 2292.34 820.517C2286.12 823.131 2279.91 825.754 2273.7 828.367C2255.48 834.395 2236.87 839.16 2217.84 842.664C2205.34 845.334 2192.84 848 2180.33 850.673C2154.86 855.279 2129.18 858.737 2103.31 861.046C2056.91 866.242 2010.36 867.869 1963.65 869.126C1923.24 870.209 1882.74 870.082 1842.31 870.557C1788.38 871.187 1734.94 874.182 1681.35 879.31C1688.17 878.584 1695 877.867 1701.83 877.141C1490.04 903.543 1278.64 932.14 1067.34 961.448C949.822 977.735 832.355 994.254 714.845 1010.6C667.847 1017.12 620.858 1023.6 573.852 1030.05C550.346 1033.25 526.845 1036.45 503.353 1039.65C459.987 1046.1 416.926 1053.84 374.16 1062.89C383.564 1060.82 392.982 1058.75 402.396 1056.69C381.26 1061.38 360.12 1066.08 338.98 1070.77C297.021 1080.63 255.335 1091.32 213.918 1102.84C223.115 1100.13 232.311 1097.42 241.521 1094.71C221.405 1100.94 201.293 1107.16 181.173 1113.4C187.527 1111.02 193.885 1108.66 200.23 1106.3C164.034 1121.2 128.338 1137.01 93.1576 1153.73C74.5304 1161.08 55.8901 1168.43 37.2628 1175.78C-1.76685 1190.08 -40.9874 1203.94 -80.412 1217.35C-120.561 1231.15 -160.737 1244.88 -200.934 1258.57C-221.228 1265.46 -241.534 1272.35 -261.833 1279.24C-296.613 1291.92 -331.984 1303.12 -367.946 1312.83C-399.063 1321.83 -430.099 1331.03 -461.06 1340.43C-507.468 1354.35 -552.704 1370.34 -597.927 1387.01C-627.968 1398.45 -657.563 1410.73 -686.736 1423.84C-701.106 1430.63 -715.48 1437.42 -729.858 1444.2C-765.281 1453.72 -799.099 1466.6 -831.336 1482.82C-837.929 1484.51 -844.521 1486.2 -851.101 1487.89C-870.131 1491.38 -889.319 1493.68 -908.71 1494.81C-920.072 1497.16 -930.466 1495.64 -939.862 1490.25C-944.988 1485.54 -945.791 1480.31 -942.254 1474.56C-902.673 1435.68 -859.828 1399.89 -813.703 1367.16C-799.094 1360.23 -784.482 1353.3 -769.882 1346.36C-740.309 1333 -710.311 1320.47 -679.861 1308.77C-603.143 1278.01 -522.58 1255.4 -443.006 1231.36C-348.711 1202.87 -254.094 1175.08 -159.53 1147.33C-123.126 1136.61 -86.4446 1126.74 -49.4548 1117.73C-33.1103 1114.4 -16.7659 1111.08 -0.425781 1107.76C48.1085 1102.05 95.944 1093.26 143.063 1081.39C133.719 1083.66 124.358 1085.92 115.005 1088.19C194.774 1067.03 274.305 1045.19 355.237 1027.74C397.57 1018.08 440.175 1009.43 483.033 1001.8C527.987 993.807 573.166 987.041 618.58 981.506C830.172 952.67 1041.54 922.574 1253.07 893.415C1347.01 880.468 1441.02 867.915 1535.06 855.512C1625.53 843.586 1715.98 831.313 1806.92 822.628C1860.43 817.513 1914.8 817.839 1968.54 817.212C1995.48 817.025 2022.41 816.706 2049.34 816.249C2089.21 815.675 2128.8 813.331 2168.52 810.339C2161.68 811.062 2154.85 811.783 2148.03 812.506C2160.97 811.053 2173.91 809.61 2186.85 808.163C2212.4 804.83 2237.64 800.149 2262.56 794.13C2235.08 807.347 2207.6 820.564 2180.12 833.778C2175.13 823.783 2169.14 814.281 2162.14 805.277C2164.09 807.806 2166.05 810.336 2168.02 812.869C2117.95 751.481 2051.91 702.609 1988.03 652.982C1978.1 645.284 1968.25 637.493 1958.51 629.603C1945.61 618.993 1932.71 608.371 1919.79 597.756C1894.24 577.611 1867.81 558.443 1840.48 540.235C1801.31 513.013 1758.63 489.972 1716.3 466.959C1674.14 444.03 1629.47 424.794 1585.18 405.425C1503.51 369.708 1417.84 341.045 1333.27 311.356C1203.45 265.78 1072.04 223.783 940.59 182.096C697.811 105.092 453.404 32.213 210.737 -45.1015C214.521 -43.9437 218.31 -42.7921 222.086 -41.6343C148.992 -62.3473 74.5825 -79.0593 1.57062 -100.061C-30.9229 -109.41 -62.5616 -120.504 -93.9484 -132.417C-111.578 -139.432 -128.608 -147.49 -145.013 -156.566C-162.221 -165.158 -177.441 -175.963 -190.704 -188.981C-192.419 -190.772 -194.142 -192.56 -195.865 -194.351C-196.498 -200.634 -193.443 -205.209 -186.681 -208.086C-178.157 -214.238 -168.722 -218.472 -158.944 -222.858C-161.639 -220.676 -164.339 -218.488 -167.043 -216.303C-160.98 -224.323 -153.619 -231.267 -144.969 -237.137C-138.351 -242.867 -130.973 -247.737 -122.862 -251.738C-112.537 -256.95 -101.752 -261.242 -90.5155 -264.626C-69.3363 -272.041 -47.493 -277.507 -25.7323 -283.411C8.57104 -292.717 44.0115 -298.909 79.4432 -303.556C109.532 -307.501 140.182 -308.572 170.51 -310.261C199.713 -312.042 228.9 -313.948 258.082 -315.975C308.708 -319.318 360.901 -320.957 411.605 -322.975C530.091 -327.696 648.882 -326.92 767.45 -326.113C882.847 -325.337 998.234 -322.764 1113.62 -320.771C1155.96 -320.048 1198.3 -318.989 1240.61 -317.602C1304.28 -315.77 1367.69 -311.471 1431.14 -306.688C1426.99 -305.481 1422.81 -304.36 1418.6 -303.32C1402.78 -299.238 1386.96 -295.172 1371.13 -291.128C1355.3 -287.068 1339.47 -283.029 1323.62 -279.003C1319.45 -277.889 1315.23 -276.862 1311 -275.918Z" fill="#EDEDED"/>
<path opacity="0.1091" d="M1651.72 100.184C1512.98 97.4864 1374.26 94.8511 1235.49 93.6964C1163.8 93.1036 1092.14 93.9479 1020.46 95.0156C923.86 96.459 827.486 101.773 731.168 108.167C695.42 110.542 659.75 112.237 624.131 115.906C604.64 117.908 585.622 121.629 566.583 125.683C542.105 130.904 520.518 141.231 498.805 152.126C500.71 150.922 502.615 149.717 504.521 148.513C500.445 151.713 496.37 154.914 492.286 158.117C488.424 164.489 483.029 169.4 476.115 172.836C468.221 176.328 460.557 179.879 453.04 183.97C455.14 182.738 457.241 181.512 459.346 180.283C457.623 181.518 455.9 182.75 454.181 183.976C448.917 149.23 443.643 114.484 438.379 79.7347C444.954 84.5241 451.521 89.3074 458.096 94.0969C473.212 103.443 488.975 111.858 505.363 119.342C539.935 136.457 578.366 147.852 615.564 159.417C687.946 181.931 763.042 197.143 836.084 217.844C880.412 232.048 924.793 246.106 969.235 260.037C1013.55 273.924 1057.9 287.728 1102.29 301.456C1190.72 328.887 1279.28 355.994 1367.77 383.275C1543.84 437.57 1719.33 493.231 1893.6 551.946C1953.23 572.035 2012.43 593.121 2071.63 614.219C2133.99 636.434 2194.82 661.493 2255.06 687.839C2314.31 713.755 2370.2 744.804 2425.16 777.175C2482.31 810.829 2533.71 851.277 2583.86 892.542C2604.51 909.536 2626.02 925.745 2647.2 942.206C2671.58 961.159 2695.45 980.562 2718.91 1000.42C2738.88 1017.31 2757.13 1035.54 2775.42 1053.83C2793.14 1071.56 2807.37 1091.02 2819.23 1112.17C2821.19 1118.01 2823.15 1123.85 2825.1 1129.7C2829.09 1146.58 2831.67 1163.62 2832.85 1180.83C2833.55 1192.67 2834.9 1208.99 2818.22 1212.55C2805.72 1215.21 2793.22 1217.88 2780.72 1220.55C2755.24 1225.16 2729.56 1228.61 2703.69 1230.92C2650.99 1236.83 2597.2 1236.65 2544.19 1237.41C2503.67 1238 2463.17 1238.27 2422.66 1239.13C2395.76 1239.83 2368.9 1241.19 2342.09 1243.21C2305.16 1246.35 2268.36 1250.55 2231.72 1255.81C1902.11 1296.9 1573.59 1344.71 1244.74 1390.23C1221.24 1393.46 1197.74 1396.69 1174.23 1399.92C1128.82 1405.46 1083.64 1412.22 1038.7 1420.21C952.834 1434.32 868.608 1455.84 784.937 1477.65C722.384 1493.96 660.887 1513.47 599.423 1532.66C527.514 1555.12 456.763 1580.21 386.199 1605.74C334.063 1624.61 281.796 1643.16 229.547 1661.75C177.476 1680.28 124.91 1697.76 72.7992 1716.21C27.4201 1732.28 -17.2645 1749.56 -61.8103 1767.35C-91.3613 1779.46 -120.435 1792.4 -149.049 1806.17C-198.941 1828.83 -248.014 1852.83 -296.261 1878.16C-299.26 1877.64 -302.264 1877.1 -305.263 1876.57C-313.647 1870.1 -318.261 1861.74 -319.107 1851.49C-323.638 1834.73 -326.884 1817.78 -328.877 1800.63C-331.888 1790.71 -330.66 1781.47 -325.166 1772.89C-307.515 1762.52 -289.856 1752.16 -272.205 1741.8C-242.628 1724.01 -211.77 1708.18 -179.65 1694.31C-121.602 1667.1 -60.2218 1645.29 0.438354 1623.23C52.3317 1604.37 104.789 1586.71 157.039 1568.66C224.955 1545.17 292.564 1521.01 360.302 1497.15C494.621 1449.86 630.463 1406.24 768.254 1367.65C830.641 1350.17 894.097 1336.21 957.634 1322.49C1046.64 1303.28 1137.66 1292.65 1228.06 1280.23C1556.99 1235.01 1885.55 1187.75 2215.04 1145.8C2238.54 1142.87 2262.04 1139.94 2285.54 1137.01C2312.13 1134.04 2338.82 1131.93 2365.59 1130.67C2419.38 1127.28 2473.64 1127.92 2527.52 1127.42C2567.64 1127.03 2607.62 1125.77 2647.68 1123.88C2673.84 1122.39 2699.89 1119.95 2725.83 1116.57C2751.39 1113.24 2776.62 1108.56 2801.54 1102.54C2801.21 1136 2800.88 1169.46 2800.55 1202.92C2795.56 1192.92 2789.56 1183.42 2782.57 1174.42C2771.17 1158.09 2755.86 1143.7 2741.57 1129.41C2744.2 1132.03 2746.81 1134.65 2749.45 1137.27C2710.76 1101.16 2669.18 1068.03 2626.97 1035.22C2611.54 1023.23 2596.16 1011.21 2580.93 999.015C2555.89 977.52 2529.87 956.984 2502.89 937.429C2476.81 918.544 2449.92 900.615 2422.23 883.643C2382.1 857.985 2338.77 836.391 2295.83 814.762C2237.99 785.64 2176.74 761.829 2115.92 738.18C2063.2 717.684 2009.2 699.541 1955.7 680.762C1869.2 650.396 1781.87 621.901 1694.54 593.468C1541.16 543.522 1386.6 496.406 1232.24 448.89C1165.75 428.426 1099.29 407.893 1032.85 387.288C988.439 373.475 944.067 359.557 899.734 345.527C869.862 335.216 839.617 325.869 809.011 317.473C782.446 309.946 755.416 303.567 728.582 296.853C689.704 287.125 651.061 276.941 612.634 265.888C583.947 257.637 556.175 247.509 528.482 236.996C511.291 230.189 494.708 222.395 478.706 213.598C463.647 206.747 450.93 197.407 440.562 185.597C438.527 182.905 436.509 180.211 434.477 177.52C429.851 163.409 426.631 149.038 424.821 134.409C423.788 125.857 422.746 117.309 421.718 108.751C419.205 99.144 420.225 90.012 424.76 81.3549C435.502 73.8184 447.211 68.2219 459.445 62.8179C457.423 64.0377 455.409 65.2576 453.4 66.4775C461.854 57.4976 470.408 47.9994 482.135 42.1111C492.794 36.4494 503.731 31.2285 514.954 26.4669C526.294 22.081 537.947 18.4834 549.904 15.6774C568.527 10.6086 588.257 8.40785 607.448 5.89361C632.269 2.64372 657.506 1.49524 682.504 0.0487747C717.493 -1.98745 752.404 -4.35891 787.389 -6.6838C883.216 -13.0501 979.425 -14.6331 1075.47 -16.0641C1171.2 -17.4888 1267.02 -16.0237 1362.74 -14.7883C1453.51 -13.6181 1544.27 -11.5912 1635.03 -9.83126C1635.71 -6.00092 1636.32 -2.15817 1636.88 1.68769C1639.1 16.1772 1641.3 30.6635 1643.49 45.1592C1643.37 44.2094 1650.78 100.165 1651.72 100.184Z" fill="#EDEDED"/>
<path opacity="0.1091" d="M893.224 510.753C823.024 509.666 752.903 509.008 682.682 509.164C587.18 509.371 491.813 512.926 396.467 517.532C399.783 517.324 403.099 517.122 406.419 516.911C365.805 519.59 325.265 522.225 284.639 524.569C259.072 526.04 233.743 528.548 208.406 531.872C215.086 530.755 221.761 529.641 228.444 528.517C225.302 528.992 222.164 529.47 219.018 529.945C234.893 526.012 250.769 522.07 266.645 518.137C254.198 521.542 241.746 524.947 229.304 528.356C235.796 526.577 242.285 524.795 248.786 523.014C237.541 526.403 226.765 530.702 216.444 535.911C219.417 534.47 222.399 533.03 225.376 531.593C217.742 535.777 210.116 539.961 202.491 544.146C205.355 542.314 208.224 540.489 211.093 538.658C207.035 541.824 202.99 544.981 198.941 548.144C194.236 555.062 188.039 560.615 180.361 564.784C172.606 568.257 165.093 571.793 157.728 575.868C160.554 573.913 163.388 571.957 166.226 570.008C164.516 571.225 162.806 572.439 161.1 573.655C160.098 570.024 159.087 566.389 158.08 562.76C164.677 565.973 171.265 569.186 177.862 572.401C193.026 581.291 208.788 589.24 225.163 596.24C260.317 612.623 297.988 624.483 335.365 636.108C331.689 634.997 328 633.888 324.319 632.78C389.298 651.469 455.257 667.021 520.696 684.359C554.999 693.451 588.938 705.06 622.455 715.741C710.935 743.928 799.766 771.244 888.545 798.655C1043 846.348 1197.57 893.752 1351.57 942.594C1499.3 989.439 1645.85 1039.03 1791.42 1090.9C1838.38 1107.63 1884.41 1126.18 1930.32 1145.05C1990.25 1169.67 2047.33 1198.89 2103.57 1229.48C2146.43 1252.79 2186.1 1280.19 2225.6 1307.64C2263.41 1333.91 2297.21 1364.42 2333.17 1392.6C2374.78 1425.22 2416.49 1457.48 2455.85 1492.26C2487.89 1520.57 2516.28 1552.04 2536.45 1588.01C2537.52 1595.01 2534.49 1600.31 2527.35 1603.91C2512.28 1610.12 2496.6 1614.77 2480.32 1617.85C2445.6 1625.26 2411.3 1631.62 2376.15 1637.16C2356.44 1639.75 2336.68 1641.77 2316.83 1643.21C2290.53 1645.56 2264.17 1647.17 2237.75 1648.04C2197.54 1649.94 2157.11 1649.7 2116.86 1650.08C2062.84 1650.59 2009.11 1652.1 1955.23 1655.5C1962.06 1654.93 1968.89 1654.37 1975.72 1653.8C1891.64 1661.83 1808.02 1673.66 1724.35 1684.51C1606.75 1699.77 1489.3 1715.95 1371.86 1732.14C1254.34 1748.33 1136.86 1764.86 1019.37 1781.26C972.368 1787.81 925.375 1794.33 878.372 1800.82C854.867 1804.05 831.37 1807.28 807.873 1810.51C762.455 1816.05 717.276 1822.81 672.326 1830.8C681.822 1829.04 691.31 1827.28 700.797 1825.52C679.383 1829.62 657.978 1833.72 636.569 1837.82C594.154 1846.53 552.009 1856.15 510.136 1866.71C519.463 1864.36 528.785 1862 538.116 1859.66C496.426 1870.16 455.001 1881.4 413.814 1893.39C351.822 1910.82 290.823 1931.06 229.82 1951.01C189.011 1964.61 148.332 1978.5 107.758 1992.67C87.3856 1999.82 67.0049 2006.96 46.6373 2014.11C-1.20245 2031.56 -49.524 2047.91 -98.3317 2063.13C-89.2871 2060.01 -80.2556 2056.89 -71.2153 2053.76C-102.863 2066.6 -134.501 2079.44 -166.127 2092.27C-157.725 2087.98 -149.314 2083.69 -140.907 2079.41C-164.278 2091.89 -187.979 2103.86 -212.001 2115.33C-223.996 2120.83 -236.001 2126.33 -248.005 2131.83C-274.879 2143.15 -301.969 2154.04 -329.285 2164.52C-372.793 2181.62 -416.441 2198.3 -459.71 2215.89C-474.236 2222.16 -488.771 2228.44 -503.301 2234.71C-539.909 2254.68 -579.486 2268.29 -622.009 2275.53C-599.775 2263.25 -577.541 2250.98 -555.308 2238.71C-569.144 2248.5 -582.979 2258.28 -596.815 2268.07C-611.493 2274.87 -626.74 2280.49 -642.555 2284.93C-658.096 2290.04 -674.02 2293.91 -690.308 2296.55C-697.534 2297.75 -702.941 2295.72 -706.522 2290.44C-707.346 2284.33 -704.486 2279.78 -697.946 2276.79C-657.384 2254.96 -616.827 2233.12 -576.257 2211.29C-592.293 2220.93 -608.329 2230.59 -624.374 2240.24C-590.127 2212.86 -554.839 2186.62 -518.509 2161.51C-504.061 2154.76 -489.6 2148.01 -475.143 2141.26C-445.927 2128.27 -416.306 2116.05 -386.295 2104.6C-342.24 2087.11 -296.804 2072.19 -251.764 2056.87C-236.982 2052.18 -222.191 2047.49 -207.413 2042.81C-167.85 2030.43 -127.266 2021.6 -85.6458 2016.3C-103.978 2021.86 -122.31 2027.43 -140.651 2032.98C-101.166 2016.87 -60.9773 2002.31 -20.0815 1989.29C40.9866 1968.5 102.281 1948.29 163.709 1928.36C274.318 1892.46 386.694 1858.96 500.64 1832.37C542.599 1822.08 584.81 1812.73 627.286 1804.3C679.327 1793.37 732.561 1784.99 785.127 1776.36C808.624 1773.16 832.125 1769.96 855.622 1766.75C902.629 1760.31 949.626 1753.83 996.616 1747.3C1067.13 1737.54 1137.62 1727.66 1208.12 1717.81C1466.37 1681.74 1724.7 1646.13 1983.6 1613.85C2043.63 1606.37 2104.54 1604.69 2165.04 1603.4C2205.48 1602.54 2245.95 1602.55 2286.39 1601.96C2326.27 1601.39 2365.85 1599.04 2405.57 1596.05C2398.73 1596.62 2391.9 1597.19 2385.07 1597.75C2410.94 1595.44 2436.61 1591.98 2462.09 1587.38C2452.61 1589.14 2443.11 1590.9 2433.62 1592.66C2446.13 1590 2458.63 1587.32 2471.14 1584.66C2452.43 1594.61 2433.72 1604.55 2415.01 1614.49C2410.02 1604.5 2404.03 1595 2397.03 1585.99C2398.8 1588.33 2400.58 1590.67 2402.35 1593.02C2352.27 1531.63 2286.24 1482.76 2222.36 1433.14C2212.43 1425.44 2202.59 1417.64 2192.84 1409.76C2179.94 1399.14 2167.04 1388.52 2154.12 1377.9C2128.58 1357.77 2102.14 1338.58 2074.81 1320.38C2035.65 1293.17 1992.97 1270.13 1950.64 1247.11C1908.48 1224.19 1863.8 1204.94 1819.52 1185.58C1737.84 1149.85 1652.19 1121.2 1567.61 1091.5C1437.79 1045.93 1306.38 1003.93 1174.93 962.248C932.145 885.247 687.734 812.365 445.067 735.063C448.747 736.168 452.427 737.28 456.112 738.388C383.009 717.668 308.6 700.953 235.584 679.958C203.19 670.64 171.677 659.614 140.386 647.745C106.547 634.9 75.9193 617.549 46.0124 598.751C44.4457 597.162 42.8832 595.582 41.3165 593.99C41.412 588.098 44.8015 584.082 51.4851 581.955C60.1521 576.107 69.648 572.227 79.5042 568.183C76.6528 570.076 73.8057 571.979 70.9587 573.876C74.3352 570.318 77.7074 566.764 81.0839 563.217C91.8428 555.444 103.964 549.714 117.453 546.014C122.648 543.751 127.839 541.492 133.034 539.235C144.904 534.917 157.034 531.248 169.403 528.244C219.217 515.421 269.735 505.088 321.168 499.038C340.065 496.816 359.221 496.018 378.226 495.003C422.282 492.653 466.341 490.682 510.401 488.295C678.194 479.213 846.708 481.659 1014.68 484.304C1010.53 485.523 1006.31 486.557 1002.04 487.401C986.056 490.952 970.076 494.466 954.071 497.936C938.069 501.428 922.059 504.896 906.048 508.307C901.821 509.313 897.542 510.132 893.224 510.753Z" fill="#EDEDED"/>
<path opacity="0.1091" d="M1578.18 113.581C1579.23 112.842 1580.28 112.113 1581.31 111.383C1577.22 147.244 1573.11 183.114 1569.01 218.971C1560.39 213.371 1550.87 209.293 1540.47 206.71C1511.6 196.107 1481.11 188.204 1451.44 179.563C1369.6 155.721 1284.3 144.208 1199.3 133.375C1157.18 128.654 1114.95 124.901 1072.62 122.108C1009.38 117.222 945.764 115.71 882.356 113.739C771.022 110.263 659.537 109.108 548.15 107.258C429.951 105.293 311.798 105.206 193.598 106.957C146.201 107.888 98.8215 109.4 51.4677 111.498C-1.51495 113.519 -54.2936 117.678 -107.177 120.996C-135.768 122.787 -164.369 124.215 -192.922 126.354C-223.74 128.669 -254.437 132.031 -285.203 134.803C-283.459 134.604 -281.723 134.409 -279.978 134.207C-291.696 135.262 -303.054 137.652 -314.047 141.359C-329.576 147.073 -345.842 148.65 -362.855 146.086C-359.27 145.884 -355.681 145.686 -352.1 145.481C-354.318 146.07 -356.536 146.66 -358.753 147.241C-327.163 129.315 -295.563 111.393 -263.976 93.467C-257.228 99.9171 -251.508 107.056 -246.825 114.878C-250.705 110.75 -254.58 106.628 -258.46 102.497C-252.371 108.254 -246.291 114.015 -240.211 119.764C-245.688 115.254 -251.165 110.735 -256.651 106.215C-244.403 114.587 -232.16 122.958 -219.899 131.33C-228.332 126.27 -236.756 121.214 -245.18 116.163C-232.477 123.262 -219.769 130.364 -207.062 137.46C-216.853 132.214 -226.631 126.972 -236.417 121.732C-221.861 129.036 -207.309 136.349 -192.761 143.649C-203.82 138.261 -214.869 132.869 -225.928 127.484C-209.683 134.94 -193.447 142.395 -177.203 149.851C-189.437 144.357 -201.667 138.851 -213.902 133.353C-196.151 140.921 -178.392 148.479 -160.641 156.044C-173.947 150.456 -187.267 144.879 -200.573 139.301C-181.499 146.936 -162.433 154.579 -143.355 162.221C-157.646 156.577 -171.929 150.934 -186.217 145.291C-160.081 155.035 -133.959 164.775 -107.828 174.519C-123.786 168.779 -139.74 163.043 -155.698 157.304C-109.481 173.789 -63.4207 190.371 -17.3428 207.163C40.0102 228.069 98.075 247.419 156.01 266.977C281.323 309.285 407.686 349.193 533.759 389.657C663.972 431.443 793.946 473.754 923.443 517.265C1033.83 554.355 1143.55 592.829 1251.35 635.509C1297.13 653.64 1341.71 674.204 1386.47 694.231C1431.59 714.416 1474.61 737.842 1517.49 761.463C1561.08 785.485 1601.58 813.471 1641.91 841.509C1655.31 851.603 1668.73 861.698 1682.14 871.789C1692.25 879.198 1702.45 886.523 1712.72 893.746C1748.1 918.889 1782.81 944.695 1816.7 971.396C1853.71 1000.55 1888.73 1032.25 1914.81 1069.74C1928.93 1085.24 1931.63 1102.17 1922.91 1120.51C1914.02 1138.79 1898.38 1148.76 1876.01 1150.43C1866 1153.29 1856.01 1156.16 1846.01 1159.03C1855.2 1156.03 1864.39 1153.05 1873.58 1150.06C1864.95 1153.11 1856.32 1156.16 1847.69 1159.21C1830.26 1165.88 1812.41 1171.49 1794.13 1176.03C1784.26 1178.01 1774.37 1179.98 1764.49 1181.96C1743.29 1185.51 1721.97 1188.33 1700.53 1190.43C1666.05 1194.41 1631.16 1196.24 1596.52 1198.69C1560.02 1201.27 1523.65 1204.27 1487.26 1207.79C1474.94 1209.26 1462.63 1210.72 1450.3 1212.19C1406.32 1217.88 1362.27 1223.2 1318.17 1228.18C1251.43 1235.99 1184.59 1243.15 1117.78 1250.43C958.142 1267.81 798.338 1284.01 638.626 1300.83C645.666 1300 652.701 1299.18 659.741 1298.35C590.895 1306.61 522.05 1314.89 453.204 1323.2C416.796 1327.5 380.405 1331.97 344.036 1336.58C301.226 1343.01 258.651 1350.49 216.318 1359.05C225.771 1357.07 235.223 1355.09 244.68 1353.11C181.529 1366.37 118.79 1380.46 56.1246 1395.41C-6.24567 1410.3 -67.9516 1427.32 -129.614 1444.33C-191.42 1461.37 -252.944 1479.28 -314.581 1496.8C-385.922 1517.09 -457.471 1536.76 -529.007 1556.48C-549.935 1562.05 -570.867 1567.61 -591.794 1573.17C-623.259 1579.29 -654.72 1585.44 -686.189 1591.61C-702.438 1594.65 -718.696 1597.68 -734.953 1600.72C-767.989 1605.27 -800.826 1610.73 -833.471 1617.12C-882.713 1626.03 -930.279 1640.04 -977.711 1654.5C-993.092 1660.03 -1008.47 1665.56 -1023.86 1671.1C-1053.44 1671.34 -1082.28 1666.97 -1110.38 1658.01C-1091.92 1652.79 -1073.46 1647.57 -1055 1642.35C-1068.17 1653.04 -1081.33 1663.73 -1094.5 1674.43C-1114.43 1690.63 -1152.6 1699.62 -1174.84 1680.7C-1194.14 1658.1 -1208.1 1633.06 -1216.72 1605.59C-1228.32 1578.99 -1233.98 1551.52 -1233.73 1523.16C-1226.91 1492.42 -1220.08 1461.69 -1213.26 1430.95C-1201.15 1400.93 -1185.37 1372.42 -1165.9 1345.42C-1144.92 1326.18 -1118.59 1318 -1086.94 1320.9C-1049.31 1316.92 -1011.57 1315.78 -973.727 1317.49C-944.041 1318.79 -914.43 1320.82 -884.866 1323.55C-844.799 1328.12 -805.148 1334.65 -765.902 1343.16C-726.742 1352 -687.439 1360.29 -647.988 1368.07C-609.054 1379 -569.131 1383.76 -528.209 1382.33C-538.043 1382.04 -547.882 1381.75 -557.725 1381.46C-535.938 1381.69 -514.143 1381.92 -492.373 1382.15C-449.334 1381.61 -406.394 1379.53 -363.553 1375.92C-321.047 1372.38 -278.706 1367.76 -236.513 1362.06C-194.419 1356.36 -152.478 1349.97 -110.662 1342.9C-26.7521 1329.41 56.8581 1314.35 140.616 1300.21C182.592 1293.14 224.59 1286.18 266.61 1279.32C318.716 1270.76 370.966 1263.07 423.397 1256.23C413.819 1257.67 404.253 1259.13 394.675 1260.57C518.196 1241.66 641.595 1222.21 764.912 1202.31C757.92 1203.44 750.92 1204.59 743.932 1205.73C925.852 1174.03 1107.45 1140.87 1289.28 1108.77C1357.49 1096.72 1425.71 1084.73 1494.22 1074.08C1514.07 1071.07 1533.86 1067.78 1553.59 1064.22C1562.78 1062.38 1571.97 1060.55 1581.15 1058.71C1605.23 1053.79 1628.42 1046.56 1650.74 1037C1642.66 1040.27 1634.59 1043.53 1626.5 1046.8C1637.75 1041.35 1647.1 1034.01 1654.56 1024.79C1648.55 1031.81 1642.55 1038.84 1636.54 1045.86C1639.48 1041.47 1642.42 1037.07 1645.36 1032.67C1653.98 1019.67 1665.1 1008.77 1678.73 999.968C1675.34 1023.93 1671.95 1047.89 1668.55 1071.86C1626.07 1019.7 1566.76 979.373 1509.96 940.182C1474.33 915.586 1437.85 892.042 1402.25 867.412C1362.53 839.942 1319.53 816.376 1276.85 792.826C1233.76 769.034 1188.24 748.746 1143.06 728.331C1157.22 734.632 1171.38 740.93 1185.54 747.228C1138.12 726.782 1090.43 707.351 1042.14 688.575C970.016 660.534 896.145 635.956 822.786 610.643C651.477 551.53 478.48 496.295 305.965 440.063C148.523 388.741 -8.50665 336.488 -162.785 278.034C-194.931 265.857 -226.271 252.699 -257.614 239.097C-284.027 229.382 -307.307 215.581 -327.458 197.709C-340.738 189.561 -350.186 178.734 -355.798 165.244C-353.385 168.9 -350.985 172.557 -348.576 176.207C-357.204 165.194 -366.153 154.389 -375.436 143.801C-376.96 137.988 -374.733 133.325 -368.757 129.805C-363.041 126.5 -357.321 123.191 -351.605 119.876C-334.779 111.309 -317.51 103.512 -299.794 96.481C-286.67 91.8653 -273.915 87.2341 -260.626 83.2083C-289.148 97.8405 -317.675 112.482 -346.198 127.117C-310.762 103.549 -276.037 79.201 -242.012 54.0834C-239.126 51.5661 -236.24 49.0518 -233.345 46.5283C-228.089 41.9996 -222.538 37.7781 -216.679 33.8733C-200.031 21.9757 -175.67 18.5923 -155.273 15.5783C-144.926 14.3243 -134.532 13.449 -124.103 12.9461C-107.897 11.8318 -91.6568 11.062 -75.4339 10.0439C-51.4293 8.4298 -27.429 6.82193 -3.44183 5.21095C44.0984 2.41425 91.6822 0.269383 139.296 -1.21743C210.069 -3.91791 280.98 -4.09484 351.804 -4.48284C470.781 -5.12537 589.806 -2.40316 708.752 -0.252089C772.177 0.896391 835.584 2.24042 899 3.73034C962.512 5.22026 1025.85 8.42359 1089.25 12.1111C1152.95 15.808 1216.06 23.388 1279.18 31.4366C1332.38 38.2158 1385.17 48.6359 1437.01 61.1047C1468.42 68.6505 1499.24 78.6361 1530.01 87.9915C1549.01 93.765 1568.68 99.2559 1585.64 108.968C1594.55 114.074 1589.73 133.925 1589.12 139.353C1587.13 156.466 1584.55 173.507 1581.39 190.486C1580.72 199.736 1578.03 208.424 1573.33 216.559C1572.2 217.282 1571.09 218.003 1569.96 218.726C1566.87 222.271 1564.35 221.969 1562.41 217.826C1560.39 208.877 1560.42 199.866 1562.5 190.805C1564.51 173.69 1567.09 156.646 1570.23 139.67C1570.92 130.436 1573.57 121.741 1578.18 113.581Z" fill="#EDEDED"/>
<path opacity="0.1091" d="M2346.81 19.8523C2330.96 21.4322 2315.11 23.0152 2299.25 24.5952C2275.97 24.5052 2253.64 20.4576 2232.24 12.4741C2222.99 8.99448 2213.75 5.51489 2204.51 2.03221C2186.24 -5.25598 2167.62 -11.7496 2148.65 -17.4392C2139 -20 2129.36 -22.5546 2119.7 -25.1123C2077.58 -34.0642 2035.1 -41.4238 1992.26 -47.1848C1929.06 -56.9066 1864.79 -61.3204 1800.95 -66.1627C1737.45 -70.9801 1673.58 -72.4328 1609.92 -74.3448C1546.26 -76.2445 1482.54 -76.9336 1418.86 -78.1038C1249.4 -81.2233 1080.03 -82.7132 910.558 -79.6433C912.437 -79.6992 914.312 -79.752 916.191 -79.811C866.299 -78.6408 816.423 -76.8497 766.591 -74.4597C712.919 -72.1969 659.454 -67.8078 605.894 -64.2568C575.232 -62.2237 544.679 -60.3613 514.138 -57.0897C516.382 -57.3939 518.621 -57.6981 520.865 -57.993C512.116 -56.8103 503.375 -55.6277 494.638 -54.4482C496.891 -54.7648 499.152 -55.0783 501.404 -55.3949C482.321 -52.145 464.08 -48.2464 445.518 -43.1403C427.499 -38.1863 412.322 -29.7217 396.871 -20.4159C392.774 -17.1816 388.673 -13.9441 384.567 -10.7035C380.618 -3.27252 374.438 1.71249 366.018 4.24846C358.861 7.47972 352.456 11.0307 346.241 15.5129C327.366 -13.3792 308.513 -42.2774 289.647 -71.1787C300.107 -64.3499 310.579 -57.5242 321.034 -50.6986C315.305 -54.0974 309.572 -57.4963 303.83 -60.8921C314.055 -55.3514 324.285 -49.8077 334.505 -44.2609C328.286 -46.9148 322.067 -49.5687 315.848 -52.2226C341.54 -40.9427 367.837 -30.8981 394.736 -22.089C385.631 -25.0533 376.521 -28.0176 367.416 -30.9819C400.031 -20.7667 432.928 -11.2995 466.099 -2.57413C456.833 -5.11942 447.558 -7.65538 438.288 -10.2038C505.263 6.09534 572.311 22.0189 639.486 37.6196C632.75 36.08 626.023 34.5404 619.279 32.9977C649.004 39.5844 678.745 46.0811 708.457 52.705C730.791 59.5897 753.124 66.4743 775.458 73.3621C818.632 85.716 861.737 98.2221 904.794 110.877C1036.76 149.401 1167.99 189.942 1299.24 230.322C1431.31 270.957 1562.92 312.767 1694.09 355.659C1759.6 377.092 1824.72 399.456 1889.81 421.898C1907.3 428.578 1924.79 435.267 1942.27 441.956C1977.31 455.766 2012.15 469.951 2046.8 484.502C2095.08 504.477 2142.53 525.81 2189.82 547.545C2235.05 568.329 2278.46 591.826 2321.7 615.637C2365.03 639.495 2405.41 667.086 2445.6 694.805C2469.41 711.206 2492.07 729.517 2515.59 746.362C2521.47 750.866 2527.35 755.373 2533.23 759.877C2543.39 768.826 2554.6 776.549 2566.88 783.039C2571.91 786.54 2576.96 790.042 2582 793.543C2592.34 800.648 2602.53 807.939 2612.55 815.404C2627.86 826.573 2642.11 838.855 2656.28 851.116C2667.62 862.244 2678.34 873.837 2688.41 885.887C2697.16 895.438 2704.96 905.554 2711.81 916.247C2719.5 925.631 2721.77 936.048 2718.64 947.486C2716.97 959.172 2710.65 968.177 2699.7 974.506C2689.25 980.478 2678.81 986.45 2668.37 992.429C2673.06 989.719 2677.75 987.018 2682.44 984.312C2673.61 991.141 2664.79 997.979 2655.97 1004.81C2635.93 1017.44 2614.13 1026.86 2590.58 1033.09C2578.51 1035.94 2566.45 1038.79 2554.38 1041.63C2529.21 1046.37 2503.83 1049.91 2478.24 1052.26C2438.96 1056.81 2399.01 1058.25 2359.51 1060.6C2333.02 1062.09 2306.57 1063.9 2280.13 1066.01C2244.28 1069.09 2208.54 1073.06 2172.93 1077.9C1871.92 1114.07 1571.97 1157.14 1271.88 1198.81C1201.42 1208.59 1130.93 1218.26 1060.44 1227.9C995.192 1236.83 930.648 1249.93 866.273 1262.7C723.244 1291.06 583.886 1332.71 445.852 1375.88C388.139 1393.92 330.886 1413.16 273.563 1432.15C235.532 1444.81 197.487 1457.44 159.417 1470.02C131.393 1478.59 103.405 1487.26 75.4595 1496.06C32.5629 1509.45 -9.99081 1523.43 -52.3796 1538.06C-111.924 1558.6 -169.169 1583.41 -225.706 1609.68C-209.809 1602.09 -193.903 1594.51 -178.001 1586.92C-229.143 1612.19 -279.249 1639 -328.325 1667.36C-340.213 1675.36 -353.445 1678.47 -368.015 1676.7C-383.17 1669.17 -395.118 1658.66 -403.868 1645.15C-414.431 1632.72 -420.646 1618.84 -422.508 1603.5C-418.628 1590.92 -410.217 1581.34 -397.262 1574.76C-331.142 1538.38 -265.604 1500.93 -196.064 1469.75C-167.09 1456.24 -137.656 1443.56 -107.784 1431.7C-78.9143 1420.23 -49.7409 1409.41 -20.2592 1399.24C20.4283 1384.67 62.2224 1372.55 103.795 1360.2C130.239 1352.35 156.739 1344.66 183.295 1337.12C218.753 1326.03 254.181 1314.88 289.586 1303.67C344.175 1286.44 398.85 1269.44 453.63 1252.67C530.448 1229.15 607.999 1207.77 685.906 1187.3C833.688 1148.47 985.353 1121.98 1137.52 1101.15C1460.55 1056.95 1783.12 1009.91 2107 970.76C2162.67 964.03 2218.42 957.614 2274.3 952.418C2323.97 947.809 2374.08 946.164 2423.89 943.23C2464.13 940.862 2503.75 936.662 2543.24 929.495C2554.69 927.341 2565.67 924.02 2576.17 919.51C2588 911.489 2600.81 905.085 2614.61 900.314C2610.57 919.73 2606.53 939.158 2602.5 958.576C2599.31 954.066 2596.13 949.556 2592.95 945.046C2585.12 935.268 2576.59 925.988 2567.37 917.222C2562.24 912.51 2557.11 907.801 2551.97 903.089C2542.34 893.212 2532.43 883.559 2522.24 874.135C2506.52 859.214 2490.07 844.88 2473.78 830.459C2462.68 821.246 2451.93 811.708 2441.55 801.849C2429.77 793.326 2417.99 784.818 2406.19 776.316C2382.59 759.303 2359.87 741.278 2336.98 723.56C2298.8 694.01 2256.56 668.889 2214.6 643.893C2173.29 619.281 2128.85 599.003 2084.78 578.7C2024.33 550.844 1960.39 529.163 1896.77 507.888C1879.98 502.552 1863.18 497.213 1846.38 491.881C1807.7 480.34 1769.47 467.691 1731.71 453.931C1666.74 431.492 1601.28 410.168 1535.86 388.76C1382.78 338.677 1228.51 291.431 1074.46 243.778C942.401 202.926 810.543 161.603 678.923 119.655C605.504 96.2541 531.654 73.9953 458.096 50.9233C464.658 52.9626 471.211 55.0051 477.777 57.0413C443.965 46.7174 410.855 34.8415 377.076 24.4586C383.652 26.3614 390.231 28.2548 396.815 30.1544C389.055 28.9284 381.295 27.6961 373.535 26.47C356.561 26.4824 340.976 22.3572 326.758 14.1068C321.872 9.84187 316.98 5.58008 312.085 1.31517C299.286 -11.6409 287.499 -25.2954 276.723 -39.6297C271.128 -47.2034 257.692 -63.5895 270.161 -72.588C276.423 -77.1074 282.851 -80.438 289.942 -83.8555C292.724 -85.1095 295.51 -86.3635 298.288 -87.6175C304.507 -95.6693 312.02 -102.641 320.804 -108.52C334.562 -119.384 352.651 -125.337 369.438 -131.241C387.206 -137.486 406.667 -140.32 425.32 -143.493C458.49 -149.133 492.529 -150.911 526.155 -152.892C560.967 -154.94 595.691 -157.327 630.493 -159.664C702.103 -164.482 773.974 -166.189 845.74 -168.073C987.168 -171.795 1128.84 -169.597 1270.26 -167.431C1400.61 -165.432 1530.97 -163.302 1661.2 -157.892C1725.15 -155.232 1788.72 -149.415 1852.33 -143.182C1916.88 -136.85 1980.26 -125.43 2043.64 -113.216C2072.88 -107.579 2101.01 -96.318 2128.44 -86.0655C2147.1 -78.1348 2166.44 -71.812 2186.44 -67.0846C2214.55 -61.9288 2242.65 -62.3199 2270.74 -68.2517C2274.09 -65.725 2277.02 -62.829 2279.51 -59.5605C2289.7 -48.0757 2299.8 -36.5164 2309.79 -24.8919C2319.84 -13.3015 2329.79 -1.65225 2339.64 10.0654C2342.54 13.0545 2344.94 16.3168 2346.81 19.8523Z" fill="#EDEDED"/>
<path opacity="0.1091" d="M2118.93 -104.522C2100.35 -83.8459 2077.61 -68.1148 2050.68 -57.3377C2037.17 -53.7061 2023.46 -50.7231 2009.58 -48.3765C1992.65 -48.243 1975.76 -48.9041 1958.89 -50.3661C1939.54 -51.347 1920.25 -52.8742 1901 -54.9352C1862.94 -59.1318 1827.66 -71.2312 1791.86 -82.7657C1772.41 -89.011 1752.73 -94.5702 1732.79 -99.4559C1690.79 -108.551 1648.42 -115.997 1605.68 -121.817C1612.4 -120.802 1619.11 -119.784 1625.82 -118.763C1560.69 -127.749 1495.23 -133.587 1429.39 -136.279C1387.02 -138.197 1344.64 -139.631 1302.23 -140.581C1190.61 -143.713 1078.82 -144.529 967.147 -146C973.961 -146.025 980.788 -146.05 987.597 -146.066C968.128 -142.26 948.663 -138.445 929.198 -134.64C886.731 -125.781 843.696 -120.65 800.114 -119.25C755.268 -117.676 710.406 -116.795 665.53 -116.621C620.021 -116.264 574.512 -115.69 529.016 -114.911C478.42 -114.153 427.867 -111.319 377.289 -110.928C348.827 -110.705 320.396 -110.857 291.934 -110.488C297.112 -110.559 302.29 -110.636 307.467 -110.705C289.3 -110.183 271.137 -109.401 252.992 -108.355C258.234 -108.616 263.486 -108.886 268.733 -109.153C250.283 -107.622 232.381 -105.701 214.175 -102.6C203.611 -100.856 193.369 -98.146 183.443 -94.4833C174.199 -89.818 165.111 -84.9168 156.179 -79.789C162.719 -84.8423 169.269 -89.8925 175.809 -94.9458C163.514 -80.9654 147.959 -71.6347 129.137 -66.9694C123.134 -66.2369 117.397 -65.3988 111.551 -63.9865C118.686 -67.016 125.825 -70.0393 132.969 -73.0657C131.754 -72.4263 130.538 -71.7961 129.336 -71.1567C120.426 -111.422 111.534 -151.693 102.628 -191.952C110.084 -193.852 117.536 -195.758 124.983 -197.657C116.902 -192.585 108.817 -187.519 100.731 -182.444C115.175 -191.614 129.614 -200.78 144.053 -209.946C135.803 -203.359 127.552 -196.779 119.307 -190.195C134.062 -202.391 148.823 -214.574 163.583 -226.76C155.263 -218.594 146.952 -210.433 138.641 -202.273C153.792 -217.402 168.939 -232.531 184.09 -247.666C198.772 -263.453 212.82 -279.671 226.244 -296.321C253.074 -328.407 277.035 -362.47 302.55 -395.385C320.735 -417.43 338.811 -439.543 356.774 -461.733C364.265 -471.12 372.532 -479.929 381.581 -488.157C392.197 -498.363 405.443 -504.925 421.327 -507.827C448.491 -513.058 475.933 -515.016 503.674 -513.7C517.063 -511.801 530.448 -509.901 543.837 -507.998C568.228 -502.395 592.215 -495.66 615.794 -487.791C645.505 -478.997 674.631 -468.888 703.18 -457.459C734.289 -445.142 765.116 -432.301 795.67 -418.944C862.258 -390.53 927.87 -360.201 993.695 -330.443C1064.29 -298.54 1134.81 -266.501 1205.33 -234.464C1256.38 -211.271 1307.39 -188.063 1357.96 -164.053C1416.7 -136.161 1476.51 -109.982 1535.45 -82.3901C1593.74 -55.1028 1650.15 -25.1275 1705.88 6.04285C1764.13 38.6224 1818.36 76.2057 1871.67 114.717C1894.38 131.115 1918.06 146.524 1941.23 162.398C1963.29 177.52 1984.06 194.158 2004.6 210.839C2032.72 233.644 2060.2 256.902 2086.43 281.383C2107.01 300.581 2126.44 320.183 2143.47 341.967C2158.4 366.901 2173.34 391.827 2188.27 416.752C2226.29 489.599 2260.27 563.894 2290.2 639.65C2299.05 666.77 2307.92 693.883 2316.79 721.006C2326.13 749.032 2318.53 771.284 2293.98 787.754C2273.61 792.87 2253.46 798.556 2233.51 804.795C2204.77 813.375 2172.72 814.12 2142.81 815.979C2121.29 816.795 2099.76 817.149 2078.22 817.047C2044.99 817.248 2011.77 816.839 1978.54 817.103C1903.09 817.711 1828.96 829.373 1754.58 839.402C1650.86 853.401 1547.7 870.764 1444.63 888.007C1455.3 886.163 1465.97 884.317 1476.64 882.476C1282.41 918.187 1088.43 954.892 894.036 989.84C851.109 996.799 808.464 1004.96 766.114 1014.33C724.698 1024.41 683.389 1034.83 642.181 1045.57C541.411 1071.43 441.855 1100.27 343.394 1132.36C263.911 1158.28 184.971 1185.57 106.009 1212.73C66.0547 1226.57 26.1484 1240.46 -13.7492 1254.43C-33.9606 1261.49 -54.1763 1268.55 -74.3921 1275.61C-103.869 1284.74 -133.247 1294.11 -162.52 1303.73C-191.468 1313.64 -220.845 1322.42 -250.635 1330.09C-280.794 1339.42 -310.518 1349.7 -339.831 1360.92C-369.877 1372.3 -399.471 1384.54 -428.619 1397.62C-443.062 1404.44 -457.51 1411.25 -471.953 1418.06C-499.387 1421.2 -526.551 1419.64 -553.433 1413.38C-558.975 1405.23 -564.526 1397.08 -570.072 1388.92C-569.465 1348.54 -554.452 1312.07 -525.027 1279.55C-503.397 1248.65 -481.757 1217.74 -460.127 1186.84C-422.964 1134.05 -380.983 1084.54 -334.167 1038.32C-296.939 1000.35 -259.723 962.385 -222.495 924.42C-181.577 885.567 -137.127 850.312 -89.135 818.636C-73.5675 811.736 -58.0085 804.826 -42.428 797.929C-11.5011 784.709 19.851 772.33 51.6198 760.79C67.131 755.469 82.6422 750.149 98.1577 744.832C126.828 735.306 156.131 727.738 186.077 722.114C212.213 718.333 238.426 715.046 264.718 712.265C292.919 710.539 320.791 706.78 348.324 700.976C395.699 693.085 443.136 685.468 490.554 677.814C554.912 667.443 618.762 656.008 682.395 642.586C732.687 631.977 782.758 620.387 832.963 609.476C867.522 602.045 901.913 594.046 936.147 585.488C972.138 576.204 1007.9 566.287 1043.43 555.721C1062.47 550.813 1081.51 545.906 1100.56 540.995C1137.8 531.277 1174.97 521.381 1212.08 511.309C1282.43 492.402 1352.44 472.531 1422.48 452.777C1470.74 439.169 1519 425.604 1567.34 412.232C1635.07 393.493 1703.49 376.716 1771.77 359.613C1811.38 349.696 1851.61 342.846 1892.04 336.281C1915.51 332.463 1938.83 333 1962.5 334.412C1977.76 335.324 1992.99 337.261 2008.23 338.444C2016.65 339.124 2025.03 338.823 2033.36 337.541C2040.73 336.327 2046.81 333.167 2051.61 328.055C2044.02 334.98 2036.43 341.899 2028.84 348.814C2031.69 345.971 2034.54 343.134 2037.39 340.288C2047.69 327.546 2060.12 316.853 2074.69 308.214C2124.86 456.812 2175.03 605.404 2225.2 753.998C2222.11 749.283 2219.03 744.562 2215.96 739.841C2208.25 729.669 2200.04 719.829 2191.33 710.312C2172.98 689.277 2150.83 670.544 2129.45 652.001C2141.63 662.135 2153.83 672.27 2166.02 682.411C2148.19 667.573 2130.35 652.749 2112.5 637.915C2124.67 648.018 2136.84 658.14 2149 668.241C2126.17 649.893 2102.82 632.191 2079.23 614.629C2049.99 592.86 2021.24 570.872 1992.65 548.399C1942.25 508.776 1886.12 475.262 1829.84 442.714C1760.74 402.75 1686.13 370.353 1612.01 338.565C1545.95 310.226 1478.52 284.261 1411.27 258.255C1329.5 226.629 1247.09 196.284 1164.69 165.97C985.28 99.9575 804.961 35.3974 622.1 -22.7033C632.307 -19.531 642.507 -16.3618 652.71 -13.1864C613.915 -24.8264 574.776 -35.4793 535.296 -45.1452C496.162 -54.2182 456.811 -62.4593 417.234 -69.8748C403.294 -71.0884 389.328 -71.5634 375.332 -71.2809C351.21 -71.4609 326.958 -68.3259 303.097 -65.7092C277.76 -61.3512 252.458 -56.8038 227.212 -52.0702C200.794 -47.2621 174.216 -45.0086 147.36 -43.6211C132.001 -43.4349 116.954 -45.2601 102.216 -49.0842C93.4575 -52.9828 84.6863 -56.8814 75.9195 -60.78C53.5641 -75.2602 40.197 -95.1258 35.8266 -120.377C38.4219 -136.918 46.3207 -151.299 59.5143 -163.51C70.7766 -177.168 85.359 -186.554 103.266 -191.691C115.457 -189.745 127.275 -187.113 138.754 -183.096C124.775 -182.42 110.791 -181.746 96.8123 -181.076C120.691 -194.209 149.148 -199.318 176.33 -204.07C196.025 -207.519 216.614 -208.422 236.578 -209.701C256.641 -210.992 276.749 -211.327 296.852 -211.687C312.337 -211.973 327.739 -211.548 343.229 -211.274C365.645 -211.61 388.078 -211.939 410.508 -212.271C454.767 -212.681 499.013 -212.594 543.272 -212.001C564.807 -211.551 586.351 -211.11 607.895 -210.666C648.053 -209.819 688.124 -207.674 728.113 -204.238C748.628 -201.236 769.156 -198.238 789.676 -195.23C847.962 -179.129 907.785 -169.423 969.161 -166.099C949.87 -167.626 930.565 -169.147 911.265 -170.668C1001.74 -169.119 1092.2 -167.353 1182.67 -165.525C1277.08 -163.616 1371.77 -160.986 1465.89 -153.729C1545.99 -147.559 1626.38 -141.282 1705.6 -128.658C1748.34 -122.739 1790.69 -115.081 1832.64 -105.698C1842.48 -102.988 1852.3 -100.275 1862.14 -97.5656C1885.14 -90.2742 1907.96 -82.5639 1930.59 -74.4221C1927.42 -75.521 1924.23 -76.6167 1921.06 -77.7186C1940.2 -70.5049 1960.02 -65.315 1980.51 -62.1458C1947.68 -64.7346 1914.86 -67.3264 1882.05 -69.9214C1892.2 -69.9524 1902.34 -69.9741 1912.49 -70.002C1909.14 -69.313 1905.78 -68.6145 1902.41 -67.9254C1912.81 -70.7066 1923.2 -73.4847 1933.59 -76.2628C1955.69 -86.6457 1975.95 -99.338 1994.35 -114.355C1998.45 -116.264 2002.89 -116.773 2007.67 -115.879C2024.12 -115.122 2040.56 -114.063 2056.96 -112.673C2073.38 -111.468 2089.77 -109.947 2106.12 -108.104C2111.01 -108.237 2115.27 -107.045 2118.93 -104.522Z" fill="#EDEDED"/>
<path opacity="0.1091" d="M1592.89 376.924C1592.63 370.62 1592.36 364.313 1592.11 358.005C1593.38 360.734 1594.65 363.462 1595.91 366.191C1592.08 360.293 1588.26 354.389 1584.42 348.498C1604.35 375.357 1624.27 402.21 1644.2 429.068C1637.01 424.738 1629.82 420.415 1622.63 416.091C1623.86 416.544 1625.1 416.994 1626.33 417.447C1615.72 413.716 1605.11 409.988 1594.5 406.26C1595.76 406.698 1597.02 407.136 1598.28 407.567C1576.28 401.316 1554.12 395.499 1531.83 390.129C1533.23 390.48 1534.64 390.837 1536.05 391.19C1514.24 385.73 1492.32 380.649 1470.29 375.944C1471.78 376.245 1473.29 376.549 1474.79 376.853C1452.01 372.514 1429.24 368.18 1406.45 363.847C1407.99 364.13 1409.52 364.418 1411.05 364.698C1389.95 361.299 1368.84 357.903 1347.74 354.51C1305.7 348.43 1263.5 343.51 1221.13 339.742C1137.01 331.091 1051.96 328.85 967.407 326.103C879.952 323.259 792.375 322.154 704.885 320.456C607.899 318.563 510.935 317.244 413.94 316.719C415.967 316.725 417.994 316.735 420.007 316.738C346.857 316.974 273.836 317.871 200.712 319.621C128.763 321.35 56.9967 325.845 -14.7607 330.516C-50.1709 332.82 -85.5201 334.446 -120.817 338.041C-118.309 337.771 -115.8 337.51 -113.296 337.234C-132.544 339.723 -151.228 342.796 -170.137 346.816C-187.84 350.571 -203.976 357.174 -220.086 364.437C-232.169 369.881 -241.317 379.479 -250.583 387.925C-254.298 389.098 -257.961 390.399 -261.568 391.82C-264.649 393.056 -267.462 394.664 -270.001 396.653C-287.074 363.934 -304.139 331.221 -321.212 298.505C-310.315 300.743 -299.413 302.984 -288.528 305.225C-273.841 314.143 -260.149 324.166 -247.476 335.3C-250.922 332.714 -254.359 330.138 -257.792 327.561C-248.596 333.853 -239.386 340.151 -230.194 346.452C-234.356 343.882 -238.527 341.315 -242.698 338.755C-232.416 344.922 -222.13 351.09 -211.849 357.254C-198.751 364.555 -185.297 371.319 -171.504 377.536C-142.339 391.442 -111.07 402.008 -80.3077 412.704C-57.6791 420.567 -34.7031 427.734 -11.8877 435.149C16.2528 444.396 44.2372 453.994 72.0521 463.951C113.907 478.096 155.879 491.965 197.964 505.579C349.022 554.985 501.3 601.493 653.104 649.068C806.48 697.127 959.274 746.536 1111.21 798.103C1166.36 816.817 1221.1 836.354 1275.65 856.402C1339.47 879.85 1401.6 906.445 1463.15 934.198C1508.17 954.498 1551.1 977.998 1593.89 1001.7C1652.42 1034.12 1705.94 1072.78 1758.34 1112.39C1797.19 1141.75 1837.49 1169.6 1876.35 1198.95C1899.16 1216.17 1920.79 1234.38 1941.85 1253.24C1961.08 1270.45 1977.23 1290.64 1991.3 1311.3C2003.04 1324.24 2007.84 1339.09 2005.69 1355.85C2005.97 1372.72 1999.55 1387.07 1986.43 1398.93C1969.19 1404.83 1951.95 1410.74 1934.7 1416.65C1942.63 1413.9 1950.56 1411.14 1958.5 1408.38C1937.88 1418.42 1917.06 1428.09 1896.02 1437.42C1888.59 1439.89 1881.16 1442.36 1873.72 1444.84C1852.42 1452.49 1830.56 1458.43 1808.13 1462.66C1752.96 1474.6 1696.67 1476.02 1640.29 1479.17C1645.02 1478.88 1649.74 1478.57 1654.47 1478.27C1627.92 1480.01 1601.46 1482.41 1575.07 1485.45C1518.1 1491.43 1460.92 1494.35 1403.7 1497.6C1280.62 1504.58 1158.76 1519.07 1037.03 1536.31C982.966 1544.25 928.972 1552.54 875.056 1561.2C800.43 1572.96 725.652 1584.06 650.948 1595.37C514.967 1615.96 378.595 1634.67 243.096 1657.63C249.849 1656.32 256.611 1655.01 263.355 1653.7C241.573 1657.93 219.795 1662.17 198.012 1666.39C154.933 1675.26 112.097 1685 69.5177 1695.6C-6.01562 1713.59 -79.5353 1736.97 -152.938 1760.75C-143.876 1757.69 -134.814 1754.62 -125.748 1751.56C-166.917 1765.5 -207.787 1780.06 -248.392 1795.23C-289.27 1810.49 -329.91 1826.26 -370.289 1842.53C-411.072 1858.95 -451.621 1875.82 -491.918 1893.16C-501.418 1897.99 -510.918 1902.83 -520.414 1907.67C-554.253 1925.39 -587.979 1943.28 -621.597 1961.34C-689.557 1997.63 -758.099 2033.05 -826.228 2069.1C-859.885 2087 -893.303 2105.26 -926.469 2123.86C-941.468 2128.24 -956.471 2132.61 -971.47 2136.97C-991.165 2139.74 -1010.88 2139.47 -1030.64 2136.16C-1040.09 2134.19 -1049.54 2132.24 -1058.99 2130.28C-1075.45 2126.7 -1090.63 2120.69 -1104.51 2112.21C-1111.47 2104.92 -1113.3 2096.71 -1109.99 2087.55C-1107.17 2078.28 -1100.62 2072.25 -1090.32 2069.49C-1058.34 2060.32 -1029.89 2045.61 -1004.96 2025.36C-975.09 2010.56 -944.753 1996.54 -913.961 1983.31C-846.374 1953.19 -775.619 1927.73 -704.947 1903.96C-673.403 1893.11 -641.687 1882.69 -609.783 1872.7C-594.62 1867.83 -579.451 1862.94 -564.292 1858.06C-523.209 1843.1 -482.079 1828.25 -440.905 1813.49C-330.379 1773.71 -218.841 1736.32 -106.517 1700.7C-35.9053 1678.32 35.9 1658.84 107.514 1639.14C198.082 1614.24 290.523 1595.99 383.139 1578.33C427.941 1570.01 473.042 1563.32 518.46 1558.27C588.638 1549.12 658.838 1540.12 729.046 1531.18C838.284 1517.28 947.556 1503.53 1056.91 1490.35C1047.31 1491.56 1037.71 1492.78 1028.1 1493.99C1051.01 1490.8 1073.91 1487.61 1096.81 1484.43C1087.25 1485.85 1077.7 1487.29 1068.13 1488.72C1106.78 1482.75 1145.26 1475.99 1183.55 1468.47C1228.54 1459.49 1273.45 1450.24 1318.3 1440.74C1394.38 1424.84 1470.42 1409.17 1546.97 1395.13C1599.67 1385.47 1652.79 1377.46 1705.71 1368.8C1725.57 1365.77 1745.32 1362.33 1764.98 1358.47C1787.41 1353.61 1809.57 1347.93 1831.47 1341.45C1824.11 1343.49 1816.75 1345.54 1809.39 1347.59C1817.66 1343.89 1825.93 1340.19 1834.2 1336.49C1828.42 1339.85 1822.64 1343.2 1816.87 1346.55C1822.42 1342.05 1827.96 1337.55 1833.5 1333.05C1841.22 1321.69 1851.51 1312.59 1864.37 1305.75C1862.74 1334.96 1861.11 1364.16 1859.49 1393.38C1856.05 1388.87 1852.61 1384.36 1849.17 1379.85C1840.33 1369.83 1831.02 1360.17 1821.21 1350.88C1811.19 1341.95 1801.26 1332.96 1791.4 1323.91C1782.26 1315.85 1772.98 1307.97 1763.5 1300.23C1728.78 1271.31 1691.86 1244.81 1654.31 1218.87C1649.52 1215.48 1644.73 1212.1 1639.94 1208.72C1614 1189.08 1587.23 1170.39 1559.61 1152.65C1505.62 1116.51 1446.4 1086.8 1387.4 1057.77C1325.52 1027.33 1260.32 1002.18 1195.52 977.129C1122.22 948.799 1047.04 924.225 972.481 898.688C654.437 789.781 329.766 696.844 12.3947 586.364C-58.7683 561.594 -129.792 535.315 -196.798 502.478C-219.743 491.235 -239.976 477.28 -258.795 461.229C-275.165 447.264 -282.313 428.451 -287.777 409.476C-285.525 415.312 -283.281 421.15 -281.037 426.983C-296.652 388.428 -312.263 349.873 -327.887 311.315C-330.83 306.318 -330.474 301.808 -326.824 297.779C-323.452 293.253 -313.357 291.198 -307.936 289.289C-309.304 290.996 -310.658 292.713 -312.016 294.426C-309.642 286.033 -303.779 282.256 -296.687 276.327C-288.932 271.339 -280.633 267.173 -271.797 263.839C-260.609 259.491 -249.103 255.94 -237.294 253.168C-218.893 248.174 -199.397 246.047 -180.44 243.595C-159.261 240.867 -137.821 239.607 -116.486 238.272C-100.155 237.251 -83.7971 236.546 -67.4614 235.605C-19.7561 232.272 27.9926 229.658 75.7891 227.755C123.052 225.878 170.345 224.589 217.659 223.882C381.69 220.424 545.998 225.03 709.98 228.218C773.409 229.45 836.838 230.881 900.263 232.458C985.058 234.569 1069.51 239.417 1153.98 246.091C1196.36 249.862 1238.57 254.791 1280.6 260.866C1303.35 264.029 1325.98 267.698 1348.51 271.907C1369.76 275.787 1390.98 279.856 1412.15 284.105C1431.19 288.178 1450.11 292.657 1468.9 297.546C1489.79 302.745 1510.41 308.248 1531.14 313.923C1540.52 317.154 1549.87 320.45 1559.19 323.809C1568.6 327.015 1577.1 331.746 1584.68 338.022C1591.83 344.426 1597.94 351.555 1603.02 359.424C1613.73 373.755 1624.12 388.263 1634.22 402.945C1641.58 413.999 1648.87 425.083 1656.09 436.201C1662.37 446.777 1663.68 458.231 1660.01 470.575C1655.67 469.029 1652.43 466.257 1650.29 462.278C1640.89 450.269 1631.8 438.067 1623.05 425.679C1614.11 413.39 1605.5 400.915 1597.23 388.266C1594.09 384.849 1592.64 381.074 1592.89 376.924Z" fill="#EDEDED"/>
<path opacity="0.1091" d="M1907.19 298.589C1843.48 293.626 1779.96 289.876 1716.07 287.098C1631.19 283.395 1546.1 282.61 1461.15 280.853C1293.37 277.385 1125.64 274.943 957.812 276.973C885.672 277.854 813.65 281.172 741.636 284.686C700.801 286.673 659.923 289.842 619.079 292.105C599.944 293.16 580.913 294.849 561.861 296.758C536.094 299.343 511.152 304.555 486.392 311.216C488.115 310.722 489.825 310.229 491.54 309.729C480.269 313.109 469.462 317.399 459.111 322.589C448.743 326.86 439.633 332.674 431.786 340.034C434.26 337.724 436.738 335.409 439.221 333.093C435.883 336.781 432.542 340.459 429.195 344.143C425.255 349.29 419.986 352.819 413.38 354.731C406.263 357.885 399.9 361.355 393.729 365.763C404.952 331.078 416.175 296.394 427.403 261.717C433.431 266.143 439.473 270.575 445.501 275.002C460.478 284.248 476.076 292.555 492.308 299.936C526.885 316.999 565.255 328.403 602.431 339.965C674.813 362.475 749.908 377.691 822.951 398.389C867.279 412.59 911.656 426.648 956.098 440.578C1000.42 454.466 1044.76 468.275 1089.16 481.998C1177.59 509.428 1266.14 536.535 1354.63 563.816C1530.71 618.112 1706.2 673.773 1880.47 732.491C1940.1 752.583 1999.3 773.672 2058.5 794.757C2120.85 816.979 2181.68 842.037 2241.94 868.384C2301.19 894.296 2357.07 925.349 2412.03 957.714C2457.18 984.309 2498.52 1015.57 2539.68 1046.69C2557.06 1061.28 2574.65 1075.65 2592.47 1089.81C2603.08 1098.16 2613.72 1106.48 2624.42 1114.74C2648.42 1133.39 2672.23 1152.2 2695.68 1171.4C2719.07 1190.53 2740.97 1210.86 2762.07 1231.97C2779.8 1249.69 2794.02 1269.15 2805.88 1290.3C2806.83 1293.68 2807.79 1297.06 2808.75 1300.43C2806.51 1315.05 2802.41 1329.27 2796.42 1343.07C2792.9 1351.09 2789.38 1359.1 2785.87 1367.13C2783.04 1377.27 2776.71 1384.76 2766.85 1389.62C2754.35 1392.28 2741.85 1394.95 2729.35 1397.62C2703.87 1402.23 2678.2 1405.69 2652.33 1408C2599.62 1413.89 2545.83 1413.73 2492.83 1414.49C2452.3 1415.07 2411.8 1415.34 2371.29 1416.2C2344.39 1416.9 2317.53 1418.26 2290.72 1420.28C2253.78 1423.43 2216.99 1427.62 2180.34 1432.88C1850.74 1473.98 1522.22 1521.79 1193.37 1567.31C1169.86 1570.54 1146.36 1573.76 1122.87 1577C1077.45 1582.53 1032.27 1589.3 987.319 1597.29C901.613 1611.37 817.534 1632.8 733.994 1654.56C713.678 1660.34 693.371 1666.12 673.064 1671.91C642.671 1681.78 612.864 1692.87 583.613 1705.14C552.313 1717 520.908 1728.61 489.391 1740C453.118 1753.22 416.896 1766.57 380.731 1780.04C323.955 1801.07 267.392 1822.56 210.75 1843.89C150.841 1866.46 90.3543 1887.89 30.2757 1910.08C-15.1337 1926.85 -60.1222 1944.19 -104.902 1962.23C-134.562 1974.48 -163.761 1987.56 -192.488 2001.46C-241.782 2020.58 -291.093 2039.63 -340.443 2058.63C-347.191 2061.16 -352.907 2059.93 -357.59 2054.93C-362.59 2046.06 -363.171 2036.74 -359.374 2026.97C-356.084 2009.99 -351.518 1993.27 -345.655 1976.84C-343.989 1966.6 -338.642 1958.56 -329.623 1952.72C-312.12 1942.18 -294.634 1931.65 -277.14 1921.11C-263.429 1910.44 -248.443 1901.54 -232.173 1894.42C-203.169 1880.34 -173.691 1867.08 -143.741 1854.66C-113.951 1842.3 -83.9011 1830.44 -53.5948 1819.09C-9.26608 1802.05 35.6009 1786.01 80.2855 1769.73C149.218 1744.6 218.289 1719.75 287.299 1694.81C345.703 1673.71 404.34 1653.22 463.156 1633.05C500.311 1620.41 537.778 1608.58 575.575 1597.54C614.487 1587.07 653.452 1576.79 692.482 1566.69C713.257 1561 734.024 1555.31 754.791 1549.61C796.464 1538.38 838.401 1527.98 880.603 1518.42C967.334 1497.84 1055.77 1484.36 1144.39 1472.28C1473.44 1427.44 1801.98 1379.86 2131.38 1337.14C2191.59 1329.33 2251.76 1321.34 2312.25 1315.56C2365.76 1310.46 2420.13 1310.77 2473.87 1310.15C2527.5 1309.52 2580.95 1308.76 2634.52 1306.23C2660.68 1304.74 2686.74 1302.31 2712.66 1298.93C2738.23 1295.6 2763.47 1290.92 2788.39 1284.89C2775.38 1318 2762.38 1351.11 2749.38 1384.22C2744.39 1374.22 2738.39 1364.71 2731.4 1355.71C2723.41 1345.34 2714.8 1335.4 2705.56 1325.88C2685.6 1304.06 2662.06 1284.66 2639.19 1265.3C2616.12 1245.78 2591.89 1227.29 2567.92 1208.66C2557.23 1200.38 2546.58 1192.08 2535.97 1183.73C2531.27 1179.97 2526.58 1176.21 2521.88 1172.45C2496.84 1150.94 2470.82 1130.42 2443.84 1110.86C2446.39 1112.68 2448.94 1114.49 2451.49 1116.31C2425.43 1097.42 2398.54 1079.49 2370.85 1062.52C2330.71 1036.87 2287.39 1015.27 2244.45 993.649C2201.24 971.89 2155.85 953.564 2110.82 935.061C2064.38 915.971 2016.62 899.322 1969.15 882.402C1731.33 797.672 1489.21 722.819 1247.2 648.202C1136.39 614.033 1025.57 579.945 914.92 545.385C862.514 529.017 810.551 511.353 757.625 496.354C731.055 488.821 704.03 482.451 677.192 475.734C628.514 463.557 580.241 450.679 532.492 435.823C504.525 427.122 477.764 416.168 451.125 404.74C443.053 400.754 434.972 396.762 426.891 392.78C412.178 385.426 398.625 376.67 386.221 366.52C384.441 364.943 382.666 363.366 380.883 361.789C378.452 352.502 379.542 343.383 384.155 334.428C389.571 317.89 395.951 301.649 403.29 285.707C405.955 276.15 411.488 268.399 419.899 262.468C428.705 256.381 438.388 252.237 448.417 247.935C445.904 250.241 443.392 252.541 440.883 254.844C446.508 248.615 452.484 242.667 458.816 237.002C467.162 228.749 477.461 223.298 489.708 220.672C500.154 215.498 511.057 211.236 522.41 207.893C530.07 205.643 537.778 203.535 545.529 201.561C570.35 194.872 596.832 192.559 622.486 189.989C651.512 187.087 680.833 186.24 709.959 184.504C758.306 181.062 806.715 178.34 855.171 176.338C903.084 174.358 951.015 172.964 998.977 172.166C1118.46 169.419 1238.11 171.493 1357.6 173.37C1448.34 174.798 1539.05 176.797 1629.78 178.672C1672.28 179.547 1714.76 180.752 1757.23 182.279C1821.11 184.334 1884.71 188.813 1948.36 193.776C1947 197.457 1945.59 201.133 1944.13 204.789C1938.72 218.599 1933.3 232.412 1927.88 246.218C1922.45 260.022 1917.02 273.822 1911.58 287.626C1910.18 291.301 1908.71 294.954 1907.19 298.589Z" fill="#EDEDED"/>
</g>
</g>
</g>
</g>
</svg>
