<svg width="409" height="51" viewBox="0 0 409 51" fill="none" xmlns="http://www.w3.org/2000/svg">
<path d="M43.7847 10.8104C44.7422 6.75508 42.231 2.69141 38.1757 1.73383C34.1204 0.776258 30.0567 3.2874 29.0991 7.34271C28.1415 11.398 30.6527 15.4618 34.708 16.4194C38.7633 17.377 42.8271 14.8657 43.7847 10.8104Z" fill="white"/>
<path d="M104.379 10.8134C105.337 6.75813 102.826 2.69434 98.7704 1.73676C94.7151 0.779188 90.6514 3.29045 89.6938 7.34576C88.7362 11.4011 91.2474 15.4647 95.3028 16.4223C99.3581 17.3799 103.422 14.8688 104.379 10.8134Z" fill="white"/>
<path d="M164.974 10.816C165.932 6.76069 163.42 2.6969 159.365 1.73933C155.31 0.781755 151.246 3.29301 150.289 7.34833C149.331 11.4036 151.842 15.4674 155.897 16.425C159.953 17.3826 164.017 14.8713 164.974 10.816Z" fill="white"/>
<path d="M225.569 10.8198C226.526 6.76447 224.015 2.70068 219.96 1.74311C215.905 0.785536 211.841 3.29679 210.883 7.35211C209.926 11.4074 212.437 15.4711 216.492 16.4287C220.548 17.3862 224.611 14.8751 225.569 10.8198Z" fill="white"/>
<path d="M286.164 10.8225C287.121 6.76716 284.61 2.70337 280.555 1.7458C276.499 0.788221 272.436 3.29948 271.478 7.35479C270.52 11.4101 273.032 15.4738 277.087 16.4314C281.142 17.3889 285.206 14.8778 286.164 10.8225Z" fill="white"/>
<path d="M346.758 10.8255C347.716 6.77021 345.205 2.70654 341.149 1.74897C337.094 0.791395 333.03 3.30253 332.073 7.35785C331.115 11.4132 333.626 15.477 337.682 16.4345C341.737 17.3921 345.801 14.8808 346.758 10.8255Z" fill="white"/>
<path d="M407.417 10.182C408.084 6.06875 405.291 2.19311 401.178 1.52556C397.064 0.85801 393.189 3.65133 392.521 7.76457C391.854 11.8778 394.647 15.7533 398.76 16.4209C402.873 17.0884 406.749 14.2952 407.417 10.182Z" fill="white"/>
<path d="M16.0052 45.6037C18.9516 42.6572 18.9517 37.88 16.0052 34.9335C13.0587 31.987 8.28149 31.9871 5.33501 34.9335C2.38854 37.88 2.38859 42.6571 5.33507 45.6036C8.28155 48.5501 13.0587 48.5502 16.0052 45.6037Z" fill="white"/>
<path d="M76.5966 45.6038C79.543 42.6574 79.5431 37.8801 76.5966 34.9337C73.6501 31.9872 68.8729 31.9872 65.9264 34.9337C62.9799 37.8802 62.9799 42.6574 65.9264 45.6039C68.8729 48.5503 73.6501 48.5503 76.5966 45.6038Z" fill="white"/>
<path d="M137.188 45.6041C140.135 42.6576 140.135 37.8805 137.188 34.934C134.242 31.9875 129.465 31.9875 126.518 34.9339C123.572 37.8804 123.572 42.6576 126.518 45.6041C129.465 48.5506 134.242 48.5506 137.188 45.6041Z" fill="white"/>
<path d="M197.78 45.6044C200.726 42.6579 200.726 37.8807 197.78 34.9342C194.833 31.9878 190.056 31.9878 187.109 34.9343C184.163 37.8808 184.163 42.6579 187.109 45.6044C190.056 48.5508 194.833 48.5509 197.78 45.6044Z" fill="white"/>
<path d="M260.461 42.0902C261.419 38.0349 258.908 33.9711 254.852 33.0135C250.797 32.0559 246.733 34.5672 245.776 38.6225C244.818 42.6778 247.329 46.7416 251.385 47.6992C255.44 48.6567 259.504 46.1455 260.461 42.0902Z" fill="white"/>
<path d="M321.056 42.094C322.013 38.0386 319.502 33.9749 315.447 33.0173C311.391 32.0597 307.328 34.571 306.37 38.6263C305.412 42.6816 307.924 46.7453 311.979 47.7028C316.034 48.6604 320.098 46.1493 321.056 42.094Z" fill="white"/>
<path d="M381.651 42.0968C382.608 38.0415 380.097 33.9777 376.042 33.0201C371.987 32.0625 367.923 34.5738 366.965 38.6291C366.008 42.6844 368.519 46.7482 372.574 47.7058C376.63 48.6633 380.693 46.1521 381.651 42.0968Z" fill="white"/>
</svg>
