<svg width="206" height="80" viewBox="0 0 206 80" fill="none" xmlns="http://www.w3.org/2000/svg">
<path d="M71.0625 54.6667H75.75C76.6129 54.6667 77.3125 55.4129 77.3125 56.3333C77.3125 57.2538 76.6129 58 75.75 58H63.25C62.3871 58 61.6875 57.2538 61.6875 56.3333C61.6875 55.4129 62.3871 54.6667 63.25 54.6667H67.9375V43.4167L58.25 35.6667C57.4631 35.0372 57 34.0492 57 33V31.3333C57 29.4924 58.3991 28 60.125 28H78.875C80.6009 28 82 29.4924 82 31.3333V33C82 34.0492 81.5369 35.0372 80.75 35.6667L71.0625 43.4167V54.6667ZM60.125 31.3333V33L69.5 39.6667L78.875 33V31.3333H60.125Z" fill="black"/>
<circle cx="70" cy="20" r="4" fill="black"/>
<path d="M87.85 58V43.15C87.85 40.8167 88.3667 38.8167 89.4 37.15C90.4667 35.45 91.8833 34.15 93.65 33.25C95.4167 32.3167 97.3667 31.85 99.5 31.85C101.667 31.85 103.617 32.3167 105.35 33.25C107.117 34.15 108.517 35.45 109.55 37.15C110.617 38.8167 111.15 40.8167 111.15 43.15V58H107.65V43.3C107.65 41.5333 107.267 40.0333 106.5 38.8C105.733 37.5333 104.717 36.5667 103.45 35.9C102.217 35.2333 100.883 34.9 99.45 34.9C98.05 34.9 96.7333 35.2333 95.5 35.9C94.2667 36.5333 93.2667 37.4833 92.5 38.75C91.7333 39.9833 91.35 41.5 91.35 43.3V58H87.85ZM118.856 58V21.5H122.356V43.65H130.806L137.756 32.5H141.706L134.306 44.15C136.839 44.7833 138.806 46.0667 140.206 48C141.606 49.9333 142.306 52.2333 142.306 54.9V58H138.856V54.9C138.856 53.3333 138.506 51.9333 137.806 50.7C137.106 49.4667 136.139 48.5 134.906 47.8C133.706 47.0667 132.289 46.7 130.656 46.7H122.356V58H118.856ZM149.422 58V32.5H152.922V58H149.422ZM151.172 27.9C150.506 27.9 149.922 27.65 149.422 27.15C148.922 26.65 148.672 26.0667 148.672 25.4C148.672 24.7 148.922 24.1167 149.422 23.65C149.922 23.15 150.506 22.9 151.172 22.9C151.872 22.9 152.456 23.15 152.922 23.65C153.422 24.1167 153.672 24.7 153.672 25.4C153.672 26.0667 153.422 26.65 152.922 27.15C152.456 27.65 151.872 27.9 151.172 27.9ZM162.054 58V35.55H157.554V32.5H162.054V28.75C162.054 26.4833 162.687 24.7167 163.954 23.45C165.254 22.15 167.037 21.5 169.304 21.5H175.104V24.55H169.954C168.521 24.55 167.421 24.95 166.654 25.75C165.887 26.55 165.504 27.6833 165.504 29.15V32.5H174.154V35.55H165.504V58H162.054ZM188.376 68.15V58.5C186.51 58.2667 184.826 57.6833 183.326 56.75C181.826 55.7833 180.626 54.5 179.726 52.9C178.86 51.3 178.426 49.45 178.426 47.35V32.5H181.926V47.2C181.926 48.9667 182.31 50.4833 183.076 51.75C183.876 53.0167 184.893 53.9833 186.126 54.65C187.36 55.2833 188.676 55.6 190.076 55.6C191.51 55.6 192.843 55.2667 194.076 54.6C195.343 53.9333 196.36 52.9833 197.126 51.75C197.926 50.4833 198.326 48.9667 198.326 47.2V32.5H201.776V47.35C201.776 49.4833 201.326 51.35 200.426 52.95C199.56 54.5167 198.376 55.7833 196.876 56.75C195.376 57.6833 193.71 58.25 191.876 58.45V68.15H188.376Z" fill="black"/>
<path d="M3.95 58V23H14.9C18.5667 23 21.7667 23.75 24.5 25.25C27.2333 26.75 29.35 28.8167 30.85 31.45C32.35 34.05 33.1 37.05 33.1 40.45C33.1 43.85 32.35 46.8833 30.85 49.55C29.35 52.1833 27.2333 54.25 24.5 55.75C21.7667 57.25 18.5667 58 14.9 58H3.95ZM7.55 54.8H14.95C17.7167 54.8 20.2 54.2333 22.4 53.1C24.6 51.9333 26.3167 50.2833 27.55 48.15C28.8167 45.9833 29.45 43.4167 29.45 40.45C29.45 37.5167 28.8167 34.9833 27.55 32.85C26.3167 30.7167 24.6 29.0833 22.4 27.95C20.2 26.7833 17.7167 26.2 14.95 26.2H7.55V54.8ZM39.248 58V39.75C39.248 37.4833 39.8814 35.7167 41.148 34.45C42.448 33.15 44.2314 32.5 46.498 32.5H50.898V35.55H47.198C45.7314 35.55 44.6147 35.95 43.848 36.75C43.1147 37.55 42.748 38.6833 42.748 40.15V58H39.248Z" fill="black"/>
</svg>
