<svg width="56" height="47" viewBox="0 0 56 47" fill="none" xmlns="http://www.w3.org/2000/svg">
<path d="M45.7347 8.35427C45.7347 8.35427 56.8467 11.9693 55.1297 17.8983C53.4117 23.8273 54.0077 42.5853 46.9257 45.8733C39.8437 49.1593 13.1537 43.0093 8.91766 38.5193C4.68266 34.0293 -0.861332 30.6443 0.112667 24.8953C1.08567 19.1463 4.77567 -1.43374 8.29167 0.0792613C11.8077 1.59126 29.2227 -1.30273 34.5857 1.33727C39.9507 3.97827 45.7347 8.35427 45.7347 8.35427Z" fill="url(#paint0_radial_2006_314)"/>
<path d="M8.69669 35.4223C11.6897 32.5993 17.7577 16.4293 16.4907 12.2743C15.2227 8.11826 14.3437 9.90526 8.06268 5.64726C6.92568 4.87626 6.03169 4.08426 5.31769 3.30226C5.88569 1.94526 6.47269 0.925254 7.06369 0.398254C10.3057 3.23325 14.5137 6.68526 16.6507 7.50926C20.4157 8.96226 22.8877 9.41426 28.4557 9.64426C34.0257 9.87426 45.1877 14.7883 41.8337 8.51227C40.7227 6.43227 39.2727 4.26327 38.0707 2.37427C42.1057 5.15427 45.7347 8.35526 45.7347 8.35526C45.7347 8.35526 51.8237 10.3413 54.2877 13.7763C54.1737 13.8523 54.0587 13.9263 53.9217 13.9913C52.9997 14.4273 42.1607 14.2083 36.4117 13.2333C30.6637 12.2623 28.0707 11.3133 24.2227 12.7683C20.3737 14.2243 14.5557 37.9443 14.5557 37.9443C14.5557 37.9443 23.8477 42.4533 32.8237 46.1623C22.9217 44.7603 11.5587 41.3173 8.91768 38.5193C8.08168 37.6313 7.19569 36.7903 6.31769 35.9633C7.21269 36.1063 8.06768 36.0143 8.69669 35.4223Z" fill="url(#paint1_radial_2006_314)"/>
<path d="M46.5707 46.0153C42.6497 34.2863 38.6227 22.5943 33.9317 11.1413C35.1317 11.2873 36.3697 11.5293 37.6577 11.8843C38.2797 12.0553 38.8537 12.0633 39.3697 11.9553C39.3867 11.9543 39.4047 11.9593 39.4197 11.9603C41.7027 18.0733 47.5957 33.9533 49.8577 43.0833C49.0607 44.3513 48.1027 45.3273 46.9277 45.8723C46.8157 45.9243 46.6907 45.9673 46.5707 46.0153Z" fill="url(#paint2_radial_2006_314)"/>
<path d="M22.1067 13.4983C24.8377 12.0123 27.5417 11.1843 30.4117 11.0193C30.0457 11.5823 29.9117 12.3043 30.2247 13.0703C34.7587 24.1273 38.6417 35.4233 42.4227 46.7533C39.1617 46.9273 34.9507 46.5433 30.6007 45.8133C28.4687 38.1723 24.1647 22.6263 22.1067 13.4983Z" fill="url(#paint3_radial_2006_314)"/>
<defs>
<radialGradient id="paint0_radial_2006_314" cx="0" cy="0" r="1" gradientUnits="userSpaceOnUse" gradientTransform="translate(27.9575 22.8609) rotate(166.414) scale(27.5657 27.5657)">
<stop offset="0.0279" stop-color="white" stop-opacity="0.6"/>
<stop offset="1" stop-color="white" stop-opacity="0.6"/>
</radialGradient>
<radialGradient id="paint1_radial_2006_314" cx="0" cy="0" r="1" gradientUnits="userSpaceOnUse" gradientTransform="translate(29.3691 21.0018) rotate(166.414) scale(25.5955 25.5955)">
<stop offset="0.0279" stop-color="white" stop-opacity="0.6"/>
<stop offset="1" stop-color="white" stop-opacity="0.6"/>
</radialGradient>
<radialGradient id="paint2_radial_2006_314" cx="0" cy="0" r="1" gradientUnits="userSpaceOnUse" gradientTransform="translate(35.3802 25.859) rotate(166.414) scale(17.2858 17.2858)">
<stop offset="0.0279" stop-color="white" stop-opacity="0.6"/>
<stop offset="1" stop-color="white" stop-opacity="0.6"/>
</radialGradient>
<radialGradient id="paint3_radial_2006_314" cx="0" cy="0" r="1" gradientUnits="userSpaceOnUse" gradientTransform="translate(35.3806 25.8586) rotate(166.414) scale(17.2854 17.2854)">
<stop offset="0.0279" stop-color="white" stop-opacity="0.6"/>
<stop offset="1" stop-color="white" stop-opacity="0.6"/>
</radialGradient>
</defs>
</svg>
