<svg width="564" height="646" viewBox="0 0 564 646" fill="none" xmlns="http://www.w3.org/2000/svg">
<path d="M82.7901 459.087C88.2131 485.533 110.245 536.037 123.906 548.559C186.223 605.673 254.039 494.017 265.894 442.808C274.826 404.229 281.181 344.731 281.181 344.731L243.823 327.888L274.276 314.466L274.619 259.753L256.986 263.369L278.627 221.699L280.723 97.2138L254.636 102.563L274.66 67.6451C274.66 67.6451 278.869 22.2513 271.31 14.615C263.751 6.97874 255.752 -2.16276 241.096 8.49855C226.439 19.1589 175.149 119.982 175.149 119.982L174.803 170.563L160.13 150.597L117.641 272.609L137.831 311.339L111.836 289.107L86.5847 419.838L101.69 441.237L82.7901 459.087Z" fill="#1D375A"/>
<path d="M244.66 55.1474C239.917 70.5694 231.137 105.122 221.106 146.875C205.614 211.363 187.139 293.024 175.95 347.902C170.585 374.212 166.945 394.611 166.062 403.765C162.14 444.379 148.877 617.298 150.082 623.176C151.287 629.054 158.898 621.368 158.898 621.368C158.898 621.368 176.529 395.526 183.691 355.779C190.853 316.032 226.664 153.916 226.664 153.916L244.66 55.1474Z" fill="#3162A4"/>
<path d="M169.168 525.126C167.209 548.673 165.275 571.942 163.367 594.876C162.903 600.609 162.439 606.323 161.977 612.014C161.734 614.998 161.491 617.977 161.249 620.949L161.151 621.994C160.916 622.247 160.663 622.49 160.416 622.736L159.668 623.433L159.23 623.819C158.639 624.325 158.026 624.812 157.366 625.279C156.703 625.742 155.998 626.185 155.179 626.579C154.736 626.779 154.382 626.942 153.751 627.117C153.131 627.295 152.391 627.383 151.723 627.32C150.353 627.224 149.096 626.429 148.392 625.251C148.019 624.68 147.778 623.974 147.646 623.427C147.513 622.854 147.522 622.401 147.475 621.879C147.449 620.285 147.495 618.897 147.547 617.461C147.65 614.608 147.799 611.789 147.95 608.975C148.296 603.357 148.64 597.764 148.984 592.194C151.987 547.698 155.402 504.844 158.756 464.016C160.463 443.603 162.124 423.708 163.993 404.366C164.243 401.946 164.629 399.512 164.939 397.101C165.234 394.673 165.667 392.31 166.075 389.947C166.484 387.585 166.89 385.23 167.296 382.885C167.705 380.541 168.178 378.226 168.613 375.909C170.346 366.64 172.236 357.568 174.051 348.637C181.917 313.062 189.244 279.921 195.932 249.668C210.314 189.399 221.7 140.573 230.468 107.047C234.747 90.2592 238.306 77.2829 240.739 68.493C243.31 59.7413 244.66 55.1454 244.66 55.1454C244.66 55.1454 243.381 59.7613 240.947 68.5504C238.648 77.3742 235.28 90.3961 231.23 107.237C222.92 140.869 212.147 189.834 198.384 250.22C191.975 280.514 184.955 313.698 177.418 349.321C175.679 358.252 173.861 367.329 172.205 376.575C171.789 378.886 171.333 381.202 170.944 383.533C170.559 385.864 170.172 388.203 169.784 390.552C169.394 392.901 168.98 395.261 168.714 397.616C168.427 399.982 168.068 402.327 167.835 404.733C166.106 424.028 164.57 443.945 162.983 464.353C159.867 505.179 156.645 548.054 153.783 592.501C153.457 598.055 153.13 603.633 152.801 609.234C152.658 612.031 152.518 614.836 152.424 617.624C152.376 619.006 152.341 620.443 152.361 621.675C152.386 621.855 152.37 622.12 152.389 622.236C152.424 622.373 152.417 622.345 152.424 622.357C152.435 622.37 152.452 622.38 152.468 622.382C152.489 622.378 152.459 622.387 152.52 622.369C152.573 622.354 152.875 622.242 153.074 622.145C153.533 621.923 154.036 621.615 154.535 621.264C155.034 620.909 155.534 620.512 156.02 620.093L156.412 619.746C156.419 619.741 156.421 619.734 156.42 619.726C156.63 617.029 156.841 614.327 157.052 611.619C157.504 605.926 157.958 600.21 158.413 594.474C160.302 571.532 162.219 548.254 164.159 524.698C166.892 492.602 169.712 461.046 172.726 430.415C174.255 415.101 175.77 400.015 177.507 385.213C178.333 377.809 179.286 370.482 180.3 363.218C180.586 361.398 180.873 359.585 181.158 357.775L181.591 355.067L182.14 352.409C182.872 348.869 183.601 345.347 184.324 341.847C185.776 334.847 187.209 327.923 188.626 321.087C190.06 314.254 191.404 307.486 192.902 300.86C195.835 287.588 198.688 274.676 201.45 262.172C206.943 237.157 212.306 213.828 217.146 192.479C219.589 181.814 221.918 171.647 224.123 162.026C224.677 159.622 225.224 157.251 225.762 154.916C226.305 152.581 226.689 150.25 227.149 147.972C228.031 143.407 228.887 138.985 229.712 134.712C233.033 117.621 235.89 102.915 238.212 90.9647C242.877 67.0645 245.432 54.1918 245.24 55.3226C242.28 72.3971 238.461 94.4303 233.709 121.842C232.509 128.694 231.251 135.883 229.931 143.413C229.256 147.175 228.626 151.036 227.87 154.96C227.035 158.872 226.181 162.87 225.309 166.953C221.832 183.28 218.061 200.994 213.982 220.148C209.941 239.303 205.596 259.897 200.936 281.983C199.774 287.505 198.593 293.12 197.391 298.828C196.789 301.683 196.183 304.561 195.572 307.463C194.995 310.368 194.411 313.297 193.824 316.25C191.475 328.059 189.05 340.249 186.549 352.824C185.853 355.967 185.465 359.133 184.965 362.322C184.446 365.495 184.1 368.766 183.685 372.034C182.838 378.57 182.159 385.25 181.408 392.014C180.714 398.79 180.011 405.665 179.296 412.641C178.624 419.624 177.943 426.707 177.253 433.892C174.559 462.643 171.899 493.041 169.168 525.126Z" fill="#3563A1"/>
<path d="M199.176 162.85C199.596 164.169 200.012 165.473 200.422 166.758C200.835 168.04 201.205 169.318 201.525 170.591C202.189 173.125 202.799 175.577 203.357 177.917C203.913 180.258 204.418 182.487 204.871 184.577C205.294 186.675 205.55 188.667 205.833 190.467C206.899 197.688 207.314 202.16 207.314 202.16C207.314 202.16 205.665 197.927 203.393 191.071C202.81 189.359 202.255 187.47 201.553 185.467C200.821 183.472 200.057 181.337 199.28 179.086C198.504 176.834 197.714 174.464 196.927 172C196.548 170.765 196.129 169.515 195.684 168.25C195.259 166.98 194.829 165.692 194.393 164.388C193.23 160.826 192.288 157.323 191.529 154.068C190.718 150.825 190.092 147.834 189.625 145.293C189.159 142.752 188.848 140.662 188.662 139.221C188.477 137.781 188.417 136.99 188.451 137.049C189.461 138.84 190.955 141.708 192.811 145.91C193.735 148.014 194.767 150.441 195.84 153.249C196.885 156.072 198.003 159.262 199.176 162.85Z" fill="#3563A1"/>
<path d="M236.495 180.784C230.561 186.747 225.532 192.577 222.308 197.197C221.879 197.759 221.47 198.295 221.085 198.803C220.688 199.307 220.4 199.829 220.078 200.292C219.45 201.232 218.908 202.041 218.465 202.704C217.544 204.026 217.034 204.76 217.034 204.76C217.034 204.76 217.291 203.906 217.754 202.371C218.005 201.6 218.311 200.658 218.665 199.565C218.86 199.025 219.022 198.42 219.289 197.827C219.555 197.231 219.836 196.603 220.131 195.942C222.332 190.569 226.633 183.566 232.941 177.232C233.474 176.69 234 176.149 234.547 175.643C235.119 175.164 235.691 174.7 236.261 174.25C237.401 173.35 238.531 172.508 239.626 171.731C241.915 170.295 244.081 169.133 245.923 168.224C247.84 167.418 249.418 166.838 250.507 166.47C251.597 166.101 252.198 165.943 252.161 165.983C249.977 168.457 244.606 172.659 236.495 180.784Z" fill="#3563A1"/>
<path d="M184.418 222.571C184.935 224.145 185.444 225.7 185.947 227.233C186.464 228.761 186.795 230.319 187.206 231.824C187.587 233.338 187.96 234.824 188.326 236.279C188.503 237.009 188.678 237.729 188.851 238.443C188.986 239.165 189.12 239.878 189.252 240.583C189.774 243.404 190.243 246.084 190.663 248.593C190.978 251.123 191.217 253.485 191.438 255.636C191.543 256.71 191.643 257.734 191.737 258.703C191.835 259.67 191.827 260.595 191.87 261.454C191.918 263.169 191.96 264.647 191.994 265.855C192.03 268.263 192.05 269.597 192.05 269.597C192.05 269.597 191.752 268.294 191.215 265.942C190.962 264.769 190.653 263.333 190.296 261.668C190.108 260.837 189.966 259.942 189.717 259.008C189.479 258.073 189.226 257.085 188.962 256.048C188.452 253.978 187.895 251.709 187.297 249.276C186.597 246.867 185.87 244.294 185.133 241.585C184.95 240.908 184.766 240.222 184.579 239.527C184.361 238.842 184.141 238.149 183.918 237.449C183.482 236.046 183.038 234.613 182.586 233.156C182.119 231.705 181.747 230.196 181.206 228.716C180.699 227.226 180.182 225.715 179.662 224.185C178.358 219.973 176.856 215.999 175.721 212.234C175.577 211.764 175.435 211.299 175.295 210.84C175.135 210.389 174.977 209.945 174.82 209.505C174.515 208.623 174.216 207.763 173.928 206.931C173.362 205.26 172.851 203.682 172.399 202.226C171.388 199.371 170.529 197.041 170.005 195.403C169.469 193.772 169.211 192.865 169.26 192.929C169.989 193.899 170.906 195.167 172.01 196.781C173.09 198.404 174.475 200.315 175.729 202.753C178.402 207.548 181.566 214.001 184.418 222.571Z" fill="#3563A1"/>
<path d="M219.582 271.214C211.678 278.576 205.568 286.33 201.671 292.382C200.708 293.9 199.797 295.263 199.101 296.521C198.378 297.763 197.716 298.826 197.26 299.733C196.281 301.53 195.738 302.526 195.738 302.526C195.738 302.526 196.022 301.423 196.533 299.437C196.774 298.43 197.19 297.245 197.657 295.854C198.097 294.449 198.743 292.911 199.454 291.196C200.944 287.811 202.923 283.815 205.724 279.748C208.492 275.665 211.977 271.447 216.145 267.548C218.956 264.856 222.037 262.669 224.93 260.821C226.42 259.955 227.829 259.12 229.206 258.43C230.596 257.76 231.881 257.129 233.095 256.626C234.316 256.138 235.427 255.713 236.404 255.356C237.385 255.007 238.258 254.767 238.955 254.558C240.356 254.153 241.121 253.977 241.068 254.019C240.256 254.656 239.2 255.451 237.875 256.391C237.213 256.862 236.513 257.422 235.729 257.993C234.95 258.572 234.086 259.166 233.2 259.877C229.579 262.596 224.956 266.185 219.582 271.214Z" fill="#3563A1"/>
<path d="M168.524 298.685C171.252 305.811 172.944 312.865 174.091 319.295C175.253 325.73 175.822 331.569 176.195 336.465C176.569 341.363 176.701 345.329 176.78 348.071C176.83 350.812 176.859 352.331 176.859 352.331C176.859 352.331 175.652 346.39 173.707 336.813C172.718 332.04 171.536 326.37 169.945 320.186C168.368 313.999 166.433 307.281 163.832 300.483C163.388 299.325 162.949 298.178 162.515 297.042C162.039 295.926 161.569 294.823 161.105 293.736C160.879 293.188 160.655 292.645 160.434 292.106C160.186 291.58 159.94 291.059 159.696 290.541C159.214 289.501 158.742 288.479 158.279 287.479C157.283 285.521 156.308 283.649 155.377 281.889C154.352 280.197 153.452 278.552 152.555 277.09C151.605 275.67 150.752 274.361 150.006 273.197C149.25 272.041 148.496 271.128 147.941 270.326C146.801 268.75 146.203 267.858 146.275 267.915C147.369 268.759 148.769 269.876 150.49 271.318C151.341 272.05 152.175 272.947 153.134 273.895C154.084 274.851 155.124 275.888 156.095 277.135C160.208 281.931 164.796 288.969 168.524 298.685Z" fill="#3563A1"/>
<path d="M211.511 331.764C206.488 336.503 201.995 341.318 198.139 345.917C194.25 350.493 191.114 354.927 188.533 358.706C187.279 360.618 186.104 362.336 185.186 363.913C184.239 365.474 183.383 366.807 182.775 367.943C181.489 370.189 180.775 371.433 180.775 371.433C180.775 371.433 181.234 370.072 182.062 367.613C182.459 366.37 183.074 364.907 183.77 363.191C184.436 361.459 185.35 359.561 186.356 357.451C188.441 353.277 191.137 348.361 194.782 343.327C198.391 338.276 202.838 333.036 208.06 328.112C211.588 324.72 215.385 321.875 218.951 319.434C220.78 318.274 222.507 317.147 224.197 316.201C225.899 315.27 227.471 314.384 228.959 313.662C230.452 312.95 231.811 312.322 233.006 311.784C234.208 311.259 235.273 310.866 236.127 310.531C237.842 309.876 238.779 309.563 238.712 309.617C237.69 310.425 236.363 311.441 234.695 312.656C233.86 313.262 232.978 313.979 231.988 314.716C231.007 315.468 229.916 316.236 228.793 317.148C224.219 320.663 218.357 325.304 211.511 331.764Z" fill="#3563A1"/>
<path d="M153.374 381.474C158.926 392.47 161.245 403.485 162.022 411.366C162.227 413.345 162.381 415.131 162.429 416.709C162.505 418.283 162.561 419.634 162.539 420.743C162.513 422.952 162.499 424.176 162.499 424.176C162.499 424.176 162.234 422.983 161.757 420.83C161.547 419.752 161.218 418.447 160.853 416.933C160.516 415.416 160.057 413.707 159.55 411.827C157.557 404.296 154.146 394.154 148.885 383.738C147.139 380.162 145.271 376.804 143.604 373.66C142.725 372.11 141.883 370.629 141.092 369.235C140.27 367.849 139.501 366.552 138.795 365.364C138.056 364.195 137.395 363.117 136.82 362.16C136.24 361.207 135.695 360.419 135.284 359.748C134.446 358.419 134.018 357.664 134.076 357.71C134.962 358.387 136.09 359.285 137.465 360.447C138.147 361.031 138.845 361.724 139.625 362.47C140.4 363.222 141.247 364.034 142.078 364.99C145.511 368.707 149.587 374.003 153.374 381.474Z" fill="#3563A1"/>
<path d="M202.601 401.619C191.8 410.978 183.202 420.773 177.62 428.412C176.235 430.327 174.944 432.045 173.927 433.633C172.88 435.201 171.933 436.537 171.262 437.687C169.841 439.953 169.054 441.207 169.054 441.207C169.054 441.207 169.592 439.824 170.564 437.326C171.032 436.062 171.741 434.582 172.546 432.846C173.319 431.091 174.359 429.18 175.506 427.054C177.866 422.85 180.912 417.927 184.917 412.916C188.887 407.884 193.709 402.688 199.303 397.828C203.078 394.472 207.118 391.699 210.888 389.312C212.807 388.165 214.663 387.112 216.424 386.167C218.216 385.272 219.888 384.441 221.439 383.733C223.012 383.06 224.44 382.47 225.696 381.965C226.951 381.458 228.074 381.111 228.967 380.8C230.765 380.199 231.744 379.915 231.672 379.968C230.576 380.746 229.153 381.724 227.371 382.889C226.494 383.496 225.532 384.161 224.481 384.887C223.425 385.601 222.278 386.368 221.074 387.253C216.199 390.68 209.957 395.238 202.601 401.619Z" fill="#3563A1"/>
<path d="M145.876 458.155C146.56 459.627 147.236 461.081 147.903 462.515C148.23 463.234 148.554 463.948 148.876 464.656C149.184 465.371 149.447 466.098 149.729 466.81C150.815 469.673 151.907 472.415 152.786 475.084C153.614 477.775 154.373 480.336 155.064 482.732C155.741 485.134 156.167 487.432 156.64 489.497C157.62 493.62 157.976 497.052 158.31 499.39C158.602 501.733 158.763 503.029 158.763 503.029C158.763 503.029 158.328 501.794 157.544 499.564C156.752 497.339 155.793 494.087 154.225 490.193C151.402 482.318 146.908 471.725 141.356 460.353C140.883 459.384 140.477 458.391 139.99 457.451C139.521 456.503 139.058 455.566 138.6 454.641C137.703 452.784 136.866 450.96 136.088 449.196C134.368 445.765 132.917 442.554 131.696 439.828C130.38 437.165 129.362 434.945 128.686 433.404C128.009 431.863 127.676 431.004 127.73 431.062C128.536 431.935 129.557 433.08 130.791 434.539C131.4 435.276 132.068 436.085 132.798 436.968C133.522 437.858 134.308 438.826 135.057 439.938C136.583 442.145 138.365 444.68 140.212 447.683C141.095 449.207 142.019 450.834 142.983 452.569C143.461 453.437 143.953 454.332 144.458 455.251C144.964 456.17 145.392 457.16 145.876 458.155Z" fill="#3563A1"/>
<path d="M191.839 483.311C186.33 488.195 181.567 493.346 177.741 498.436C173.847 503.493 171.144 508.604 169.052 512.991C168.564 514.108 168.099 515.172 167.66 516.178C167.549 516.431 167.439 516.679 167.33 516.925C167.243 517.176 167.156 517.425 167.073 517.67C166.902 518.159 166.737 518.634 166.577 519.093C165.938 520.931 165.325 522.514 165.026 523.856C164.293 526.529 163.887 528.008 163.887 528.008C163.887 528.008 164.019 526.474 164.256 523.703C164.328 522.299 164.678 520.63 165.044 518.67C165.138 518.179 165.235 517.672 165.334 517.147C165.386 516.886 165.437 516.619 165.49 516.349C165.564 516.084 165.64 515.817 165.716 515.545C166.028 514.454 166.359 513.301 166.705 512.09C168.271 507.318 170.544 501.642 174.254 496.022C177.891 490.373 182.713 484.682 188.5 479.554C196.365 472.482 205.175 467.932 211.668 465.189C213.311 464.525 214.803 463.942 216.114 463.445C217.436 462.966 218.598 462.614 219.531 462.313C221.405 461.725 222.426 461.449 222.349 461.499C221.19 462.273 219.687 463.245 217.803 464.403C216.857 464.974 215.86 465.676 214.743 466.382C213.638 467.112 212.401 467.831 211.136 468.725C205.984 472.133 199.343 476.646 191.839 483.311Z" fill="#3563A1"/>
<g opacity="0.3">
<path d="M201.768 435.812C203.802 427.182 205.902 418.782 207.956 410.809C210.05 402.852 211.941 395.333 213.715 388.826C214.617 385.521 215.432 382.531 216.148 379.905C216.922 377.202 217.588 374.874 218.132 372.97C219.237 369.115 220.025 366.903 220.025 366.903C220.025 366.903 221.384 368.756 223.522 372.254C224.621 373.999 225.791 376.179 227.098 378.753C228.442 381.322 229.741 384.312 231.076 387.681C233.673 394.415 236.183 402.729 237.277 412.306C238.412 421.853 238.252 432.697 235.635 443.794C233.971 451.369 230.167 458.216 225.907 463.826C224.792 465.216 223.604 466.52 222.439 467.759C221.247 468.987 220.139 470.18 218.877 471.231C216.359 473.333 213.964 475.18 211.572 476.669C209.123 478.13 206.831 479.316 204.778 480.262C202.706 481.198 200.736 481.806 199.175 482.289C196.016 483.228 194.147 483.467 194.144 483.325C194.152 481.085 194.272 478.36 194.636 475.289C194.81 473.747 194.905 472.027 195.147 470.276C195.368 468.513 195.707 466.699 195.932 464.694C197.168 456.836 198.985 447.548 201.768 435.812Z" fill="white"/>
</g>
<path d="M238.126 484.292L239.902 481.289L241.668 478.415C242.804 476.487 244.112 474.63 245.342 472.751C247.864 469.02 250.494 465.363 253.196 461.787C258.593 454.629 264.208 447.744 269.852 441.073C281.21 427.778 292.673 415.32 303.86 403.697C326.222 380.43 347.343 360.366 365.491 343.987C383.652 327.615 398.932 315.003 409.874 306.789C415.317 302.639 419.712 299.649 422.695 297.621C425.732 295.673 427.328 294.649 427.328 294.649C427.328 294.649 425.655 295.545 422.47 297.251C419.337 299.049 414.712 301.721 408.973 305.503C397.438 312.982 381.304 324.664 362.225 340.167C343.157 355.681 321.063 374.927 297.83 397.732C286.208 409.127 274.333 421.444 262.572 434.783C256.722 441.483 250.904 448.441 245.278 455.779C242.461 459.445 239.708 463.221 237.044 467.128C235.737 469.106 234.371 471.036 233.14 473.108L231.248 476.179L229.458 479.201C216.562 501.138 204.222 522.472 193.142 542.183C182.055 561.891 172.198 579.963 164.1 595.303C156 610.641 149.662 623.252 145.572 631.991C144.529 634.165 143.658 636.112 142.927 637.794C142.195 639.474 141.549 640.872 141.141 642.011C140.272 644.272 139.874 645.364 139.981 645.167C143.068 639.2 147.75 631.662 153.524 622.327C159.344 612.998 166.306 601.838 174.499 588.704C182.697 575.566 192.104 560.435 202.724 543.112C213.336 525.787 225.19 506.291 238.126 484.292Z" fill="#18747E"/>
<path d="M415.695 301.835C463.304 293.9 482.276 282.448 510.605 260.533C538.933 238.617 557.74 215.938 562.983 210.793C568.226 205.648 546.889 213.621 528.742 224.009C510.594 234.397 483.746 254.397 468.569 257.674C453.392 260.95 438.777 261.866 432.789 274.513C426.8 287.158 415.695 301.835 415.695 301.835Z" fill="#21898E"/>
<path d="M351.195 345.438C355.397 337.064 358.92 329.401 361.852 324.028C362.577 322.68 363.226 321.449 363.868 320.418C364.495 319.374 364.994 318.429 365.496 317.734C366.447 316.28 366.975 315.472 366.975 315.472C366.975 315.472 366.233 316.098 364.898 317.224C364.205 317.781 363.482 318.564 362.602 319.455C361.705 320.336 360.781 321.411 359.772 322.618C355.702 327.426 350.95 334.718 346.705 343.179C343.806 348.948 341.916 354.674 340.585 358.861C339.925 360.962 339.384 362.665 338.947 363.845C338.503 365.009 338.086 365.686 338.159 365.654C339.825 364.493 341.555 362.254 343.718 358.932C345.864 355.603 348.33 351.147 351.195 345.438Z" fill="#18747E"/>
<path d="M352.283 337.822C380.137 318.068 391.588 301.63 412.188 288.071C432.79 274.512 436.429 258.365 450.118 239.032C463.807 219.7 470.19 207.776 451.53 218.209C432.871 228.642 416.958 236.14 403.522 251.876C390.087 267.61 369.286 294.505 362.735 304.608C356.184 314.713 352.283 337.822 352.283 337.822Z" fill="#21898E"/>
<path d="M358.052 347.072C384.69 348.139 469.973 337.828 499.687 326.257C529.403 314.685 530.051 307.309 534.8 306.071C539.55 304.834 506.611 298.578 493.39 300.864C480.168 303.152 438.579 320.963 427.7 323.589C416.819 326.214 410.09 334.915 397.718 332.932C385.345 330.947 358.052 347.072 358.052 347.072Z" fill="#21898E"/>
<path d="M320.506 381.365C329.189 354.515 342.046 331.355 349.353 313.736C356.66 296.117 377.607 251.054 378.047 239.045C378.487 227.034 382.885 211.541 387.058 207.781C391.231 204.02 373.81 205.296 363.18 220.673C352.551 236.05 328.616 271.899 329.796 286.718C330.976 301.537 328.794 327.241 321.835 337.872C314.877 348.503 306.355 372.384 309.939 380.25C313.523 388.117 320.506 381.365 320.506 381.365Z" fill="#21898E"/>
<path d="M303.9 397.626C320.716 399.795 351.505 401.76 380.822 393.641C410.139 385.522 433.178 372.078 449.662 372.015C466.146 371.952 469.505 361.318 474.033 359.426C478.561 357.534 443.577 344.722 425.73 353.504C407.882 362.285 377.045 376.003 362.013 379.093C346.98 382.183 303.9 397.626 303.9 397.626Z" fill="#21898E"/>
<path d="M279.381 423.171C285.466 402.872 295.772 369.124 300.794 354.046C305.817 338.968 310.149 330.098 315.063 309.035C319.976 287.972 320.02 271.571 319.989 260.169C319.959 248.768 324.968 237.387 314.211 239.855C303.453 242.322 283.875 267.634 283.905 279.036C283.936 290.438 288.181 309.467 280.547 320.973C272.911 332.48 271.06 355.068 268.793 363.428C266.526 371.788 272.348 383.876 272.558 396.681C272.768 409.486 279.381 423.171 279.381 423.171Z" fill="#21898E"/>
<path d="M261.356 443.634C291.095 441.36 297.423 446.254 328.718 440.117C360.013 433.981 361.104 444.012 376.765 431.936C392.426 419.86 406.911 414.208 416.755 411.289C426.6 408.367 395.862 399.073 383.376 400.506C370.89 401.94 325.948 415.22 316.476 418.006C307.002 420.793 295.057 426.541 284.881 427.424C274.705 428.307 261.356 443.634 261.356 443.634Z" fill="#21898E"/>
<path d="M238.715 472.906C252.503 440.587 261.696 431.969 263.082 410.564C264.468 389.159 257.548 362.146 255.409 348.566C253.27 334.986 262.102 314.579 258.2 303.687C254.297 292.796 244.449 289.184 244.449 289.184C244.449 289.184 241.523 323.205 235.436 333.119C229.348 343.032 223.619 365.149 227.067 375.402C230.515 385.654 239.963 409.397 238.845 417.382C237.726 425.366 231.574 435.778 231.658 443.429C231.744 451.08 238.715 472.906 238.715 472.906Z" fill="#21898E"/>
<path d="M220.017 505.047C243.121 506.655 262.94 505.549 283.117 507.249C303.294 508.949 322.836 500.028 332.651 498.779C342.467 497.529 353.961 495.746 365.122 489.488C376.284 483.229 398.179 472.902 400.506 473.162C402.832 473.423 358.303 467.25 352.623 466.421C346.942 465.592 317.031 467.74 306.124 470.683C295.218 473.625 281.93 483.575 266.92 482.079C251.909 480.583 241.613 489.055 238.972 490.804C236.329 492.552 220.017 505.047 220.017 505.047Z" fill="#21898E"/>
<path d="M209.14 523.308C210.139 505.164 218.717 466.287 215.881 455.245C213.044 444.201 202.045 430.637 202.268 415.639C202.491 400.64 194.476 388.119 189.013 378.838C183.55 369.556 176.505 359.05 176.505 359.05C176.505 359.05 174.224 391.419 173.031 404.404C171.838 417.387 173.555 436.415 177.26 443.076C182.811 453.078 176.576 465.811 182.762 476.125C188.634 485.915 196.262 490.063 199.719 501.327C202.163 509.282 204.299 516.193 209.14 523.308Z" fill="#21898E"/>
<path d="M184.982 562.824C217.74 559.084 233.276 563.515 269.496 562.453C305.716 561.391 315.282 563.732 326.578 557.3C337.875 550.867 356.184 543.537 358.991 543.179C361.798 542.822 324.062 526.23 303.441 526.739C282.82 527.248 269.383 524.44 262.685 526.844C255.987 529.248 238.611 534.677 225.338 535.838C212.067 536.997 184.982 562.824 184.982 562.824Z" fill="#21898E"/>
<path d="M162.293 602.24C155.435 579.161 146.702 561.029 137.464 550.091C128.226 539.153 84.868 495.504 81.062 482.446C77.256 469.388 73.122 464.925 66.793 460.032C60.466 455.137 50.899 452.795 47.049 456.138C43.199 459.481 50.8119 485.597 55.8419 497.073C60.8719 508.549 87.053 537.648 93.969 542.998C100.886 548.348 127.062 572.537 128.839 576.365C130.616 580.192 162.293 602.24 162.293 602.24Z" fill="#21898E"/>
<path d="M179.234 573.493C179.548 544.715 184.484 535.889 175.985 515.41C167.487 494.931 158.605 479.464 154.172 465.163C149.738 450.862 131.62 431.791 126.336 423.912C121.053 416.032 112.099 412.899 112.099 412.899C112.099 412.899 100.878 430.674 109.228 446.03C117.58 461.385 140.999 494.672 145.536 501.972C150.073 509.272 161.291 521.743 161.914 533.603C162.535 545.463 179.234 573.493 179.234 573.493Z" fill="#21898E"/>
<path d="M157.661 610.212C187.895 615.647 205.819 607.919 223.399 615.878C240.98 623.836 286.586 623.712 300.003 622.712C313.42 621.711 340.999 611.114 346.006 610.092C351.012 609.069 321.893 597.924 307.701 593.268C293.509 588.613 282.088 588.152 269.203 587.906C256.319 587.661 220.543 594.123 211.292 593.289C202.042 592.455 176.993 599.63 174.535 601.52C172.076 603.411 157.661 610.212 157.661 610.212Z" fill="#21898E"/>
<g opacity="0.3">
<path d="M88.3448 526.04C91.3948 528.877 94.3858 531.436 97.2728 533.624C98.7148 534.719 100.125 535.725 101.471 536.642C102.805 537.569 104.026 538.45 105.192 539.216C109.825 542.301 113.09 543.934 113.09 543.934C113.09 543.934 111.707 540.634 108.824 535.744C108.098 534.528 107.303 533.183 106.369 531.824C105.425 530.476 104.386 529.062 103.251 527.61C100.983 524.708 98.3528 521.623 95.2788 518.764C93.1978 516.793 90.9218 515.166 88.6838 513.843C86.4408 512.536 84.2299 511.537 82.2859 510.782C80.3409 510.028 78.6588 509.525 77.4698 509.222C76.2808 508.919 75.5818 508.819 75.6028 508.871C76.8088 512.056 80.1568 518.242 88.3448 526.04Z" fill="white"/>
</g>
<g opacity="0.3">
<path d="M267.039 610.367C271.656 611.079 276.106 611.317 280.174 611.35C284.241 611.39 287.927 611.224 291.031 610.984C297.24 610.504 301.125 609.73 301.125 609.73C301.125 609.73 297.532 608.007 291.651 605.997C288.711 604.991 285.198 603.913 281.273 602.94C277.346 601.976 273.006 601.118 268.433 600.412C262.194 599.497 256.141 600.16 251.65 601.063C249.405 601.515 247.554 602.028 246.276 602.436C244.999 602.843 244.296 603.146 244.348 603.178C247.484 605.14 254.443 608.519 267.039 610.367Z" fill="white"/>
</g>
<g opacity="0.3">
<path d="M261.455 553.048C271.305 553.89 280.234 552.453 286.452 550.709C289.58 549.931 292.046 548.961 293.741 548.323C295.434 547.669 296.353 547.256 296.353 547.256C296.353 547.256 295.349 547.046 293.566 546.762C291.783 546.462 289.23 546.177 286.111 545.696C279.871 544.921 271.47 543.818 262.306 543.033C260.735 542.95 259.198 542.85 257.69 542.823C256.181 542.804 254.703 542.862 253.27 542.975C250.434 543.055 247.771 543.376 245.474 543.723C243.201 543.975 241.28 544.316 239.937 544.601C238.594 544.886 237.835 545.118 237.886 545.156C238.648 545.719 239.654 546.395 240.945 547.143C241.591 547.516 242.308 547.908 243.103 548.312C243.896 548.718 244.765 549.145 245.731 549.492C247.656 550.214 249.901 551.008 252.513 551.65C253.824 551.936 255.222 552.208 256.71 552.46C257.456 552.578 258.224 552.698 259.012 552.822C259.802 552.934 260.618 552.977 261.455 553.048Z" fill="white"/>
</g>
<g opacity="0.3">
<path d="M124.24 455.963C125.805 458.229 127.625 460.311 129.414 462.073C131.205 463.838 132.979 465.302 134.548 466.467C137.684 468.797 139.991 469.929 139.991 469.929C139.991 469.929 139.702 467.3 138.64 463.55C138.109 461.675 137.384 459.52 136.4 457.265C135.415 455.008 134.182 452.672 132.545 450.3C130.332 447.096 127.011 444.987 124.268 443.735C122.895 443.107 121.664 442.689 120.776 442.44C119.888 442.191 119.343 442.108 119.343 442.151C119.321 444.732 119.936 449.732 124.24 455.963Z" fill="white"/>
</g>
<g opacity="0.3">
<path d="M308.076 494.519C315.555 493.443 321.707 490 325.341 486.703C327.257 485.213 328.49 483.56 329.364 482.537C330.221 481.477 330.643 480.86 330.643 480.86C330.643 480.86 329.861 480.962 328.54 481.2C327.2 481.404 325.431 481.91 323.154 482.177C322.032 482.339 320.857 482.586 319.594 482.793C318.302 482.935 316.957 483.117 315.579 483.358C312.833 483.73 309.825 484.138 306.667 484.567C306.136 484.65 305.612 484.757 305.095 484.886C304.576 484.98 304.062 485.062 303.555 485.18C302.541 485.409 301.553 485.711 300.592 486.062C298.678 486.643 296.866 487.291 295.256 488.028C293.67 488.588 292.284 489.174 291.3 489.631C290.316 490.086 289.742 490.41 289.782 490.44C290.353 490.896 291.116 491.434 292.115 492.006C292.614 492.293 293.173 492.588 293.795 492.885C294.106 493.033 294.433 493.185 294.775 493.331C295.122 493.439 295.482 493.552 295.856 493.669C296.609 493.89 297.429 494.102 298.318 494.296C299.206 494.47 300.168 494.721 301.184 494.741C302.204 494.802 303.29 494.834 304.444 494.828C305.02 494.819 305.616 494.825 306.221 494.777C306.826 494.703 307.443 494.618 308.076 494.519Z" fill="white"/>
</g>
<g opacity="0.3">
<path d="M252.288 381.945C251.793 375.456 250.552 369.545 249.559 365.112C248.996 362.9 248.574 361.081 248.19 359.807C247.821 358.534 247.564 357.817 247.564 357.817C247.564 357.817 247.195 358.468 246.624 359.672C246.069 360.877 245.235 362.633 244.539 364.863C243.013 369.297 241.729 375.688 242.267 382.717C242.402 385.11 243.12 387.373 243.893 389.4C244.762 391.418 245.801 393.191 246.805 394.635C247.86 396.073 248.859 397.188 249.596 397.931C250.334 398.674 250.812 399.048 250.827 399.003C251.872 396.249 252.958 390.773 252.288 381.945Z" fill="white"/>
</g>
<g opacity="0.3">
<path d="M190.449 458.785C192.658 467.901 199.332 474.108 199.332 474.108C199.332 474.108 202.427 465.535 200.219 456.419C199.466 453.313 197.273 450.773 195.259 449.025C194.252 448.152 193.29 447.477 192.575 447.029C191.86 446.58 191.393 446.358 191.377 446.392C190.336 448.413 188.944 452.574 190.449 458.785Z" fill="white"/>
</g>
<g opacity="0.3">
<path d="M357.532 265.808C360.835 260.362 363.195 255.003 365.005 250.966C365.841 248.898 366.6 247.246 367.058 246.025C367.529 244.814 367.76 244.097 367.76 244.097C367.76 244.097 367.082 244.372 365.907 244.955C364.747 245.549 363.017 246.398 361.148 247.744C357.288 250.307 352.522 254.68 348.941 260.59C347.69 262.582 346.964 264.776 346.432 266.836C345.983 268.936 345.79 270.936 345.772 272.666C345.781 274.411 345.93 275.877 346.086 276.898C346.243 277.92 346.407 278.501 346.446 278.476C348.901 276.947 353.034 273.221 357.532 265.808Z" fill="white"/>
</g>
<g opacity="0.3">
<path d="M308.977 297.012C309.734 292.878 310.255 288.952 310.541 285.324C310.683 283.509 310.768 281.77 310.812 280.132C310.848 278.491 310.959 276.996 310.974 275.594C311.093 270.013 310.726 266.351 310.726 266.351C310.726 266.351 308.682 269.299 306.091 274.403C305.46 275.679 304.725 277.086 304.109 278.62C303.486 280.153 302.857 281.803 302.248 283.554C301.025 287.055 299.866 290.964 299.109 295.104C298.029 300.768 298.536 306.302 299.329 310.406C299.725 312.463 300.189 314.165 300.565 315.343C300.94 316.521 301.224 317.173 301.258 317.127C303.289 314.407 306.843 308.208 308.977 297.012Z" fill="white"/>
</g>
<g opacity="0.3">
<path d="M355.789 426.382C358.617 425.905 361.298 425.348 363.729 424.615C364.946 424.25 366.1 423.851 367.182 423.441C368.265 423.041 369.279 422.694 370.205 422.315C373.911 420.834 376.254 419.433 376.254 419.433C376.254 419.433 373.842 418.32 369.858 417.301C368.864 417.055 367.767 416.778 366.596 416.594C365.426 416.421 364.175 416.277 362.859 416.178C360.228 415.984 357.33 415.935 354.359 416.431C352.331 416.736 350.426 417.41 348.734 418.246C347.048 419.147 345.58 420.232 344.38 421.252C343.181 422.274 342.252 423.248 341.634 423.97C341.016 424.691 340.706 425.16 340.746 425.178C341.957 425.698 343.809 426.308 346.297 426.603C347.544 426.76 348.941 426.797 350.519 426.779C352.106 426.787 353.858 426.672 355.789 426.382Z" fill="white"/>
</g>
<g opacity="0.3">
<path d="M454.95 283.996C459.2 282.585 463.134 281.024 466.665 279.425C468.431 278.623 470.096 277.811 471.645 277.015C473.193 276.207 474.639 275.523 475.95 274.813C481.197 272.033 484.383 269.831 484.383 269.831C484.383 269.831 480.591 269.593 474.556 269.985C473.054 270.096 471.384 270.191 469.653 270.44C467.916 270.677 466.068 270.969 464.138 271.33C460.276 272.046 456.079 273.031 451.842 274.437C448.944 275.385 446.259 276.666 443.868 278.055C441.485 279.424 439.388 280.906 437.656 282.274C435.923 283.641 434.554 284.895 433.634 285.809C432.713 286.723 432.24 287.296 432.299 287.303C434.082 287.511 436.84 287.629 440.615 287.226C444.402 286.828 449.176 285.892 454.95 283.996Z" fill="white"/>
</g>
<g opacity="0.3">
<path d="M479.732 326.058C481.201 325.701 482.651 325.374 483.956 324.804C485.255 324.215 486.491 323.62 487.599 322.946C488.678 322.208 489.664 321.463 490.551 320.739C491.434 320.008 492.147 319.176 492.808 318.466C494.142 317.058 494.954 315.644 495.524 314.712C496.082 313.766 496.341 313.21 496.341 313.21C496.341 313.21 495.7 313.265 494.631 313.42C493.552 313.559 492.099 313.885 490.311 314.105C489.422 314.222 488.513 314.445 487.517 314.575C486.519 314.697 485.491 314.857 484.451 315.072C483.388 315.221 482.291 315.348 481.201 315.589C480.105 315.81 478.956 315.9 477.824 316.192C477.056 316.419 476.279 316.509 475.543 316.795C474.801 317.036 474.086 317.424 473.374 317.727C471.951 318.296 470.591 319.16 469.369 319.859C468.151 320.523 467.083 321.209 466.323 321.732C465.563 322.254 465.121 322.618 465.151 322.645C466.053 323.456 467.566 324.606 469.954 325.51C471.153 325.881 472.571 326.2 474.211 326.409C475.029 326.452 475.9 326.436 476.824 326.395C477.742 326.322 478.734 326.329 479.732 326.058Z" fill="white"/>
</g>
<g opacity="0.3">
<path d="M411.024 274.825C417.895 265.941 419.491 255.666 419.491 255.666C419.491 255.666 409.944 259.792 403.073 268.676C400.732 271.702 399.758 275.468 399.39 278.471C399.205 279.973 399.173 281.284 399.196 282.215C399.219 283.148 399.299 283.701 399.34 283.69C401.774 282.97 406.341 280.879 411.024 274.825Z" fill="white"/>
</g>
<g opacity="0.3">
<path d="M418.215 376.731C425.857 374.144 432.071 370.09 436.201 366.703C438.295 365.053 439.855 363.505 440.918 362.431C441.978 361.353 442.532 360.714 442.532 360.714C442.532 360.714 441.677 360.802 440.192 361.038C438.705 361.27 436.609 361.681 434.044 362.164C428.949 363.225 422.143 364.791 414.972 367.218C412.537 368.081 410.255 369.114 408.222 370.372C406.162 371.512 404.33 372.814 402.783 374.007C401.224 375.142 399.959 376.216 399.094 377.01C398.229 377.804 397.768 378.317 397.82 378.33C399.368 378.731 401.83 379.226 405.245 379.176C406.94 379.115 408.889 378.969 411.061 378.604C413.207 378.167 415.63 377.647 418.215 376.731Z" fill="white"/>
</g>
</svg>
