<svg width="231" height="249" viewBox="0 0 231 249" fill="none" xmlns="http://www.w3.org/2000/svg">
<path opacity="0.48" d="M160.876 44.4171C140.721 19.3041 127.733 26.5601 123.683 30.4281C119.633 34.2961 149.321 131.769 149.321 131.769C149.321 131.769 128.337 68.0351 123.047 48.1141C117.758 28.1931 109.395 30.1601 109.395 30.1601C93.554 33.6041 93.368 45.3321 93.368 45.3321C110.791 40.1981 109.753 50.6291 109.753 50.6291C109.753 50.6291 105.788 48.1271 96.873 48.9711C87.958 49.8151 89.675 69.6681 89.675 69.6681C99.876 63.1521 113.916 58.6621 113.916 58.6621C115.653 63.7591 104.319 68.1301 98.66 69.9661C96.444 70.6851 94.555 72.2551 93.649 74.4011C88.769 85.9591 96.296 99.3891 96.296 99.3891C106.944 74.4751 117.738 75.9251 117.738 75.9251C117.738 75.9251 105.117 83.8462 103.537 97.9742C101.957 112.102 110.274 123.349 110.274 123.349C110.887 112.27 123.581 80.7201 126.037 89.9691C128.493 99.2181 115.13 105.305 118.052 122.045C120.974 138.786 127.58 138.809 127.58 138.809C127.58 138.809 125.505 98.4871 131.604 100.422C134.958 101.486 134.743 105.879 133.869 109.617C132.517 115.402 131.891 121.347 132.35 127.271C133.635 143.856 137.943 143.42 137.943 143.42C137.943 143.42 135.852 118.335 139.439 119.413C143.026 120.492 142.002 131.934 142.438 137.403C142.875 142.872 155.48 150.188 155.48 150.188C155.48 150.188 166.349 140.448 158.317 128.364C150.285 116.28 148.889 106.242 148.889 106.242C156.891 116.303 165.568 131.77 165.568 131.77C165.568 131.77 168.363 119.35 155.622 106.739C142.881 94.1282 145.174 92.2501 145.174 92.2501C151.636 88.7471 169.912 119.447 169.912 119.447C173.717 94.5732 156.625 85.6562 156.625 85.6562C156.625 85.6562 145.787 81.1711 147.04 77.2851C148.293 73.3991 153.695 76.5331 158.994 83.1061C163.272 88.4121 170.103 93.9852 172.577 95.9352C173.314 96.5162 174.416 96.3621 174.902 95.5581C175.897 93.9151 176.18 89.8811 170.347 80.0911C161.131 64.6231 139.363 73.2311 143.892 65.4281C148.421 57.6251 171.259 72.8861 171.259 72.8861C172.701 69.7111 166.774 55.0371 158.419 49.3851C150.064 43.7331 141.025 56.5421 138.914 50.5021C136.803 44.4621 160.876 44.4171 160.876 44.4171ZM121.537 53.0851C116.909 57.4731 113.518 53.8181 113.518 53.8181C118.028 48.8121 121.537 53.0851 121.537 53.0851ZM124.309 65.2962C124.309 65.2962 128.184 69.8521 121.433 72.1521C121.433 72.1521 118.704 66.7842 124.309 65.2962ZM124.816 85.3441C124.816 85.3441 123.409 79.1171 129.077 77.9931C129.077 77.9931 131.344 83.6111 124.816 85.3441ZM140.459 83.0951C140.459 83.0951 144.617 81.0672 144.054 87.0732C144.054 87.0732 140.43 87.2911 140.459 83.0951ZM136.286 68.2091C136.286 68.2091 141.653 67.0381 143.121 75.9141C143.121 75.9141 136.097 75.4941 136.286 68.2091ZM140.895 59.8771C140.895 59.8771 133.142 61.6811 132.036 53.7251C132.036 53.7251 139.371 51.2691 140.895 59.8771ZM121.911 39.5311C121.911 39.5311 111.202 11.1491 114.591 4.79115C117.98 -1.56685 118.84 0.236145 118.84 0.236145C118.84 0.236145 115.712 6.14415 118.386 18.1271C121.06 30.1101 121.911 39.5311 121.911 39.5311Z" fill="#62CAB9"/>
<path d="M44.464 81.5521C44.464 81.5521 24.896 89.4671 5.652 92.0611L5.308 103.467C5.308 103.467 28.146 92.8071 35.477 89.7991C35.477 89.7991 11.316 109.253 5.315 112.342C5.315 112.342 7.015 117.943 10.902 121.165L41.132 93.6791C41.132 93.6791 28.004 117.656 19.539 129.587C19.539 129.587 26.548 136.338 31.223 137.605L47.036 102.443C47.036 102.443 44.409 128.082 40.075 139.245L52.428 144.673C52.428 144.673 55.206 117.197 53.181 102.78C53.181 102.78 62.869 131.881 61.281 146.314C61.281 146.314 68.427 147.614 74.864 145.102C74.864 145.102 67.636 116.858 60.608 102.056L84.659 142.138C84.659 142.138 93.6 142.438 95.854 135.114L64.358 96.5901L104.733 125.406C104.733 125.406 110.733 122.317 111.458 115.607C111.458 115.607 76.615 93.3601 68.776 90.1971C68.776 90.1971 110.046 102.719 115.814 102.797C115.814 102.797 118.315 95.9211 117.288 92.1671C117.288 92.1671 99.792 87.3671 82.71 84.7921C82.71 84.7921 117.047 86.4581 119.8 84.4661C119.8 84.4661 120.288 76.4851 118.344 74.8741C118.344 74.8741 83.29 74.6561 71.038 75.9501C71.038 75.9501 110.921 65.8991 114.956 62.8471C114.956 62.8471 111.653 53.9281 108.131 51.7881C108.131 51.7881 75.35 66.4351 70.302 69.3471C70.302 69.3471 94.234 43.3601 94.925 39.1221C94.925 39.1221 87.587 33.2551 84.786 34.1051C81.985 34.9551 59.014 69.6391 59.014 69.6391C59.014 69.6391 71.784 39.3181 69.353 31.5521C69.353 31.5521 59.865 30.0301 57.747 31.9031C55.63 33.7761 54.932 57.4131 54.932 57.4131L53.443 36.1561L45.381 36.9991C45.381 36.9991 49.989 71.4841 46.97 79.1141C46.97 79.1141 24.109 63.1481 15.337 46.0411C15.337 46.0411 13.116 46.1801 12.71 48.1191C12.303 50.0561 31.973 73.9041 44.464 81.5521Z" fill="#62CAB9"/>
<g opacity="0.48">
<path d="M6.753 82.3171C6.753 82.3171 36.271 149.941 85.747 187.146Z" fill="#62CAB9"/>
<path d="M0 114.692C0 114.692 0.757 96.3172 10.448 93.4982C10.448 93.4982 6.776 99.5732 0 114.692Z" fill="#62CAB9"/>
<path d="M1.731 120.044C1.731 120.044 2.488 101.669 12.179 98.8501C12.179 98.8501 8.507 104.925 1.731 120.044Z" fill="#62CAB9"/>
<path d="M3.213 126.699C3.213 126.699 5.355 106.024 15.045 103.205C15.045 103.205 9.989 111.579 3.213 126.699Z" fill="#62CAB9"/>
<path d="M5.122 132.112C5.122 132.112 8.05 109.724 17.74 106.905C17.74 106.905 11.898 116.992 5.122 132.112Z" fill="#62CAB9"/>
<path d="M7.101 136.161C7.101 136.161 9.476 115.962 18.96 109.703C18.96 109.703 13.878 121.042 7.101 136.161Z" fill="#62CAB9"/>
<path d="M7.84 139.785C7.84 139.785 12.996 120.145 21.122 113.22C21.122 113.22 15.736 125.447 7.84 139.785Z" fill="#62CAB9"/>
<path d="M10.286 144.788C10.286 144.788 13.807 122.406 24.355 116.511C24.355 116.511 18.597 130.394 10.286 144.788Z" fill="#62CAB9"/>
<path d="M13.436 150.627C13.436 150.627 16.957 128.245 27.505 122.35C27.505 122.35 21.747 136.233 13.436 150.627Z" fill="#62CAB9"/>
<path d="M17.533 156.593C17.533 156.593 19.524 132.892 30.898 127.48C30.898 127.48 24.132 141.413 17.533 156.593Z" fill="#62CAB9"/>
<path d="M21.636 161.966C21.636 161.966 22.471 137.499 33.335 131.123C33.335 131.123 27.819 146.842 21.636 161.966Z" fill="#62CAB9"/>
<path d="M25.384 167.218C25.384 167.218 26.219 142.75 37.083 136.374C37.083 136.374 31.567 152.093 25.384 167.218Z" fill="#62CAB9"/>
<path d="M28.848 170.985C28.848 170.985 30.21 147.293 41.073 140.917C41.073 140.917 35.691 155.095 28.848 170.985Z" fill="#62CAB9"/>
<path d="M32.358 176.352C32.358 176.352 33.72 152.66 44.583 146.284C44.583 146.284 39.201 160.463 32.358 176.352Z" fill="#62CAB9"/>
<path d="M38.25 180.556C38.25 180.556 35.892 159.129 48.519 150.411C48.519 150.411 42.787 163.875 38.25 180.556Z" fill="#62CAB9"/>
<path d="M44.497 184.881C44.497 184.881 39.701 164.203 52.328 155.485C52.328 155.485 48.086 168.073 44.497 184.881Z" fill="#62CAB9"/>
<path d="M49.091 188.952C49.091 188.952 45.813 169.266 56.102 159.35C56.102 159.35 52.212 172.05 49.091 188.952Z" fill="#62CAB9"/>
<path d="M55.632 192.867C55.632 192.867 48.102 179.577 60.16 163.122C60.16 163.122 56.019 176.149 55.632 192.867Z" fill="#62CAB9"/>
<path d="M61.12 195.94C61.12 195.94 51.978 183.881 64.035 167.425C64.035 167.425 60.244 181.167 61.12 195.94Z" fill="#62CAB9"/>
<path d="M67.382 198.486C67.382 198.486 58.229 187.612 68.974 172.094C68.974 172.094 66.506 183.714 67.382 198.486Z" fill="#62CAB9"/>
<path d="M72.475 199.243C72.475 199.243 65.318 190.64 73.27 175.749C73.27 175.749 70.691 186.538 72.475 199.243Z" fill="#62CAB9"/>
<path d="M75.971 199.453C75.971 199.453 67.527 188.823 77.393 179.72C77.393 179.72 72.687 188.809 75.971 199.453Z" fill="#62CAB9"/>
<path d="M79.605 200.13C79.605 200.13 72.496 190.301 81.67 182.573C81.67 182.573 77.102 190.496 79.605 200.13Z" fill="#62CAB9"/>
<path d="M83.092 198.923C83.092 198.923 79.066 191.594 84.516 185.535C84.516 185.535 82.724 193.643 83.092 198.923Z" fill="#62CAB9"/>
<path d="M88.296 200.511C88.296 200.511 83.251 194.418 85.62 188.094C85.62 188.094 89.225 196.073 88.296 200.511Z" fill="#62CAB9"/>
<path d="M94.606 197.722C94.606 197.722 85.81 193.315 86.983 188.167C86.983 188.167 93.568 194.392 94.606 197.722Z" fill="#62CAB9"/>
<path d="M101.758 193.635C101.758 193.635 93.873 193.505 86.983 188.166C86.983 188.166 95.805 189.609 101.758 193.635Z" fill="#62CAB9"/>
<path d="M101.273 188.116C101.273 188.116 97.411 188.971 86.932 187.158C86.932 187.158 92.533 184.124 101.273 188.116Z" fill="#62CAB9"/>
<path d="M97.991 183.817C97.991 183.817 89.507 184.275 85.463 185.662C85.463 185.662 88.83 180.474 97.991 183.817Z" fill="#62CAB9"/>
<path d="M96.66 180.188C96.66 180.188 87.047 181.051 82.88 182.792C82.88 182.792 86.131 177.367 96.66 180.188Z" fill="#62CAB9"/>
<path d="M95.201 177.507C95.201 177.507 82.983 177.872 78.34 179.847C78.34 179.847 83.436 173.666 95.201 177.507Z" fill="#62CAB9"/>
<path d="M94.646 173.352C94.646 173.352 77.558 174.622 74.101 176.608C74.101 176.608 78.131 170.061 94.646 173.352Z" fill="#62CAB9"/>
<path d="M93.026 168.83C93.026 168.83 72.009 171.726 69.627 172.89C69.627 172.89 78.068 163.894 93.026 168.83Z" fill="#62CAB9"/>
<path d="M91.583 164.37C91.583 164.37 66.421 166.636 64.809 167.866C64.809 167.866 72.47 159.99 91.583 164.37Z" fill="#62CAB9"/>
<path d="M90.318 159.971C90.318 159.971 77.907 162.054 68.06 162.44C58.214 162.827 60.16 163.121 60.16 163.121C60.16 163.121 69.304 155.929 90.318 159.971Z" fill="#62CAB9"/>
<path d="M87.269 156.149C87.269 156.149 74.857 158.232 65.011 158.618C55.164 159.004 57.111 159.299 57.111 159.299C57.111 159.299 66.255 152.107 87.269 156.149Z" fill="#62CAB9"/>
<path d="M84.995 151.8C84.995 151.8 71.22 153.811 61.374 154.198C51.527 154.585 53.474 154.879 53.474 154.879C53.474 154.879 63.981 147.758 84.995 151.8Z" fill="#62CAB9"/>
<path d="M82.838 147.689C82.838 147.689 67.34 150.1 57.382 149.655C47.538 149.215 49.482 150.336 49.482 150.336C49.482 150.336 61.236 143.049 82.838 147.689Z" fill="#62CAB9"/>
<path d="M80.22 142.033C80.22 142.033 63.648 145.265 53.69 144.82C43.846 144.38 45.79 145.501 45.79 145.501C45.79 145.501 58.619 137.393 80.22 142.033Z" fill="#62CAB9"/>
<path d="M78.844 136.802C78.844 136.802 63.989 140.227 51.599 139.939C39.209 139.65 41.074 140.917 41.074 140.917C41.074 140.917 57.541 131.868 78.844 136.802Z" fill="#62CAB9"/>
<path d="M76.626 132.869C76.626 132.869 61.007 135.635 48.616 135.346C36.226 135.057 38.091 136.324 38.091 136.324C38.091 136.324 55.323 127.935 76.626 132.869Z" fill="#62CAB9"/>
<path d="M73.77 127.329C73.77 127.329 58.151 130.095 45.76 129.806C33.37 129.517 35.235 130.784 35.235 130.784C35.235 130.784 52.467 122.395 73.77 127.329Z" fill="#62CAB9"/>
<path d="M70.847 122.559C70.847 122.559 56.347 126.106 43.957 125.817C31.567 125.529 32.313 126.014 32.313 126.014C32.313 126.014 49.545 117.625 70.847 122.559Z" fill="#62CAB9"/>
<path d="M67.155 117.723C67.155 117.723 52.655 121.27 40.265 120.981C27.875 120.693 28.62 121.178 28.62 121.178C28.62 121.178 45.853 112.789 67.155 117.723Z" fill="#62CAB9"/>
<path d="M63.538 112.077C63.538 112.077 49.126 115.966 36.733 115.97C24.339 115.975 25.096 116.443 25.096 116.443C25.096 116.443 42.125 107.648 63.538 112.077Z" fill="#62CAB9"/>
<path d="M58.634 108.279C58.634 108.279 41.136 109.782 34.836 111.387C28.536 112.991 21.665 112.218 21.665 112.218C21.665 112.218 34.356 104.504 58.634 108.279Z" fill="#62CAB9"/>
<path d="M55.19 104.453C55.19 104.453 42.354 106.236 32.563 107.037C26.084 107.568 19.392 107.868 19.392 107.868C19.392 107.868 30.912 100.678 55.19 104.453Z" fill="#62CAB9"/>
<path d="M51.583 101.1C51.583 101.1 25.49 102.23 18.521 105.785C18.521 105.785 31.239 95.1072 51.583 101.1Z" fill="#62CAB9"/>
<path d="M47.03 97.4231C47.03 97.4231 22.856 98.3531 16.89 102.451C16.89 102.451 29.362 90.5641 47.03 97.4231Z" fill="#62CAB9"/>
<path d="M43.268 93.7521C43.268 93.7521 23.669 93.6751 14.145 97.7411C14.145 97.7411 24.591 86.9441 43.268 93.7521Z" fill="#62CAB9"/>
<path d="M11.932 93.2151C11.932 93.2151 14.796 91.2251 22.155 90.5791C29.514 89.9331 36.634 89.4041 36.634 89.4041C36.634 89.4041 22.062 81.0311 11.932 93.2151Z" fill="#62CAB9"/>
</g>
<path d="M221.619 27.7781C221.619 27.7781 230.035 48.6001 230.775 62.5361C231.515 76.4721 227.751 95.5601 227.751 95.5601C227.751 95.5601 227.03 66.9341 225.695 64.0471C224.36 61.1591 222.871 36.3151 220.179 29.4701L217.106 35.9581C217.106 35.9581 229.072 90.0331 219.292 105.633C219.292 105.633 220.948 93.2701 219.696 84.7341C218.444 76.1981 214.509 40.5171 214.509 40.5171L212.062 46.9541C212.062 46.9541 216.414 65.8321 214.342 77.7251C212.27 89.6171 214.761 102.593 209.201 111.865C209.201 111.865 210.981 93.1881 210.016 84.3141C209.052 75.4391 207.96 57.1191 209.305 52.6611L205.24 59.3541C205.24 59.3541 207.983 75.4621 204.996 87.7421C202.01 100.022 199.311 120.601 196.663 124.533C196.663 124.533 198.676 106.405 198.013 101.289C197.35 96.1731 203.612 62.6371 202.204 62.3711L199.396 67.4501C199.396 67.4501 197.57 92.6241 192.856 98.2981C188.142 103.972 189.22 118.195 181.447 125.817C181.447 125.817 188.901 94.5811 190.529 91.2981C192.157 88.0151 193.166 80.3541 195.676 72.1621C195.676 72.1621 192.024 76.1431 186.903 93.0551C181.783 109.964 164.575 131.203 164.575 131.203C164.575 131.203 168.186 121.41 172.669 114.809C177.151 108.209 178.149 101.793 182.07 93.4881C182.07 93.4881 166.085 124.085 155.927 130.668C155.927 130.668 163.225 118.499 163.523 116.914C163.821 115.33 170.742 104.94 170.742 104.94C170.742 104.94 166.641 108.626 159.779 112.675C152.917 116.725 153.833 118.117 153.833 118.117C153.833 118.117 151.611 115.175 161.71 108.454C171.809 101.733 181.977 91.7451 185.852 85.2401C185.852 85.2401 179.47 92.3241 171.727 96.5861C163.984 100.848 158.528 105.919 152.105 107.191C152.105 107.191 166.67 96.0221 170.095 92.7451C172.098 90.8291 189.152 80.1131 189.152 80.1131L190.183 76.7601C190.183 76.7601 182.134 84.8761 154.509 95.3191C154.509 95.3191 176.415 80.1811 190.036 73.7451C190.036 73.7451 197.724 68.2111 199.069 63.7531C199.069 63.7531 186.453 74.4581 177.873 77.1321C169.293 79.8061 159.082 85.1171 159.082 85.1171C159.082 85.1171 173.68 72.5981 202.9 59.0481L207.269 51.0381C207.269 51.0381 189.944 65.5251 160.248 74.9051C160.248 74.9051 177.12 61.2581 204.237 50.3831C204.237 50.3831 212.135 46.8651 212.605 40.3501C212.605 40.3501 201.203 50.8631 176.523 57.9491L162.532 63.8941C162.532 63.8941 156.116 62.8961 215.204 35.0351L217.9 30.3271C217.9 30.3271 187.377 47.6701 164.604 52.0021C164.604 52.0021 173.362 42.1271 219.947 26.3801L225.524 7.49314C225.524 7.49314 227.681 6.09114 227.437 8.94714C227.194 11.8061 221.619 27.7781 221.619 27.7781Z" fill="#62CAB9"/>
<path d="M12.6 145.194C12.6 145.194 4.184 166.016 3.444 179.952C2.704 193.888 6.468 212.976 6.468 212.976C6.468 212.976 7.189 184.35 8.524 181.463C9.859 178.576 11.348 153.731 14.04 146.886L17.113 153.374C17.113 153.374 5.147 207.449 14.927 223.049C14.927 223.049 13.271 210.686 14.523 202.15C15.775 193.614 19.71 157.933 19.71 157.933L22.156 164.37C22.156 164.37 17.805 183.248 19.876 195.14C21.948 207.032 19.457 220.008 25.017 229.28C25.017 229.28 23.237 210.603 24.202 201.729C25.166 192.854 26.258 174.534 24.913 170.076L28.978 176.769C28.978 176.769 26.235 192.877 29.222 205.157C32.208 217.437 34.907 238.016 37.555 241.948C37.555 241.948 35.542 223.82 36.205 218.704C36.868 213.588 30.606 180.052 32.014 179.786L34.822 184.865C34.822 184.865 36.648 210.039 41.362 215.713C46.076 221.387 44.998 235.611 52.771 243.232C52.771 243.232 45.317 211.996 43.689 208.713C42.061 205.43 41.052 197.769 38.542 189.577C38.542 189.577 42.194 193.558 47.315 210.47C52.436 227.382 69.644 248.62 69.644 248.62C69.644 248.62 66.033 238.827 61.55 232.226C57.068 225.625 56.07 219.21 52.15 210.904C52.15 210.904 68.135 241.501 78.292 248.084C78.292 248.084 70.994 235.915 70.696 234.33C70.398 232.746 63.477 222.356 63.477 222.356C63.477 222.356 67.579 226.042 74.44 230.091C81.302 234.14 80.386 235.533 80.386 235.533C80.386 235.533 82.608 232.591 72.509 225.87C62.41 219.149 52.242 209.161 48.367 202.656C48.367 202.656 54.749 209.74 62.492 214.002C70.235 218.264 75.691 223.335 82.114 224.607C82.114 224.607 67.549 213.438 64.124 210.161C62.121 208.245 45.067 197.529 45.067 197.529L44.036 194.176C44.036 194.176 52.085 202.292 79.71 212.735C79.71 212.735 57.804 197.597 44.183 191.161C44.183 191.161 36.495 185.627 35.15 181.169C35.15 181.169 47.766 191.874 56.346 194.548C64.926 197.222 75.138 202.533 75.138 202.533C75.138 202.533 60.54 190.014 31.32 176.464L26.951 168.454C26.951 168.454 44.276 182.941 73.972 192.321C73.972 192.321 57.1 178.675 29.983 167.799C29.983 167.799 22.085 164.281 21.615 157.766C21.615 157.766 33.017 168.279 57.697 175.365L71.688 181.31C71.688 181.31 78.104 180.312 19.016 152.451L16.32 147.743C16.32 147.743 46.843 165.085 69.616 169.418C69.616 169.418 60.858 159.543 14.273 143.796L8.696 124.909C8.696 124.909 6.539 123.507 6.783 126.363C7.026 129.223 12.6 145.194 12.6 145.194Z" fill="#62CAB9"/>
</svg>
