<svg width="67" height="111" viewBox="0 0 67 111" fill="none" xmlns="http://www.w3.org/2000/svg">
<mask id="mask0_88_707" style="mask-type:luminance" maskUnits="userSpaceOnUse" x="0" y="11" width="66" height="99">
<path d="M40.3733 103.516C33.2843 99.4655 34.5492 63.0185 36.8272 54.6665H36.8242L65.6353 11.0285H33.2823H0.929259L29.7403 54.6665C32.0183 63.0195 33.2833 99.4655 26.1953 103.516C19.1073 107.566 12.2753 106.047 12.2753 109.589H33.2833H54.2873C54.2883 106.047 47.4573 107.566 40.3733 103.516Z" fill="white"/>
</mask>
<g mask="url(#mask0_88_707)">
<path d="M-97.1527 110.294L50.7693 -37.8555" stroke="white" stroke-width="0.7" stroke-miterlimit="10"/>
<path d="M-92.4788 110.294L55.4433 -37.8555" stroke="white" stroke-width="0.7" stroke-miterlimit="10"/>
<path d="M-87.8058 110.294L60.1143 -37.8555" stroke="white" stroke-width="0.7" stroke-miterlimit="10"/>
<path d="M-83.1338 110.294L64.7883 -37.8555" stroke="white" stroke-width="0.7" stroke-miterlimit="10"/>
<path d="M-78.4597 110.294L69.4603 -37.8555" stroke="white" stroke-width="0.7" stroke-miterlimit="10"/>
<path d="M-73.7867 110.294L74.1353 -37.8555" stroke="white" stroke-width="0.7" stroke-miterlimit="10"/>
<path d="M-69.1137 110.294L78.8073 -37.8555" stroke="white" stroke-width="0.7" stroke-miterlimit="10"/>
<path d="M-64.4398 110.294L83.4813 -37.8555" stroke="white" stroke-width="0.7" stroke-miterlimit="10"/>
<path d="M-59.7668 110.294L88.1523 -37.8555" stroke="white" stroke-width="0.7" stroke-miterlimit="10"/>
<path d="M-55.0938 110.294L92.8263 -37.8555" stroke="white" stroke-width="0.7" stroke-miterlimit="10"/>
<path d="M-50.4207 110.294L97.5002 -37.8555" stroke="white" stroke-width="0.7" stroke-miterlimit="10"/>
<path d="M-45.7477 110.294L102.172 -37.8555" stroke="white" stroke-width="0.7" stroke-miterlimit="10"/>
<path d="M-41.0747 110.294L106.846 -37.8555" stroke="white" stroke-width="0.7" stroke-miterlimit="10"/>
<path d="M-36.4008 110.294L111.52 -37.8555" stroke="white" stroke-width="0.7" stroke-miterlimit="10"/>
<path d="M-31.7288 110.294L116.192 -37.8555" stroke="white" stroke-width="0.7" stroke-miterlimit="10"/>
<path d="M-27.0558 110.294L120.865 -37.8555" stroke="white" stroke-width="0.7" stroke-miterlimit="10"/>
<path d="M-22.0948 110.294L125.825 -37.8555" stroke="white" stroke-width="0.7" stroke-miterlimit="10"/>
<path d="M-17.4228 110.294L130.499 -37.8555" stroke="white" stroke-width="0.7" stroke-miterlimit="10"/>
<path d="M-12.7498 110.294L135.171 -37.8555" stroke="white" stroke-width="0.7" stroke-miterlimit="10"/>
<path d="M-8.07575 110.294L139.845 -37.8555" stroke="white" stroke-width="0.7" stroke-miterlimit="10"/>
<path d="M-3.40375 110.294L144.517 -37.8555" stroke="white" stroke-width="0.7" stroke-miterlimit="10"/>
<path d="M1.27026 110.294L149.192 -37.8555" stroke="white" stroke-width="0.7" stroke-miterlimit="10"/>
<path d="M5.94424 110.294L153.864 -37.8555" stroke="white" stroke-width="0.7" stroke-miterlimit="10"/>
<path d="M10.6153 110.294L158.537 -37.8555" stroke="white" stroke-width="0.7" stroke-miterlimit="10"/>
<path d="M15.2892 110.294L163.21 -37.8555" stroke="white" stroke-width="0.7" stroke-miterlimit="10"/>
<path d="M19.9633 110.294L167.883 -37.8555" stroke="white" stroke-width="0.7" stroke-miterlimit="10"/>
<path d="M24.6353 110.294L172.557 -37.8555" stroke="white" stroke-width="0.7" stroke-miterlimit="10"/>
<path d="M29.3093 110.294L177.229 -37.8555" stroke="white" stroke-width="0.7" stroke-miterlimit="10"/>
<path d="M33.9832 110.294L181.902 -37.8555" stroke="white" stroke-width="0.7" stroke-miterlimit="10"/>
<path d="M38.6552 110.294L186.576 -37.8555" stroke="white" stroke-width="0.7" stroke-miterlimit="10"/>
<path d="M43.3282 110.294L191.248 -37.8555" stroke="white" stroke-width="0.7" stroke-miterlimit="10"/>
<path d="M48.0023 110.294L195.922 -37.8555" stroke="white" stroke-width="0.7" stroke-miterlimit="10"/>
</g>
<path d="M29.7412 54.6665C32.0192 63.0195 33.2843 99.4655 26.1963 103.516C19.1083 107.566 12.2762 106.047 12.2762 109.589H33.2842H54.2883C54.2883 106.047 47.4573 107.566 40.3733 103.516C33.2843 99.4655 34.5492 63.0185 36.8272 54.6665H29.7412Z" stroke="white" stroke-miterlimit="10"/>
<path d="M33.2823 11.0285H0.930266L29.7412 54.6665H33.2823H36.8242L65.6353 11.0285H33.2823Z" stroke="white" stroke-miterlimit="10"/>
<path d="M4.86224 16.9865L29.7412 54.6665H33.2823H36.8242L61.7022 16.9865H4.86224Z" fill="white"/>
<path d="M40.3733 103.516C33.2843 99.4655 34.5492 63.0185 36.8272 54.6665H36.8242L65.6353 11.0285H33.2823H0.929259L29.7403 54.6665C32.0183 63.0195 33.2833 99.4655 26.1953 103.516C19.1073 107.566 12.2753 106.047 12.2753 109.589H33.2833H54.2873C54.2883 106.047 47.4573 107.566 40.3733 103.516Z" stroke="white" stroke-miterlimit="10"/>
<path d="M24.4892 30.4335C24.7742 30.8235 24.6892 31.3715 24.3002 31.6565C23.9092 31.9415 23.3612 31.8565 23.0762 31.4665L1.09825 1.39149C0.813252 1.00149 0.898247 0.453499 1.28725 0.168499C1.67825 -0.116501 2.22525 -0.0315065 2.51125 0.359494L24.4892 30.4335Z" fill="white"/>
<path d="M25.2533 26.5385C25.1733 29.2295 22.9273 31.3465 20.2353 31.2665C17.5443 31.1865 15.4273 28.9395 15.5073 26.2485C15.5873 23.5575 17.8333 21.4405 20.5253 21.5205C23.2173 21.6015 25.3333 23.8475 25.2533 26.5385Z" fill="#2F3332"/>
<path d="M19.6863 22.4345C19.6633 23.2285 19.0163 23.6075 18.2073 23.8285C17.4403 24.0365 17.0763 23.9855 17.1003 23.1925C17.1233 22.3995 17.8823 21.9985 18.6393 21.7565C19.3153 21.5395 19.7093 21.6405 19.6863 22.4345Z" fill="white"/>
<path d="M19.4463 30.4665C19.4463 30.4665 23.9293 30.1885 24.5143 25.6835C24.6733 30.6225 20.1353 30.4385 19.4463 30.4665Z" fill="white"/>
<path d="M29.8962 34.4305C29.8162 37.1215 27.5703 39.2385 24.8783 39.1585C22.1873 39.0785 20.0703 36.8315 20.1503 34.1405C20.2303 31.4495 22.4762 29.3325 25.1682 29.4125C27.8602 29.4925 29.9762 31.7395 29.8962 34.4305Z" fill="#2F3332"/>
<path d="M24.3283 30.3255C24.3053 31.1195 23.6583 31.4995 22.8483 31.7205C22.0813 31.9295 21.7173 31.8775 21.7413 31.0845C21.7653 30.2905 22.5243 29.8895 23.2813 29.6475C23.9573 29.4315 24.3523 29.5325 24.3283 30.3255Z" fill="white"/>
<path d="M24.0893 38.3586C24.0893 38.3586 28.5723 38.0806 29.1573 33.5756C29.3163 38.5136 24.7773 38.3306 24.0893 38.3586Z" fill="white"/>
<path d="M34.9272 41.8345C34.8472 44.5255 32.6012 46.6425 29.9092 46.5625C27.2182 46.4825 25.1012 44.2355 25.1812 41.5445C25.2612 38.8535 27.5072 36.7365 30.1992 36.8165C32.8912 36.8975 35.0072 39.1435 34.9272 41.8345Z" fill="#2F3332"/>
<path d="M29.3603 37.7296C29.3363 38.5236 28.6903 38.9036 27.8803 39.1246C27.1143 39.3326 26.7503 39.2816 26.7743 38.4886C26.7983 37.6946 27.5573 37.2936 28.3143 37.0526C28.9883 36.8356 29.3833 36.9366 29.3603 37.7296Z" fill="white"/>
<path d="M29.1203 45.7625C29.1203 45.7625 33.6023 45.4845 34.1883 40.9795C34.3473 45.9185 29.8093 45.7345 29.1203 45.7625Z" fill="white"/>
<path d="M35.7173 52.4945L56.0503 21.6575L32.2173 52.4945H35.7173Z" fill="#2F3332"/>
<path d="M40.4673 39.2285L54.2883 22.0775L51.3003 23.9325L40.4673 39.2285Z" fill="#2F3332"/>
</svg>
