<svg width="52" height="137" viewBox="0 0 52 137" fill="none" xmlns="http://www.w3.org/2000/svg">
<path d="M30.876 32.665C30.876 32.665 26.058 12.43 46.745 3.388C42.445 11.913 30.876 32.665 30.876 32.665Z" fill="white"/>
<path d="M32.327 26.817L43.891 6.81598L36.577 16.651L32.327 26.817Z" fill="#2F3332"/>
<path d="M31.065 33.301C31.065 33.301 17.096 17.888 30.872 0C31.21 9.542 31.065 33.301 31.065 33.301Z" fill="white"/>
<path d="M29.52 27.477L30.022 4.37799L28.516 16.817L29.52 27.477Z" fill="#2F3332"/>
<path d="M12.914 16.335L12.877 16.289L12.828 16.086L12.73 16.11L1.888 2.82898L0 4.371L10.637 17.4L20.801 59.878L23.171 59.312L12.892 16.353L12.914 16.335Z" fill="white"/>
<mask id="mask0_88_641" style="mask-type:luminance" maskUnits="userSpaceOnUse" x="2" y="31" width="43" height="106">
<path d="M30.262 129.949C28.983 129.216 27.98 127.417 27.202 124.928C28.595 123.771 29.484 122.025 29.484 120.071C29.484 117.356 27.766 115.048 25.361 114.157C25.267 113.059 25.19 111.934 25.129 110.794C25.823 110.692 26.389 110.588 26.389 110.588C26.389 110.588 38.881 107.237 41.459 91.267C44.033 75.299 30.641 61.134 38.624 31.254C29.868 31.254 23.172 31.254 23.172 31.254C23.172 31.254 16.475 31.254 7.715 31.254C15.701 61.134 2.307 75.299 4.883 91.267C7.457 107.238 19.949 110.588 19.949 110.588C19.949 110.588 20.519 110.693 21.219 110.795C21.156 111.935 21.078 113.058 20.985 114.155C18.579 115.046 16.86 117.354 16.86 120.071C16.86 122.026 17.749 123.772 19.145 124.93C18.368 127.416 17.365 129.215 16.085 129.948C8.99799 133.997 2.16501 132.477 2.16501 136.02H23.174H44.178C44.178 132.479 37.346 133.998 30.262 129.949Z" fill="white"/>
</mask>
<g mask="url(#mask0_88_641)">
<path d="M-125.881 164.125L22.04 15.976" stroke="white" stroke-width="0.7" stroke-miterlimit="10"/>
<path d="M-121.208 164.125L26.714 15.976" stroke="white" stroke-width="0.7" stroke-miterlimit="10"/>
<path d="M-116.535 164.125L31.386 15.976" stroke="white" stroke-width="0.7" stroke-miterlimit="10"/>
<path d="M-111.862 164.125L36.059 15.976" stroke="white" stroke-width="0.7" stroke-miterlimit="10"/>
<path d="M-107.19 164.125L40.731 15.976" stroke="white" stroke-width="0.7" stroke-miterlimit="10"/>
<path d="M-102.516 164.125L45.406 15.976" stroke="white" stroke-width="0.7" stroke-miterlimit="10"/>
<path d="M-97.842 164.125L50.078 15.976" stroke="white" stroke-width="0.7" stroke-miterlimit="10"/>
<path d="M-93.17 164.125L54.752 15.976" stroke="white" stroke-width="0.7" stroke-miterlimit="10"/>
<path d="M-88.496 164.125L59.424 15.976" stroke="white" stroke-width="0.7" stroke-miterlimit="10"/>
<path d="M-83.823 164.125L64.098 15.976" stroke="white" stroke-width="0.7" stroke-miterlimit="10"/>
<path d="M-79.151 164.125L68.772 15.976" stroke="white" stroke-width="0.7" stroke-miterlimit="10"/>
<path d="M-74.477 164.125L73.444 15.976" stroke="white" stroke-width="0.7" stroke-miterlimit="10"/>
<path d="M-69.804 164.125L78.118 15.976" stroke="white" stroke-width="0.7" stroke-miterlimit="10"/>
<path d="M-65.131 164.125L82.792 15.976" stroke="white" stroke-width="0.7" stroke-miterlimit="10"/>
<path d="M-60.457 164.125L87.464 15.976" stroke="white" stroke-width="0.7" stroke-miterlimit="10"/>
<path d="M-55.785 164.125L92.137 15.976" stroke="white" stroke-width="0.7" stroke-miterlimit="10"/>
<path d="M-50.824 164.125L97.096 15.976" stroke="white" stroke-width="0.7" stroke-miterlimit="10"/>
<path d="M-46.151 164.125L101.77 15.976" stroke="white" stroke-width="0.7" stroke-miterlimit="10"/>
<path d="M-41.479 164.125L106.442 15.976" stroke="white" stroke-width="0.7" stroke-miterlimit="10"/>
<path d="M-36.805 164.125L111.116 15.976" stroke="white" stroke-width="0.7" stroke-miterlimit="10"/>
<path d="M-32.133 164.125L115.788 15.976" stroke="white" stroke-width="0.7" stroke-miterlimit="10"/>
<path d="M-27.459 164.125L120.464 15.976" stroke="white" stroke-width="0.7" stroke-miterlimit="10"/>
<path d="M-22.785 164.125L125.136 15.976" stroke="white" stroke-width="0.7" stroke-miterlimit="10"/>
<path d="M-18.113 164.125L129.809 15.976" stroke="white" stroke-width="0.7" stroke-miterlimit="10"/>
<path d="M-13.44 164.125L134.481 15.976" stroke="white" stroke-width="0.7" stroke-miterlimit="10"/>
<path d="M-8.76599 164.125L139.155 15.976" stroke="white" stroke-width="0.7" stroke-miterlimit="10"/>
<path d="M-4.09399 164.125L143.829 15.976" stroke="white" stroke-width="0.7" stroke-miterlimit="10"/>
<path d="M0.580017 164.125L148.501 15.976" stroke="white" stroke-width="0.7" stroke-miterlimit="10"/>
<path d="M5.254 164.125L153.175 15.976" stroke="white" stroke-width="0.7" stroke-miterlimit="10"/>
<path d="M9.92599 164.125L157.848 15.976" stroke="white" stroke-width="0.7" stroke-miterlimit="10"/>
<path d="M14.599 164.125L162.52 15.976" stroke="white" stroke-width="0.7" stroke-miterlimit="10"/>
<path d="M19.273 164.125L167.194 15.976" stroke="white" stroke-width="0.7" stroke-miterlimit="10"/>
</g>
<path d="M9.95503 43.418C12.11 65.314 2.68401 77.639 4.88301 91.268C7.24001 105.891 17.906 109.932 19.69 110.51H26.649C28.432 109.932 39.099 105.891 41.46 91.268C43.657 77.639 34.231 65.314 36.386 43.418H9.95503Z" fill="white"/>
<path d="M30.262 129.949C28.983 129.216 27.98 127.417 27.202 124.928C28.595 123.771 29.484 122.025 29.484 120.071C29.484 117.356 27.766 115.048 25.361 114.157C25.267 113.059 25.19 111.934 25.129 110.794C25.823 110.692 26.389 110.588 26.389 110.588C26.389 110.588 38.881 107.237 41.459 91.267C44.033 75.299 30.641 61.134 38.624 31.254C29.868 31.254 23.172 31.254 23.172 31.254C23.172 31.254 16.475 31.254 7.715 31.254C15.701 61.134 2.307 75.299 4.883 91.267C7.457 107.238 19.949 110.588 19.949 110.588C19.949 110.588 20.519 110.693 21.219 110.795C21.156 111.935 21.078 113.058 20.985 114.155C18.579 115.046 16.86 117.354 16.86 120.071C16.86 122.026 17.749 123.772 19.145 124.93C18.368 127.416 17.365 129.215 16.085 129.948C8.99799 133.997 2.16501 132.477 2.16501 136.02H23.174H44.178C44.178 132.479 37.346 133.998 30.262 129.949Z" stroke="white" stroke-miterlimit="10"/>
<path d="M26.996 115.126C27.312 115.879 27.488 116.705 27.488 117.572C27.488 121.058 24.662 123.885 21.175 123.885C19.622 123.885 18.204 123.322 17.105 122.393C18.06 124.665 20.306 126.26 22.925 126.26C26.411 126.26 29.238 123.434 29.238 119.947C29.238 118.013 28.365 116.284 26.996 115.126Z" fill="white"/>
<path d="M15.02 106.593C15.02 106.593 37.644 108.617 36.853 79.26C41.41 96.317 32.853 109.093 15.02 106.593Z" fill="#2F3332"/>
<path d="M21.02 103.26C21.02 103.26 32.353 100.018 34.853 83.639C35.443 98.577 24.52 102.092 21.02 103.26Z" fill="#2F3332"/>
<path d="M51.362 34.646C51.057 32.632 50.749 30.561 50.745 30.384C50.736 30.032 47.732 25.446 47.732 25.446L45.813 19.722L40.348 17.538C42.711 19.57 48.164 25.06 51.362 34.646Z" fill="white"/>
<path d="M38.997 16.998L38.748 16.899L38.908 17.162L38.997 16.998Z" fill="white"/>
<path d="M51.824 38.336L51.959 38.558C51.959 38.558 51.944 38.464 51.924 38.328C51.89 38.33 51.857 38.333 51.824 38.336Z" fill="white"/>
<path d="M47.36 33.161C49.278 32.131 47.832 28.149 47.715 27.645C47.679 27.579 47.642 27.516 47.605 27.451C47.044 26.895 43.363 23.5 39.258 25.859C42.43 21.705 38.747 16.898 38.747 16.898L26.736 39.084C26.736 39.084 43.106 39.441 51.958 38.558C51.958 38.558 50.554 33.029 47.36 33.161Z" fill="white"/>
<path d="M30.46 36.89C30.46 36.89 42.701 26.702 43.95 29.107C45.198 31.509 30.46 36.89 30.46 36.89Z" fill="#2F3332"/>
<path d="M31.377 37.802C31.377 37.802 46.369 32.431 46.718 35.114C47.067 37.8 31.377 37.802 31.377 37.802Z" fill="#2F3332"/>
<path d="M30.177 35.977C30.177 35.977 36.341 21.845 38.467 23.113C40.593 24.382 30.177 35.977 30.177 35.977Z" fill="#2F3332"/>
</svg>
