<svg width="481" height="436" viewBox="0 0 481 436" fill="none" xmlns="http://www.w3.org/2000/svg">
<path opacity="0.4" d="M24.757 184.218C40.322 171.084 65.563 168.888 85.279 166.465C104.999 164.043 71.852 188.453 84.906 190.765C97.959 193.075 123.475 179.1 130.521 172.711C139.305 164.745 154.874 163.895 165.935 161.813C170.452 160.962 178.569 160.415 175.874 166.449C174.039 170.558 160.399 172.664 170.184 177.425C175.666 180.093 184.1 173.007 188.912 170.983C199.567 166.504 210.914 164.295 222.395 163.616C234.858 160.763 247.552 158.935 260.304 157.831C277.908 156.309 295.695 157.663 312.229 164.149C319.499 166.999 326.546 170.353 334.241 171.942C342.681 173.685 351.43 172.249 359.075 168.411C363.692 166.093 367.8 162.881 371.188 159.059C374.728 154.27 377.632 148.781 379.934 142.858C380.958 138.97 381.368 134.906 381.038 130.801C380.886 128.912 382.73 128.322 384.12 128.916C390.174 101.629 385.868 70.2826 374.08 56.0536C367.095 47.6226 357.286 40.9146 346.307 36.2676C346.058 36.4706 345.72 36.5605 345.317 36.4255C330.445 31.4345 313.951 27.4135 298.484 32.1085C290.248 34.6095 283.536 40.2335 278.572 47.1355C274.033 53.4485 271.2 60.2835 265.45 65.7375C255.848 74.8445 242.402 77.0535 230.356 71.7655C224.032 68.9895 219.112 64.3485 214.145 59.7015C209.597 55.4496 204.403 51.1975 198.216 50.5965C197.454 52.7975 196.533 55.7266 193.455 58.3226C185.672 64.8896 180.759 57.4876 177.556 66.8506C174.354 76.2156 165.15 99.5245 152.446 76.0435C139.743 52.5635 136.767 56.4056 127.202 55.5946C117.633 54.7836 116.878 80.7355 111.485 87.5065C106.094 94.2755 98.383 91.4535 82.508 96.8515C66.632 102.251 76.863 112.273 56.685 103.094C36.504 93.9145 38.824 103.507 21.115 107.787C7.02301 111.193 0.772003 97.8705 6.547 86.8735C6.84399 85.2175 7.349 83.5645 8.11401 81.9345C11.932 73.8055 21.256 71.0045 29.532 70.7135C37.684 70.4265 44.262 75.4015 49.891 80.7055C55.91 86.3805 61.783 92.9275 70.789 92.3085C71.413 92.2655 71.756 92.6605 71.828 93.1325C77.183 91.1455 82.422 86.0715 89.958 85.6805C102.299 85.0406 107.667 81.4006 113.644 70.5856C119.619 59.7696 122.262 51.3225 130.962 45.3145C139.661 39.3065 149.82 58.7176 160.839 62.3016C171.856 65.8866 166.205 58.6615 171.24 50.4165C176.276 42.1705 178.773 52.4995 187.448 49.6225C196.122 46.7445 193.043 40.4616 207.239 37.8106C221.435 35.1595 226.682 47.1675 241.972 45.8155C257.263 44.4615 238.202 33.4505 277.38 14.6105C316.558 -4.22845 368.088 21.5795 370.837 23.2585C409.456 46.8425 440.366 78.2965 440.366 78.2965C487.837 129.296 472.899 203.188 421.641 236.663C386.673 259.498 353.213 253.982 325.029 238.796C316.192 240.952 307.513 236.984 300.146 232.387C290.985 226.671 283.034 219.134 275.09 211.89C265.837 203.45 255.942 197.17 244.113 192.844C231.555 188.251 218.235 185.959 204.994 184.383C195.254 184.732 186.977 186.442 181.388 189.311C161.241 199.646 149.89 191.457 135.952 208.102C122.014 224.747 167.838 226.945 200.001 234.009C232.164 241.072 210.598 268.15 210.598 268.15C178.873 286.675 138.952 273.234 107.676 291.269C95.345 298.379 72.162 311.767 58.082 301.801C41.695 290.202 48.149 263.698 46.173 246.979C43.928 228.001 27.437 217.93 23.822 209.433C20.206 200.936 9.18802 197.352 24.757 184.218ZM36.58 74.1695C28.437 71.0545 17.228 73.5625 11.732 80.4365C11.68 80.5005 11.635 80.5665 11.585 80.6315C12.167 80.1345 12.773 79.6485 13.427 79.1905C24.166 71.6835 37.862 76.4305 48.76 82.8255C45.039 79.3195 41.222 75.9445 36.58 74.1695ZM268.309 44.9155C245.088 71.6125 220.174 55.7695 207.705 49.4125C202.089 46.5495 200.223 46.7466 199.156 48.4196C210.093 49.8956 217.485 61.1496 226.404 67.0336C240.421 76.2766 256.755 72.7415 267.408 60.3835C272.796 54.1335 275.633 46.2785 281.342 40.1986C286.03 35.2046 292.05 31.7456 298.544 29.7285C286.426 31.5956 275.626 36.5035 268.309 44.9155ZM381.2 219.05C407.141 212.318 422.428 183.865 431.342 160.748C435.857 149.037 437.9 136.743 436.882 124.18C435.796 110.778 432.974 96.7906 425.256 85.4976C421.929 80.6296 416.066 78.2165 410.536 81.2765C403.86 84.9735 405.019 90.1725 407.336 95.4965C409.81 101.183 410.429 107.172 411.829 113.154C413.856 121.817 414.528 130.729 412.46 139.46C408.612 155.705 397.803 169.206 393.443 184.9C393.719 184.67 394.008 184.288 394.304 184.083C393.167 185.472 391.994 186.843 390.752 188.14C389.074 189.892 387.342 191.605 385.456 193.133C385.132 193.401 384.797 193.658 384.467 193.917C384.364 193.984 384.115 194.153 383.712 194.437C382.628 195.132 381.534 195.822 380.384 196.402C379.969 196.61 377.273 197.661 378.045 197.453C377.407 197.65 376.767 197.839 376.116 198.008C370.405 199.488 366.733 205.266 368.137 211.072C369.503 216.733 375.486 220.531 381.2 219.05ZM343.246 176.917C335.949 177.08 328.51 175.522 321.378 172.772C313.351 169.681 305.637 166.099 297.208 164.176C287.533 161.963 277.428 161.619 267.544 161.941C260.09 162.185 252.588 162.847 245.116 163.88C272.524 165.768 299.797 172.517 326.749 176.823C332.736 177.78 338.227 177.761 343.246 176.917ZM271.868 205.95C279.81 212.818 287.244 220.224 295.664 226.533C302.962 232 312.338 238.001 321.853 237.034C309.962 230.233 299.063 221.791 289.454 213.168C272.366 197.835 249.318 189.207 228.285 185.901C244.162 189.429 259.51 195.266 271.868 205.95Z" fill="url(#paint0_linear_2006_350)"/>
<path d="M284.941 166.076C284.941 166.076 296.006 162.318 298.179 168.093C300.354 173.872 312.063 188.539 308.357 195.41C304.654 202.284 279.594 213.337 273.513 212.278C267.433 211.218 260.966 211.824 258.303 206.638C255.642 201.45 246.272 182.757 249.995 181.864C253.717 180.97 265.931 168.223 271.808 167.128C277.687 166.034 284.941 166.076 284.941 166.076Z" fill="url(#paint1_radial_2006_350)"/>
<path d="M271.481 209.931C272.188 205.877 267.368 189.294 263.865 186.724C260.36 184.154 260.726 186.113 253.146 186.461C251.774 186.524 250.583 186.427 249.542 186.226C249.184 184.801 249.043 183.63 249.204 182.858C253.495 183.184 258.935 183.431 261.139 182.813C265.024 181.722 267.275 180.602 271.872 177.453C276.47 174.303 288.354 171.557 281.908 168.535C279.773 167.537 277.314 166.666 275.22 165.874C280.116 165.684 284.94 166.077 284.94 166.077C284.94 166.077 291.005 164.019 295.037 165.296C294.991 165.424 294.944 165.554 294.872 165.688C294.394 166.59 285.581 172.904 280.394 175.565C275.207 178.228 272.562 179.02 270.351 182.49C268.14 185.961 277.683 208.444 277.683 208.444C277.683 208.444 287.825 206.491 297.236 204.087C288.464 208.894 277.302 212.94 273.512 212.28C272.313 212.069 271.097 211.926 269.9 211.789C270.701 211.365 271.333 210.782 271.481 209.931Z" fill="url(#paint2_radial_2006_350)"/>
<path d="M308.158 195.738C297.995 188.691 287.769 181.739 277.155 175.374C278.203 174.771 279.34 174.228 280.584 173.738C281.186 173.502 281.649 173.165 281.998 172.77C282.012 172.759 282.028 172.754 282.04 172.742C287.53 176.273 301.758 185.464 309.035 191.423C309.156 192.914 308.972 194.272 308.357 195.41C308.301 195.519 308.226 195.629 308.158 195.738Z" fill="url(#paint3_radial_2006_350)"/>
<path d="M269.096 184.341C270.394 181.517 272.065 179.236 274.263 177.383C274.307 178.054 274.634 178.716 275.342 179.14C285.592 185.283 295.467 192.003 305.279 198.814C302.772 200.907 299.168 203.121 295.248 205.14C288.964 200.297 276.209 190.42 269.096 184.341Z" fill="url(#paint4_radial_2006_350)"/>
<path d="M76.731 247.404C74.842 229.899 61.099 221.506 46.718 200.774C32.335 180.043 53.863 181.868 72.689 175.756C91.515 169.643 67.653 184.002 72.874 199.139C78.096 214.277 102.468 205.262 113.762 197.065C125.057 188.871 140.138 167.263 163.341 166.34C186.546 165.416 156.856 171.812 154.033 179.523C151.211 187.233 172.073 179.848 208.785 170.193C245.497 160.54 303.515 180.878 329.142 199.672C337.681 205.934 349.029 215.151 360.275 210.709C365.893 208.49 385.859 192.798 383.013 185.948C375.119 188.087 368.728 193.881 360.218 196.091C364.582 193.132 370.016 190.726 374.691 187.753C380.73 183.914 383.659 179.259 387.336 173.344C399.784 153.324 404.646 129.296 405.724 106.192C406.61 87.2375 412.058 96.8545 412.058 96.8545C428.609 145.954 391.247 191.688 395.22 201.661C399.192 211.634 414.483 210.281 431.26 160.151C448.038 110.023 418.543 91.3805 410.857 85.4295C403.172 79.4775 397.957 86.9855 390.118 77.1665C388.672 75.3555 387.007 73.4095 385.218 71.3775C383.163 65.2665 380.475 60.0155 377.212 56.0785C373.106 51.1215 368.02 46.7605 362.296 43.0615C357.097 33.1555 380.747 51.3195 380.747 51.3195C392.633 61.7235 405.102 68.0795 414.872 66.4995C424.642 64.9186 446.15 92.5195 456.696 132.921C459.364 143.143 460.271 154.314 458.148 164.734C456.896 170.883 452.732 181.989 445.495 183.184C441.358 174.567 454.597 163.741 450.648 153.466C442.94 155.302 440.007 172.097 437.628 178.426C435.928 182.941 433.93 187.295 431.846 191.655C430.538 194.392 426.298 199.471 426.242 202.495C426.176 206.12 428.603 204.771 429.104 206.594C429.935 209.613 428.529 211.134 427.256 213.702C418.133 232.115 393.54 242.188 373.965 242.807C353.085 243.465 331.739 235.166 317.573 219.651C294.208 194.062 232.321 173.877 212.962 177.777C193.6 181.674 183.067 186.562 166.301 188.273C149.534 189.983 135.183 188.766 122.875 208.921C110.567 229.077 170.968 239.284 174.357 240.991C203.697 255.763 150.139 253.872 137.24 255.427C124.341 256.984 96.385 277.017 80.153 280.94C63.918 284.861 78.619 264.907 76.731 247.404Z" fill="url(#paint5_linear_2006_350)"/>
<path d="M27.885 184.242C28.234 183.949 28.591 183.667 28.948 183.385C29.671 182.82 30.505 182.205 31.431 181.555C39.605 175.942 49.777 172.694 60.238 170.558C60.412 170.617 60.59 170.672 60.755 170.745C59.211 173.466 55.584 172.929 52.966 174.395C48.156 177.087 45.409 180.304 40.202 182.149C36.444 183.479 32.227 185.065 31.254 189.397C29.605 196.735 38.354 207.21 40.972 213.618C48.619 232.334 51.397 222.291 61.701 239.063C72.002 255.836 63.442 282.894 71.35 291.916C79.258 300.938 107.122 284.831 129.559 272.119C151.997 259.406 181.752 268.354 201.816 260.902C216.549 255.427 215.84 244.15 214.424 238.54C214.612 238.67 214.79 238.804 214.969 238.936C215.026 238.977 215.084 239.021 215.139 239.063C215.305 239.19 215.464 239.319 215.622 239.448C215.681 239.498 215.741 239.547 215.799 239.595C215.953 239.726 216.104 239.857 216.25 239.991C216.299 240.035 216.347 240.082 216.396 240.127C216.545 240.27 216.696 240.409 216.837 240.554C216.853 240.569 216.87 240.585 216.885 240.603C217.379 241.107 217.82 241.626 218.21 242.158C218.222 242.172 218.232 242.186 218.243 242.201C218.359 242.36 218.469 242.52 218.573 242.681C218.6 242.72 218.628 242.761 218.654 242.799C218.756 242.955 218.852 243.112 218.946 243.272C218.969 243.312 218.994 243.353 219.017 243.394C219.11 243.556 219.202 243.72 219.287 243.883C219.3 243.908 219.309 243.934 219.324 243.958C219.706 244.702 220.005 245.463 220.23 246.236C220.234 246.256 220.242 246.275 220.248 246.295C220.3 246.473 220.346 246.652 220.39 246.831C220.398 246.863 220.406 246.895 220.414 246.929C220.455 247.107 220.492 247.286 220.528 247.466C220.532 247.49 220.538 247.518 220.541 247.541C220.727 248.531 220.807 249.53 220.798 250.53C220.798 250.552 220.798 250.572 220.798 250.594C220.795 250.78 220.789 250.966 220.781 251.152C220.779 251.178 220.778 251.205 220.777 251.23C220.768 251.419 220.756 251.61 220.742 251.799C220.74 251.804 220.739 251.808 220.74 251.814C220.673 252.628 220.554 253.439 220.393 254.24C220.393 254.24 220.391 254.244 220.391 254.249C220.353 254.438 220.312 254.625 220.268 254.812C220.263 254.834 220.259 254.857 220.254 254.879C220.209 255.064 220.168 255.245 220.12 255.426C220.115 255.444 220.111 255.462 220.106 255.478C219.857 256.446 219.553 257.388 219.216 258.296C219.209 258.316 219.201 258.334 219.195 258.354C219.131 258.524 219.068 258.691 219.002 258.855C218.994 258.878 218.982 258.901 218.975 258.925C218.909 259.092 218.841 259.26 218.772 259.423C218.769 259.432 218.766 259.439 218.763 259.446C218.471 260.148 218.163 260.823 217.848 261.464C217.841 261.481 217.833 261.497 217.825 261.514C217.755 261.658 217.684 261.799 217.612 261.94C217.597 261.97 217.583 261.999 217.567 262.028C217.5 262.165 217.429 262.298 217.36 262.43C217.346 262.459 217.33 262.487 217.315 262.516C217.244 262.652 217.173 262.787 217.101 262.918C217.098 262.922 217.097 262.924 217.096 262.928C216.856 263.369 216.618 263.787 216.387 264.185C216.381 264.195 216.375 264.204 216.369 264.214C216.303 264.327 216.237 264.438 216.172 264.546C216.154 264.579 216.134 264.609 216.113 264.643C216.053 264.742 215.995 264.841 215.935 264.937C215.913 264.975 215.891 265.008 215.87 265.044C215.809 265.141 215.752 265.235 215.693 265.326C215.675 265.353 215.66 265.38 215.642 265.406C215.443 265.721 215.253 266.013 215.077 266.279C215.067 266.294 215.057 266.309 215.049 266.323C215 266.395 214.954 266.464 214.906 266.533C214.883 266.563 214.863 266.597 214.843 266.627C214.798 266.692 214.756 266.752 214.715 266.815C214.692 266.845 214.669 266.878 214.649 266.909C214.611 266.965 214.572 267.02 214.536 267.073C214.514 267.106 214.49 267.134 214.468 267.168C214.436 267.214 214.403 267.262 214.372 267.305C214.345 267.343 214.32 267.375 214.295 267.41C214.27 267.445 214.243 267.483 214.219 267.515C214.201 267.54 214.185 267.563 214.167 267.586C214.118 267.655 214.071 267.719 214.028 267.775C214.008 267.799 213.99 267.826 213.973 267.849C213.956 267.871 213.941 267.89 213.925 267.912C213.907 267.935 213.889 267.959 213.872 267.979C213.861 267.998 213.848 268.012 213.838 268.027C213.82 268.049 213.805 268.07 213.791 268.086C213.788 268.092 213.783 268.097 213.779 268.101C213.762 268.124 213.748 268.143 213.738 268.155H213.737C213.727 268.169 213.723 268.175 213.723 268.175C181.998 286.699 142.08 273.26 110.803 291.291C98.469 298.404 75.287 311.79 61.209 301.825C44.82 290.225 51.275 263.722 49.299 247.005C47.054 228.026 30.565 217.954 26.949 209.456C26.044 207.333 24.676 205.516 23.38 203.779C19.488 198.572 16.21 194.092 27.885 184.242Z" fill="#008BC1"/>
<path opacity="0.4" d="M443.868 62.6135C443.584 52.7685 442.285 42.7085 439.826 33.1755C438.213 26.9305 436.097 19.9325 431.717 15.0055C427.245 9.97454 414.923 3.51354 409.949 10.5235C401.989 21.7405 419.714 24.6615 425.569 30.3415C434.575 39.0765 440.206 50.7595 443.868 62.6135Z" fill="url(#paint6_linear_2006_350)"/>
<path opacity="0.4" d="M443.868 62.6135C443.584 52.7685 442.285 42.7085 439.826 33.1755C438.213 26.9305 436.097 19.9325 431.717 15.0055C427.245 9.97454 414.923 3.51354 409.949 10.5235C401.989 21.7405 419.714 24.6615 425.569 30.3415C434.575 39.0765 440.206 50.7595 443.868 62.6135Z" fill="url(#paint7_linear_2006_350)"/>
<path d="M410.414 9.93355C415.652 3.89855 427.38 10.1235 431.718 15.0055C436.097 19.9326 438.214 26.9315 439.827 33.1755C440.804 36.9655 441.591 40.8395 442.21 44.7495C438.654 35.9995 433.784 27.7335 426.992 21.1455C423.017 17.2915 413.581 14.7056 410.414 9.93355Z" fill="url(#paint8_radial_2006_350)"/>
<path opacity="0.4" d="M471.555 120.743C474.633 115.152 477.213 109.108 478.972 102.977C480.125 98.9585 481.241 94.3536 480.417 90.1636C479.573 85.8846 474.815 78.2275 469.734 80.5075C461.602 84.1555 470.539 91.6116 471.942 96.7066C474.101 104.545 473.407 112.92 471.555 120.743Z" fill="url(#paint9_linear_2006_350)"/>
<path opacity="0.4" d="M358.791 57.4066C347.413 57.3276 358.473 69.3546 354.242 74.1396C351.412 77.3396 346.583 74.0606 345.328 79.4046C344.43 83.2316 348.678 88.8345 351.873 90.1595C355.426 91.6315 361.829 90.5596 364.587 87.8636C366.54 85.9566 365.558 82.8576 367.027 81.1476C367.984 80.0336 370.991 78.5515 371.521 77.7565C374.465 73.3295 375.107 70.0946 370.7 63.8806C367.673 59.6116 362.84 55.6805 357.315 57.7635" fill="url(#paint10_linear_2006_350)"/>
<path d="M46.779 146.096C48.849 140.77 63.428 143.119 62.064 151.03C61.449 154.599 58.025 153.743 56.094 155.561C53.893 157.633 52.486 161.112 50.348 163.214C36.888 176.454 28.191 147.436 47.16 144.443" fill="#EC46BE"/>
<path d="M45.63 150.015L45.29 151.678C46.982 146.971 58.405 147.896 60.449 153.528C59.124 154.329 57.312 154.414 56.094 155.56C53.893 157.632 52.486 161.111 50.348 163.213C42.461 170.973 36.211 164.216 36.205 156.693C37.715 153.548 40.71 150.922 45.63 150.015Z" fill="url(#paint11_linear_2006_350)"/>
<path d="M187.304 148.768C191.583 148.175 195.401 158.666 189.676 160.677C187.093 161.584 186.399 159.009 184.486 158.404C182.307 157.713 179.495 158.066 177.317 157.427C163.621 153.414 179.579 136.989 188.538 148.411" fill="url(#paint12_linear_2006_350)"/>
<path d="M188.537 148.411L187.304 148.768C189.72 148.433 191.986 151.626 192.476 154.834C192.238 154.971 191.987 155.098 191.706 155.198C189.082 156.146 188.406 153.551 186.477 152.96C184.28 152.288 181.426 152.676 179.233 152.057C175.912 151.121 174.336 149.442 173.976 147.59C177.247 144.084 183.849 142.433 188.537 148.411Z" fill="url(#paint13_radial_2006_350)"/>
<path d="M138.774 35.6175C138.774 35.6175 107.397 22.1165 102.824 41.9635C98.25 61.8105 110.227 37.0505 138.774 35.6175Z" fill="url(#paint14_linear_2006_350)"/>
<path d="M105.313 36.4575C110.303 29.9285 120.458 30.5615 128.281 32.3195C109.263 38.4225 101.611 52.6635 105.313 36.4575Z" fill="#EC46BE"/>
<path d="M33.9941 109.36C35.9551 107.45 16.798 118.982 7.61103 116.518C-1.57497 114.053 -0.141945 142.6 33.9941 109.36Z" fill="url(#paint15_linear_2006_350)"/>
<path d="M29.134 111.02C10.515 127.055 3.80003 121.792 3.82303 116.933C4.48503 116.687 5.26202 116.64 6.13702 116.874C12.456 118.571 23.499 113.639 29.134 111.02Z" fill="url(#paint16_linear_2006_350)"/>
<path d="M279.131 18.6135C253.846 34.6165 261.434 53.0855 245.115 52.3455C228.797 51.6035 224.587 40.6466 205.794 42.5866C186.999 44.5256 195.485 58.0936 188.021 55.2126C180.557 52.3326 178.146 46.6676 175.654 51.4336C173.163 56.2006 170.727 84.9015 163.415 78.3395C156.103 71.7775 145.034 43.2165 135.063 47.1885C131.945 48.4305 128.101 51.9345 124.191 56.3455C122.944 57.1285 121.882 58.4645 120.958 60.1775C118.942 62.6655 116.961 65.2935 115.1 67.8806C120.11 58.3556 123.007 50.8105 130.966 45.3145C139.665 39.3065 149.824 58.7176 160.843 62.3016C171.86 65.8866 166.209 58.6615 171.244 50.4165C176.28 42.1705 178.777 52.4995 187.452 49.6225C196.126 46.7445 193.047 40.4616 207.243 37.8106C221.439 35.1595 226.686 47.1675 241.976 45.8155C257.267 44.4615 238.206 33.4505 277.384 14.6105C316.562 -4.22845 368.092 21.5795 370.841 23.2585C372.642 24.3585 374.426 25.4755 376.192 26.6065C373.421 28.7475 303.744 3.03654 279.131 18.6135Z" fill="url(#paint17_linear_2006_350)"/>
<path d="M13.426 79.1895C28.791 68.4475 50.219 82.7905 60.831 91.1585C71.443 99.5265 77.622 86.3185 89.961 85.6795C98.059 85.2605 103.147 83.5315 107.38 79.3515C106.045 81.4805 105.026 83.2035 104.456 84.2595C101.217 90.2485 92.738 91.7775 84.884 91.5925C77.03 91.4085 73.926 95.8025 69.738 97.8565C65.548 99.9105 54.398 81.7815 34.146 81.9905C14.187 82.1975 2.138 94.1445 8.983 105.708C2.064 100.099 2.549 86.7935 13.426 79.1895Z" fill="url(#paint18_linear_2006_350)"/>
<path d="M220.789 184.936C229.452 182.802 258.74 182.79 286.754 205.23C324.198 235.225 343.472 250.351 378.617 244.979C413.762 239.608 449.393 219.022 461.185 170.878C472.975 122.734 438.357 76.4385 427.618 68.6215C416.879 60.8055 409.008 62.7075 398.609 58.4525C388.21 54.1985 366.154 34.0195 357.808 33.9545C351.395 33.9045 350.829 36.4335 348.189 37.0865C320.764 24.7305 285.229 25.4615 268.309 44.9145C267.96 45.3175 267.609 45.7075 267.259 46.0905C262.517 47.9485 259.369 50.1355 258.736 52.6945C257.958 55.8395 260.055 40.9215 277.931 30.8745C295.807 20.8275 310.562 17.2605 337.264 24.3425C363.964 31.4255 381.082 39.7825 387.596 38.7285C389.708 38.3875 391.47 38.1865 393.262 38.2975C420.759 58.3375 440.37 78.2935 440.37 78.2935C487.837 129.296 472.899 203.188 421.641 236.663C370.382 270.137 322.362 242.698 289.455 213.168C270.308 195.985 243.681 187.226 220.789 184.936Z" fill="url(#paint19_radial_2006_350)"/>
<path d="M85.28 166.464C93.324 165.477 92.57 168.954 89.744 173.575C89.45 173.141 88.697 172.857 87.321 172.74C79.348 172.064 63.893 170.594 51.358 172.582C50.519 172.715 50.218 172.534 50.385 172.088C62.008 169.057 74.473 167.793 85.28 166.464Z" fill="url(#paint20_radial_2006_350)"/>
<path d="M77.25 189.23C79.725 184.864 83.648 181.215 86.471 178.462C82.606 184.065 78.955 189.709 84.906 190.764C97.959 193.074 123.475 179.099 130.521 172.71C139.305 164.744 154.874 163.894 165.935 161.812C170.452 160.961 178.569 160.414 175.874 166.448C174.039 170.557 160.399 172.663 170.184 177.424C171.508 178.069 173.004 178.141 174.579 177.857C166.873 181.339 157.131 185.143 160.175 179.078C164.039 171.377 176.743 163.622 170.72 164.556C164.7 165.491 126.962 173.051 118.787 182.315C110.612 191.579 105.577 192.274 98.555 195.535C91.534 198.795 71.773 198.884 77.25 189.23Z" fill="url(#paint21_radial_2006_350)"/>
<path d="M182.917 174.272C185.167 172.977 187.254 171.68 188.912 170.982C201.468 165.705 214.979 163.568 228.539 163.387C261.524 162.943 294.37 171.651 326.749 176.824C377.573 184.945 392.795 122.803 384.877 82.0585C384.986 82.0445 385.05 82.0355 385.05 82.0355C386.256 84.8685 390.994 106.63 390.015 121.964C389.036 137.297 388.122 144.286 384.409 148.308C380.696 152.329 383.254 139.217 380.864 146.562C378.474 153.907 371.726 169.073 364.333 172.944C356.938 176.814 362.673 181.155 355.668 182.328C348.663 183.501 327.63 189.103 317.875 181.048C308.12 172.996 254.652 167.176 239.317 166.196C225.466 165.313 194.039 170.8 182.917 174.272Z" fill="url(#paint22_radial_2006_350)"/>
<path d="M396.702 206.318C396.455 206.546 396.213 206.759 395.975 206.944C382.392 217.515 387.15 189.814 392.761 178.567C398.371 167.319 396.724 158.347 406.2 139.397C414.295 123.21 407.843 100.301 406.933 94.6485C408.045 95.2745 408.926 96.8285 408.926 96.8285C425.479 145.93 388.116 191.665 392.089 201.637C393.033 204.004 394.614 205.729 396.702 206.318Z" fill="url(#paint23_radial_2006_350)"/>
<path d="M76.981 97.6675C83.5271 92.4415 99.132 90.2316 106.764 87.3446C109.467 86.3236 112.444 82.1285 115.598 76.9335C114.408 81.3965 113.175 85.3895 111.488 87.5065C106.097 94.2755 98.386 91.4535 82.511 96.8515C66.635 102.251 76.8661 112.273 56.688 103.094C36.507 93.9145 38.827 103.507 21.118 107.787C11.773 110.045 5.88304 104.947 4.65204 98.0505C7.54504 99.8055 10.883 101.76 14.341 103.438C24.366 108.303 27.907 94.9515 38.506 89.2665C49.107 83.5805 56.593 99.4715 63.445 101.981C70.3 104.489 70.4361 102.894 76.981 97.6675Z" fill="url(#paint24_radial_2006_350)"/>
<path d="M177.559 66.8495C174.357 76.2145 165.153 99.5235 152.449 76.0425C140.641 54.2175 137.235 55.9985 129.131 55.7055C130.762 53.8395 132.402 52.3875 134.045 51.5965C143.899 46.8485 156.649 80.4935 162.638 83.7305C168.626 86.9685 174.811 65.1705 178.05 59.1815C181.286 53.1935 186.632 60.2305 188.108 59.8735C188.108 59.8735 187.934 60.3535 187.618 61.2155C183.08 62.0695 179.872 60.0855 177.559 66.8495Z" fill="url(#paint25_radial_2006_350)"/>
<path d="M58.872 231.677C59.727 235.209 63.282 237.379 66.813 236.526C70.344 235.673 72.516 232.118 71.663 228.587C70.809 225.056 67.253 222.885 63.721 223.738C60.191 224.591 58.019 228.145 58.872 231.677Z" fill="url(#paint26_linear_2006_350)"/>
<path d="M64.045 253.074C64.405 254.566 65.908 255.487 67.405 255.125C68.898 254.765 69.816 253.261 69.454 251.767C69.094 250.272 67.59 249.354 66.096 249.715C64.601 250.075 63.684 251.58 64.045 253.074Z" fill="url(#paint27_linear_2006_350)"/>
<path d="M88.584 238.291C89.406 241.687 92.822 243.774 96.219 242.953C99.616 242.133 101.702 238.715 100.881 235.319C100.06 231.923 96.643 229.835 93.246 230.656C89.851 231.478 87.764 234.895 88.584 238.291Z" fill="url(#paint28_linear_2006_350)"/>
<path d="M79.162 266.078C79.522 267.573 81.026 268.492 82.52 268.131C84.016 267.77 84.933 266.267 84.571 264.771C84.211 263.278 82.708 262.36 81.213 262.722C79.72 263.082 78.801 264.585 79.162 266.078Z" fill="url(#paint29_linear_2006_350)"/>
<path d="M37.842 213.592C38.138 214.816 39.368 215.567 40.59 215.272C41.814 214.976 42.565 213.746 42.269 212.522C41.975 211.3 40.745 210.55 39.521 210.846C38.298 211.141 37.547 212.371 37.842 213.592Z" fill="url(#paint30_linear_2006_350)"/>
<path d="M89.308 185.276C90.03 188.262 93.0371 190.1 96.0241 189.378C99.0131 188.656 100.85 185.649 100.128 182.66C99.4061 179.671 96.3981 177.835 93.4081 178.557C90.4211 179.279 88.584 182.287 89.308 185.276Z" fill="url(#paint31_linear_2006_350)"/>
<path d="M77.851 198.196C78.213 199.691 79.716 200.609 81.21 200.249C82.704 199.888 83.622 198.383 83.261 196.889C82.901 195.396 81.397 194.476 79.903 194.837C78.409 195.197 77.491 196.702 77.851 198.196Z" fill="url(#paint32_linear_2006_350)"/>
<path d="M161.868 229.168C162.722 232.701 166.276 234.87 169.808 234.016C173.34 233.163 175.51 229.61 174.657 226.078C173.803 222.547 170.25 220.376 166.718 221.23C163.186 222.083 161.014 225.637 161.868 229.168Z" fill="url(#paint33_linear_2006_350)"/>
<path d="M176.526 238.12C176.79 239.207 177.884 239.876 178.971 239.613C180.055 239.35 180.723 238.257 180.461 237.169C180.197 236.084 179.104 235.415 178.02 235.677C176.932 235.94 176.264 237.035 176.526 238.12Z" fill="url(#paint34_linear_2006_350)"/>
<path d="M199.465 231.796C200.155 234.649 203.028 236.4 205.878 235.713C208.73 235.024 210.483 232.152 209.794 229.3C209.105 226.447 206.234 224.693 203.383 225.382C200.53 226.071 198.776 228.943 199.465 231.796Z" fill="url(#paint35_linear_2006_350)"/>
<path d="M181.97 208.954C182.397 210.719 184.176 211.804 185.941 211.377C187.707 210.95 188.792 209.173 188.366 207.407C187.939 205.641 186.162 204.555 184.395 204.982C182.629 205.408 181.543 207.186 181.97 208.954Z" fill="url(#paint36_linear_2006_350)"/>
<path d="M338.673 252.03C339.856 256.921 344.777 259.926 349.667 258.743C354.556 257.561 357.563 252.64 356.38 247.751C355.198 242.86 350.276 239.856 345.387 241.036C340.498 242.219 337.491 247.14 338.673 252.03Z" fill="url(#paint37_linear_2006_350)"/>
<path d="M324.947 253.395C325.292 254.822 326.728 255.7 328.154 255.354C329.58 255.01 330.457 253.574 330.112 252.147C329.767 250.721 328.331 249.844 326.905 250.189C325.48 250.534 324.602 251.97 324.947 253.395Z" fill="url(#paint38_linear_2006_350)"/>
<path d="M298.179 39.2585C298.967 42.5185 302.248 44.5225 305.508 43.7335C308.768 42.9455 310.772 39.6645 309.984 36.4045C309.196 33.1445 305.915 31.1405 302.654 31.9285C299.394 32.7165 297.391 35.9975 298.179 39.2585Z" fill="url(#paint39_linear_2006_350)"/>
<path d="M288.043 52.2495C288.388 53.6765 289.824 54.5535 291.251 54.2095C292.677 53.8645 293.554 52.4285 293.209 51.0015C292.864 49.5755 291.429 48.6985 290.002 49.0435C288.576 49.3875 287.698 50.8235 288.043 52.2495Z" fill="url(#paint40_linear_2006_350)"/>
<path d="M325.203 8.90855C326.139 12.7786 330.035 15.1585 333.907 14.2225C337.779 13.2865 340.157 9.38955 339.222 5.51955C338.286 1.64855 334.39 -0.732452 330.519 0.203548C326.647 1.13955 324.267 5.03755 325.203 8.90855Z" fill="url(#paint41_linear_2006_350)"/>
<path d="M309.824 9.89254C310.218 11.5215 311.858 12.5245 313.488 12.1305C315.118 11.7365 316.12 10.0955 315.726 8.46454C315.332 6.83554 313.691 5.83354 312.06 6.22754C310.431 6.62154 309.429 8.26255 309.824 9.89254Z" fill="url(#paint42_linear_2006_350)"/>
<path d="M457.859 195.892C459.041 200.781 463.964 203.785 468.853 202.604C473.742 201.422 476.749 196.5 475.567 191.612C474.385 186.721 469.462 183.715 464.573 184.898C459.684 186.079 456.678 191.002 457.859 195.892Z" fill="url(#paint43_linear_2006_350)"/>
<path d="M448.121 216.986C448.515 218.617 450.156 219.62 451.787 219.224C453.416 218.831 454.419 217.19 454.024 215.559C453.631 213.93 451.989 212.928 450.36 213.322C448.729 213.716 447.727 215.357 448.121 216.986Z" fill="url(#paint44_linear_2006_350)"/>
<path d="M83.615 85.2626C84.353 88.3186 87.429 90.1976 90.485 89.4586C93.542 88.7206 95.421 85.6435 94.683 82.5875C93.944 79.5305 90.868 77.6526 87.81 78.3916C84.754 79.1296 82.875 82.2056 83.615 85.2626Z" fill="url(#paint45_linear_2006_350)"/>
<path d="M72.968 92.9115C73.363 94.5415 75.003 95.5425 76.634 95.1495C78.263 94.7555 79.265 93.1156 78.87 91.4846C78.476 89.8546 76.836 88.8525 75.207 89.2465C73.577 89.6405 72.574 91.2815 72.968 92.9115Z" fill="url(#paint46_linear_2006_350)"/>
<path d="M358.229 87.5016C365.444 86.8696 356.853 81.1076 360.627 77.9816C361.814 76.9986 365.095 79.8296 366.976 77.7066C367.999 76.5486 367.3 73.6325 367.081 72.3215C366.438 68.4745 364.338 63.1586 361.044 60.8696C358.566 59.1466 355.538 59.2716 354.121 60.8356C354.065 60.1096 354.078 59.4646 354.152 58.8866C354.857 57.9906 356.196 57.4456 358.484 57.4136C363.518 56.2496 367.888 59.9155 370.699 63.8795C375.106 70.0935 374.465 73.3286 371.52 77.7556C370.991 78.5506 367.984 80.0325 367.026 81.1465C365.557 82.8565 366.539 85.9565 364.586 87.8625C361.828 90.5585 355.425 91.6306 351.872 90.1586C351.517 90.0106 351.147 89.8036 350.774 89.5576C348.923 83.4266 355.705 87.7226 358.229 87.5016Z" fill="url(#paint47_radial_2006_350)"/>
<path d="M347.869 86.8145C346.076 84.5585 344.797 81.6715 345.329 79.4035C346.583 74.0595 351.413 77.3395 354.243 74.1385C356.97 71.0535 353.35 64.9645 353.476 61.0435C354.38 62.9895 357.061 65.4735 358.211 66.2315C360.089 67.4675 365.972 71.0245 363.1 73.5735C360.718 75.6875 358.478 72.0235 357.604 76.8045C357.048 79.8425 360.277 82.1415 359.976 84.8405C359.455 89.4945 352.403 89.7985 347.869 86.8145Z" fill="url(#paint48_linear_2006_350)"/>
<path d="M355.976 58.5365C356.826 58.8925 356.127 59.0535 356.195 59.5955L353.797 59.4976C353.94 59.1786 354.134 58.8905 354.391 58.6365C354.8 58.5415 355.318 58.5025 355.976 58.5365Z" fill="url(#paint49_linear_2006_350)"/>
<path d="M440.202 34.7335C442.409 43.8015 443.599 53.3005 443.869 62.6125C440.207 50.7585 434.576 39.0755 425.57 30.3415C420.296 25.2245 405.397 22.3435 408.312 13.6215C411.87 20.4065 421.928 20.4305 427.19 25.3875C430.281 28.2995 431.649 33.4865 434.147 36.9785C437.71 41.9625 443.034 44.1365 440.027 35.9485L440.202 34.7335Z" fill="url(#paint50_linear_2006_350)"/>
<path d="M472.404 85.9105C469.503 84.2825 467.607 84.2625 466.367 84.9335C466.295 83.2075 467.154 81.6655 469.734 80.5075C474.815 78.2275 479.573 85.8846 480.417 90.1636C481.241 94.3536 480.125 98.9585 478.972 102.977C477.212 109.108 474.632 115.151 471.555 120.743C471.555 120.743 480.837 90.6395 472.404 85.9105Z" fill="url(#paint51_radial_2006_350)"/>
<path d="M353.632 148.674C353.632 148.674 364.744 152.289 363.027 158.218C361.309 164.147 361.905 182.905 354.823 186.193C347.741 189.479 321.051 183.329 316.815 178.839C312.58 174.349 307.036 170.964 308.01 165.215C308.983 159.466 312.673 138.886 316.189 140.399C319.705 141.911 337.12 139.017 342.483 141.657C347.848 144.298 353.632 148.674 353.632 148.674Z" fill="url(#paint52_radial_2006_350)"/>
<path d="M316.594 175.742C319.587 172.919 325.655 156.749 324.388 152.594C323.12 148.438 322.241 150.225 315.96 145.967C314.823 145.196 313.929 144.404 313.215 143.622C313.783 142.265 314.37 141.245 314.961 140.718C318.203 143.553 322.411 147.005 324.548 147.829C328.313 149.282 330.785 149.734 336.353 149.964C341.923 150.194 353.085 155.108 349.731 148.832C348.62 146.752 347.17 144.583 345.968 142.694C350.003 145.474 353.632 148.675 353.632 148.675C353.632 148.675 359.721 150.661 362.185 154.096C362.071 154.172 361.956 154.246 361.819 154.311C360.897 154.747 350.058 154.528 344.309 153.553C338.561 152.582 335.968 151.633 332.12 153.088C328.271 154.544 322.453 178.264 322.453 178.264C322.453 178.264 331.745 182.773 340.721 186.482C330.819 185.08 319.456 181.637 316.815 178.839C315.979 177.951 315.093 177.11 314.215 176.283C315.11 176.426 315.965 176.334 316.594 175.742Z" fill="url(#paint53_radial_2006_350)"/>
<path d="M354.468 186.335C350.547 174.606 346.52 162.914 341.829 151.461C343.029 151.607 344.267 151.849 345.555 152.204C346.177 152.375 346.751 152.383 347.267 152.275C347.284 152.274 347.302 152.279 347.317 152.28C349.6 158.393 355.493 174.273 357.755 183.403C356.958 184.671 356 185.647 354.825 186.192C354.713 186.244 354.588 186.287 354.468 186.335Z" fill="url(#paint54_radial_2006_350)"/>
<path d="M330.004 153.818C332.735 152.332 335.439 151.504 338.309 151.339C337.943 151.902 337.809 152.624 338.122 153.39C342.656 164.447 346.539 175.743 350.32 187.073C347.059 187.247 342.848 186.863 338.498 186.133C336.366 178.492 332.062 162.946 330.004 153.818Z" fill="url(#paint55_radial_2006_350)"/>
<g opacity="0.5">
<path opacity="0.5" d="M8.74707 432.462C20.3181 409.358 52.8471 344.237 53.6321 340.841C54.5851 336.705 50.3681 330.367 50.3681 330.367C56.1801 336.444 71.4031 340.058 71.4031 340.058L70.1961 341.521C68.2741 340.034 59.5881 344.476 59.5881 344.476L20.4121 432.992L8.74707 432.462Z" fill="url(#paint56_radial_2006_350)"/>
<path d="M8.74707 432.462C20.3181 409.358 52.8471 344.237 53.6321 340.841C54.5851 336.705 50.3681 330.367 50.3681 330.367C56.1801 336.444 71.4031 340.058 71.4031 340.058L70.1961 341.521C68.2741 340.034 59.5881 344.476 59.5881 344.476L20.4121 432.992L8.74707 432.462Z" fill="url(#paint57_radial_2006_350)"/>
<path d="M69.4691 340.134C69.4691 340.134 71.4031 340.059 76.6821 336.049C81.9601 332.041 77.7011 325.569 78.9451 326.306C82.2951 329.517 83.8731 332.936 82.7881 335.605C81.6381 338.448 77.7231 339.791 72.6281 339.567L27.9621 433.336L25.1421 433.208L69.4691 340.134Z" fill="url(#paint58_radial_2006_350)"/>
<path d="M46.211 320.775C47.222 318.278 50.368 316.94 54.571 316.802C54.571 316.802 46.883 320.994 52.967 331.627L5.68204 432.322L3.48505 432.222L50.368 330.366C46.803 327.071 45.096 323.527 46.211 320.775Z" fill="url(#paint59_radial_2006_350)"/>
</g>
<path opacity="0.3" d="M210.326 257.062C210.362 257.075 210.414 257.092 210.477 257.113C210.494 257.119 210.517 257.125 210.534 257.133C210.593 257.151 210.66 257.174 210.735 257.198C210.758 257.206 210.782 257.214 210.806 257.221C210.9 257.253 211.01 257.289 211.124 257.33C211.162 257.341 211.202 257.355 211.243 257.368C211.367 257.409 211.497 257.453 211.638 257.502C211.682 257.518 211.732 257.534 211.777 257.55C211.894 257.591 212.02 257.633 212.148 257.679C212.203 257.698 212.257 257.716 212.314 257.737C212.478 257.796 212.654 257.856 212.835 257.921C212.899 257.943 212.964 257.966 213.028 257.99C213.204 258.05 213.382 258.116 213.569 258.184C213.624 258.202 213.676 258.223 213.729 258.241C213.919 258.31 214.117 258.383 214.317 258.456C214.388 258.483 214.459 258.51 214.531 258.536C214.753 258.618 214.983 258.704 215.217 258.792C215.288 258.82 215.364 258.85 215.44 258.876C215.637 258.95 215.837 259.028 216.04 259.106C216.111 259.133 216.181 259.158 216.251 259.186C216.498 259.281 216.749 259.38 217.004 259.481C217.088 259.515 217.175 259.548 217.259 259.583C217.519 259.687 217.782 259.792 218.048 259.899C218.116 259.927 218.189 259.957 218.258 259.985C218.482 260.079 218.707 260.172 218.937 260.268C219.019 260.3 219.099 260.335 219.18 260.368C219.452 260.482 219.723 260.598 219.994 260.718C220.084 260.754 220.171 260.792 220.259 260.831C220.526 260.947 220.793 261.064 221.061 261.185C221.084 261.194 221.11 261.205 221.134 261.216C221.258 263.797 221.101 266.469 220.622 269.241L93.0741 311.785C93.0741 311.785 60.2541 318.156 49.5851 293.401C49.2801 292.694 48.9831 291.984 48.6901 291.273C41.1941 273.113 35.3651 254.191 29.3731 235.497C26.3821 226.169 23.4441 216.822 20.5481 207.465C18.5621 201.052 11.7861 186.226 22.4551 184.383C23.5081 184.202 24.4851 184.27 25.4331 184.471C30.1631 186.23 43.8741 191.567 61.8401 198.602C61.8461 198.605 61.8521 198.606 61.8551 198.609C70.2421 201.892 78.6231 205.182 87.0031 208.475C87.1541 208.533 87.3061 208.593 87.4561 208.652C106.031 215.949 124.597 223.26 143.164 230.577C165.53 239.39 187.895 248.211 210.254 257.042C210.254 257.042 210.276 257.05 210.306 257.058C210.31 257.059 210.318 257.061 210.326 257.062Z" fill="#00A5F2"/>
<path opacity="0.5" d="M212.146 259.748C212.183 259.76 212.235 259.776 212.297 259.797C212.315 259.802 212.335 259.81 212.354 259.816C212.413 259.836 212.48 259.858 212.555 259.883C212.58 259.89 212.601 259.898 212.626 259.905C212.72 259.937 212.829 259.971 212.943 260.011C212.984 260.025 213.023 260.038 213.064 260.052C213.185 260.093 213.317 260.137 213.458 260.186C213.502 260.2 213.552 260.218 213.597 260.233C213.714 260.274 213.838 260.317 213.967 260.363C214.023 260.382 214.077 260.4 214.133 260.42C214.298 260.478 214.474 260.539 214.654 260.604C214.718 260.626 214.784 260.65 214.848 260.673C215.024 260.736 215.203 260.8 215.388 260.865C215.443 260.884 215.495 260.906 215.549 260.924C215.738 260.994 215.937 261.067 216.137 261.14C216.207 261.166 216.279 261.192 216.352 261.219C216.573 261.302 216.802 261.386 217.037 261.475C217.109 261.502 217.184 261.531 217.259 261.559C217.456 261.635 217.656 261.711 217.86 261.788C217.93 261.815 217.999 261.842 218.071 261.869C218.317 261.964 218.57 262.063 218.824 262.163C218.907 262.197 218.993 262.231 219.078 262.266C219.339 262.37 219.601 262.474 219.866 262.583C219.936 262.61 220.007 262.64 220.077 262.668C220.302 262.762 220.529 262.854 220.757 262.949C220.838 262.983 220.919 263.016 221 263.052C221.272 263.164 221.542 263.28 221.815 263.399C221.903 263.438 221.991 263.475 222.078 263.514C222.346 263.629 222.614 263.746 222.882 263.867C222.904 263.879 222.93 263.889 222.955 263.9C223.079 266.481 222.92 269.153 222.441 271.925L94.894 314.467C94.894 314.467 62.073 320.838 51.406 296.084C51.099 295.378 50.803 294.668 50.509 293.956C43.013 275.797 37.1861 256.875 31.192 238.182C28.201 228.853 25.264 219.506 22.366 210.147C20.382 203.734 13.604 188.911 24.274 187.067C25.328 186.885 26.304 186.954 27.254 187.153C31.981 188.914 45.693 194.25 63.659 201.286C63.664 201.287 63.67 201.29 63.674 201.294C72.06 204.576 80.4431 207.867 88.8221 211.157C88.9731 211.218 89.125 211.276 89.274 211.338C107.849 218.634 126.417 225.943 144.982 233.258C167.349 242.073 189.713 250.895 212.073 259.726C212.073 259.726 212.096 259.733 212.124 259.743C212.13 259.743 212.138 259.745 212.146 259.748Z" fill="url(#paint60_radial_2006_350)"/>
<path opacity="0.2" d="M13.955 187.999C13.176 189.276 12.068 191.978 11.031 194.371C9.43904 189.51 7.99803 183.804 10.216 181.673C14.207 177.841 23.739 182.724 27.885 184.242C43.306 189.887 213.382 257.064 213.382 257.064C213.382 257.064 246.252 267.551 231.358 273.283C230.855 273.476 230.277 273.696 229.634 273.934C229.141 271.741 226.37 269.076 218.711 266.187C198.519 258.576 15.634 185.252 13.955 187.999Z" fill="white"/>
<path d="M10.216 181.673C14.207 177.841 23.739 182.724 27.885 184.242C43.306 189.887 213.382 257.064 213.382 257.064C213.382 257.064 213.636 257.145 214.083 257.294C214.801 257.577 215.18 257.729 215.18 257.729C215.18 257.729 216.458 258.138 218.399 258.836C225.721 261.602 238.112 267.063 234.626 271.268C233.647 269.163 230.59 266.703 223.59 264.063C202.661 256.166 13.09 180.128 11.352 182.977C10.91 183.7 10.366 184.87 9.78902 186.182C9.51802 186.122 9.30103 186.087 9.11003 186.061C8.98903 184.171 9.26102 182.59 10.216 181.673Z" fill="white"/>
<path d="M79.268 326.833C69.957 327.825 60.24 323.899 54.101 316.835C54.259 316.825 54.4091 316.807 54.5721 316.803C53.9561 315.058 53.342 313.311 52.728 311.567C52.986 311.633 53.229 311.793 53.406 312.08C58.491 320.454 68.975 325.66 78.734 324.621C79.363 324.554 79.823 324.941 80.019 325.407C79.516 325.578 79.248 325.668 79.248 325.668L78.944 326.307C79.114 326.471 79.278 326.635 79.438 326.799C79.384 326.811 79.33 326.827 79.268 326.833Z" fill="#00A5F2"/>
<path opacity="0.5" d="M70.459 326.472L174.699 244.029L213.417 260.438C211.239 262.069 85.645 319.816 70.894 326.598C70.749 326.556 70.604 326.513 70.459 326.472Z" fill="url(#paint61_radial_2006_350)"/>
<path opacity="0.5" d="M70.119 326.214C76.314 315.369 123.22 223.282 123.22 223.282L151.759 234.735C150.87 238.591 78.701 317.07 70.269 326.361C70.22 326.311 70.1711 326.263 70.119 326.214Z" fill="url(#paint62_radial_2006_350)"/>
<path opacity="0.5" d="M10.216 181.673C14.207 177.841 23.739 182.724 27.885 184.242C30.41 185.167 37.083 187.741 46.475 191.401C46.837 192.446 47.127 193.524 47.319 194.643L25.37 192.139L54.645 315.25L53.68 314.27C52.277 310.291 50.875 306.31 49.475 302.331C41.979 281.049 34.485 259.769 26.989 238.485C22.52 225.801 16.858 213.615 13.143 200.645C11.926 196.406 6.846 184.911 10.216 181.673Z" fill="url(#paint63_radial_2006_350)"/>
<path d="M12.542 180.446C11.652 180.661 10.862 181.053 10.216 181.673C6.84604 184.911 11.926 196.406 13.143 200.646C16.858 213.616 22.5201 225.802 26.989 238.486C34.485 259.77 41.979 281.049 49.475 302.332C51.173 307.156 52.8721 311.979 54.5721 316.804C53.334 316.843 52.185 316.989 51.1581 317.237C48.701 317.832 46.924 319.016 46.212 320.777C45.097 323.529 46.804 327.073 50.368 330.369L3.48505 432.225L27.962 433.336L72.6281 339.567C74.5661 339.652 76.335 339.51 77.844 339.144C80.303 338.55 82.077 337.366 82.788 335.605C83.873 332.936 82.295 329.517 78.945 326.306L79.249 325.667C79.249 325.667 211.354 280.982 231.358 273.283C246.253 267.552 213.382 257.064 213.382 257.064C213.382 257.064 43.306 189.886 27.885 184.242C24.411 182.971 17.15 179.333 12.542 180.446ZM12.007 178.233C16.491 177.148 22.2791 179.517 26.507 181.246C27.3481 181.59 28.075 181.887 28.668 182.104C43.821 187.649 209.915 253.247 214.15 254.918C214.855 255.147 219.963 256.818 225.175 259.152C233.604 262.929 237.405 266.144 237.506 269.585C237.579 272.06 235.786 274.019 232.177 275.407C213.921 282.434 101.292 320.607 82.597 326.937C85.205 330.259 86.0461 333.629 84.899 336.46C84.2191 338.14 82.535 340.352 78.379 341.357C77.072 341.672 75.624 341.842 74.055 341.863L30.0161 434.312L29.367 435.677L27.858 435.608L3.38004 434.496L3.05176e-05 434.343L1.41403 431.271L47.632 330.865C44.0701 327.095 42.784 323.166 44.101 319.921C44.781 318.241 46.463 316.027 50.622 315.023C50.897 314.957 51.178 314.897 51.467 314.844L49.105 308.136L47.328 303.087L36.086 271.165L24.842 239.243C23.151 234.444 21.25 229.618 19.411 224.951C16.398 217.306 13.284 209.4 10.954 201.274C10.735 200.513 10.367 199.451 9.94003 198.224C7.16603 190.251 5.15204 183.379 8.64005 180.03C9.54704 179.158 10.681 178.554 12.007 178.233Z" fill="#00A5F2"/>
<path d="M83.041 334.361C83.041 334.361 79.92 338.085 63.911 331.628C47.899 325.17 47.751 319.788 47.751 319.788C47.751 319.788 40.861 329.479 62.779 336.155C78.496 340.941 81.781 337.71 83.041 334.361Z" fill="url(#paint64_radial_2006_350)"/>
<path d="M118.525 197.764C118.525 197.764 109.448 192.773 106.66 197.478C103.866 202.185 91.379 213.171 93.551 219.743C95.72 226.312 115.879 239.836 121.348 239.853C126.819 239.867 132.37 241.398 135.493 237.283C138.621 233.17 149.687 218.304 146.577 216.95C143.468 215.593 134.78 202.581 129.82 200.715C124.86 198.848 118.525 197.764 118.525 197.764Z" fill="url(#paint65_radial_2006_350)"/>
<path d="M123.485 238.117C123.497 234.47 130.266 220.744 133.721 219.044C137.177 217.341 136.555 218.995 143.116 220.474C144.302 220.741 145.358 220.839 146.298 220.826C146.829 219.638 147.133 218.637 147.114 217.939C143.318 217.559 138.533 216.932 136.704 216.052C133.482 214.499 131.691 213.174 128.167 209.715C124.642 206.255 114.695 202.019 120.788 200.38C122.807 199.838 125.088 199.459 127.036 199.092C122.793 198.17 118.524 197.764 118.524 197.764C118.524 197.764 113.548 195.031 109.832 195.522C109.853 195.64 109.873 195.76 109.916 195.889C110.193 196.75 116.907 203.622 121.021 206.749C125.134 209.875 127.322 210.974 128.714 214.345C130.107 217.715 118.301 235.86 118.301 235.86C118.301 235.86 109.752 232.588 101.911 229.033C108.822 234.586 117.938 239.843 121.346 239.853C122.426 239.855 123.51 239.916 124.575 239.982C123.943 239.491 123.482 238.884 123.485 238.117Z" fill="url(#paint66_radial_2006_350)"/>
<path d="M93.673 220.06C103.632 215.483 113.633 210.995 123.878 207.084C123.058 206.395 122.15 205.744 121.139 205.125C120.652 204.827 120.298 204.46 120.056 204.061C120.046 204.053 120.033 204.042 120.022 204.033C114.686 206.263 100.849 212.083 93.577 216.158C93.241 217.441 93.191 218.654 93.551 219.743C93.583 219.846 93.632 219.953 93.673 220.06Z" fill="url(#paint67_radial_2006_350)"/>
<path d="M129.526 216.155C128.83 213.49 127.725 211.239 126.092 209.284C125.949 209.861 125.564 210.388 124.88 210.65C114.984 214.422 105.326 218.762 95.709 223.187C97.574 225.401 100.378 227.89 103.485 230.259C109.718 227.006 122.376 220.359 129.526 216.155Z" fill="url(#paint68_radial_2006_350)"/>
<path d="M282.182 119.003C280.719 117.796 197.394 2.44654 197.394 2.44654C197.394 2.44654 193.819 0.57755 193.425 3.79655C193.031 7.01555 282.182 119.003 282.182 119.003Z" fill="#E2DEE6"/>
<path d="M224.833 80.3296C234.18 90.9066 249.141 92.9525 258.25 84.9025C267.36 76.8526 267.168 61.7525 257.822 51.1765C248.476 40.6005 233.515 38.5535 224.406 46.6045C215.295 54.6555 215.488 69.7556 224.833 80.3296Z" fill="url(#paint69_linear_2006_350)"/>
<path opacity="0.5" d="M248.111 85.1995C263.399 85.0835 264.532 70.8416 264.463 64.3576C266.006 72.0746 263.948 79.8675 258.25 84.9025C249.141 92.9525 234.18 90.9066 224.833 80.3296C217.918 72.5056 216.02 62.2055 219.189 54.1145C218.711 68.6795 230.001 85.3345 248.111 85.1995Z" fill="#00F096"/>
<path d="M245.355 82.2645C247.076 85.8565 251.746 87.2005 255.787 85.2635C259.828 83.3285 261.709 78.8485 259.989 75.2555C258.267 71.6645 253.598 70.3215 249.557 72.2555C245.517 74.1915 243.636 78.6725 245.355 82.2645Z" fill="#D129BE"/>
<path d="M251.33 73.1285C253.47 72.1045 255.782 72.0065 257.743 72.6685C258.69 73.3125 259.472 74.1815 259.989 75.2555C261.709 78.8485 259.827 83.3285 255.787 85.2635C253.647 86.2885 251.335 86.3855 249.373 85.7255C248.426 85.0805 247.643 84.2125 247.128 83.1375C245.408 79.5455 247.289 75.0645 251.33 73.1285Z" fill="#EC46BE"/>
<path d="M251.997 78.1345C254.881 79.9885 259.692 88.4435 260.985 90.2185C263.987 94.3435 266.991 98.4675 270.001 102.588C273.679 107.622 277.242 112.791 281.124 117.673C277.229 112.775 273.342 107.873 269.457 102.968C266.279 98.9535 263.103 94.9385 259.931 90.9205C256.985 87.1895 251.588 82.5445 250.789 77.8055C251.128 77.7125 251.537 77.8405 251.997 78.1345Z" fill="#E2DEE6"/>
<path opacity="0.5" d="M236.074 47.2415C236.37 48.4635 237.598 49.2146 238.821 48.9196C240.044 48.6246 240.795 47.3935 240.5 46.1716C240.205 44.9496 238.974 44.1975 237.751 44.4935C236.528 44.7885 235.778 46.0185 236.074 47.2415Z" fill="#FFFF79"/>
<path opacity="0.5" d="M241.371 56.2425C242.241 59.8425 245.865 62.0555 249.464 61.1845C253.064 60.3145 255.277 56.6915 254.407 53.0915C253.537 49.4925 249.914 47.2805 246.314 48.1495C242.715 49.0195 240.501 52.6425 241.371 56.2425Z" fill="#FFFF79"/>
<defs>
<linearGradient id="paint0_linear_2006_350" x1="314.967" y1="-1.80158" x2="121.57" y2="330.761" gradientUnits="userSpaceOnUse">
<stop offset="0.0028" stop-color="#FE31AC"/>
<stop offset="0.9833" stop-color="#00A6EF"/>
</linearGradient>
<radialGradient id="paint1_radial_2006_350" cx="0" cy="0" r="1" gradientUnits="userSpaceOnUse" gradientTransform="translate(279.387 188.337) rotate(129.632) scale(27.5656 27.5656)">
<stop offset="0.0279" stop-color="white" stop-opacity="0.6"/>
<stop offset="1" stop-color="#10F7FF" stop-opacity="0.6"/>
</radialGradient>
<radialGradient id="paint2_radial_2006_350" cx="0" cy="0" r="1" gradientUnits="userSpaceOnUse" gradientTransform="translate(279.406 186.003) rotate(129.632) scale(25.5952 25.5952)">
<stop offset="0.0279" stop-color="white" stop-opacity="0.6"/>
<stop offset="1" stop-color="white" stop-opacity="0.6"/>
</radialGradient>
<radialGradient id="paint3_radial_2006_350" cx="0" cy="0" r="1" gradientTransform="matrix(-11.0257 13.3125 13.3124 11.0257 287.128 186.293)" gradientUnits="userSpaceOnUse">
<stop offset="0.0279" stop-color="white" stop-opacity="0.6"/>
<stop offset="1" stop-color="white" stop-opacity="0.6"/>
</radialGradient>
<radialGradient id="paint4_radial_2006_350" cx="0" cy="0" r="1" gradientUnits="userSpaceOnUse" gradientTransform="translate(287.127 186.294) rotate(129.632) scale(17.2846)">
<stop offset="0.0279" stop-color="white" stop-opacity="0.6"/>
<stop offset="1" stop-color="white" stop-opacity="0.6"/>
</radialGradient>
<linearGradient id="paint5_linear_2006_350" x1="453.938" y1="121.451" x2="48.9102" y2="219.333" gradientUnits="userSpaceOnUse">
<stop offset="0.0167" stop-color="#00A6EF"/>
<stop offset="0.9972" stop-color="#FE9DEF"/>
</linearGradient>
<linearGradient id="paint6_linear_2006_350" x1="412" y1="62.1398" x2="224.18" y2="385.114" gradientUnits="userSpaceOnUse">
<stop offset="0.0028" stop-color="#FE31AC"/>
<stop offset="0.9833" stop-color="#00A6EF"/>
</linearGradient>
<linearGradient id="paint7_linear_2006_350" x1="412" y1="62.1398" x2="224.18" y2="385.114" gradientUnits="userSpaceOnUse">
<stop offset="0.0028" stop-color="#FE31AC"/>
<stop offset="0.9833" stop-color="#00A6EF"/>
</linearGradient>
<radialGradient id="paint8_radial_2006_350" cx="0" cy="0" r="1" gradientUnits="userSpaceOnUse" gradientTransform="translate(421.032 -14.6441) rotate(166.414) scale(65.8328 65.8328)">
<stop offset="0.0167" stop-color="white"/>
<stop offset="0.8663" stop-color="white" stop-opacity="0"/>
</radialGradient>
<linearGradient id="paint9_linear_2006_350" x1="471.975" y1="97.0164" x2="284.147" y2="420.005" gradientUnits="userSpaceOnUse">
<stop offset="0.0028" stop-color="#FE31AC"/>
<stop offset="0.9833" stop-color="#00A6EF"/>
</linearGradient>
<linearGradient id="paint10_linear_2006_350" x1="377.956" y1="42.3458" x2="190.126" y2="365.336" gradientUnits="userSpaceOnUse">
<stop offset="0.0028" stop-color="#FE31AC"/>
<stop offset="0.9833" stop-color="#00A6EF"/>
</linearGradient>
<linearGradient id="paint11_linear_2006_350" x1="154.177" y1="-26.9433" x2="2.9414" y2="233.12" gradientUnits="userSpaceOnUse">
<stop offset="0.0028" stop-color="#FE31AC"/>
<stop offset="0.9833" stop-color="#00A6EF"/>
</linearGradient>
<linearGradient id="paint12_linear_2006_350" x1="280.315" y1="-14.4391" x2="92.4782" y2="308.564" gradientUnits="userSpaceOnUse">
<stop offset="0.0028" stop-color="#FE31AC"/>
<stop offset="0.9833" stop-color="#00A6EF"/>
</linearGradient>
<radialGradient id="paint13_radial_2006_350" cx="0" cy="0" r="1" gradientUnits="userSpaceOnUse" gradientTransform="translate(187.196 129.337) rotate(166.414) scale(44.1282 44.1282)">
<stop offset="0.0167" stop-color="white"/>
<stop offset="0.8663" stop-color="white" stop-opacity="0"/>
</radialGradient>
<linearGradient id="paint14_linear_2006_350" x1="184.481" y1="-71.4294" x2="-3.35234" y2="251.567" gradientUnits="userSpaceOnUse">
<stop offset="0.0028" stop-color="#FE31AC"/>
<stop offset="0.9833" stop-color="#00A6EF"/>
</linearGradient>
<linearGradient id="paint15_linear_2006_350" x1="141.34" y1="-97.0483" x2="-46.4952" y2="225.952" gradientUnits="userSpaceOnUse">
<stop offset="0.0028" stop-color="#FE31AC"/>
<stop offset="0.9833" stop-color="#00A6EF"/>
</linearGradient>
<linearGradient id="paint16_linear_2006_350" x1="104.901" y1="-38.0742" x2="-30.1986" y2="194.243" gradientUnits="userSpaceOnUse">
<stop offset="0.0167" stop-color="#00A6EF"/>
<stop offset="0.9972" stop-color="#FE9DEF"/>
</linearGradient>
<linearGradient id="paint17_linear_2006_350" x1="371.72" y1="8.1001" x2="115.61" y2="69.9934" gradientUnits="userSpaceOnUse">
<stop offset="0.0167" stop-color="#00A6EF"/>
<stop offset="0.9972" stop-color="#FE9DEF"/>
</linearGradient>
<linearGradient id="paint18_linear_2006_350" x1="105.678" y1="72.3077" x2="4.31857" y2="96.8028" gradientUnits="userSpaceOnUse">
<stop offset="0.0167" stop-color="#00A6EF"/>
<stop offset="0.9972" stop-color="#FE9DEF"/>
</linearGradient>
<radialGradient id="paint19_radial_2006_350" cx="0" cy="0" r="1" gradientUnits="userSpaceOnUse" gradientTransform="translate(362.44 22.9465) rotate(166.414) scale(387.689 387.689)">
<stop offset="0.0167" stop-color="white"/>
<stop offset="0.8663" stop-color="white" stop-opacity="0"/>
</radialGradient>
<radialGradient id="paint20_radial_2006_350" cx="0" cy="0" r="1" gradientUnits="userSpaceOnUse" gradientTransform="translate(78.2733 166.039) rotate(166.414) scale(40.9182 40.9183)">
<stop offset="0.0167" stop-color="white"/>
<stop offset="0.8663" stop-color="white" stop-opacity="0"/>
</radialGradient>
<radialGradient id="paint21_radial_2006_350" cx="0" cy="0" r="1" gradientUnits="userSpaceOnUse" gradientTransform="translate(144.323 165.911) rotate(166.414) scale(101.401 101.401)">
<stop offset="0.0167" stop-color="white"/>
<stop offset="0.8663" stop-color="white" stop-opacity="0"/>
</radialGradient>
<radialGradient id="paint22_radial_2006_350" cx="0" cy="0" r="1" gradientUnits="userSpaceOnUse" gradientTransform="translate(322.045 103.253) rotate(166.414) scale(234.688 234.688)">
<stop offset="0.0167" stop-color="white"/>
<stop offset="0.8663" stop-color="white" stop-opacity="0"/>
</radialGradient>
<radialGradient id="paint23_radial_2006_350" cx="0" cy="0" r="1" gradientUnits="userSpaceOnUse" gradientTransform="translate(409.342 36.0773) rotate(166.414) scale(223.819 223.819)">
<stop offset="0.0167" stop-color="white"/>
<stop offset="0.8663" stop-color="white" stop-opacity="0"/>
</radialGradient>
<radialGradient id="paint24_radial_2006_350" cx="0" cy="0" r="1" gradientUnits="userSpaceOnUse" gradientTransform="translate(156.118 54.5965) rotate(166.414) scale(146.423 146.423)">
<stop offset="0.0167" stop-color="white"/>
<stop offset="0.8663" stop-color="white" stop-opacity="0"/>
</radialGradient>
<radialGradient id="paint25_radial_2006_350" cx="0" cy="0" r="1" gradientUnits="userSpaceOnUse" gradientTransform="translate(156.115 54.593) rotate(166.414) scale(146.42 146.42)">
<stop offset="0.0167" stop-color="white"/>
<stop offset="0.8663" stop-color="white" stop-opacity="0"/>
</radialGradient>
<linearGradient id="paint26_linear_2006_350" x1="68.3616" y1="224.81" x2="62.2048" y2="235.398" gradientUnits="userSpaceOnUse">
<stop offset="0.0028" stop-color="#FE31AC"/>
<stop offset="0.9833" stop-color="#00A6EF"/>
</linearGradient>
<linearGradient id="paint27_linear_2006_350" x1="68.0593" y1="250.169" x2="65.4545" y2="254.648" gradientUnits="userSpaceOnUse">
<stop offset="0.0028" stop-color="#FE31AC"/>
<stop offset="0.9833" stop-color="#00A6EF"/>
</linearGradient>
<linearGradient id="paint28_linear_2006_350" x1="97.7082" y1="231.689" x2="91.7882" y2="241.869" gradientUnits="userSpaceOnUse">
<stop offset="0.0028" stop-color="#FE31AC"/>
<stop offset="0.9833" stop-color="#00A6EF"/>
</linearGradient>
<linearGradient id="paint29_linear_2006_350" x1="83.1767" y1="263.174" x2="80.5719" y2="267.653" gradientUnits="userSpaceOnUse">
<stop offset="0.0028" stop-color="#FE31AC"/>
<stop offset="0.9833" stop-color="#00A6EF"/>
</linearGradient>
<linearGradient id="paint30_linear_2006_350" x1="41.1272" y1="211.215" x2="38.9958" y2="214.88" gradientUnits="userSpaceOnUse">
<stop offset="0.0028" stop-color="#FE31AC"/>
<stop offset="0.9833" stop-color="#00A6EF"/>
</linearGradient>
<linearGradient id="paint31_linear_2006_350" x1="97.3352" y1="179.465" x2="92.1258" y2="188.423" gradientUnits="userSpaceOnUse">
<stop offset="0.0028" stop-color="#FE31AC"/>
<stop offset="0.9833" stop-color="#00A6EF"/>
</linearGradient>
<linearGradient id="paint32_linear_2006_350" x1="81.8655" y1="195.291" x2="79.2605" y2="199.771" gradientUnits="userSpaceOnUse">
<stop offset="0.0028" stop-color="#FE31AC"/>
<stop offset="0.9833" stop-color="#00A6EF"/>
</linearGradient>
<linearGradient id="paint33_linear_2006_350" x1="171.357" y1="222.302" x2="165.2" y2="232.889" gradientUnits="userSpaceOnUse">
<stop offset="0.0028" stop-color="#FE31AC"/>
<stop offset="0.9833" stop-color="#00A6EF"/>
</linearGradient>
<linearGradient id="paint34_linear_2006_350" x1="179.446" y1="236.008" x2="177.552" y2="239.265" gradientUnits="userSpaceOnUse">
<stop offset="0.0028" stop-color="#FE31AC"/>
<stop offset="0.9833" stop-color="#00A6EF"/>
</linearGradient>
<linearGradient id="paint35_linear_2006_350" x1="207.129" y1="226.249" x2="202.157" y2="234.8" gradientUnits="userSpaceOnUse">
<stop offset="0.0028" stop-color="#FE31AC"/>
<stop offset="0.9833" stop-color="#00A6EF"/>
</linearGradient>
<linearGradient id="paint36_linear_2006_350" x1="186.715" y1="205.519" x2="183.636" y2="210.813" gradientUnits="userSpaceOnUse">
<stop offset="0.0028" stop-color="#FE31AC"/>
<stop offset="0.9833" stop-color="#00A6EF"/>
</linearGradient>
<linearGradient id="paint37_linear_2006_350" x1="351.811" y1="242.523" x2="343.286" y2="257.182" gradientUnits="userSpaceOnUse">
<stop offset="0.0028" stop-color="#FE31AC"/>
<stop offset="0.9833" stop-color="#00A6EF"/>
</linearGradient>
<linearGradient id="paint38_linear_2006_350" x1="328.779" y1="250.623" x2="326.293" y2="254.899" gradientUnits="userSpaceOnUse">
<stop offset="0.0028" stop-color="#FE31AC"/>
<stop offset="0.9833" stop-color="#00A6EF"/>
</linearGradient>
<linearGradient id="paint39_linear_2006_350" x1="306.937" y1="32.9199" x2="301.254" y2="42.6931" gradientUnits="userSpaceOnUse">
<stop offset="0.0028" stop-color="#FE31AC"/>
<stop offset="0.9833" stop-color="#00A6EF"/>
</linearGradient>
<linearGradient id="paint40_linear_2006_350" x1="291.875" y1="49.4769" x2="289.388" y2="53.7529" gradientUnits="userSpaceOnUse">
<stop offset="0.0028" stop-color="#FE31AC"/>
<stop offset="0.9833" stop-color="#00A6EF"/>
</linearGradient>
<linearGradient id="paint41_linear_2006_350" x1="335.604" y1="1.38191" x2="328.855" y2="12.9873" gradientUnits="userSpaceOnUse">
<stop offset="0.0028" stop-color="#FE31AC"/>
<stop offset="0.9833" stop-color="#00A6EF"/>
</linearGradient>
<linearGradient id="paint42_linear_2006_350" x1="314.202" y1="6.72344" x2="311.36" y2="11.6098" gradientUnits="userSpaceOnUse">
<stop offset="0.0028" stop-color="#FE31AC"/>
<stop offset="0.9833" stop-color="#00A6EF"/>
</linearGradient>
<linearGradient id="paint43_linear_2006_350" x1="470.998" y1="186.384" x2="462.473" y2="201.043" gradientUnits="userSpaceOnUse">
<stop offset="0.0028" stop-color="#FE31AC"/>
<stop offset="0.9833" stop-color="#00A6EF"/>
</linearGradient>
<linearGradient id="paint44_linear_2006_350" x1="452.5" y1="213.818" x2="449.659" y2="218.704" gradientUnits="userSpaceOnUse">
<stop offset="0.0028" stop-color="#FE31AC"/>
<stop offset="0.9833" stop-color="#00A6EF"/>
</linearGradient>
<linearGradient id="paint45_linear_2006_350" x1="91.8258" y1="79.3196" x2="86.4974" y2="88.4823" gradientUnits="userSpaceOnUse">
<stop offset="0.0028" stop-color="#FE31AC"/>
<stop offset="0.9833" stop-color="#00A6EF"/>
</linearGradient>
<linearGradient id="paint46_linear_2006_350" x1="77.3477" y1="89.742" x2="74.5061" y2="94.6284" gradientUnits="userSpaceOnUse">
<stop offset="0.0028" stop-color="#FE31AC"/>
<stop offset="0.9833" stop-color="#00A6EF"/>
</linearGradient>
<radialGradient id="paint47_radial_2006_350" cx="0" cy="0" r="1" gradientUnits="userSpaceOnUse" gradientTransform="translate(360.681 73.3428) rotate(166.414) scale(14.9322 14.9322)">
<stop offset="0.0167" stop-color="white"/>
<stop offset="0.8663" stop-color="white" stop-opacity="0"/>
</radialGradient>
<linearGradient id="paint48_linear_2006_350" x1="364.065" y1="72.5747" x2="344.267" y2="77.359" gradientUnits="userSpaceOnUse">
<stop offset="0.0167" stop-color="#00A6EF"/>
<stop offset="0.9972" stop-color="#FE9DEF"/>
</linearGradient>
<linearGradient id="paint49_linear_2006_350" x1="356.396" y1="58.8492" x2="353.793" y2="59.4783" gradientUnits="userSpaceOnUse">
<stop offset="0.0167" stop-color="#00A6EF"/>
<stop offset="0.9972" stop-color="#FE9DEF"/>
</linearGradient>
<linearGradient id="paint50_linear_2006_350" x1="440.196" y1="34.7087" x2="413.882" y2="41.0678" gradientUnits="userSpaceOnUse">
<stop offset="0.0167" stop-color="#00A6EF"/>
<stop offset="0.9972" stop-color="#FE9DEF"/>
</linearGradient>
<radialGradient id="paint51_radial_2006_350" cx="0" cy="0" r="1" gradientUnits="userSpaceOnUse" gradientTransform="translate(474.583 99.6299) rotate(166.414) scale(15.0814)">
<stop offset="0.0167" stop-color="white"/>
<stop offset="0.8663" stop-color="white" stop-opacity="0"/>
</radialGradient>
<radialGradient id="paint52_radial_2006_350" cx="0" cy="0" r="1" gradientUnits="userSpaceOnUse" gradientTransform="translate(335.855 163.18) rotate(166.414) scale(27.5657 27.5657)">
<stop offset="0.0279" stop-color="white" stop-opacity="0.6"/>
<stop offset="1" stop-color="#10F7FF" stop-opacity="0.6"/>
</radialGradient>
<radialGradient id="paint53_radial_2006_350" cx="0" cy="0" r="1" gradientUnits="userSpaceOnUse" gradientTransform="translate(337.266 161.321) rotate(166.414) scale(25.5955 25.5955)">
<stop offset="0.0279" stop-color="white" stop-opacity="0.6"/>
<stop offset="1" stop-color="white" stop-opacity="0.6"/>
</radialGradient>
<radialGradient id="paint54_radial_2006_350" cx="0" cy="0" r="1" gradientUnits="userSpaceOnUse" gradientTransform="translate(343.278 166.178) rotate(166.414) scale(17.2858 17.2858)">
<stop offset="0.0279" stop-color="white" stop-opacity="0.6"/>
<stop offset="1" stop-color="white" stop-opacity="0.6"/>
</radialGradient>
<radialGradient id="paint55_radial_2006_350" cx="0" cy="0" r="1" gradientUnits="userSpaceOnUse" gradientTransform="translate(343.278 166.178) rotate(166.414) scale(17.2854 17.2854)">
<stop offset="0.0279" stop-color="white" stop-opacity="0.6"/>
<stop offset="1" stop-color="white" stop-opacity="0.6"/>
</radialGradient>
<radialGradient id="paint56_radial_2006_350" cx="0" cy="0" r="1" gradientUnits="userSpaceOnUse" gradientTransform="translate(66.9417 310.29) rotate(166.414) scale(143.15 143.15)">
<stop offset="0.0167" stop-color="white"/>
<stop offset="0.8663" stop-color="white" stop-opacity="0"/>
</radialGradient>
<radialGradient id="paint57_radial_2006_350" cx="0" cy="0" r="1" gradientUnits="userSpaceOnUse" gradientTransform="translate(38.7703 380.862) rotate(166.414) scale(43.9042 43.9042)">
<stop offset="0.0167" stop-color="white"/>
<stop offset="0.8663" stop-color="white" stop-opacity="0"/>
</radialGradient>
<radialGradient id="paint58_radial_2006_350" cx="0" cy="0" r="1" gradientUnits="userSpaceOnUse" gradientTransform="translate(66.942 310.289) rotate(166.414) scale(143.151 143.151)">
<stop offset="0.0167" stop-color="white"/>
<stop offset="0.8663" stop-color="white" stop-opacity="0"/>
</radialGradient>
<radialGradient id="paint59_radial_2006_350" cx="0" cy="0" r="1" gradientUnits="userSpaceOnUse" gradientTransform="translate(66.9408 310.291) rotate(166.414) scale(143.149 143.149)">
<stop offset="0.0167" stop-color="white"/>
<stop offset="0.8663" stop-color="white" stop-opacity="0"/>
</radialGradient>
<radialGradient id="paint60_radial_2006_350" cx="0" cy="0" r="1" gradientUnits="userSpaceOnUse" gradientTransform="translate(118.398 187.834) rotate(166.414) scale(233.111 233.111)">
<stop offset="0.0167" stop-color="white"/>
<stop offset="0.8663" stop-color="white" stop-opacity="0"/>
</radialGradient>
<radialGradient id="paint61_radial_2006_350" cx="0" cy="0" r="1" gradientUnits="userSpaceOnUse" gradientTransform="translate(112.145 203.827) rotate(166.414) scale(192.202 192.202)">
<stop offset="0.0167" stop-color="white"/>
<stop offset="0.8663" stop-color="white" stop-opacity="0"/>
</radialGradient>
<radialGradient id="paint62_radial_2006_350" cx="0" cy="0" r="1" gradientUnits="userSpaceOnUse" gradientTransform="translate(129.568 242.445) rotate(166.414) scale(152.032 152.032)">
<stop offset="0.0167" stop-color="white"/>
<stop offset="0.8663" stop-color="white" stop-opacity="0"/>
</radialGradient>
<radialGradient id="paint63_radial_2006_350" cx="0" cy="0" r="1" gradientUnits="userSpaceOnUse" gradientTransform="translate(42.3752 208.691) rotate(166.414) scale(175.766 175.766)">
<stop offset="0.0167" stop-color="white"/>
<stop offset="0.8663" stop-color="white" stop-opacity="0"/>
</radialGradient>
<radialGradient id="paint64_radial_2006_350" cx="0" cy="0" r="1" gradientUnits="userSpaceOnUse" gradientTransform="translate(67.0382 391.478) rotate(166.414) scale(86.1386 86.1386)">
<stop offset="0.0167" stop-color="white"/>
<stop offset="0.8663" stop-color="white" stop-opacity="0"/>
</radialGradient>
<radialGradient id="paint65_radial_2006_350" cx="0" cy="0" r="1" gradientUnits="userSpaceOnUse" gradientTransform="translate(119.926 218.05) rotate(60.4228) scale(24.4306 24.4306)">
<stop offset="0.0279" stop-color="white" stop-opacity="0.6"/>
<stop offset="1" stop-color="#10F7FF" stop-opacity="0.6"/>
</radialGradient>
<radialGradient id="paint66_radial_2006_350" cx="0" cy="0" r="1" gradientUnits="userSpaceOnUse" gradientTransform="translate(120.271 216.01) rotate(60.4228) scale(22.6847 22.6847)">
<stop offset="0.0279" stop-color="white" stop-opacity="0.6"/>
<stop offset="1" stop-color="white" stop-opacity="0.6"/>
</radialGradient>
<radialGradient id="paint67_radial_2006_350" cx="0" cy="0" r="1" gradientUnits="userSpaceOnUse" gradientTransform="translate(113.486 215.069) rotate(60.4228) scale(15.3198 15.3198)">
<stop offset="0.0279" stop-color="white" stop-opacity="0.6"/>
<stop offset="1" stop-color="white" stop-opacity="0.6"/>
</radialGradient>
<radialGradient id="paint68_radial_2006_350" cx="0" cy="0" r="1" gradientUnits="userSpaceOnUse" gradientTransform="translate(113.488 215.07) rotate(60.4229) scale(15.3194 15.3194)">
<stop offset="0.0279" stop-color="white" stop-opacity="0.6"/>
<stop offset="1" stop-color="white" stop-opacity="0.6"/>
</radialGradient>
<linearGradient id="paint69_linear_2006_350" x1="263.526" y1="60.3894" x2="219.13" y2="71.1185" gradientUnits="userSpaceOnUse">
<stop offset="0.0167" stop-color="#00EF9A"/>
<stop offset="0.9972" stop-color="#FEFB9D"/>
</linearGradient>
</defs>
</svg>
