<?xml version='1.0' encoding='utf-8'?>
<!DOCTYPE svg PUBLIC '-//W3C//DTD SVG 1.1//EN' 'http://www.w3.org/Graphics/SVG/1.1/DTD/svg11.dtd'>
<!-- Uploaded to: SVG Repo, www.svgrepo.com, Generator: SVG Repo Mixer Tools -->
<svg fill="#000000" height="800px" width="800px" version="1.1" xmlns="http://www.w3.org/2000/svg" viewBox="0 0 512 512" xmlns:xlink="http://www.w3.org/1999/xlink" enable-background="new 0 0 512 512">
  <g>
    <g>
      <path d="m325.8,16.7c-7.9-7.6-20.4-7.6-28.3,0-2.7,2.6-61.2,59.2-109.8,127.3-15.1-16.8-27.2-28.6-30.8-32.1-7.9-7.6-20.4-7.6-28.3,0-12.1,11.6-117.6,115.3-117.6,189 0,78.3 59.1,142 131.7,142 11.3,0 22.3-1.5 32.8-4.5 35.5,39.8 84.9,62.5 136.1,62.5 104.5,0.1 189.4-91.9 189.4-204.9 0-109.4-168-272.4-175.2-279.3zm-274,284.2c-1.42109e-14-37.8 51-103.7 90.9-145.3 39.8,41.6 90.9,107.4 90.9,145.3 0,55.8-40.8,101.2-90.9,101.2-50.1,5.68434e-14-90.9-45.4-90.9-101.2zm259.8,159.3c-36.3,0-70.3-14.2-97.3-40.1 36.1-25.4 60-69.3 60-119.1 0-39.2-29.8-86.8-59.5-124.6 33.9-49 75.5-94 96.8-116 51.7,52.9 148.4,166.3 148.4,235.7 0.2,90.4-66.5,164.1-148.4,164.1z"/>
      <path d="m428.9,290.8c-0.3-11.1-9.4-19.8-20.4-19.8-0.1,0-0.3,0-0.4,0-11.2,0.2-20.2,9.5-20,20.8 0,0.4 0.2,41.2-31.1,75.1-7.7,8.3-7,21 1.1,28.9 10.6,10.2 24.8,3.2 28.9-1.1 42.9-46.6 42-101.6 41.9-103.9z"/>
    </g>
  </g>
</svg>