<?xml version="1.0" encoding="iso-8859-1"?>
<!-- Uploaded to: SVG Repo, www.svgrepo.com, Generator: SVG Repo Mixer Tools -->
<svg fill="#000000" height="800px" width="800px" version="1.1" id="Layer_1" xmlns="http://www.w3.org/2000/svg" xmlns:xlink="http://www.w3.org/1999/xlink" 
	 viewBox="0 0 501.334 501.334" xml:space="preserve">
<g>
	<g>
		<path d="M378.5,0c-56.533,0-103.467,37.333-118.4,90.667H21.167c-8.533,0-16,4.267-19.2,11.733c-3.2,7.467-2.133,16,3.2,22.4
			L192.9,334.934v123.733h-57.6c-11.733,0-21.333,9.6-21.333,21.333s9.6,21.333,21.333,21.333h158.933
			c11.733,0,21.333-9.6,21.333-21.333s-9.6-21.333-21.333-21.333h-58.667V334.934l92.8-102.4c16,7.467,33.067,10.667,50.133,10.667
			c68.267,0,122.667-54.4,122.667-121.6C501.167,54.4,445.7,0,378.5,0z M215.3,295.467L156.633,230.4h117.333L215.3,295.467z
			 M312.366,187.733H118.233L68.1,132.267h294.4L312.366,187.733z M378.5,201.6c-7.467,0-13.867-1.067-20.267-2.133l67.2-73.6
			c5.333-6.4,6.4-14.933,3.2-22.4s-10.667-12.8-19.2-12.8H304.9c11.733-28.8,40.533-49.067,73.6-49.067c44.8,0,80,35.2,80,80
			C458.5,166.4,423.3,201.6,378.5,201.6z"/>
	</g>
</g>
</svg>