<svg width="25" height="42" viewBox="0 0 25 42" fill="none" xmlns="http://www.w3.org/2000/svg">
<path d="M14.0625 38.6667H18.75C19.6129 38.6667 20.3125 39.4129 20.3125 40.3333C20.3125 41.2538 19.6129 42 18.75 42H6.25C5.3871 42 4.6875 41.2538 4.6875 40.3333C4.6875 39.4129 5.3871 38.6667 6.25 38.6667H10.9375V27.4167L1.25 19.6667C0.4631 19.0372 0 18.0492 0 17V15.3333C0 13.4924 1.3991 12 3.125 12H21.875C23.6009 12 25 13.4924 25 15.3333V17C25 18.0492 24.5369 19.0372 23.75 19.6667L14.0625 27.4167V38.6667ZM3.125 15.3333V17L12.5 23.6667L21.875 17V15.3333H3.125Z" fill="url(#paint0_linear_2024_10)"/>
<path d="M13 8C15.2091 8 17 6.20914 17 4C17 1.79086 15.2091 0 13 0C10.7909 0 9 1.79086 9 4C9 6.20914 10.7909 8 13 8Z" fill="#12B0FF"/>
<defs>
<linearGradient id="paint0_linear_2024_10" x1="12.5" y1="12" x2="12.5" y2="42" gradientUnits="userSpaceOnUse">
<stop stop-color="#12B0FF"/>
<stop offset="1" stop-color="#F84DE7"/>
</linearGradient>
</defs>
</svg>
