<svg width="380" height="361" viewBox="0 0 380 361" fill="none" xmlns="http://www.w3.org/2000/svg">
<path d="M29.5135 201.605C51.5005 181.45 80.5645 174.113 107.686 179.038C116.964 180.723 126.498 177.991 133.559 171.742L133.564 171.738C141.793 164.455 145.538 153.354 143.406 142.574C135.455 102.379 148.446 59.1521 181.344 30.0371C230.805 -13.7359 305.952 -9.13094 349.7 40.3521C393.299 89.6671 388.689 164.991 339.39 208.621C306.535 237.697 262.124 245.355 223.23 232.648C212.729 229.217 201.202 231.501 192.929 238.822C185.9 245.043 181.977 254.123 182.532 263.493C184.134 290.548 173.742 318.039 151.872 337.393C114.349 370.6 57.1555 367.371 23.5975 330.346C-10.0385 293.236 -7.40647 235.45 29.5135 201.605Z" fill="white"/>
</svg>
