<svg width="147" height="195" viewBox="0 0 147 195" fill="none" xmlns="http://www.w3.org/2000/svg">
<path d="M92.6524 7.33889C82.1496 15.8317 78.2363 29.21 81.249 41.3121C82.3734 45.8282 78.9488 50.1319 74.2971 50.0087C56.4763 49.5333 38.446 55.5999 24.1124 68.4284C-5.67247 95.0859 -8.21239 140.835 18.4384 170.613C45.0892 200.39 90.8384 202.919 120.623 176.262C150.408 149.605 152.948 103.855 126.297 74.0777C126.269 74.0457 126.239 74.0129 126.211 73.9809C123.1 70.5176 124.17 65.1238 128.338 63.0509C130.954 61.7491 133.442 60.0782 135.725 58.0348C149.81 45.429 150.645 23.5377 137.257 9.89824C125.341 -2.24182 105.88 -3.35626 92.6524 7.33889Z" fill="white"/>
</svg>
