<svg width="760" height="745" viewBox="0 0 760 745" fill="none" xmlns="http://www.w3.org/2000/svg">
<path d="M348 713.5C351.59 713.5 354.5 710.59 354.5 707C354.5 703.41 351.59 700.5 348 700.5C344.41 700.5 341.5 703.41 341.5 707C341.5 710.59 344.41 713.5 348 713.5Z" fill="white"/>
<path d="M12 655C18.6274 655 24 649.627 24 643C24 636.373 18.6274 631 12 631C5.3726 631 0 636.373 0 643C0 649.627 5.3726 655 12 655Z" fill="white"/>
<path d="M696 454C700.418 454 704 450.418 704 446C704 441.582 700.418 438 696 438C691.582 438 688 441.582 688 446C688 450.418 691.582 454 696 454Z" fill="white"/>
<path d="M461 103C467.351 103 472.5 97.851 472.5 91.5C472.5 85.149 467.351 80 461 80C454.649 80 449.5 85.149 449.5 91.5C449.5 97.851 454.649 103 461 103Z" fill="white"/>
<path d="M654 695C658.694 695 662.5 691.194 662.5 686.5C662.5 681.806 658.694 678 654 678C649.306 678 645.5 681.806 645.5 686.5C645.5 691.194 649.306 695 654 695Z" fill="white"/>
<path d="M720 126C723.038 126 725.5 123.538 725.5 120.5C725.5 117.462 723.038 115 720 115C716.962 115 714.5 117.462 714.5 120.5C714.5 123.538 716.962 126 720 126Z" fill="white"/>
<path d="M38.5 732C41.8137 732 44.5 729.314 44.5 726C44.5 722.686 41.8137 720 38.5 720C35.1863 720 32.5 722.686 32.5 726C32.5 729.314 35.1863 732 38.5 732Z" fill="white"/>
<path d="M400.5 427C404.366 427 407.5 423.866 407.5 420C407.5 416.134 404.366 413 400.5 413C396.634 413 393.5 416.134 393.5 420C393.5 423.866 396.634 427 400.5 427Z" fill="white"/>
<path d="M18.5 369C21.2614 369 23.5 366.761 23.5 364C23.5 361.239 21.2614 359 18.5 359C15.7386 359 13.5 361.239 13.5 364C13.5 366.761 15.7386 369 18.5 369Z" fill="white"/>
<path d="M753 565C756.866 565 760 561.866 760 558C760 554.134 756.866 551 753 551C749.134 551 746 554.134 746 558C746 561.866 749.134 565 753 565Z" fill="white"/>
<path d="M617 315C621.142 315 624.5 311.642 624.5 307.5C624.5 303.358 621.142 300 617 300C612.858 300 609.5 303.358 609.5 307.5C609.5 311.642 612.858 315 617 315Z" fill="white"/>
<path d="M405 635C411.075 635 416 630.075 416 624C416 617.925 411.075 613 405 613C398.925 613 394 617.925 394 624C394 630.075 398.925 635 405 635Z" fill="white"/>
<path d="M303 193.5C308.799 193.5 313.5 188.799 313.5 183C313.5 177.201 308.799 172.5 303 172.5C297.201 172.5 292.5 177.201 292.5 183C292.5 188.799 297.201 193.5 303 193.5Z" fill="white"/>
<path d="M104 295C108.418 295 112 291.418 112 287C112 282.582 108.418 279 104 279C99.582 279 96 282.582 96 287C96 291.418 99.582 295 104 295Z" fill="white"/>
<path d="M569.5 568C572.261 568 574.5 565.761 574.5 563C574.5 560.239 572.261 558 569.5 558C566.739 558 564.5 560.239 564.5 563C564.5 565.761 566.739 568 569.5 568Z" fill="white"/>
<path d="M397 272C401.142 272 404.5 268.642 404.5 264.5C404.5 260.358 401.142 257 397 257C392.858 257 389.5 260.358 389.5 264.5C389.5 268.642 392.858 272 397 272Z" fill="white"/>
<path d="M104 80C110.904 80 116.5 74.4036 116.5 67.5C116.5 60.5964 110.904 55 104 55C97.096 55 91.5 60.5964 91.5 67.5C91.5 74.4036 97.096 80 104 80Z" fill="white"/>
<path d="M187.5 660C192.471 660 196.5 655.971 196.5 651C196.5 646.029 192.471 642 187.5 642C182.529 642 178.5 646.029 178.5 651C178.5 655.971 182.529 660 187.5 660Z" fill="white"/>
<path d="M271.5 464C277.023 464 281.5 459.523 281.5 454C281.5 448.477 277.023 444 271.5 444C265.977 444 261.5 448.477 261.5 454C261.5 459.523 265.977 464 271.5 464Z" fill="white"/>
<path d="M528 745C531.314 745 534 742.314 534 739C534 735.686 531.314 733 528 733C524.686 733 522 735.686 522 739C522 742.314 524.686 745 528 745Z" fill="white"/>
<path d="M516 405C519.59 405 522.5 402.09 522.5 398.5C522.5 394.91 519.59 392 516 392C512.41 392 509.5 394.91 509.5 398.5C509.5 402.09 512.41 405 516 405Z" fill="white"/>
<path d="M601 18C605.971 18 610 13.9706 610 9C610 4.02944 605.971 0 601 0C596.029 0 592 4.02944 592 9C592 13.9706 596.029 18 601 18Z" fill="white"/>
</svg>
