<svg width="500" height="500" viewBox="0 0 500 500" fill="none" xmlns="http://www.w3.org/2000/svg">
<mask id="mask0_86_3561" style="mask-type:luminance" maskUnits="userSpaceOnUse" x="0" y="0" width="500" height="500">
<path d="M500 0H0V500H500V0Z" fill="white"/>
</mask>
<g mask="url(#mask0_86_3561)">
<g opacity="0.76">
<mask id="mask1_86_3561" style="mask-type:luminance" maskUnits="userSpaceOnUse" x="1" y="-2" width="527" height="502">
<path d="M527.639 -1.47501H1.741V500H527.639V-1.47501Z" fill="white"/>
</mask>
<g mask="url(#mask1_86_3561)">
<g opacity="0.3">
<path opacity="0.1091" d="M405.457 179.339C402.861 178.576 400.269 177.804 397.676 177.025C388.198 174.057 378.768 171.325 369.211 168.718C345.191 162.169 320.546 159.782 296.068 157.765C271.722 155.758 247.257 155.56 222.874 154.85C195.37 154.049 167.866 153.435 140.356 153.231C112.922 153.033 85.527 154.158 58.141 156.029C51.422 156.662 44.702 157.255 37.981 157.808C33.938 158.146 29.894 158.429 25.851 158.791C18.411 159.46 11.114 160.849 3.86501 162.997C1.13201 163.891 -1.53 165.038 -4.12 166.437C-5.31 167.186 -6.501 167.934 -7.692 168.684C-9.926 170.034 -11.897 171.834 -13.599 174.079C-13.18 173.548 -12.76 173.014 -12.34 172.483C-13.413 174.318 -14.6 176.029 -15.9 177.612C-17.681 178.715 -19.406 179.838 -21.101 181.137C-21.291 179.005 -21.48 176.875 -21.671 174.746C-18.849 178.045 -16.026 181.345 -13.203 184.644C-18.249 180.538 -23.294 176.43 -28.337 172.323C-13.63 176.435 0.576996 182.976 14.993 188.412C21.208 190.753 27.465 192.931 33.709 195.149C37.47 196.476 41.223 197.839 44.967 199.236C55.186 203.847 65.456 208.284 75.775 212.545C111.502 227.636 147.141 243.059 182.78 258.475C223.345 276.023 263.748 294.089 303.87 313.142C331.053 326.048 357.514 341.134 383.362 357.72C396.986 366.464 409.85 376.751 422.505 387.46C433.549 396.808 443.517 407.837 453.668 418.576C457.547 422.679 461.324 426.877 465.096 431.135C468.146 433.335 471.03 435.829 473.751 438.613C476.636 441.267 479.464 444.01 482.237 446.843C484.983 449.677 487.664 452.603 490.281 455.617C493.023 458.335 495.299 461.56 497.109 465.289C498.836 468.68 500.595 472.042 502.388 475.379C504.042 478.52 505.562 481.76 506.95 485.094C508.994 490.039 510.721 495.147 512.132 500.42C513.129 504.256 514.389 509.072 510.83 511.475C509.664 512.483 508.387 513.151 506.995 513.48C503.19 512.458 499.338 511.802 495.44 511.51C497.015 511.571 498.588 511.632 500.162 511.692C494.267 512.222 488.37 512.752 482.474 513.285C484.699 513.046 486.925 512.807 489.15 512.571C479.558 514.388 469.975 516.272 460.399 518.221C453.148 519.669 445.57 520.133 438.259 520.859C432.192 521.311 426.125 521.703 420.053 522.041C410.873 522.594 401.749 523.446 392.604 524.541C394.177 524.274 395.747 524.008 397.317 523.742C375.885 528.254 354.533 533.289 333.086 537.705C311.818 542.081 290.49 546.047 269.191 550.178C220.511 559.614 171.85 569.198 123.154 578.51C112.905 580.502 102.697 582.804 92.537 585.411C82.588 588.002 72.708 590.957 62.9 594.275C43.565 600.441 24.67 608.705 5.896 617.042C-11.386 624.716 -28.258 633.778 -45.098 642.805C-54.296 647.809 -63.465 652.891 -72.608 658.049C-77.198 660.651 -81.788 663.251 -86.379 665.852C-93.84 669.802 -101.306 673.728 -108.778 677.636C-106.736 676.512 -104.691 675.386 -102.649 674.262C-115.066 681.45 -127.553 688.421 -140.063 695.363C-147.073 699.327 -154.032 703.429 -160.936 707.67C-171.043 714.383 -181.388 720.48 -191.974 725.966C-194.139 727.626 -196.519 728.116 -199.109 727.432C-203.577 727.157 -208.013 726.526 -212.416 725.542C-215.066 725.481 -217.295 724.336 -219.1 722.114C-219.28 721.292 -219.457 720.471 -219.633 719.652C-219.203 717.538 -218.078 716.345 -216.265 716.071C-210.462 714.052 -204.657 712.035 -198.854 710.016C-200.352 710.685 -201.847 711.353 -203.341 712.021C-191.615 704.605 -180.018 696.922 -168.216 689.698C-159.399 684.303 -150.213 679.577 -141.228 674.634C-128.66 667.722 -115.884 661.315 -103.207 654.729C-99.663 652.79 -96.117 650.852 -92.572 648.915C-84.562 644.392 -76.452 640.164 -68.243 636.223C-38.787 621.382 -9.353 606.583 20.528 593.091C34.611 586.732 48.921 581.199 63.234 575.71C82.547 568.304 102.232 562.645 121.983 557.402C137.687 553.236 153.638 550.654 169.495 547.596C185.742 544.466 201.985 541.295 218.225 538.136C256.078 530.777 293.932 523.458 331.864 516.765C347.926 513.931 364.013 511.667 380.151 509.664C385.39 509.16 390.628 508.654 395.865 508.148C404.293 507.438 412.712 506.585 421.119 505.594C430.335 504.563 439.642 504.453 448.887 504.163C460.944 503.787 473.011 503.659 485.072 503.542C479.086 504.481 473.101 505.42 467.116 506.359C470.44 505.812 473.426 504.201 476.075 501.524C478.243 499.123 480.415 496.72 482.584 494.318C487.377 487.528 493.075 482.256 499.681 478.502C501.816 488.961 503.951 499.422 506.086 509.881C504.391 506.584 502.492 503.478 500.389 500.561C499.034 498.863 497.683 497.162 496.327 495.464C493.542 492.642 491.071 489.454 488.916 485.898C485.883 481.395 482.591 477.137 479.423 472.782C475.385 467.229 471.381 461.739 467.448 456.057C468.532 457.493 469.616 458.932 470.703 460.368C462.445 452.053 454.442 443.528 446.48 434.768C437.802 425.222 428.171 417.096 418.613 409.002C409.14 400.979 398.945 394.309 388.844 387.622C378.334 380.663 367.311 374.92 356.368 369.125C344.376 362.776 332.016 357.41 319.785 351.83C314.802 349.416 309.816 347.004 304.834 344.589C294.844 339.804 284.83 335.096 274.795 330.462C259.733 323.446 244.583 316.72 229.444 309.97C199.06 296.427 168.528 283.395 138.033 270.252C107.578 257.127 77.19 243.764 46.712 230.725C35.416 225.894 24.02 221.439 12.758 216.484C7.041 213.968 1.58099 210.907 -3.84801 207.579C-5.32201 206.46 -6.79899 205.341 -8.27499 204.221C-13.589 199.289 -18.893 194.337 -24.185 189.364C-22.323 190.896 -20.459 192.426 -18.597 193.955C-23.409 190.248 -28.223 186.541 -33.036 182.832C-31.094 184.2 -29.152 185.571 -27.211 186.941C-30.558 184.857 -33.905 182.775 -37.254 180.692C-40.563 178.814 -43.571 176.357 -46.276 173.318C-46.851 172.527 -47.426 171.739 -48.002 170.95C-48.56 169.174 -48.173 167.817 -46.835 166.88C-44.885 164.968 -42.737 163.681 -40.507 162.344C-40.931 162.889 -41.354 163.436 -41.777 163.98C-40.719 162.148 -39.538 160.451 -38.229 158.894C-37.31 157.901 -36.39 156.908 -35.471 155.917C-33.249 154.92 -31.107 153.71 -29.044 152.281C-26.461 150.903 -23.807 149.78 -21.084 148.914C-16.838 147.34 -12.34 146.691 -7.966 145.939C-1.051 144.75 5.98301 144.488 12.947 144.03C19.65 143.537 26.354 143.003 33.055 142.429C49.473 141.104 65.94 140.782 82.385 140.403C109.656 139.774 136.959 140.693 164.22 141.55C189.909 142.357 215.598 143.089 241.283 144.075C251.038 144.475 260.786 145.032 270.528 145.744C285.215 146.701 299.799 148.669 314.395 150.816C333.877 153.683 353.066 159.24 372.002 165.476C371.756 165.401 371.51 165.328 371.264 165.253C373.611 165.953 375.959 166.653 378.308 167.35C379.27 167.716 380.222 168.116 381.167 168.551C384.745 170.119 388.324 171.692 391.899 173.276C395.476 174.853 399.051 176.437 402.624 178.029C403.581 178.431 404.525 178.869 405.457 179.339Z" fill="#EDEDED"/>
<path opacity="0.1091" d="M527.235 138.897C510.489 130.99 493.857 122.72 477.014 115.127C472.552 113.142 468.065 111.241 463.553 109.428C454.387 105.646 445.129 103.318 435.674 100.793C425.951 98.435 416.175 96.475 406.346 94.915C391.77 92.297 377.007 91.221 362.326 90.009C347.689 88.801 332.993 88.458 318.333 87.957C302.993 87.432 287.644 87.075 272.304 86.666C261.253 86.376 250.204 86.118 239.154 85.892C234.148 85.816 229.144 85.741 224.137 85.667C216.87 86.433 209.596 87.066 202.314 87.565C194.025 88.044 185.733 88.533 177.444 89.028C163.059 89.883 148.72 91.32 134.374 92.863C128.099 93.539 121.823 94.14 115.555 94.927C111.042 95.493 106.576 96.418 102.119 97.44C98.15 98.348 94.378 99.827 90.575 101.458C91.773 100.769 92.974 100.077 94.173 99.384C91.899 100.703 89.627 102.021 87.354 103.336C88.556 102.628 89.759 101.922 90.961 101.215C90.209 104.469 88.768 106.879 86.639 108.438C85.972 108.849 85.517 109.495 85.271 110.372C84.01 99.954 82.749 89.537 81.49 79.118C88.468 83.3 95.391 87.606 102.374 91.777C108.43 95.392 114.794 98.295 121.046 101.33C119.215 100.445 117.386 99.565 115.555 98.682C128.759 104.799 142.082 110.475 155.386 116.234C160.969 118.652 166.509 121.199 172.032 123.821C192.138 133.367 212.155 143.218 232.223 152.882C299.866 185.463 367.363 218.672 433.579 255.525C460.873 270.714 487.276 288.362 512.957 307.347C523.887 315.426 534.368 324.376 544.825 333.349C554.132 341.657 563.328 350.156 572.408 358.845C577.079 363.605 581.858 368.19 586.743 372.6C596.772 381.802 606.923 390.77 616.807 400.217C620.453 403.7 623.98 407.353 627.477 411.065C634.251 418.259 641.214 425.112 647.235 433.289C647.804 435.575 648.375 437.861 648.945 440.146C648.946 445.991 647.524 451.242 644.674 455.898C644.171 457.001 643.666 458.102 643.162 459.205C644.486 453.914 645.81 448.622 647.132 443.331C647.468 445.99 647.877 448.631 648.357 451.255C648.624 455.312 648.659 459.377 648.455 463.448C648.504 465.744 647.991 467.827 646.914 469.697C645.651 472.14 644.387 474.582 643.124 477.024C641.615 479.142 639.804 480.757 637.694 481.86C633.676 483.952 629.558 485.691 625.338 487.074C619.559 488.993 613.776 490.53 607.908 491.979C587.956 496.902 567.752 499.87 547.57 502.897C527.556 505.899 507.513 508.601 487.486 511.448C461.154 515.191 434.843 519.149 408.538 523.189C382.077 527.251 355.589 531.195 329.237 536.246C306.599 540.586 284.597 548.384 262.859 557.16C266.177 555.795 269.495 554.427 272.813 553.061C265.132 556.258 257.551 559.786 250.071 563.643C239.856 568.653 230.121 575.16 220.424 581.506C214.315 585.643 208.255 589.881 202.241 594.227C194.107 600.013 186.009 605.835 178.149 612.174C173.451 615.863 168.734 619.513 163.999 623.127C161.244 624.961 158.49 626.797 155.734 628.632C149.425 632.49 143.052 636.188 136.621 639.729C126.31 645.563 116.045 651.452 105.85 657.603C101.348 659.04 96.847 660.479 92.343 661.918C73.329 666.837 54.113 669.89 34.691 671.076C28.937 671.424 23.183 671.77 17.431 672.117C1.09799 671.688 -15.151 670.012 -31.317 667.094C-40.913 667.246 -49.158 663.509 -56.057 655.884C-59.35 649.984 -58.982 644.462 -54.947 639.319C-50.236 631.709 -45.527 624.098 -40.815 616.491C-34.236 612.213 -27.575 608.141 -20.835 604.274C-11.288 598.618 -1.55401 593.424 8.03899 587.885C11.434 586.204 14.827 584.524 18.219 582.843C24.877 579.682 31.527 576.486 38.167 573.262C56.514 564.393 74.835 555.436 93.199 546.617C128.471 529.679 164.465 514.892 200.916 502.389C236.391 490.226 273.122 484.889 309.464 478.453C341.712 472.74 373.967 467.107 406.235 461.581C442.351 455.393 478.501 449.505 514.591 443.084C524.991 441.234 535.316 439.202 545.748 437.664C555.406 436.244 565.096 435.23 574.75 433.756C580.835 432.826 586.778 431.256 592.733 429.5C596.328 428.358 599.831 426.882 603.242 425.078C606.974 422.708 610.889 420.958 614.989 419.832C612.567 428.761 610.146 437.692 607.727 446.621C606.06 443.415 604.188 440.408 602.106 437.598C598.725 432.742 595.107 428.165 591.253 423.87C592.95 425.792 594.649 427.713 596.346 429.635C588.044 420.656 579.485 412.098 570.81 403.685C566.358 399.368 561.866 395.111 557.393 390.826C556.135 389.595 554.878 388.369 553.621 387.138C546.96 380.086 540.146 373.269 533.178 366.687C535.401 368.788 537.624 370.889 539.847 372.992C532.886 366.557 525.805 360.331 518.606 354.313C511.584 348.446 504.46 342.78 497.231 337.315C483.223 326.453 468.576 316.892 453.926 307.459C438.748 297.682 423.15 288.908 407.552 280.228C382.569 266.326 357.282 253.29 331.953 240.399C333.832 241.334 335.714 242.272 337.593 243.208C306.798 228.033 275.889 213.244 244.91 198.651C230.199 191.721 215.47 184.846 200.748 177.947C190.857 173.314 180.969 168.671 171.088 164.01C164.381 160.648 157.621 157.459 150.811 154.442C136.392 147.952 121.703 142.397 107.246 136.035C98.846 132.338 90.572 128.217 82.329 124.018C78.414 122.02 74.645 119.663 71.021 116.946C67.839 115.123 65.077 112.611 62.732 109.414C60.58 105.062 59.716 100.311 60.135 95.162C60.001 89.992 61.128 85.326 63.516 81.168C66.496 78.599 69.73 77.111 73.079 75.261C71.619 76.069 70.159 76.877 68.701 77.685C71.002 73.652 74.036 71.046 77.804 69.864C79.356 69.252 80.909 68.64 82.46 68.026C84.903 66.563 87.434 65.402 90.059 64.543C98.617 61.181 107.757 60.061 116.649 58.98C120.536 58.507 124.435 58.196 128.329 57.873C139.757 56.925 151.155 55.838 162.591 55.015C177.25 53.961 191.93 53.753 206.608 53.63C217.074 53.543 227.387 54.423 237.829 55.233C237.337 55.223 236.847 55.213 236.355 55.205C268.741 55.717 301.119 56.62 333.497 57.553C348.174 57.977 362.827 58.71 377.49 59.605C392.223 60.502 406.863 62.429 421.51 64.51C436.305 66.613 450.866 70.398 465.406 74.279C472.176 76.086 478.797 79.057 485.353 81.763C504.632 89.716 523.419 99.533 542.398 108.493C542.855 108.71 535.086 124.354 535.249 124.029C533.263 128.044 531.233 132.026 529.163 135.973C528.695 137.146 528.053 138.12 527.235 138.897Z" fill="#EDEDED"/>
<path opacity="0.1091" d="M385.825 -76.929C371.152 -77.973 356.499 -78.806 341.811 -79.398C321.596 -80.217 301.354 -80.472 281.13 -80.92C242.333 -81.782 203.579 -81.59 164.801 -79.768C142.879 -78.738 120.997 -76.352 99.142 -74.065C93.151 -73.439 87.248 -72.303 81.353 -70.855C75.717 -69.472 70.501 -66.901 65.423 -63.642C65.785 -63.899 66.146 -64.157 66.509 -64.413C64.932 -62.856 63.357 -61.297 61.782 -59.74C62.195 -60.151 62.61 -60.56 63.025 -60.973C62.085 -59.92 61.147 -58.866 60.209 -57.817C59.269 -55.852 58.067 -54.206 56.606 -52.875C54.324 -51.386 52.125 -49.95 50.139 -47.897C49.989 -49.85 49.836 -51.801 49.686 -53.754C52.88 -50.489 56.262 -47.558 59.831 -44.959C58.482 -45.979 57.132 -46.999 55.783 -48.02C59.581 -45.275 63.484 -42.789 67.495 -40.554C65.472 -41.731 63.448 -42.905 61.426 -44.08C65.616 -41.74 69.871 -39.598 74.19 -37.654C72.105 -38.647 70.02 -39.641 67.935 -40.634C83.068 -34.055 98.491 -28.806 113.897 -23.326C123.014 -20.083 131.764 -16.085 140.714 -12.095C161.1 -3.01496 181.568 5.78604 202.027 14.616C237.615 29.98 273.229 45.253 308.714 60.988C344.853 77.014 380.704 94.008 416.316 111.748C427.14 117.14 437.741 123.117 448.321 129.193C460.72 136.317 472.726 144.178 484.605 152.543C495.945 160.527 506.689 169.8 517.253 179.243C528.143 188.977 537.757 200.543 547.694 211.669C556.979 222.063 566.511 232.072 575.566 242.788C584.556 253.426 592.813 265.185 598.371 279.047C598.746 281.144 598.196 282.75 596.719 283.868C593.839 284.727 590.957 285.588 588.076 286.448C584.255 287.294 580.433 288.136 576.61 288.979C570.632 290.068 564.632 290.853 558.605 291.333C552.478 291.823 546.346 292.14 540.206 292.284C527.781 292.751 515.34 292.653 502.912 293.024C496.715 293.249 490.527 293.688 484.349 294.336C475.835 295.35 467.357 296.704 458.917 298.396C372.119 313.527 285.642 331.412 199.013 347.92C199.9 347.724 200.789 347.527 201.675 347.331C196.681 348.478 191.685 349.627 186.69 350.774C176.796 353.274 166.967 356.111 157.199 359.28C142.614 363.756 128.289 369.527 113.987 375.201C109.248 377.197 104.509 379.193 99.771 381.187C90.851 385.405 82.104 390.11 73.529 395.304C65.084 399.765 56.577 404.037 48.007 408.114C39.023 412.443 30.031 416.753 21.034 421.041C8.503 427.029 -4.013 433.01 -16.696 438.487C-27.231 443.035 -37.724 447.716 -48.192 452.495C-58.745 457.316 -69.012 463.026 -79.258 468.759C-86.049 472.686 -92.721 476.901 -99.277 481.402C-107.363 486.084 -115.16 491.409 -122.677 497.383C-125.172 498.048 -127.548 497.505 -129.798 495.755C-133.921 493.598 -137.914 491.119 -141.775 488.312C-144.254 487.123 -146.026 485.09 -147.093 482.212C-147.413 480.216 -146.834 478.782 -145.356 477.907C-140.229 473.07 -135.103 468.232 -129.976 463.397C-121.913 455.803 -113.343 449.262 -104.261 443.782C-90.818 434.883 -76.551 427.865 -62.407 420.916C-51.836 415.72 -40.994 411.288 -30.274 406.593C-13.521 399.256 3.17099 391.727 19.874 384.214C31.343 379.055 42.836 374.215 54.521 369.869C61.94 368.117 69.236 365.755 76.406 362.784C85.843 358.727 95.332 354.877 104.879 351.236C119.218 345.593 133.805 341.083 148.408 336.655C164.459 331.786 180.795 328.669 197.109 325.562C272.925 311.115 348.625 295.788 424.524 282.025C438.397 279.508 452.258 276.935 466.201 275.072C478.529 273.428 491.057 273.529 503.44 273.33C512.729 273.177 522.008 273.023 531.296 272.671C537.383 272.392 543.458 271.872 549.519 271.116C555.479 270.37 561.395 269.256 567.265 267.772C566.378 267.968 565.491 268.165 564.603 268.361C567.484 267.502 570.364 266.642 573.245 265.783C572.694 267.389 572.143 268.997 571.593 270.606C570.442 267.384 569.063 264.324 567.45 261.422C567.952 262.351 568.453 263.281 568.956 264.211C559.43 247.887 547.393 234.461 535.276 221.169C530.411 215.833 525.501 210.567 520.68 205.171C514.909 198.245 508.915 191.63 502.697 185.33C493.889 176.019 484.198 168.072 474.579 160.15C475.924 161.183 477.27 162.213 478.617 163.244C472.216 158.194 465.686 153.414 459.027 148.906C452.347 144.387 445.569 140.098 438.697 136.041C440.72 137.216 442.743 138.391 444.766 139.567C434.176 133.481 423.531 127.701 412.761 122.122C399.204 115.096 385.44 108.644 371.74 102.062C373.825 103.056 375.91 104.049 377.995 105.043C337.838 86.125 297.39 68.255 256.834 50.703C236.454 41.881 216.051 33.143 195.665 24.342C185.437 19.92 175.218 15.472 165.007 10.997C152.932 5.72404 140.958 0.0330353 128.763 -4.79996C120.47 -8.08396 112.018 -10.813 103.644 -13.759C94.628 -16.931 85.729 -20.454 76.888 -24.298C72.642 -26.32 68.395 -28.347 64.148 -30.372C59.97 -32.488 55.854 -34.775 51.8 -37.229C47.769 -39.461 43.909 -42.081 40.22 -45.084C38.871 -46.105 37.522 -47.126 36.173 -48.147C31.578 -51.276 27.857 -55.614 25.012 -61.161C24.488 -62.824 24.89 -63.999 26.219 -64.683C28.19 -66.685 30.371 -68.066 32.631 -69.498C32.207 -69.06 31.785 -68.623 31.36 -68.185C32.779 -70.793 34.495 -73.055 36.507 -74.969C37.664 -76.121 38.826 -77.269 39.992 -78.409C41.506 -79.516 43.062 -80.53 44.658 -81.451C47.25 -82.87 49.918 -84.034 52.657 -84.944C58.341 -87.132 64.415 -87.914 70.295 -88.777C76.947 -89.754 83.67 -90.066 90.347 -90.662C101.428 -91.837 112.524 -92.779 123.632 -93.489C134.616 -94.193 145.602 -94.705 156.595 -95.028C178.214 -95.853 199.862 -95.591 221.486 -95.441C242.984 -95.29 264.478 -94.713 285.972 -94.189C295.747 -93.976 305.521 -93.713 315.293 -93.397C329.971 -92.961 344.595 -91.971 359.237 -90.712C360.166 -90.231 361.095 -89.75 362.023 -89.269C365.525 -87.453 369.028 -85.638 372.531 -83.821C376.033 -82.005 379.536 -80.19 383.039 -78.374C383.968 -77.892 384.897 -77.411 385.825 -76.929Z" fill="#EDEDED"/>
<path opacity="0.1091" d="M428.802 93.852C426.063 92.612 423.361 91.255 420.696 89.784C411.761 82.933 405.922 72.207 403.178 57.603C408.556 65.524 413.936 73.445 419.314 81.368C410.446 75.816 401.577 70.261 392.71 64.711C401.769 65.807 410.828 66.906 419.886 68.002C408.159 71.648 396.371 73.178 384.519 72.589C381.33 72.277 378.167 71.738 375.028 70.978C366.728 68.942 358.392 67.152 350.023 65.607C341.422 63.996 332.8 62.607 324.153 61.447C306.119 58.782 287.936 57.688 269.809 56.565C250.581 55.371 231.317 54.825 212.072 54.19C191.442 53.508 170.814 53.154 150.179 53.017C130.02 52.887 109.876 53.572 89.735 54.546C78.015 55.114 66.341 56.442 54.631 57.237C49.508 57.582 44.41 58.122 39.315 58.842C41.211 58.574 43.111 58.305 45.012 58.038C40.136 58.847 35.415 59.914 30.696 61.646C32.153 60.692 33.612 59.737 35.069 58.782C33.442 61.491 31.814 64.2 30.185 66.907C26.47 57.135 22.755 47.361 19.041 37.591C25.119 38.242 31.197 38.894 37.277 39.546C34.196 39.327 31.113 39.11 28.03 38.892C35.045 38.871 42.062 38.852 49.077 38.832C45.544 38.885 42.01 38.936 38.478 38.99C46.537 38.309 54.597 37.626 62.656 36.947C58.646 37.305 54.637 37.663 50.627 38.024C59.88 36.588 69.135 35.154 78.387 33.719C73.874 34.424 69.359 35.128 64.845 35.835C75.211 33.623 85.577 31.41 95.941 29.199C90.886 30.287 85.831 31.377 80.778 32.464C92.154 29.471 103.531 26.473 114.908 23.48C109.27 24.99 103.634 26.498 97.996 28.007C110.235 24.261 122.475 20.517 134.713 16.769C128.477 18.727 122.241 20.682 116.005 22.638C135.313 15.699 154.618 8.76104 173.924 1.82204C166.576 4.68304 159.228 7.54304 151.879 10.403C165.226 5.07404 178.571 -0.256964 191.914 -5.58596C184.104 -2.29996 176.292 0.986035 168.482 4.27003C193.98 -6.49497 219.429 -17.384 244.866 -28.359C258.826 -34.88 273.357 -38.652 288.457 -39.672C294.173 -41.029 299.887 -42.384 305.6 -43.739C315.047 -45.869 324.528 -47.735 334.04 -49.338C349.167 -52.089 364.424 -53.892 379.63 -55.822C395.171 -57.791 410.733 -59.37 426.329 -60.452C439.391 -61.358 452.533 -61.64 465.611 -61.325C469.102 -60.593 472.586 -60.541 476.064 -61.171C479.698 -61.582 483.518 -59.856 486.859 -58.381C493.952 -55.248 498.431 -44.714 502.293 -38.015C503.992 -34.954 505.414 -31.706 506.562 -28.272C507.185 -26.238 507.809 -24.207 508.432 -22.175C512.245 -7.69296 514.692 7.20204 515.768 22.513C514.748 15.7 513.73 8.88404 512.711 2.06904C514.954 16.189 517.408 30.14 518.815 44.409C519.253 48.834 519.497 53.293 519.85 57.729C520.831 71.626 521.814 85.524 522.795 99.421C524.45 139.128 525.099 178.86 524.742 218.618C524.214 232.554 523.687 246.489 523.159 260.423C520.862 273.117 517.823 285.524 514.042 297.652C511.898 300.013 509.755 302.371 507.611 304.731C502.181 306.833 496.662 308.462 491.051 309.616C488.199 310.077 485.346 310.541 482.493 311.002C476.704 311.723 470.902 312.218 465.086 312.482C453.322 313.25 441.508 313.179 429.733 313.59C420.92 313.899 412.192 314.868 403.433 316.042C398.241 316.944 393.047 317.844 387.855 318.748C377.795 320.522 367.745 322.388 357.706 324.349C322.327 331.091 287.074 338.895 251.833 346.659C221.451 353.352 191.098 360.26 160.734 367.085C155.661 368.222 150.59 369.36 145.516 370.496C135.962 372.653 126.567 375.6 117.332 379.333C98.762 385.98 80.427 393.559 62.187 401.468C64.935 400.239 67.681 399.011 70.428 397.78C65.918 399.853 61.41 401.929 56.901 404.003C47.745 408.612 38.638 413.368 29.58 418.27C11.284 428 -6.932 437.942 -25.108 448.014C-37.655 454.968 -50.133 462.074 -62.81 468.658C-69.698 472.361 -76.616 475.971 -83.567 479.492C-89.73 482.585 -95.999 485.32 -102.366 487.695C-99.381 486.299 -96.394 484.904 -93.408 483.512C-100.242 486.639 -106.97 490.084 -113.591 493.846C-123.802 499.357 -133.551 506.006 -143.261 512.732C-151.191 520.494 -155.22 518.109 -155.349 505.577C-151.922 479.607 -145.031 454.991 -134.676 431.731C-118.287 386.181 -100.989 341.169 -82.782 296.695C-74.734 272.068 -63.658 249.929 -49.554 230.28C-58.951 244.517 -68.348 258.756 -77.744 272.994C-69.187 250.518 -56.564 233.82 -39.876 222.9C-33.471 218.174 -26.962 213.677 -20.352 209.408C-14.072 205.298 -7.653 201.561 -1.093 198.197C1.892 196.801 4.87901 195.406 7.86501 194.01C13.632 191.019 19.577 188.759 25.704 187.232C31.057 185.657 36.423 184.158 41.803 182.736C48.884 180.286 55.972 177.868 63.067 175.48C73.504 171.944 83.99 168.624 94.473 165.298C108.759 160.766 122.899 155.804 137.014 150.505C147.816 146.451 158.783 143.042 169.693 139.479C177.253 137.031 184.757 134.343 192.204 131.405C200.028 128.009 207.953 125.003 215.973 122.394C271.746 102.713 327.752 83.515 384.689 69.698C395.398 67.098 406.2 65.062 417.031 63.457C426.88 61.997 436.916 61.961 446.817 61.541C451.782 61.347 456.74 61.024 461.694 60.575C466.592 60.139 471.457 59.383 476.292 58.311C481.125 57.22 485.835 55.588 490.424 53.41C495.958 50.352 501.638 47.788 507.464 45.719C508.364 128.983 509.261 212.244 510.16 295.505C507.819 289.014 505.478 282.525 503.137 276.032C501.491 272.793 499.753 269.626 497.924 266.538C495.198 261.751 492.147 257.258 489.108 252.778C486.134 248.395 482.985 244.177 479.956 239.853C475.069 232.877 470.233 225.843 465.358 218.854C467.27 221.489 469.181 224.123 471.092 226.757C466.526 220.796 461.728 215.14 456.698 209.788C449.669 201.924 441.724 195.442 433.849 189.004C426.066 182.644 417.598 177.625 409.236 172.589C400.596 167.383 391.515 163.321 382.519 159.204C379.484 157.933 376.447 156.665 373.412 155.394C364.804 151.649 356.156 148.05 347.469 144.598C334.279 139.234 320.935 134.453 307.613 129.632C280.12 119.682 252.34 110.928 224.567 102.27C227.31 103.072 230.053 103.871 232.797 104.671C223.139 101.915 213.469 99.231 203.784 96.624C188.511 92.448 173.166 88.855 157.769 85.449C146.277 83.24 134.77 81.168 123.248 79.237C120.882 79.187 118.519 79.135 116.154 79.086C110.537 79.117 104.921 79.32 99.31 79.697C92.906 80.409 86.509 81.191 80.118 82.047C68.148 83.565 56.2 84.39 44.18 84.915C40.428 84.889 36.676 84.865 32.922 84.839C26.229 84.691 19.574 83.964 12.966 82.665C10.387 81.919 7.807 81.174 5.229 80.429C1.127 79.409 -2.453 77.165 -5.509 73.692C-9.349 70.67 -11.5 66.313 -11.966 60.625C-12.894 55.024 -11.893 50.065 -8.959 45.755C-5.949 42.36 -1.778 40.883 1.894 38.818C-0.170003 40.06 -2.235 41.3 -4.298 42.54C-2.874 40.255 -1.18801 38.317 0.759995 36.728C2.56499 35.657 4.369 34.583 6.174 33.512C8.945 32.393 11.635 31.032 14.243 29.428C17.803 27.405 21.957 26.506 25.756 25.512C30.393 24.296 35.148 23.739 39.85 23.09C46.071 22.232 52.294 21.697 58.545 21.293C59.486 21.223 60.43 21.153 61.373 21.084C71.4 20.135 81.438 19.392 91.485 18.856C106.814 17.877 122.171 17.706 137.517 17.476C163.743 17.083 189.986 17.934 216.2 18.8C246.152 19.792 276.064 21.421 305.931 24.387C320.719 25.854 335.372 28.517 350.021 31.325C364.786 34.158 379.218 38.905 393.631 43.673C399.679 45.675 405.402 49.346 410.988 52.763C413.228 53.248 415.47 53.735 417.709 54.217C420.373 55.69 423.075 57.045 425.813 58.284C426.805 59.073 427.305 60.263 427.311 61.859C427.956 66.505 428.453 71.177 428.807 75.875C429.242 80.559 429.53 85.259 429.671 89.972C429.932 91.533 429.64 92.826 428.802 93.852Z" fill="#EDEDED"/>
<path opacity="0.1091" d="M302.073 -88.8909C292.333 -90.0479 282.577 -90.9449 272.806 -91.5799C263.056 -92.2149 253.301 -92.6869 243.542 -92.9989C223.629 -93.7979 203.694 -94.0479 183.775 -94.4759C161.869 -94.9469 139.964 -94.9049 118.055 -94.7039C96.196 -94.5039 74.368 -93.3919 52.545 -91.9549C53.317 -92.0059 54.092 -92.0579 54.864 -92.1089C40.035 -90.7949 25.228 -89.1569 10.408 -87.7079C3.034 -86.9869 -4.234 -85.7769 -11.479 -83.9469C-9.944 -84.3489 -8.40901 -84.7479 -6.87601 -85.1469C-8.29901 -84.6929 -9.724 -84.2369 -11.149 -83.7819C-6.859 -85.3169 -2.569 -86.8539 1.72 -88.3889C0.355001 -87.8379 -1.01101 -87.2879 -2.37601 -86.7369C-0.907007 -87.4179 0.563998 -88.0979 2.032 -88.7779C-0.551002 -87.6409 -3.02501 -86.2109 -5.38901 -84.4879C-4.73401 -85.0539 -4.07899 -85.6189 -3.42599 -86.1819C-5.13899 -83.5609 -7.02601 -81.1499 -9.08701 -78.9509C-10.199 -76.7119 -11.58 -74.7819 -13.234 -73.1619C-15.471 -71.6409 -17.625 -70.1769 -19.557 -68.0979C-19.246 -70.1509 -18.938 -72.2019 -18.63 -74.2539C-16.984 -72.6049 -15.341 -70.9559 -13.695 -69.3079C-10.169 -66.2639 -6.5 -63.5189 -2.685 -61.0779C5.282 -55.5529 14.148 -51.8799 22.725 -48.1519C21.852 -48.5239 20.98 -48.8949 20.108 -49.2669C35.08 -43.2469 50.278 -38.2369 65.357 -32.6489C73.281 -29.7119 81.14 -25.9409 88.877 -22.4949C109.264 -13.4159 129.731 -4.61394 150.19 4.21706C185.778 19.5831 221.391 34.8531 256.877 50.5891C290.914 65.6811 324.681 81.6581 358.224 98.3691C369.045 103.76 379.65 109.734 390.23 115.812C404.036 123.747 417.19 133.164 430.149 143.016C440.025 150.523 449.167 159.352 458.267 168.195C466.978 176.659 474.769 186.486 483.052 195.567C492.639 206.076 502.251 216.469 511.321 227.674C518.736 236.837 525.349 247.057 530.02 258.704C530.418 261.053 529.808 262.933 528.188 264.342C526.756 265.184 525.325 266.029 523.893 266.871C519.697 268.813 515.409 270.348 511.024 271.477C508.143 272.337 505.262 273.196 502.38 274.057C496.511 275.541 490.595 276.655 484.633 277.399C473.943 279.073 463.216 279.597 452.454 280.002C443.142 280.351 433.811 280.31 424.495 280.463C412.069 280.666 399.756 281.631 387.408 283.283C388.98 283.049 390.554 282.818 392.126 282.584C343.328 291.09 294.618 300.303 245.931 309.745C218.853 314.992 191.787 320.314 164.711 325.579C153.882 327.681 143.055 329.769 132.224 331.845C126.808 332.877 121.393 333.908 115.98 334.94C105.988 337.017 96.066 339.512 86.212 342.425C88.379 341.759 90.549 341.093 92.718 340.429C87.848 341.941 82.977 343.454 78.106 344.966C68.438 348.141 58.833 351.586 49.29 355.297C51.409 354.423 53.528 353.55 55.65 352.676C51.015 354.684 46.381 356.688 41.745 358.697C43.209 357.933 44.674 357.171 46.136 356.41C37.796 361.21 29.571 366.305 21.465 371.693C17.173 374.06 12.878 376.427 8.586 378.795C-0.407001 383.402 -9.444 387.867 -18.528 392.188C-27.779 396.632 -37.036 401.057 -46.298 405.466C-50.974 407.687 -55.653 409.907 -60.33 412.125C-68.344 416.213 -76.494 419.821 -84.78 422.948C-91.95 425.847 -99.101 428.81 -106.235 431.839C-116.928 436.324 -127.351 441.477 -137.771 446.845C-144.693 450.533 -151.512 454.487 -158.234 458.712C-161.545 460.899 -164.857 463.085 -168.17 465.272C-176.332 468.338 -184.124 472.486 -191.552 477.712C-193.071 478.258 -194.59 478.802 -196.106 479.346C-200.491 480.47 -204.912 481.212 -209.38 481.574C-211.998 482.331 -214.393 481.842 -216.558 480.106C-217.739 478.589 -217.924 476.903 -217.109 475.052C-207.989 462.527 -198.117 450.994 -187.489 440.452C-184.123 438.218 -180.756 435.987 -177.392 433.751C-170.578 429.446 -163.666 425.409 -156.65 421.639C-138.973 411.73 -120.41 404.445 -102.075 396.701C-80.348 387.524 -58.547 378.569 -36.758 369.631C-28.37 366.176 -19.918 362.996 -11.395 360.092C-7.629 359.022 -3.86301 357.952 -0.0980072 356.881C11.085 355.042 22.107 352.209 32.964 348.386C30.811 349.117 28.654 349.845 26.499 350.576C44.879 343.759 63.204 336.724 81.852 331.101C91.606 327.99 101.423 325.204 111.298 322.745C121.656 320.17 132.066 317.99 142.53 316.207C191.284 306.917 239.986 297.221 288.726 287.827C310.372 283.656 332.033 279.612 353.701 275.616C374.547 271.774 395.388 267.82 416.34 265.022C428.67 263.374 441.198 263.479 453.58 263.277C459.788 263.217 465.994 263.114 472.198 262.967C481.386 262.782 490.508 262.027 499.66 261.063C498.084 261.296 496.51 261.528 494.937 261.761C497.92 261.293 500.9 260.828 503.882 260.362C509.769 259.288 515.585 257.78 521.327 255.841C514.996 260.099 508.663 264.357 502.332 268.614C501.183 265.394 499.801 262.333 498.19 259.432C498.639 260.247 499.091 261.062 499.543 261.878C488.006 242.101 472.79 226.356 458.072 210.368C455.783 207.888 453.515 205.378 451.27 202.836C448.297 199.418 445.324 195.996 442.349 192.576C436.462 186.086 430.37 179.911 424.073 174.045C415.048 165.275 405.215 157.852 395.46 150.438C385.746 143.051 375.454 136.854 365.248 130.614C346.43 119.107 326.692 109.873 307.205 100.308C277.293 85.6251 247.014 72.0951 216.726 58.6651C160.786 33.8571 104.471 10.3781 48.557 -14.5299C49.429 -14.1569 50.302 -13.7859 51.172 -13.4129C34.33 -20.0859 17.185 -25.4699 0.362 -32.2359C-7.125 -35.2479 -14.415 -38.8219 -21.647 -42.6599C-25.709 -44.9199 -29.633 -47.5159 -33.413 -50.4399C-37.378 -53.2079 -40.885 -56.6889 -43.941 -60.8829C-44.336 -61.4599 -44.733 -62.0359 -45.13 -62.6129C-45.276 -64.6369 -44.572 -66.1109 -43.014 -67.0379C-41.05 -69.0199 -38.876 -70.3839 -36.623 -71.7969C-37.244 -71.0939 -37.866 -70.3889 -38.489 -69.6849C-37.092 -72.2689 -35.396 -74.5059 -33.403 -76.3969C-31.878 -78.2429 -30.178 -79.8119 -28.309 -81.1009C-25.93 -82.7799 -23.445 -84.1629 -20.856 -85.2529C-15.976 -87.6419 -10.943 -89.4029 -5.929 -91.3049C1.975 -94.3029 10.141 -96.2979 18.305 -97.7949C25.238 -99.0659 32.3 -99.4109 39.288 -99.9549C46.017 -100.529 52.742 -101.143 59.466 -101.796C71.131 -102.873 83.157 -103.401 94.84 -104.051C122.141 -105.572 149.512 -105.322 176.832 -105.062C203.421 -104.812 230.008 -103.983 256.594 -103.341C266.351 -103.108 276.105 -102.767 285.856 -102.32C300.526 -101.73 315.136 -100.345 329.755 -98.8039C328.8 -98.4149 327.837 -98.0539 326.866 -97.7189C323.221 -96.4039 319.576 -95.0939 315.928 -93.7909C312.282 -92.4829 308.633 -91.1819 304.982 -89.8849C304.021 -89.5259 303.049 -89.1949 302.073 -88.8909Z" fill="#EDEDED"/>
<path opacity="0.1091" d="M380.581 32.276C348.614 31.407 316.649 30.558 284.675 30.186C268.157 29.995 251.646 30.267 235.129 30.611C212.871 31.076 190.665 32.788 168.472 34.848C160.235 35.613 152.016 36.159 143.809 37.341C139.318 37.986 134.936 39.185 130.549 40.491C124.909 42.173 119.935 45.5 114.932 49.01C115.371 48.622 115.81 48.234 116.249 47.846C115.31 48.877 114.371 49.908 113.43 50.94C112.54 52.993 111.297 54.575 109.704 55.682C107.885 56.807 106.119 57.951 104.387 59.269C104.871 58.872 105.355 58.477 105.84 58.081C105.443 58.479 105.046 58.876 104.65 59.271C103.437 48.077 102.222 36.883 101.009 25.688C102.524 27.231 104.037 28.772 105.552 30.315C109.035 33.326 112.667 36.037 116.443 38.448C124.409 43.962 133.264 47.633 141.835 51.359C158.513 58.612 175.816 63.513 192.646 70.182C202.86 74.758 213.086 79.287 223.326 83.775C233.537 88.249 243.756 92.696 253.984 97.119C274.36 105.956 294.764 114.689 315.154 123.478C355.724 140.97 396.158 158.902 436.313 177.818C450.054 184.29 463.694 191.083 477.335 197.88C491.702 205.037 505.718 213.11 519.6 221.598C533.252 229.947 546.13 239.95 558.793 250.379C571.961 261.221 583.803 274.252 595.359 287.546C600.118 293.021 605.073 298.243 609.955 303.546C615.572 309.652 621.071 315.903 626.478 322.299C631.078 327.742 635.283 333.615 639.497 339.509C643.58 345.22 646.859 351.489 649.591 358.302C650.043 360.185 650.495 362.067 650.944 363.95C651.863 369.387 652.459 374.877 652.73 380.423C652.892 384.236 653.203 389.494 649.36 390.641C646.479 391.499 643.598 392.359 640.718 393.218C634.848 394.703 628.932 395.817 622.97 396.561C610.828 398.462 598.434 398.406 586.219 398.652C576.882 398.841 567.551 398.927 558.217 399.205C552.018 399.429 545.83 399.868 539.653 400.52C531.142 401.531 522.664 402.883 514.221 404.577C438.275 417.817 362.578 433.22 286.807 447.885C281.391 448.924 275.976 449.965 270.561 451.005C260.097 452.789 249.687 454.969 239.331 457.543C219.547 462.088 200.14 469.02 180.861 476.047C166.448 481.302 152.278 487.587 138.116 493.771C121.547 501.005 105.245 509.088 88.986 517.314C76.973 523.393 64.93 529.37 52.891 535.359C40.893 541.328 28.781 546.958 16.774 552.903C6.318 558.08 -3.978 563.646 -14.242 569.377C-21.051 573.281 -27.75 577.45 -34.343 581.886C-45.839 589.186 -57.146 596.917 -68.263 605.079C-68.954 604.909 -69.646 604.737 -70.337 604.567C-72.269 602.481 -73.332 599.787 -73.527 596.485C-74.571 591.085 -75.319 585.624 -75.778 580.1C-76.472 576.903 -76.189 573.927 -74.923 571.163C-70.856 567.824 -66.787 564.486 -62.72 561.147C-55.905 555.415 -48.795 550.316 -41.394 545.847C-28.019 537.083 -13.876 530.055 0.100998 522.949C12.058 516.873 24.145 511.183 36.184 505.366C51.833 497.801 67.411 490.016 83.019 482.331C113.968 467.095 145.268 453.042 177.017 440.608C191.392 434.977 206.013 430.48 220.653 426.061C241.161 419.872 262.133 416.448 282.963 412.444C358.753 397.876 434.458 382.652 510.377 369.138C515.793 368.193 521.208 367.25 526.621 366.306C532.749 365.347 538.899 364.667 545.066 364.263C557.46 363.172 569.962 363.375 582.377 363.214C591.623 363.09 600.834 362.684 610.065 362.075C616.093 361.595 622.094 360.81 628.072 359.721C633.96 358.646 639.775 357.14 645.517 355.2C645.441 365.979 645.364 376.759 645.287 387.539C644.139 384.318 642.756 381.256 641.145 378.357C638.518 373.097 634.99 368.461 631.698 363.856C632.303 364.701 632.906 365.546 633.514 366.39C624.598 354.754 615.018 344.083 605.292 333.512C601.738 329.649 598.194 325.777 594.685 321.848C588.914 314.923 582.92 308.307 576.702 302.007C570.693 295.923 564.498 290.147 558.117 284.679C548.87 276.413 538.888 269.456 528.992 262.488C515.665 253.106 501.554 245.435 487.538 237.816C475.391 231.213 462.95 225.368 450.623 219.318C430.692 209.535 410.568 200.355 390.448 191.195C355.107 175.104 319.492 159.925 283.927 144.617C268.606 138.024 253.293 131.409 237.984 124.771C227.751 120.321 217.527 115.837 207.312 111.317C200.429 107.995 193.46 104.984 186.408 102.279C180.287 99.854 174.059 97.799 167.876 95.636C158.918 92.502 150.014 89.221 141.16 85.66C134.55 83.002 128.151 79.739 121.77 76.352C117.809 74.159 113.988 71.648 110.301 68.814C106.831 66.607 103.901 63.598 101.512 59.793C101.043 58.926 100.578 58.058 100.11 57.191C99.044 52.645 98.302 48.015 97.885 43.302C97.647 40.547 97.407 37.793 97.17 35.036C96.591 31.941 96.826 28.999 97.871 26.21C100.346 23.782 103.044 21.979 105.863 20.238C105.397 20.631 104.933 21.024 104.47 21.417C106.418 18.524 108.389 15.464 111.091 13.567C113.547 11.743 116.067 10.061 118.653 8.52701C121.266 7.11401 123.951 5.95501 126.706 5.05101C130.997 3.41801 135.543 2.70901 139.965 1.89901C145.684 0.852012 151.499 0.482012 157.259 0.0160117C165.321 -0.639988 173.365 -1.40399 181.426 -2.15299C203.506 -4.20399 225.674 -4.71399 247.804 -5.17499C269.862 -5.63399 291.939 -5.16199 313.996 -4.76399C334.911 -4.38699 355.823 -3.73399 376.735 -3.16699C376.891 -1.93299 377.033 -0.694988 377.161 0.544012C377.672 5.21201 378.179 9.87901 378.685 14.549C378.657 14.243 380.363 32.27 380.581 32.276Z" fill="#EDEDED"/>
<path opacity="0.1091" d="M205.812 164.547C189.637 164.197 173.48 163.985 157.3 164.035C135.295 164.102 113.321 165.247 91.352 166.731C92.116 166.664 92.88 166.599 93.645 166.531C84.287 167.394 74.946 168.243 65.585 168.998C59.694 169.472 53.858 170.28 48.02 171.351C49.559 170.991 51.097 170.632 52.637 170.27C51.913 170.423 51.19 170.577 50.465 170.73C54.123 169.463 57.781 168.193 61.439 166.926C58.571 168.023 55.702 169.12 52.835 170.218C54.331 169.645 55.826 169.071 57.324 168.497C54.733 169.589 52.25 170.974 49.872 172.652C50.557 172.188 51.244 171.724 51.93 171.261C50.171 172.609 48.414 173.957 46.657 175.305C47.317 174.715 47.978 174.127 48.639 173.537C47.704 174.557 46.772 175.574 45.839 176.593C44.755 178.822 43.327 180.611 41.558 181.954C39.771 183.073 38.04 184.212 36.343 185.525C36.994 184.895 37.647 184.265 38.301 183.637C37.907 184.029 37.513 184.42 37.12 184.812C36.889 183.642 36.656 182.471 36.424 181.302C37.944 182.337 39.462 183.372 40.982 184.408C44.476 187.272 48.108 189.833 51.881 192.088C59.981 197.366 68.661 201.187 77.273 204.932C76.426 204.574 75.576 204.217 74.728 203.86C89.7 209.881 104.898 214.891 119.976 220.477C127.88 223.406 135.7 227.146 143.423 230.587C163.81 239.668 184.278 248.468 204.734 257.299C240.323 272.664 275.937 287.936 311.422 303.671C345.46 318.763 379.229 334.739 412.769 351.449C423.591 356.841 434.196 362.816 444.775 368.894C458.582 376.828 471.735 386.242 484.693 396.097C494.569 403.606 503.709 412.433 512.811 421.277C521.523 429.739 529.311 439.568 537.596 448.648C547.184 459.156 556.796 469.549 565.865 480.754C573.247 489.875 579.789 500.012 584.436 511.603C584.682 513.856 583.985 515.564 582.339 516.724C578.867 518.725 575.254 520.223 571.502 521.216C563.503 523.602 555.599 525.65 547.499 527.437C542.959 528.27 538.405 528.92 533.833 529.385C527.773 530.143 521.698 530.661 515.61 530.942C506.345 531.552 497.03 531.477 487.755 531.598C475.31 531.762 462.929 532.249 450.513 533.343C452.088 533.162 453.661 532.979 455.235 532.797C435.863 535.383 416.594 539.196 397.316 542.692C370.219 547.606 343.157 552.818 316.097 558.034C289.018 563.252 261.949 568.576 234.877 573.859C224.048 575.97 213.22 578.072 202.39 580.162C196.974 581.203 191.56 582.242 186.146 583.284C175.681 585.068 165.271 587.246 154.914 589.821C157.102 589.254 159.288 588.687 161.474 588.12C156.54 589.439 151.608 590.761 146.675 592.083C136.902 594.887 127.191 597.988 117.543 601.388C119.692 600.633 121.84 599.872 123.99 599.117C114.384 602.5 104.839 606.122 95.349 609.984C81.065 615.6 67.01 622.12 52.954 628.546C43.551 632.93 34.178 637.405 24.829 641.968C20.135 644.271 15.439 646.574 10.746 648.875C-0.276998 654.498 -11.411 659.764 -22.657 664.67C-20.573 663.664 -18.492 662.657 -16.409 661.651C-23.701 665.787 -30.991 669.922 -38.278 674.058C-36.342 672.676 -34.404 671.293 -32.467 669.914C-37.852 673.935 -43.313 677.791 -48.848 681.485C-51.612 683.257 -54.378 685.028 -57.144 686.8C-63.336 690.448 -69.578 693.958 -75.872 697.333C-85.897 702.841 -95.954 708.215 -105.924 713.883C-109.271 715.904 -112.62 717.926 -115.968 719.946C-124.403 726.378 -133.522 730.763 -143.32 733.097C-138.197 729.141 -133.074 725.188 -127.951 721.234C-131.139 724.388 -134.327 727.54 -137.515 730.693C-140.897 732.885 -144.41 734.695 -148.054 736.124C-151.635 737.772 -155.304 739.018 -159.057 739.867C-160.722 740.256 -161.968 739.6 -162.793 737.901C-162.983 735.931 -162.324 734.464 -160.817 733.502C-151.471 726.468 -142.126 719.433 -132.778 712.399C-136.473 715.507 -140.168 718.617 -143.865 721.727C-135.974 712.907 -127.843 704.452 -119.472 696.364C-116.143 694.19 -112.811 692.014 -109.48 689.84C-102.748 685.655 -95.923 681.719 -89.008 678.028C-78.857 672.393 -68.388 667.588 -58.01 662.651C-54.604 661.141 -51.196 659.631 -47.791 658.121C-38.675 654.135 -29.324 651.288 -19.734 649.583C-23.958 651.374 -28.182 653.166 -32.408 654.955C-23.31 649.766 -14.05 645.075 -4.627 640.879C9.444 634.181 23.567 627.671 37.721 621.25C63.207 609.684 89.1 598.893 115.355 590.325C125.023 587.011 134.749 583.997 144.536 581.281C156.527 577.761 168.793 575.062 180.905 572.281C186.319 571.249 191.734 570.218 197.148 569.186C207.979 567.112 218.808 565.023 229.635 562.919C245.883 559.775 262.125 556.592 278.369 553.42C337.874 541.797 397.396 530.325 457.051 519.927C470.883 517.516 484.917 516.975 498.858 516.559C508.175 516.282 517.501 516.286 526.819 516.097C536.006 515.913 545.127 515.156 554.279 514.193C552.703 514.374 551.129 514.559 549.556 514.74C555.516 513.996 561.431 512.882 567.301 511.397C565.117 511.966 562.929 512.533 560.743 513.1C563.625 512.242 566.505 511.38 569.388 510.522C565.077 513.727 560.765 516.93 556.455 520.134C555.305 516.913 553.923 513.853 552.312 510.952C552.72 511.706 553.13 512.46 553.537 513.216C541.998 493.437 526.784 477.694 512.065 461.707C509.777 459.227 507.51 456.715 505.263 454.175C502.291 450.754 499.317 447.333 496.342 443.913C490.456 437.425 484.364 431.245 478.067 425.382C469.043 416.614 459.21 409.192 449.456 401.776C439.743 394.39 429.448 388.191 419.244 381.953C400.424 370.443 380.689 361.211 361.201 351.645C331.289 336.962 301.009 323.432 270.722 310.003C214.78 285.196 158.464 261.716 102.55 236.812C103.398 237.168 104.246 237.526 105.095 237.883C88.251 231.208 71.106 225.823 54.282 219.059C46.818 216.057 39.557 212.505 32.347 208.681C24.55 204.543 17.493 198.953 10.602 192.897C10.241 192.385 9.881 191.876 9.52 191.363C9.542 189.465 10.323 188.171 11.863 187.486C13.86 185.602 16.048 184.352 18.319 183.049C17.662 183.659 17.006 184.272 16.35 184.883C17.128 183.737 17.905 182.592 18.683 181.449C21.162 178.945 23.955 177.099 27.063 175.907C28.26 175.178 29.456 174.45 30.653 173.723C33.388 172.332 36.183 171.15 39.033 170.182C50.511 166.051 62.151 162.722 74.002 160.773C78.356 160.057 82.77 159.8 87.149 159.473C97.3 158.716 107.452 158.081 117.604 157.312C156.266 154.386 195.094 155.174 233.797 156.026C232.841 156.419 231.868 156.752 230.884 157.024C227.202 158.168 223.52 159.3 219.832 160.418C216.145 161.543 212.456 162.66 208.767 163.759C207.793 164.083 206.807 164.347 205.812 164.547Z" fill="#EDEDED"/>
<path opacity="0.1091" d="M363.636 36.592C363.879 36.354 364.119 36.119 364.357 35.884C363.415 47.437 362.467 58.993 361.522 70.545C359.537 68.741 357.344 67.427 354.948 66.595C348.294 63.179 341.27 60.633 334.433 57.849C315.576 50.168 295.921 46.459 276.336 42.969C266.631 41.448 256.901 40.239 247.147 39.339C232.577 37.765 217.918 37.278 203.308 36.643C177.655 35.523 151.967 35.151 126.302 34.555C99.067 33.922 71.843 33.894 44.608 34.458C33.687 34.758 22.77 35.245 11.859 35.921C-0.349022 36.572 -12.51 37.912 -24.695 38.981C-31.283 39.558 -37.873 40.018 -44.452 40.707C-51.553 41.453 -58.626 42.536 -65.715 43.429C-65.313 43.365 -64.913 43.302 -64.511 43.237C-67.211 43.577 -69.828 44.347 -72.361 45.541C-75.939 47.382 -79.687 47.89 -83.607 47.064C-82.781 46.999 -81.954 46.935 -81.129 46.869C-81.64 47.059 -82.151 47.249 -82.662 47.436C-75.383 41.661 -68.102 35.887 -60.824 30.112C-59.269 32.19 -57.951 34.49 -56.872 37.01C-57.766 35.68 -58.659 34.352 -59.553 33.021C-58.15 34.876 -56.749 36.732 -55.348 38.584C-56.61 37.131 -57.872 35.675 -59.136 34.219C-56.314 36.916 -53.493 39.613 -50.668 42.31C-52.611 40.68 -54.552 39.051 -56.493 37.424C-53.566 39.711 -50.638 41.999 -47.71 44.285C-49.966 42.595 -52.219 40.906 -54.474 39.218C-51.12 41.571 -47.767 43.927 -44.415 46.279C-46.963 44.543 -49.509 42.806 -52.057 41.071C-48.314 43.473 -44.573 45.875 -40.83 48.277C-43.649 46.507 -46.467 44.733 -49.286 42.962C-45.196 45.4 -41.104 47.835 -37.014 50.272C-40.08 48.472 -43.149 46.675 -46.215 44.878C-41.82 47.338 -37.427 49.8 -33.031 52.262C-36.324 50.444 -39.615 48.626 -42.907 46.808C-36.885 49.947 -30.866 53.085 -24.845 56.224C-28.522 54.375 -32.198 52.527 -35.875 50.678C-25.226 55.989 -14.613 61.331 -3.996 66.741C9.219 73.476 22.598 79.71 35.947 86.011C64.821 99.641 93.937 112.498 122.986 125.534C152.989 138.996 182.937 152.627 212.775 166.645C238.21 178.594 263.49 190.989 288.329 204.739C298.879 210.58 309.15 217.205 319.463 223.657C329.859 230.16 339.772 237.707 349.652 245.317C359.697 253.056 369.027 262.072 378.32 271.105C381.409 274.357 384.5 277.609 387.59 280.86C389.919 283.247 392.269 285.607 394.636 287.934C402.788 296.034 410.785 304.348 418.595 312.95C427.123 322.343 435.191 332.555 441.201 344.634C444.453 349.627 445.076 355.08 443.067 360.988C441.018 366.877 437.415 370.091 432.26 370.629C429.955 371.551 427.652 372.475 425.348 373.398C427.466 372.433 429.584 371.472 431.701 370.509C429.713 371.491 427.723 372.475 425.735 373.456C421.719 375.607 417.606 377.413 413.394 378.876C411.119 379.513 408.841 380.15 406.565 380.786C401.68 381.929 396.768 382.839 391.827 383.515C383.883 384.796 375.844 385.388 367.861 386.177C359.452 387.008 351.071 387.975 342.686 389.107C339.847 389.58 337.011 390.052 334.171 390.524C324.036 392.357 313.887 394.073 303.726 395.678C288.348 398.194 272.948 400.498 257.552 402.844C220.77 408.445 183.949 413.663 147.149 419.083C148.771 418.816 150.392 418.55 152.014 418.284C136.151 420.943 120.288 423.612 104.425 426.289C96.036 427.675 87.651 429.113 79.271 430.601C69.407 432.67 59.597 435.082 49.843 437.84C52.021 437.201 54.199 436.562 56.378 435.924C41.827 440.198 27.371 444.735 12.932 449.552C-1.43902 454.349 -15.657 459.832 -29.865 465.312C-44.106 470.804 -58.282 476.571 -72.484 482.217C-88.922 488.754 -105.408 495.089 -121.891 501.445C-126.713 503.239 -131.536 505.029 -136.358 506.821C-143.608 508.793 -150.857 510.772 -158.108 512.76C-161.852 513.74 -165.598 514.718 -169.344 515.696C-176.956 517.162 -184.522 518.922 -192.044 520.978C-203.39 523.85 -214.35 528.363 -225.279 533.022C-228.823 534.805 -232.366 536.586 -235.913 538.37C-242.728 538.446 -249.374 537.039 -255.849 534.152C-251.594 532.471 -247.34 530.79 -243.087 529.108C-246.121 532.552 -249.154 535.997 -252.188 539.442C-256.782 544.661 -265.576 547.557 -270.7 541.462C-275.148 534.181 -278.365 526.116 -280.35 517.266C-283.022 508.696 -284.328 499.844 -284.269 490.708C-282.698 480.807 -281.125 470.904 -279.554 461.003C-276.763 451.331 -273.126 442.145 -268.641 433.446C-263.807 427.25 -257.74 424.615 -250.446 425.547C-241.776 424.266 -233.081 423.9 -224.361 424.449C-217.521 424.869 -210.698 425.522 -203.886 426.403C-194.654 427.873 -185.518 429.979 -176.475 432.719C-167.452 435.566 -158.396 438.239 -149.306 440.744C-140.335 444.265 -131.136 445.799 -121.707 445.34C-123.973 445.246 -126.24 445.153 -128.508 445.058C-123.488 445.133 -118.466 445.207 -113.45 445.282C-103.533 445.107 -93.639 444.438 -83.768 443.273C-73.974 442.133 -64.218 440.644 -54.496 438.807C-44.797 436.972 -35.133 434.912 -25.498 432.634C-6.16402 428.29 13.101 423.439 32.4 418.883C42.072 416.606 51.749 414.362 61.431 412.152C73.437 409.395 85.476 406.917 97.557 404.712C95.35 405.178 93.146 405.647 90.939 406.111C119.4 400.018 147.833 393.753 176.247 387.341C174.636 387.708 173.023 388.077 171.413 388.443C213.33 378.231 255.172 367.547 297.069 357.206C312.786 353.325 328.504 349.462 344.291 346.031C348.863 345.06 353.424 344.001 357.971 342.854C360.087 342.261 362.204 341.671 364.321 341.079C369.868 339.495 375.211 337.164 380.356 334.086C378.494 335.138 376.633 336.189 374.769 337.242C377.362 335.486 379.517 333.122 381.234 330.152C379.851 332.413 378.467 334.678 377.083 336.941C377.761 335.524 378.437 334.107 379.116 332.69C381.102 328.502 383.664 324.99 386.805 322.155C386.023 329.875 385.241 337.595 384.459 345.315C374.67 328.512 361.004 315.52 347.916 302.894C339.708 294.97 331.302 287.385 323.098 279.45C313.948 270.6 304.039 263.008 294.206 255.421C284.276 247.756 273.788 241.22 263.379 234.643C266.641 236.673 269.903 238.702 273.166 240.731C262.24 234.144 251.251 227.884 240.124 221.835C223.506 212.801 206.485 204.883 189.582 196.728C150.11 177.684 110.249 159.889 70.499 141.773C34.222 125.239 -1.96001 108.405 -37.508 89.573C-44.915 85.65 -52.136 81.411 -59.358 77.029C-65.444 73.899 -70.808 69.453 -75.451 63.695C-78.511 61.07 -80.688 57.582 -81.981 53.236C-81.425 54.414 -80.872 55.592 -80.317 56.768C-82.305 53.22 -84.367 49.739 -86.506 46.328C-86.857 44.455 -86.344 42.953 -84.967 41.819C-83.65 40.754 -82.332 39.688 -81.015 38.62C-77.138 35.86 -73.159 33.348 -69.077 31.083C-66.053 29.596 -63.114 28.104 -60.052 26.807C-66.624 31.521 -73.197 36.238 -79.769 40.953C-71.604 33.36 -63.603 25.516 -55.763 17.424C-55.098 16.613 -54.433 15.803 -53.766 14.99C-52.555 13.531 -51.276 12.171 -49.926 10.913C-46.09 7.08003 -40.477 5.99003 -35.777 5.01903C-33.393 4.61503 -30.998 4.33303 -28.595 4.17103C-24.861 3.81203 -21.119 3.56403 -17.381 3.23603C-11.85 2.71603 -6.32 2.19803 -0.792999 1.67903C10.161 0.778032 21.125 0.0870315 32.096 -0.391968C48.403 -1.26197 64.742 -1.31897 81.061 -1.44397C108.475 -1.65097 135.9 -0.773969 163.307 -0.0809685C177.921 0.289032 192.531 0.722032 207.143 1.20203C221.777 1.68203 236.372 2.71403 250.979 3.90203C265.656 5.09303 280.198 7.53503 294.743 10.128C307.001 12.312 319.163 15.669 331.108 19.686C338.345 22.117 345.448 25.334 352.538 28.348C356.914 30.208 361.448 31.977 365.354 35.106C367.407 36.751 366.298 43.146 366.156 44.895C365.698 50.408 365.103 55.898 364.375 61.368C364.221 64.348 363.602 67.147 362.519 69.768C362.259 70.001 362.003 70.233 361.743 70.466C361.029 71.608 360.449 71.511 360.003 70.176C359.537 67.293 359.543 64.39 360.024 61.471C360.486 55.957 361.081 50.466 361.805 44.997C361.963 42.022 362.574 39.221 363.636 36.592Z" fill="#EDEDED"/>
<path opacity="0.1091" d="M540.739 6.39605C537.087 6.90505 533.435 7.41505 529.782 7.92405C524.418 7.89505 519.272 6.59105 514.34 4.01905C512.21 2.89805 510.08 1.77705 507.951 0.655052C503.742 -1.69295 499.451 -3.78495 495.081 -5.61795C492.857 -6.44295 490.636 -7.26595 488.411 -8.08995C478.705 -10.974 468.916 -13.345 459.046 -15.201C444.483 -18.333 429.674 -19.7549 414.965 -21.3149C400.335 -22.8669 385.617 -23.3349 370.949 -23.9509C356.281 -24.5629 341.598 -24.7849 326.927 -25.1619C287.88 -26.1669 248.856 -26.6469 209.806 -25.6579C210.239 -25.6759 210.671 -25.6929 211.104 -25.7119C199.608 -25.3349 188.116 -24.7579 176.634 -23.9879C164.267 -23.2589 151.948 -21.845 139.607 -20.701C132.542 -20.046 125.502 -19.4459 118.465 -18.3919C118.982 -18.4899 119.498 -18.5879 120.015 -18.6829C117.999 -18.3019 115.985 -17.921 113.972 -17.541C114.491 -17.643 115.012 -17.744 115.531 -17.846C111.134 -16.799 106.931 -15.5429 102.654 -13.8979C98.502 -12.3019 95.005 -9.57495 91.445 -6.57695C90.501 -5.53495 89.556 -4.49195 88.61 -3.44795C87.7 -1.05395 86.276 0.552049 84.336 1.36905C82.687 2.41005 81.211 3.55405 79.779 4.99805C75.43 -4.30995 71.086 -13.6199 66.739 -22.9309C69.149 -20.7309 71.562 -18.532 73.971 -16.333C72.651 -17.428 71.33 -18.523 70.007 -19.617C72.363 -17.832 74.72 -16.0459 77.075 -14.2589C75.642 -15.1139 74.209 -15.9689 72.776 -16.8239C78.696 -13.1899 84.755 -9.95395 90.953 -7.11595C88.855 -8.07095 86.756 -9.02595 84.658 -9.98095C92.173 -6.68995 99.753 -3.63995 107.396 -0.828949C105.261 -1.64895 103.124 -2.46595 100.988 -3.28695C116.42 1.96405 131.869 7.09405 147.347 12.12C145.795 11.624 144.245 11.1281 142.691 10.6311C149.54 12.7531 156.393 14.846 163.239 16.98C168.385 19.198 173.531 21.416 178.677 23.635C188.625 27.615 198.557 31.6441 208.478 35.7211C238.885 48.1321 269.122 61.1931 299.365 74.2021C329.796 87.2931 360.119 100.763 390.343 114.581C405.439 121.486 420.442 128.691 435.441 135.921C439.469 138.073 443.499 140.228 447.528 142.383C455.601 146.832 463.628 151.402 471.613 156.09C482.737 162.525 493.671 169.398 504.566 176.4C514.988 183.096 524.99 190.666 534.954 198.337C544.938 206.023 554.241 214.912 563.503 223.842C568.988 229.126 574.21 235.025 579.629 240.452C580.983 241.903 582.339 243.355 583.694 244.806C586.035 247.689 588.618 250.177 591.447 252.268C592.607 253.396 593.77 254.524 594.931 255.652C597.314 257.941 599.662 260.29 601.971 262.695C605.498 266.293 608.78 270.25 612.047 274.2C614.66 277.785 617.128 281.52 619.45 285.402C621.466 288.479 623.262 291.738 624.84 295.183C626.613 298.206 627.137 301.562 626.414 305.247C626.03 309.012 624.574 311.913 622.05 313.952C619.642 315.876 617.238 317.8 614.832 319.726C615.912 318.853 616.993 317.983 618.073 317.111C616.04 319.311 614.007 321.514 611.974 323.716C607.358 327.784 602.334 330.819 596.907 332.827C594.126 333.743 591.348 334.661 588.567 335.577C582.768 337.104 576.919 338.244 571.023 339.001C561.973 340.469 552.767 340.93 543.666 341.688C537.563 342.168 531.467 342.751 525.376 343.431C517.115 344.425 508.88 345.701 500.676 347.263C431.318 358.913 362.205 372.79 293.06 386.214C276.825 389.365 260.583 392.482 244.342 395.588C229.307 398.462 214.435 402.685 199.602 406.798C166.646 415.935 134.536 429.352 102.731 443.26C89.433 449.074 76.241 455.27 63.033 461.388C54.27 465.467 45.504 469.535 36.732 473.588C30.275 476.35 23.826 479.144 17.387 481.977C7.50301 486.293 -2.30199 490.797 -12.069 495.508C-25.789 502.125 -38.979 510.121 -52.006 518.584C-48.343 516.139 -44.678 513.697 -41.014 511.25C-52.798 519.39 -64.343 528.028 -75.651 537.165C-78.39 539.741 -81.439 540.744 -84.796 540.175C-88.288 537.748 -91.041 534.362 -93.057 530.011C-95.491 526.004 -96.923 521.533 -97.352 516.593C-96.458 512.538 -94.52 509.452 -91.535 507.332C-76.3 495.614 -61.199 483.546 -45.176 473.503C-38.5 469.151 -31.718 465.065 -24.835 461.244C-18.183 457.548 -11.461 454.062 -4.66799 450.786C4.70701 446.094 14.337 442.188 23.916 438.208C30.009 435.681 36.115 433.202 42.234 430.773C50.404 427.202 58.567 423.608 66.725 419.997C79.303 414.447 91.901 408.968 104.523 403.566C122.223 395.989 140.092 389.1 158.043 382.506C192.094 369.998 227.04 361.463 262.102 354.753C336.532 340.514 410.857 325.358 485.483 312.745C498.312 310.577 511.156 308.51 524.033 306.836C535.478 305.351 547.022 304.821 558.499 303.876C567.772 303.113 576.902 301.76 586.001 299.451C588.638 298.757 591.168 297.687 593.588 296.234C596.314 293.65 599.266 291.587 602.445 290.05C601.514 296.305 600.583 302.564 599.654 308.82C598.92 307.367 598.186 305.914 597.453 304.461C595.649 301.311 593.685 298.321 591.561 295.497C590.377 293.979 589.196 292.462 588.012 290.944C585.792 287.762 583.509 284.652 581.161 281.616C577.54 276.809 573.749 272.191 569.996 267.545C567.437 264.577 564.961 261.504 562.57 258.328C559.856 255.582 557.14 252.841 554.421 250.102C548.985 244.621 543.748 238.814 538.475 233.106C529.677 223.586 519.945 215.493 510.277 207.44C500.759 199.511 490.519 192.978 480.365 186.437C466.436 177.463 451.702 170.478 437.043 163.624C433.174 161.905 429.303 160.185 425.434 158.467C416.52 154.749 407.713 150.674 399.012 146.241C384.041 139.012 368.958 132.142 353.884 125.245C318.612 109.11 283.066 93.889 247.571 78.537C217.143 65.376 186.761 52.063 156.434 38.549C139.517 31.01 122.501 23.8391 105.552 16.4061C107.064 17.0631 108.574 17.7211 110.087 18.3771C102.296 15.0511 94.667 11.2251 86.884 7.88005C88.399 8.49305 89.915 9.10305 91.432 9.71505C89.644 9.32005 87.856 8.92305 86.068 8.52805C82.157 8.53205 78.566 7.20305 75.29 4.54505C74.164 3.17105 73.037 1.79805 71.909 0.424049C68.96 -3.74995 66.244 -8.14895 63.761 -12.7669C62.472 -15.2069 59.376 -20.4859 62.249 -23.3849C63.692 -24.8409 65.173 -25.9139 66.807 -27.0149C67.448 -27.4189 68.09 -27.8229 68.73 -28.2269C70.163 -30.8209 71.894 -33.0669 73.918 -34.9609C77.088 -38.4609 81.256 -40.3789 85.124 -42.2809C89.218 -44.2929 93.702 -45.206 98 -46.228C105.643 -48.045 113.486 -48.6179 121.234 -49.2559C129.255 -49.9159 137.256 -50.6849 145.275 -51.4379C161.775 -52.9899 178.335 -53.5399 194.871 -54.1469C227.458 -55.3459 260.101 -54.6379 292.686 -53.9399C322.722 -53.2959 352.758 -52.6099 382.765 -50.8669C397.5 -50.0099 412.148 -48.1359 426.803 -46.1279C441.677 -44.0879 456.28 -40.4089 470.884 -36.4739C477.622 -34.6579 484.103 -31.0299 490.423 -27.7269C494.724 -25.1719 499.179 -23.1349 503.789 -21.6119C510.265 -19.9509 516.739 -20.0769 523.212 -21.9879C523.985 -21.1739 524.659 -20.241 525.233 -19.188C527.581 -15.488 529.907 -11.7639 532.21 -8.01895C534.525 -4.28495 536.818 -0.53195 539.088 3.24305C539.755 4.20605 540.308 5.25705 540.739 6.39605Z" fill="#EDEDED"/>
<path opacity="0.1091" d="M488.233 -33.673C483.952 -27.012 478.711 -21.944 472.507 -18.472C469.393 -17.302 466.236 -16.341 463.037 -15.585C459.137 -15.542 455.244 -15.755 451.358 -16.226C446.899 -16.542 442.453 -17.034 438.018 -17.698C429.249 -19.05 421.12 -22.948 412.87 -26.664C408.389 -28.676 403.854 -30.467 399.26 -32.041C389.583 -34.971 379.82 -37.37 369.972 -39.245C371.521 -38.918 373.066 -38.59 374.612 -38.261C359.607 -41.156 344.522 -43.037 329.352 -43.904C319.59 -44.522 309.825 -44.984 300.054 -45.29C274.333 -46.299 248.577 -46.562 222.845 -47.036C224.415 -47.044 225.988 -47.052 227.557 -47.057C223.071 -45.831 218.586 -44.602 214.101 -43.376C204.316 -40.522 194.4 -38.869 184.358 -38.418C174.025 -37.911 163.688 -37.627 153.348 -37.571C142.862 -37.456 132.376 -37.271 121.893 -37.02C110.235 -36.776 98.587 -35.863 86.933 -35.737C80.375 -35.665 73.824 -35.714 67.266 -35.595C68.459 -35.618 69.652 -35.643 70.845 -35.665C66.659 -35.497 62.474 -35.245 58.293 -34.908C59.501 -34.992 60.711 -35.079 61.92 -35.165C57.669 -34.672 53.544 -34.053 49.349 -33.054C46.915 -32.492 44.555 -31.619 42.268 -30.439C40.138 -28.936 38.044 -27.357 35.986 -25.705C37.493 -27.333 39.002 -28.96 40.509 -30.588C37.676 -26.084 34.092 -23.078 29.755 -21.575C28.372 -21.339 27.05 -21.069 25.703 -20.614C27.347 -21.59 28.992 -22.564 30.638 -23.539C30.358 -23.333 30.078 -23.13 29.801 -22.924C27.748 -35.896 25.699 -48.87 23.647 -61.84C25.365 -62.452 27.082 -63.066 28.798 -63.678C26.936 -62.044 25.073 -60.412 23.21 -58.777C26.538 -61.731 29.865 -64.684 33.192 -67.637C31.291 -65.515 29.39 -63.395 27.49 -61.274C30.89 -65.203 34.291 -69.128 37.692 -73.054C35.775 -70.423 33.86 -67.794 31.945 -65.165C35.436 -70.039 38.926 -74.913 42.417 -79.789C45.8 -84.875 49.037 -90.1 52.13 -95.464C58.312 -105.801 63.833 -116.775 69.712 -127.379C73.902 -134.481 78.067 -141.605 82.206 -148.754C83.932 -151.778 85.837 -154.616 87.922 -157.267C90.368 -160.555 93.42 -162.669 97.08 -163.604C103.339 -165.289 109.662 -165.92 116.054 -165.496C119.139 -164.884 122.223 -164.272 125.308 -163.659C130.928 -161.854 136.455 -159.684 141.888 -157.149C148.734 -154.316 155.445 -151.059 162.023 -147.377C169.191 -143.409 176.294 -139.272 183.334 -134.969C198.677 -125.815 213.795 -116.044 228.962 -106.457C245.229 -96.179 261.478 -85.857 277.726 -75.536C289.488 -68.064 301.241 -60.587 312.893 -52.852C326.429 -43.866 340.21 -35.432 353.79 -26.543C367.221 -17.752 380.22 -8.09496 393.061 1.94704C406.481 12.443 418.976 24.551 431.261 36.958C436.492 42.241 441.95 47.205 447.288 52.319C452.371 57.191 457.156 62.551 461.89 67.925C468.369 75.272 474.7 82.765 480.744 90.652C485.487 96.837 489.964 103.152 493.886 110.17C497.327 118.203 500.769 126.233 504.209 134.263C512.971 157.732 520.799 181.667 527.695 206.073C529.736 214.81 531.779 223.545 533.822 232.283C535.975 241.312 534.223 248.481 528.566 253.787C523.873 255.435 519.23 257.267 514.634 259.277C508.011 262.041 500.626 262.281 493.734 262.88C488.777 263.143 483.816 263.257 478.853 263.224C471.197 263.289 463.541 263.157 455.884 263.242C438.501 263.438 421.419 267.195 404.28 270.426C380.383 274.936 356.614 280.53 332.864 286.085C335.323 285.491 337.781 284.896 340.239 284.303C295.487 295.808 250.791 307.633 205.999 318.892C196.108 321.134 186.282 323.762 176.524 326.781C166.981 330.029 157.463 333.385 147.968 336.847C124.749 345.177 101.81 354.468 79.123 364.808C60.809 373.156 42.62 381.948 24.426 390.698C15.22 395.157 6.025 399.634 -3.168 404.135C-7.825 406.407 -12.483 408.682 -17.141 410.956C-23.933 413.898 -30.702 416.918 -37.447 420.017C-44.117 423.209 -50.886 426.038 -57.75 428.51C-64.699 431.513 -71.548 434.825 -78.302 438.441C-85.225 442.108 -92.044 446.049 -98.76 450.265C-102.088 452.46 -105.417 454.655 -108.745 456.851C-115.066 457.861 -121.325 457.359 -127.519 455.343C-128.796 452.717 -130.075 450.09 -131.353 447.462C-131.213 434.451 -127.754 422.704 -120.974 412.225C-115.99 402.27 -111.004 392.314 -106.02 382.358C-97.457 365.352 -87.784 349.402 -76.997 334.51C-68.419 322.279 -59.844 310.047 -51.266 297.816C-41.838 285.299 -31.596 273.941 -20.538 263.736C-16.951 261.513 -13.366 259.287 -9.776 257.065C-2.65 252.806 4.574 248.818 11.894 245.1C15.468 243.386 19.042 241.672 22.617 239.959C29.223 236.89 35.975 234.452 42.875 232.64C48.897 231.422 54.937 230.363 60.995 229.467C67.493 228.911 73.915 227.7 80.259 225.83C91.175 223.288 102.105 220.834 113.031 218.368C127.86 215.027 142.572 211.343 157.234 207.019C168.822 203.601 180.359 199.867 191.927 196.352C199.89 193.958 207.814 191.381 215.702 188.624C223.995 185.633 232.234 182.438 240.421 179.034C244.808 177.453 249.197 175.872 253.585 174.29C262.166 171.159 270.731 167.971 279.282 164.726C295.49 158.635 311.622 152.233 327.761 145.869C338.88 141.485 349.999 137.115 361.138 132.807C376.745 126.77 392.51 121.365 408.243 115.855C417.369 112.66 426.638 110.453 435.954 108.338C441.362 107.108 446.735 107.281 452.188 107.736C455.705 108.03 459.214 108.654 462.727 109.035C464.667 109.254 466.597 109.157 468.516 108.744C470.214 108.353 471.615 107.335 472.721 105.688C470.972 107.919 469.224 110.148 467.475 112.376C468.132 111.46 468.789 110.546 469.445 109.629C471.818 105.524 474.682 102.079 478.04 99.296C489.6 147.169 501.158 195.04 512.718 242.912C512.008 241.393 511.298 239.872 510.59 238.351C508.813 235.074 506.922 231.904 504.915 228.838C500.686 222.061 495.584 216.026 490.656 210.052C493.464 213.317 496.274 216.582 499.084 219.849C494.974 215.069 490.863 210.293 486.752 205.514C489.555 208.769 492.359 212.03 495.161 215.284C489.902 209.373 484.521 203.67 479.085 198.012C472.347 190.999 465.723 183.915 459.135 176.675C447.522 163.91 434.589 153.113 421.622 142.627C405.701 129.752 388.51 119.315 371.431 109.074C356.21 99.944 340.673 91.579 325.177 83.201C306.336 73.012 287.348 63.236 268.362 53.47C227.023 32.203 185.475 11.404 143.341 -7.31396C145.693 -6.29196 148.043 -5.27097 150.394 -4.24797C141.455 -7.99797 132.437 -11.43 123.34 -14.544C114.323 -17.467 105.256 -20.122 96.137 -22.511C92.925 -22.902 89.707 -23.055 86.482 -22.964C80.924 -23.022 75.336 -22.012 69.838 -21.169C64 -19.765 58.17 -18.3 52.353 -16.775C46.266 -15.226 40.142 -14.5 33.954 -14.053C30.415 -13.993 26.948 -14.581 23.552 -15.813C21.534 -17.069 19.513 -18.325 17.493 -19.581C12.342 -24.246 9.262 -30.646 8.255 -38.781C8.853 -44.11 10.673 -48.743 13.713 -52.677C16.308 -57.077 19.668 -60.101 23.794 -61.756C26.603 -61.129 29.326 -60.281 31.971 -58.987C28.75 -58.769 25.528 -58.552 22.307 -58.336C27.809 -62.567 34.366 -64.213 40.629 -65.744C45.167 -66.855 49.911 -67.146 54.511 -67.558C59.134 -67.974 63.767 -68.082 68.399 -68.198C71.967 -68.29 75.516 -68.153 79.085 -68.065C84.25 -68.173 89.419 -68.279 94.587 -68.386C104.785 -68.518 114.98 -68.49 125.178 -68.299C130.14 -68.154 135.104 -68.012 140.068 -67.869C149.321 -67.596 158.554 -66.905 167.768 -65.798C172.495 -64.831 177.225 -63.865 181.953 -62.896C195.383 -57.709 209.167 -54.582 223.309 -53.511C218.864 -54.003 214.416 -54.493 209.969 -54.983C230.816 -54.484 251.66 -53.915 272.505 -53.326C294.257 -52.711 316.077 -51.864 337.762 -49.526C356.218 -47.538 374.743 -45.516 392.995 -41.449C402.844 -39.542 412.601 -37.075 422.267 -34.052C424.535 -33.179 426.798 -32.305 429.064 -31.432C434.365 -29.083 439.622 -26.599 444.837 -23.976C444.105 -24.33 443.372 -24.683 442.64 -25.038C447.051 -22.714 451.617 -21.042 456.338 -20.021C448.775 -20.855 441.213 -21.69 433.652 -22.526C435.99 -22.536 438.328 -22.543 440.667 -22.552C439.893 -22.33 439.119 -22.105 438.344 -21.883C440.739 -22.779 443.134 -23.674 445.528 -24.569C450.621 -27.914 455.287 -32.003 459.528 -36.841C460.472 -37.456 461.495 -37.62 462.596 -37.332C466.386 -37.088 470.175 -36.747 473.953 -36.299C477.738 -35.911 481.513 -35.421 485.28 -34.827C486.407 -34.87 487.39 -34.486 488.233 -33.673Z" fill="#EDEDED"/>
<path opacity="0.1091" d="M367.025 121.432C366.966 119.401 366.904 117.369 366.845 115.337C367.138 116.216 367.43 117.095 367.722 117.974C366.839 116.074 365.958 114.172 365.074 112.274C369.667 120.927 374.255 129.578 378.848 138.231C377.192 136.836 375.534 135.443 373.878 134.05C374.162 134.196 374.447 134.341 374.731 134.487C372.285 133.285 369.84 132.084 367.396 130.883C367.686 131.024 367.978 131.165 368.268 131.304C363.198 129.29 358.093 127.416 352.956 125.686C353.278 125.799 353.604 125.914 353.928 126.028C348.903 124.269 343.853 122.632 338.776 121.116C339.121 121.213 339.467 121.311 339.813 121.409C334.564 120.011 329.317 118.615 324.068 117.219C324.421 117.31 324.775 117.403 325.127 117.493C320.266 116.398 315.401 115.304 310.539 114.211C300.853 112.252 291.129 110.667 281.366 109.453C261.984 106.666 242.387 105.944 222.905 105.059C202.754 104.143 182.575 103.787 162.416 103.24C140.069 102.63 117.727 102.205 95.378 102.036C95.845 102.038 96.312 102.041 96.776 102.042C79.921 102.118 63.096 102.407 46.247 102.971C29.669 103.528 13.133 104.976 -3.401 106.481C-11.56 107.223 -19.705 107.747 -27.838 108.905C-27.26 108.818 -26.682 108.734 -26.105 108.645C-30.54 109.447 -34.845 110.437 -39.202 111.732C-43.281 112.942 -46.999 115.069 -50.711 117.409C-53.495 119.163 -55.603 122.255 -57.738 124.976C-58.594 125.354 -59.438 125.773 -60.269 126.231C-60.979 126.629 -61.627 127.147 -62.212 127.788C-66.146 117.247 -70.078 106.708 -74.012 96.168C-71.501 96.889 -68.989 97.611 -66.481 98.333C-63.097 101.206 -59.942 104.435 -57.022 108.022C-57.816 107.189 -58.608 106.359 -59.399 105.529C-57.28 107.556 -55.158 109.585 -53.04 111.615C-53.999 110.787 -54.96 109.96 -55.921 109.135C-53.552 111.122 -51.182 113.109 -48.813 115.095C-45.795 117.447 -42.695 119.626 -39.517 121.629C-32.797 126.109 -25.592 129.513 -18.504 132.959C-13.29 135.492 -7.996 137.801 -2.739 140.19C3.745 143.169 10.193 146.261 16.602 149.469C26.246 154.026 35.917 158.494 45.614 162.88C80.42 178.797 115.507 193.78 150.485 209.107C185.825 224.59 221.031 240.508 256.04 257.121C268.747 263.15 281.359 269.444 293.929 275.903C308.633 283.457 322.95 292.025 337.131 300.966C347.505 307.506 357.396 315.077 367.256 322.713C380.742 333.156 393.073 345.611 405.148 358.372C414.099 367.833 423.385 376.803 432.34 386.26C437.594 391.806 442.578 397.674 447.431 403.749C451.861 409.296 455.584 415.799 458.826 422.455C461.53 426.625 462.635 431.407 462.141 436.809C462.205 442.241 460.725 446.867 457.704 450.687C453.73 452.588 449.758 454.492 445.783 456.395C447.611 455.509 449.438 454.621 451.267 453.732C446.516 456.965 441.718 460.082 436.871 463.085C435.158 463.882 433.447 464.679 431.733 465.476C426.825 467.942 421.788 469.855 416.619 471.218C403.909 475.064 390.939 475.523 377.948 476.538C379.037 476.443 380.125 476.345 381.215 476.248C375.098 476.809 369 477.58 362.919 478.561C349.792 480.487 336.618 481.427 323.434 482.474C295.074 484.724 266.995 489.391 238.947 494.945C226.49 497.503 214.049 500.175 201.626 502.965C184.431 506.754 167.201 510.328 149.988 513.974C118.656 520.607 87.234 526.635 56.013 534.029C57.569 533.608 59.127 533.187 60.681 532.764C55.662 534.128 50.644 535.492 45.625 536.853C35.699 539.71 25.829 542.848 16.018 546.264C-1.38599 552.06 -18.326 559.592 -35.239 567.251C-33.151 566.265 -31.063 565.277 -28.974 564.291C-38.46 568.783 -47.877 573.472 -57.233 578.359C-66.652 583.277 -76.016 588.358 -85.32 593.599C-94.717 598.889 -104.06 604.325 -113.345 609.909C-115.534 611.466 -117.723 613.026 -119.911 614.585C-127.708 620.294 -135.479 626.058 -143.225 631.876C-158.884 643.566 -174.677 654.979 -190.375 666.591C-198.13 672.359 -205.83 678.242 -213.472 684.234C-216.928 685.643 -220.385 687.051 -223.841 688.458C-228.379 689.349 -232.922 689.261 -237.474 688.195C-239.652 687.563 -241.829 686.932 -244.007 686.301C-247.8 685.15 -251.296 683.212 -254.496 680.479C-256.1 678.132 -256.521 675.486 -255.757 672.537C-255.109 669.549 -253.599 667.608 -251.226 666.717C-243.858 663.764 -237.302 659.025 -231.557 652.5C-224.675 647.731 -217.685 643.216 -210.59 638.953C-195.017 629.248 -178.714 621.046 -162.43 613.391C-155.162 609.894 -147.854 606.536 -140.503 603.32C-137.009 601.749 -133.514 600.174 -130.021 598.601C-120.555 593.782 -111.078 588.999 -101.591 584.244C-76.124 571.429 -50.424 559.382 -24.543 547.907C-8.273 540.695 8.27201 534.421 24.773 528.074C45.641 520.051 66.941 514.172 88.281 508.483C98.604 505.801 108.996 503.646 119.461 502.019C135.631 499.073 151.806 496.172 167.983 493.293C193.153 488.813 218.331 484.385 243.527 480.139C241.315 480.53 239.104 480.92 236.89 481.311C242.168 480.283 247.445 479.257 252.721 478.231C250.519 478.69 248.317 479.153 246.114 479.612C255.018 477.69 263.884 475.514 272.708 473.09C283.073 470.197 293.422 467.218 303.756 464.155C321.286 459.034 338.807 453.985 356.445 449.463C368.587 446.35 380.828 443.771 393.02 440.979C397.596 440.004 402.147 438.895 406.678 437.653C411.846 436.087 416.952 434.257 421.998 432.167C420.303 432.826 418.606 433.486 416.91 434.147C418.816 432.956 420.722 431.763 422.626 430.572C421.296 431.652 419.963 432.733 418.633 433.811C419.912 432.361 421.189 430.913 422.466 429.462C424.244 425.803 426.615 422.87 429.578 420.667C429.203 430.077 428.828 439.486 428.453 448.898C427.662 447.445 426.869 445.994 426.075 444.541C424.04 441.31 421.893 438.198 419.633 435.206C417.326 432.329 415.037 429.432 412.764 426.518C410.658 423.922 408.52 421.382 406.337 418.889C398.337 409.571 389.829 401.034 381.178 392.678C380.074 391.586 378.969 390.496 377.867 389.406C371.89 383.08 365.721 377.059 359.357 371.344C346.918 359.701 333.273 350.128 319.677 340.778C305.419 330.969 290.397 322.868 275.466 314.797C258.577 305.67 241.254 297.753 224.074 289.526C150.792 254.44 75.983 224.499 2.85602 188.906C-13.541 180.926 -29.906 172.46 -45.345 161.881C-50.632 158.259 -55.294 153.763 -59.63 148.592C-63.402 144.093 -65.049 138.032 -66.308 131.919C-65.789 133.799 -65.272 135.68 -64.755 137.559C-68.353 125.138 -71.95 112.717 -75.55 100.295C-76.228 98.685 -76.146 97.232 -75.305 95.934C-74.528 94.476 -72.202 93.814 -70.953 93.199C-71.268 93.749 -71.58 94.302 -71.893 94.854C-71.346 92.15 -69.995 90.933 -68.361 89.023C-66.574 87.416 -64.662 86.074 -62.626 85C-60.048 83.599 -57.397 82.455 -54.676 81.562C-50.436 79.953 -45.944 79.268 -41.576 78.478C-36.696 77.599 -31.756 77.193 -26.84 76.763C-23.077 76.434 -19.308 76.207 -15.544 75.904C-4.55199 74.83 6.45001 73.988 17.463 73.375C28.353 72.77 39.25 72.355 50.152 72.127C87.947 71.013 125.806 72.497 163.59 73.524C178.205 73.921 192.82 74.382 207.434 74.89C226.972 75.57 246.431 77.132 265.895 79.282C275.658 80.497 285.384 82.085 295.07 84.042C300.311 85.061 305.526 86.243 310.716 87.599C315.614 88.849 320.503 90.16 325.38 91.529C329.767 92.841 334.128 94.284 338.457 95.859C343.27 97.534 348.021 99.307 352.797 101.135C354.959 102.176 357.112 103.238 359.26 104.32C361.429 105.353 363.387 106.877 365.133 108.899C366.782 110.962 368.189 113.259 369.359 115.794C371.827 120.411 374.222 125.085 376.549 129.815C378.245 133.376 379.925 136.947 381.588 140.529C383.035 143.936 383.337 147.626 382.492 151.603C381.492 151.105 380.745 150.212 380.252 148.93C378.085 145.061 375.991 141.13 373.974 137.139C371.915 133.18 369.931 129.161 368.026 125.086C367.301 123.985 366.967 122.769 367.025 121.432Z" fill="#EDEDED"/>
<path opacity="0.1091" d="M439.445 96.195C424.765 94.596 410.128 93.388 395.409 92.493C375.851 91.3 356.245 91.047 336.67 90.481C298.011 89.364 259.364 88.577 220.694 89.231C204.072 89.515 187.477 90.584 170.884 91.716C161.475 92.356 152.056 93.377 142.645 94.106C138.236 94.446 133.851 94.99 129.461 95.605C123.524 96.438 117.777 98.117 112.072 100.263C112.469 100.104 112.863 99.945 113.258 99.784C110.661 100.873 108.171 102.255 105.786 103.927C103.397 105.303 101.298 107.176 99.49 109.547C100.06 108.803 100.631 108.057 101.203 107.311C100.434 108.499 99.664 109.684 98.893 110.871C97.985 112.529 96.771 113.666 95.249 114.282C93.609 115.298 92.143 116.416 90.721 117.836C93.307 106.662 95.893 95.488 98.48 84.316C99.869 85.742 101.261 87.17 102.65 88.596C106.101 91.575 109.695 94.251 113.435 96.629C121.402 102.126 130.243 105.8 138.809 109.525C155.487 116.777 172.79 121.679 189.62 128.347C199.834 132.922 210.059 137.451 220.299 141.939C230.512 146.413 240.729 150.862 250.958 155.283C271.333 164.12 291.737 172.853 312.127 181.642C352.698 199.134 393.133 217.066 433.287 235.983C447.028 242.456 460.668 249.25 474.309 256.043C488.676 263.202 502.691 271.275 516.575 279.763C530.227 288.111 543.103 298.115 555.767 308.542C566.17 317.11 575.695 327.181 585.179 337.207C589.184 341.907 593.237 346.538 597.344 351.1C599.789 353.79 602.24 356.469 604.704 359.13C610.235 365.139 615.721 371.198 621.125 377.383C626.514 383.547 631.56 390.096 636.421 396.897C640.506 402.608 643.784 408.877 646.516 415.69C646.735 416.779 646.956 417.866 647.178 418.953C646.662 423.664 645.716 428.243 644.337 432.691C643.525 435.273 642.715 437.856 641.905 440.44C641.254 443.708 639.794 446.122 637.524 447.687C634.643 448.545 631.763 449.405 628.882 450.265C623.011 451.749 617.097 452.863 611.135 453.607C598.991 455.507 586.598 455.453 574.384 455.698C565.047 455.887 555.714 455.972 546.38 456.25C540.182 456.477 533.994 456.915 527.815 457.565C519.305 458.579 510.827 459.93 502.383 461.624C426.437 474.864 350.742 490.266 274.969 504.931C269.553 505.972 264.139 507.012 258.725 508.053C248.261 509.836 237.851 512.016 227.493 514.591C207.745 519.127 188.372 526.031 169.123 533.041C164.442 534.904 159.763 536.767 155.084 538.63C148.081 541.812 141.213 545.382 134.473 549.337C127.261 553.156 120.025 556.897 112.763 560.566C104.405 564.827 96.059 569.126 87.726 573.465C74.644 580.241 61.611 587.164 48.56 594.038C34.756 601.307 20.819 608.211 6.97601 615.362C-3.48699 620.765 -13.853 626.35 -24.171 632.163C-31.005 636.109 -37.733 640.323 -44.352 644.8C-55.71 650.961 -67.072 657.099 -78.443 663.217C-79.998 664.034 -81.315 663.636 -82.394 662.025C-83.546 659.17 -83.68 656.165 -82.805 653.019C-82.047 647.548 -80.995 642.162 -79.644 636.868C-79.26 633.571 -78.028 630.98 -75.95 629.099C-71.917 625.704 -67.888 622.309 -63.857 618.913C-60.698 615.476 -57.245 612.61 -53.496 610.317C-46.813 605.781 -40.021 601.509 -33.12 597.506C-26.256 593.524 -19.332 589.703 -12.349 586.048C-2.13499 580.558 8.20302 575.391 18.499 570.144C34.382 562.048 50.297 554.044 66.198 546.008C79.655 539.212 93.166 532.609 106.718 526.113C115.279 522.04 123.912 518.227 132.621 514.673C141.587 511.299 150.565 507.985 159.558 504.733C164.345 502.898 169.13 501.065 173.915 499.23C183.517 495.612 193.18 492.261 202.904 489.181C222.888 482.551 243.265 478.208 263.685 474.317C339.503 459.87 415.202 444.543 491.102 430.78C504.975 428.263 518.838 425.689 532.777 423.828C545.107 422.183 557.634 422.285 570.017 422.083C582.374 421.882 594.69 421.636 607.033 420.823C613.061 420.343 619.064 419.558 625.038 418.469C630.929 417.397 636.744 415.889 642.486 413.948C639.489 424.613 636.494 435.28 633.497 445.946C632.347 442.725 630.965 439.663 629.355 436.762C627.514 433.421 625.529 430.218 623.402 427.151C618.802 420.121 613.378 413.872 608.108 407.636C602.792 401.347 597.21 395.391 591.686 389.388C589.223 386.721 586.77 384.045 584.325 381.355C583.243 380.144 582.161 378.933 581.079 377.722C575.308 370.794 569.314 364.183 563.097 357.881C563.685 358.467 564.272 359.05 564.86 359.635C558.854 353.55 552.659 347.775 546.278 342.307C537.03 334.042 527.049 327.084 517.155 320.119C507.198 313.109 496.739 307.205 486.364 301.244C475.663 295.094 464.66 289.73 453.721 284.279C398.923 256.982 343.136 232.867 287.373 208.828C261.842 197.82 236.307 186.838 210.811 175.704C198.736 170.431 186.763 164.74 174.568 159.908C168.446 157.481 162.219 155.429 156.035 153.265C144.819 149.342 133.696 145.193 122.694 140.407C116.25 137.604 110.084 134.075 103.946 130.393C102.086 129.109 100.224 127.823 98.362 126.54C94.972 124.171 91.849 121.35 88.991 118.08C88.581 117.572 88.172 117.064 87.761 116.556C87.201 113.564 87.452 110.626 88.515 107.741C89.763 102.413 91.233 97.181 92.924 92.045C93.538 88.966 94.813 86.469 96.751 84.558C98.78 82.597 101.011 81.262 103.322 79.876C102.743 80.619 102.164 81.36 101.586 82.102C102.882 80.095 104.259 78.179 105.718 76.354C107.641 73.695 110.014 71.939 112.836 71.093C115.243 69.426 117.755 68.053 120.371 66.976C122.136 66.251 123.912 65.572 125.698 64.936C131.417 62.781 137.519 62.036 143.43 61.208C150.118 60.273 156.874 60 163.585 59.441C174.725 58.332 185.879 57.455 197.044 56.81C208.084 56.172 219.128 55.723 230.179 55.466C257.71 54.581 285.28 55.249 312.81 55.854C333.718 56.314 354.62 56.958 375.525 57.562C385.318 57.844 395.106 58.232 404.892 58.724C419.61 59.386 434.266 60.829 448.932 62.428C448.617 63.614 448.293 64.798 447.956 65.976C446.709 70.425 445.461 74.875 444.211 79.323C442.962 83.77 441.709 88.216 440.457 92.663C440.134 93.847 439.795 95.024 439.445 96.195Z" fill="#EDEDED"/>
</g>
</g>
</g>
</g>
</svg>
