<svg width="370" height="591" viewBox="0 0 370 591" fill="none" xmlns="http://www.w3.org/2000/svg">
<path d="M68.5196 132.83H364.234C367.444 132.83 369.878 135.343 369.323 138.083L318.585 587.175C318.152 589.319 316.006 590.882 313.494 590.882H126.485C123.964 590.882 121.808 589.3 121.39 587.144L63.4246 138.053C62.8936 135.321 65.3256 132.83 68.5196 132.83Z" fill="#B5F3EF"/>
<path d="M364.233 132.83H218.117V590.883H313.493C316.005 590.883 318.151 589.32 318.584 587.176L369.322 138.084C369.876 135.343 367.443 132.83 364.233 132.83Z" fill="#83EBE3"/>
<path d="M78.1817 132.243H352.726C355.702 132.243 357.962 134.59 357.448 137.153L310.342 547.299C308.839 557.426 301.335 560.344 292.579 560.344H144.832C137.642 560.344 127.636 558.789 127.27 548.467L73.4517 137.125C72.9587 134.57 75.2127 132.243 78.1817 132.243Z" fill="white"/>
<path d="M99.1729 331.192L127.576 548.27C127.944 558.592 137.947 560.147 145.14 560.147H292.883C301.64 560.147 309.146 557.229 310.65 547.1L335.445 331.192H99.1729Z" fill="white"/>
<path d="M352.726 132.243H78.1817C75.2127 132.243 72.9587 134.57 73.4517 137.124L81.0037 194.848H350.822L357.448 137.153C357.962 134.59 355.702 132.243 352.726 132.243Z" fill="white"/>
<path d="M71.7188 0C71.7188 0 71.9548 0.829995 72.3988 2.38499C72.8198 3.94499 73.4837 6.22399 74.2397 9.14099C75.0077 12.056 75.9638 15.592 76.9678 19.664C77.9958 23.732 79.1578 28.322 80.3318 33.347C81.5338 38.367 82.8358 43.804 84.1348 49.571C85.4388 55.336 86.7899 61.421 88.1359 67.725C89.4899 74.028 90.8557 80.547 92.1927 87.181C93.5497 93.811 94.8558 100.56 96.1718 107.308C97.4448 114.063 98.7339 120.816 99.9229 127.478C101.142 134.135 102.273 140.699 103.351 147.054C104.431 153.409 105.426 159.562 106.347 165.401C107.271 171.239 108.076 176.772 108.811 181.881C109.576 186.984 110.196 191.677 110.742 195.838C111.313 199.994 111.733 203.632 112.096 206.625C112.47 209.615 112.697 211.978 112.879 213.583C113.042 215.192 113.129 216.051 113.129 216.051C113.129 216.051 112.893 215.221 112.448 213.666C112.025 212.107 111.361 209.828 110.603 206.911C109.833 203.996 108.878 200.461 107.873 196.388C106.842 192.321 105.683 187.73 104.507 182.706C103.301 177.687 102.003 172.249 100.703 166.483C99.3988 160.717 98.0488 154.633 96.7028 148.329C95.3548 142.025 93.9788 135.508 92.6498 128.872C91.2928 122.242 89.9918 115.492 88.6768 108.744C87.4048 101.988 86.1218 95.235 84.9318 88.572C83.7208 81.914 82.5798 75.352 81.5078 68.995C80.4278 62.64 79.4338 56.487 78.5138 50.648C77.5878 44.81 76.7869 39.276 76.0479 34.168C75.2809 29.066 74.6637 24.372 74.1147 20.212C73.5417 16.056 73.1228 12.418 72.7588 9.42599C72.3818 6.43599 72.1558 4.073 71.9718 2.468C71.8058 0.859002 71.7188 0 71.7188 0Z" fill="#DD9F6F"/>
<path d="M0.641036 85.5908L74.5051 24.1248C75.9461 22.9268 77.8051 22.5358 79.5281 23.0748L173.981 55.4818C175.298 55.8918 175.178 58.0018 173.817 58.2548L1.82207 88.6888C0.198067 88.9918 -0.677964 86.6898 0.641036 85.5908Z" fill="#E31100"/>
<g opacity="0.65">
<path d="M133.411 64.2135L173.818 58.2546C175.179 58.0016 175.299 55.8916 173.982 55.4816L81.2754 23.6226L133.411 64.2135Z" fill="#FF000A"/>
<path d="M72.5781 75.5276L106.543 69.2106L77.0931 22.9886L76.8641 22.9756L72.5781 75.5276Z" fill="#FF000A"/>
<path d="M73.744 24.7554L0.641004 85.5914C-0.677996 86.6894 0.198011 88.9914 1.82301 88.6884L41.4851 81.3124C52.5911 61.9744 65.114 40.0864 73.744 24.7554Z" fill="#FF000A"/>
</g>
<g opacity="0.76">
<path d="M78.1817 132.243H352.726C355.702 132.243 357.962 134.59 357.448 137.153L310.342 547.299C308.839 557.426 301.335 560.344 292.579 560.344H144.832C137.642 560.344 127.636 558.789 127.27 548.467L73.4517 137.125C72.9587 134.57 75.2127 132.243 78.1817 132.243Z" fill="#63B903"/>
<path d="M99.1729 331.192L127.576 548.27C127.944 558.592 137.947 560.147 145.14 560.147H292.883C301.64 560.147 309.146 557.229 310.65 547.1L335.445 331.192H99.1729Z" fill="#55A800"/>
<path d="M352.726 132.243H78.1817C75.2127 132.243 72.9587 134.57 73.4517 137.124L81.0037 194.848H350.822L357.448 137.153C357.962 134.59 355.702 132.243 352.726 132.243Z" fill="#9AD460"/>
</g>
<path d="M302.185 234.089L264.521 203.492C227.375 173.315 204.436 129.818 201.558 84.1082L199.956 58.6182L221.994 73.7092C261.515 100.772 288.159 142.383 295.124 187.919L302.185 234.089Z" fill="#2D9A00"/>
<path opacity="0.37" d="M199.956 58.6182L200.069 60.4202L301.924 233.878L302.184 234.089L295.123 187.92C288.158 142.383 261.515 100.773 221.993 73.7102L199.956 58.6182Z" fill="#43D700"/>
<path d="M175.608 538.612L185.048 497.549C194.36 457.055 220.302 422.219 256.249 401.947L276.298 390.638L273.057 413.554C267.248 454.646 244.355 491.583 210.217 514.935L175.608 538.612Z" fill="#2D9A00"/>
<path opacity="0.37" d="M276.298 390.639L274.877 391.44L175.675 538.329L175.608 538.612L210.217 514.936C244.355 491.584 267.248 454.647 273.057 413.555L276.298 390.639Z" fill="#43D700"/>
<path d="M123.723 378.33L128.047 334.512C132.311 291.301 154.568 251.742 189.136 225.944L208.412 211.558L208.103 235.742C207.547 279.11 188.725 320.443 156.449 349.182L123.723 378.33Z" fill="#2D9A00"/>
<path opacity="0.37" d="M208.413 211.558L207.051 212.574L123.752 378.03L123.724 378.331L156.451 349.183C188.727 320.443 207.55 279.11 208.105 235.743L208.413 211.558Z" fill="#43D700"/>
<path opacity="0.63" d="M298.706 156.947C298.749 143.001 298.793 129.059 298.835 115.112C301.998 120.696 305.162 126.283 308.325 131.866C307.515 120.107 309.055 108.488 312.821 97.9189C315.027 104.209 317.227 110.495 319.432 116.782C321.231 106.221 323.027 95.6579 324.823 85.0959C326.871 91.0229 328.919 96.9519 330.969 102.881C336.49 93.8549 343.793 86.0919 352.399 80.1089C348.953 91.7559 344.253 102.879 338.396 113.233C345.08 110.744 351.76 108.256 358.443 105.769C351.564 114.994 343.728 123.433 335.077 130.929C341.01 130.906 346.945 130.877 352.876 130.852C344.298 136.309 335.719 141.764 327.138 147.218C333.623 147.685 340.106 148.153 346.585 148.62C331.939 152.827 317.292 157.034 302.647 161.239" fill="#2D9A00"/>
<path opacity="0.63" d="M123.157 161.73C117.785 148.863 112.414 135.994 107.045 123.124C112.126 127.046 117.211 130.966 122.289 134.886C116.982 124.363 113.894 113.053 113.266 101.853C117.739 106.793 122.207 111.733 126.678 116.674C124.239 106.242 121.797 95.81 119.355 85.379C123.543 90.048 127.733 94.717 131.917 99.387C133.509 88.922 137.228 78.938 142.836 70.082C144.177 82.156 144.16 94.231 142.78 106.046C147.973 101.158 153.169 96.273 158.362 91.388C155.598 102.56 151.649 113.376 146.587 123.642C152.045 121.316 157.505 118.992 162.964 116.667C157.171 125.022 151.381 133.379 145.59 141.736C151.744 139.652 157.901 137.567 164.058 135.485C152.19 145.042 140.322 154.601 128.453 164.161" fill="#2D9A00"/>
<path d="M272.306 51.1348C309.933 57.7278 335.087 93.5727 328.494 131.2C321.902 168.825 286.054 193.982 248.429 187.39L272.306 51.1348Z" fill="#2D9A00"/>
<path d="M271.114 57.9487C306.23 64.1017 329.887 96.5387 323.952 130.404C318.019 164.265 284.743 186.728 249.628 180.575L271.114 57.9487Z" fill="#D3FFB9"/>
<path d="M270.153 63.4209C302.135 69.0259 323.681 98.5679 318.279 129.408C312.873 160.249 282.568 180.705 250.586 175.101L270.153 63.4209Z" fill="#79EF3B"/>
<path d="M319.114 131.309L259.915 120.744" stroke="#D3FFB9" stroke-width="2.5446" stroke-miterlimit="10"/>
<path d="M291.447 168.984L259.97 121.534" stroke="#D3FFB9" stroke-width="2.5446" stroke-miterlimit="10"/>
<path d="M307.618 83.3809L260.425 120.052" stroke="#D3FFB9" stroke-width="2.5446" stroke-miterlimit="10"/>
<path d="M248.653 187.233L272.206 51.7017" stroke="#D3FFB9" stroke-width="2.5446" stroke-miterlimit="10"/>
<path d="M165.139 450.617C177.903 414.613 217.435 395.771 253.44 408.533C289.444 421.295 308.283 460.832 295.521 496.836L165.139 450.617Z" fill="#2D9A00"/>
<path d="M171.662 452.925C183.572 419.323 219.495 401.394 251.899 412.884C284.305 424.368 300.914 460.923 289.002 494.525L171.662 452.925Z" fill="#D3FFB9"/>
<path d="M176.898 454.783C187.746 424.183 220.461 407.855 249.973 418.314C279.483 428.777 294.611 462.062 283.763 492.67L176.898 454.783Z" fill="#79EF3B"/>
<path d="M251.989 417.807L231.713 474.42" stroke="#D3FFB9" stroke-width="2.5446" stroke-miterlimit="10"/>
<path d="M284.531 451.354L232.505 474.494" stroke="#D3FFB9" stroke-width="2.5446" stroke-miterlimit="10"/>
<path d="M202.811 421.162L231.12 473.803" stroke="#D3FFB9" stroke-width="2.5446" stroke-miterlimit="10"/>
<path d="M295.403 496.592L165.684 450.809" stroke="#D3FFB9" stroke-width="2.5446" stroke-miterlimit="10"/>
<path d="M256.983 318.783C236.889 351.27 194.265 361.323 161.776 341.229C129.292 321.138 119.244 278.513 139.334 246.025L256.983 318.783Z" fill="#2D9A00"/>
<path d="M251.101 315.147C232.348 345.467 193.442 355.389 164.203 337.305C134.965 319.227 126.464 279.984 145.215 249.663L251.101 315.147Z" fill="#D3FFB9"/>
<path d="M246.373 312.223C229.297 339.836 193.865 348.873 167.236 332.407C140.61 315.936 132.867 280.203 149.942 252.585L246.373 312.223Z" fill="#79EF3B"/>
<path d="M165.159 332.475L196.949 281.433" stroke="#D3FFB9" stroke-width="2.5446" stroke-miterlimit="10"/>
<path d="M140.452 292.798L196.195 281.191" stroke="#D3FFB9" stroke-width="2.5446" stroke-miterlimit="10"/>
<path d="M213.93 339.596L197.404 282.164" stroke="#D3FFB9" stroke-width="2.5446" stroke-miterlimit="10"/>
<path d="M139.396 246.287L256.495 318.48" stroke="#D3FFB9" stroke-width="2.5446" stroke-miterlimit="10"/>
<g opacity="0.28">
<path d="M77.276 132.243H351.818C354.798 132.243 357.056 134.59 356.545 137.153L309.439 547.299C307.934 557.426 300.43 560.344 291.672 560.344H143.929C136.737 560.344 126.734 558.789 126.365 548.467L72.5481 137.125C72.0561 134.57 74.31 132.243 77.276 132.243Z" fill="#63B903"/>
<path d="M98.2695 331.192L126.671 548.27C127.037 558.592 137.044 560.147 144.236 560.147H291.98C300.733 560.147 308.239 557.229 309.743 547.1L334.541 331.192H98.2695Z" fill="#55A800"/>
<path d="M351.818 132.243H77.2759C74.3099 132.243 72.0559 134.57 72.5469 137.124L80.0989 194.848H349.918L356.545 137.153C357.056 134.59 354.798 132.243 351.818 132.243Z" fill="#9AD460"/>
</g>
<g opacity="0.55">
<path opacity="0.34" d="M241.11 545.309L189.014 502.831C183.763 498.546 182.98 490.817 187.261 485.565L231.41 431.424C235.692 426.172 243.421 425.387 248.671 429.668L300.766 472.15C306.017 476.431 306.802 484.16 302.52 489.412L258.372 543.553C254.088 548.805 246.361 549.59 241.11 545.309Z" fill="white"/>
<path opacity="0.41" d="M298.154 470.018L291.034 464.211C282.62 474.17 274.587 484.49 265.08 493.416C254.54 503.309 241.859 511.553 227.336 514.141C217.997 515.807 207.83 514.795 198.97 510.946L238.496 543.177C245.191 548.636 254.825 547.909 260.008 541.55L300.887 491.419C306.074 485.059 304.849 475.479 298.154 470.018Z" fill="white"/>
</g>
<g opacity="0.55">
<path opacity="0.34" d="M121.087 175.715L164.82 141.865C170.177 137.72 177.883 138.699 182.031 144.058L217.287 189.607C221.436 194.965 220.452 202.671 215.095 206.82L171.363 240.667C166.004 244.816 158.299 243.833 154.15 238.473L118.896 192.924C114.749 187.568 115.731 179.862 121.087 175.715Z" fill="white"/>
<path opacity="0.41" d="M172.425 239.847L178.743 234.957C171.96 225.862 164.794 217.025 159.098 207.213C152.785 196.335 148.293 183.965 148.953 171.143C149.38 162.904 152.235 154.484 157.24 147.732L122.148 174.896C116.205 179.496 114.926 187.802 119.295 193.449L153.745 237.959C158.119 243.605 166.481 244.449 172.425 239.847Z" fill="white"/>
</g>
<g opacity="0.55">
<path opacity="0.34" d="M182.509 361.106L200.175 386.801C204.014 392.385 202.6 400.024 197.017 403.861L169.996 422.437C164.413 426.277 156.774 424.861 152.937 419.279L135.27 393.58C131.428 387.996 132.845 380.359 138.43 376.519L165.45 357.943C171.032 354.106 178.67 355.522 182.509 361.106Z" fill="white"/>
<path opacity="0.41" d="M133.701 391.299L136.862 395.899C143.466 391.526 149.902 386.881 156.967 383.297C164.794 379.326 173.59 376.682 182.496 377.647C188.224 378.268 193.977 380.59 198.486 384.344L180.938 358.823C177.967 354.495 172.23 353.28 168.125 356.102L135.753 378.36C131.648 381.182 130.73 386.977 133.701 391.299Z" fill="white"/>
</g>
<g opacity="0.55">
<path opacity="0.34" d="M321.152 278.16L282.534 320.819C277.986 325.841 270.228 326.227 265.202 321.68L220.793 281.476C215.768 276.93 215.383 269.171 219.929 264.149L258.549 221.487C263.096 216.463 270.855 216.077 275.878 220.626L320.289 260.83C325.31 265.377 325.698 273.134 321.152 278.16Z" fill="white"/>
<path opacity="0.41" d="M257.389 222.766L251.874 228.859C260.382 236.836 269.232 244.489 276.766 253.392C285.12 263.265 291.897 274.974 293.538 288.069C294.596 296.487 293.222 305.524 289.376 313.258L319.993 279.438C325.18 273.708 324.974 265.07 319.532 260.145L276.632 221.311C271.192 216.384 262.577 217.035 257.389 222.766Z" fill="white"/>
</g>
<g opacity="0.55">
<path opacity="0.34" d="M303.581 398.082L279.311 395.463C272.576 394.735 267.705 388.684 268.431 381.947L271.203 356.283C271.931 349.545 277.98 344.672 284.719 345.402L308.983 348.021C315.72 348.748 320.594 354.8 319.868 361.537L317.097 387.203C316.367 393.942 310.317 398.811 303.581 398.082Z" fill="white"/>
<path opacity="0.41" d="M312.887 348.446L308.015 347.919C307.147 354.817 306.555 361.769 304.899 368.522C303.065 376.012 299.789 383.385 294.048 388.766C290.356 392.229 285.515 394.731 280.434 395.584L307.482 398.506C312.065 399 316.16 395.873 316.628 391.522L320.332 357.215C320.803 352.869 317.468 348.936 312.887 348.446Z" fill="white"/>
</g>
<g opacity="0.57">
<path d="M259.508 362.303C259.508 362.303 259.462 362.625 259.377 363.229C259.348 363.532 259.26 363.897 259.149 364.327C259.06 364.762 258.901 365.243 258.7 365.778C258.292 366.835 257.689 368.102 256.698 369.35C255.719 370.602 254.377 371.846 252.666 372.831C250.95 373.798 248.853 374.462 246.568 374.567C245.994 374.575 245.428 374.573 244.822 374.522C244.251 374.444 243.682 374.409 243.083 374.247C241.877 374.011 240.736 373.546 239.613 372.972C238.493 372.388 237.467 371.601 236.513 370.712C235.58 369.796 234.791 368.722 234.125 367.565C233.478 366.393 233.02 365.112 232.729 363.788C232.46 362.442 232.404 361.118 232.503 359.696C232.65 358.45 232.977 357.02 233.49 355.784C234.027 354.54 234.719 353.368 235.575 352.339C236.448 351.327 237.428 350.425 238.513 349.698C239.617 349.005 240.775 348.427 241.984 348.063C244.39 347.319 246.914 347.295 249.107 347.807C251.356 348.348 253.272 349.393 254.779 350.668C256.273 351.959 257.356 353.435 258.08 354.85C258.816 356.264 259.167 357.623 259.368 358.739C259.465 359.302 259.531 359.803 259.535 360.249C259.564 360.69 259.58 361.065 259.552 361.37C259.523 361.979 259.508 362.303 259.508 362.303ZM259.508 362.303C259.508 362.303 259.521 361.977 259.545 361.369C259.57 361.064 259.551 360.689 259.519 360.248C259.51 359.805 259.439 359.303 259.337 358.744C259.129 357.633 258.767 356.277 257.988 354.898C257.229 353.519 256.132 352.074 254.601 350.888C253.081 349.708 251.139 348.78 249.015 348.37C246.842 347.966 244.492 348.112 242.269 348.907C240.05 349.708 238.013 351.161 236.483 353.073C235.731 354.042 235.121 355.118 234.635 356.253C234.174 357.421 233.919 358.542 233.76 359.878C233.675 361.05 233.704 362.343 233.941 363.542C234.204 364.747 234.594 365.921 235.151 367.013C236.293 369.181 238.016 370.995 240.045 372.201C241.062 372.781 242.144 373.277 243.234 373.543C243.761 373.717 244.354 373.785 244.915 373.887C245.446 373.953 246.02 373.985 246.56 374.002C248.749 374 250.812 373.453 252.534 372.584C254.262 371.709 255.613 370.496 256.619 369.285C257.645 368.078 258.254 366.816 258.67 365.764C258.875 365.235 259.04 364.754 259.132 364.323C259.247 363.895 259.337 363.532 259.368 363.227C259.458 362.623 259.508 362.303 259.508 362.303Z" fill="white"/>
<path d="M305.139 415.936C305.139 415.936 305.109 416.155 305.051 416.567C305.032 416.774 304.974 417.024 304.899 417.317C304.839 417.614 304.731 417.942 304.594 418.307C304.318 419.028 303.908 419.893 303.239 420.752C302.577 421.611 301.663 422.465 300.499 423.152C299.33 423.828 297.895 424.299 296.322 424.386C295.926 424.398 295.541 424.398 295.115 424.368C294.724 424.317 294.341 424.3 293.92 424.192C293.08 424.036 292.293 423.723 291.509 423.333C290.731 422.937 290.012 422.399 289.344 421.788C288.692 421.159 288.14 420.415 287.672 419.614C286.75 417.993 286.37 416.053 286.524 414.165C286.63 413.267 286.858 412.288 287.218 411.421C287.592 410.554 288.074 409.737 288.676 409.028C289.286 408.327 289.97 407.704 290.728 407.206C291.499 406.731 292.305 406.339 293.146 406.095C294.815 405.595 296.562 405.601 298.061 405.966C299.614 406.355 300.918 407.085 301.945 407.97C302.959 408.865 303.693 409.876 304.181 410.847C304.677 411.816 304.915 412.742 305.051 413.503C305.116 413.886 305.161 414.23 305.164 414.532C305.183 414.833 305.192 415.091 305.172 415.298C305.151 415.713 305.139 415.936 305.139 415.936ZM305.139 415.936C305.139 415.936 305.149 415.713 305.163 415.299C305.181 415.092 305.167 414.836 305.143 414.535C305.136 414.232 305.086 413.891 305.016 413.51C304.872 412.754 304.625 411.83 304.087 410.895C303.564 409.961 302.813 408.981 301.763 408.19C300.724 407.403 299.396 406.79 297.967 406.53C296.488 406.274 294.913 406.391 293.426 406.942C291.945 407.499 290.595 408.485 289.582 409.766C289.086 410.416 288.684 411.135 288.362 411.891C288.057 412.662 287.89 413.424 287.788 414.285C287.725 415.107 287.745 415.937 287.899 416.746C288.074 417.549 288.331 418.332 288.696 419.064C289.451 420.513 290.589 421.74 291.94 422.564C292.616 422.959 293.344 423.304 294.07 423.488C294.418 423.609 294.826 423.66 295.207 423.732C295.557 423.781 295.948 423.808 296.311 423.822C297.789 423.838 299.189 423.484 300.364 422.906C301.544 422.328 302.468 421.506 303.158 420.687C303.863 419.871 304.278 419.009 304.562 418.294C304.703 417.933 304.816 417.605 304.879 417.31C304.957 417.021 305.019 416.771 305.04 416.564C305.106 416.154 305.139 415.936 305.139 415.936Z" fill="white"/>
<path d="M298.585 312.497C298.585 312.497 298.555 312.657 298.499 312.955C298.415 313.247 298.428 313.712 298.169 314.227C298.056 314.487 297.957 314.792 297.798 315.095C297.612 315.385 297.412 315.699 297.197 316.034C296.95 316.344 296.639 316.638 296.335 316.97C295.991 317.255 295.6 317.527 295.198 317.821C294.323 318.274 293.29 318.718 292.119 318.741C291.817 318.745 291.557 318.794 291.205 318.759C290.922 318.716 290.635 318.673 290.345 318.629C290.058 318.608 289.758 318.504 289.45 318.385C289.15 318.266 288.818 318.177 288.533 318.019C287.372 317.422 286.361 316.458 285.641 315.264C285.35 314.634 285.019 314.003 284.923 313.294C284.847 312.948 284.757 312.603 284.777 312.246L284.768 311.713L284.765 311.446L284.764 311.313L284.763 311.247V311.214V311.197C284.768 311.163 284.753 311.25 284.773 311.117C284.935 309.919 285.498 308.363 286.394 307.333C287.327 306.296 288.5 305.539 289.755 305.172C291.012 304.878 292.296 304.789 293.411 305.142C293.953 305.228 294.482 305.515 294.978 305.745C295.475 305.979 295.853 306.353 296.264 306.629C296.603 306.994 296.936 307.335 297.219 307.68C297.455 308.063 297.705 308.41 297.889 308.762C298.035 309.132 298.174 309.478 298.301 309.798C298.399 310.126 298.439 310.443 298.501 310.719C298.657 311.273 298.557 311.73 298.584 312.032C298.586 312.335 298.585 312.497 298.585 312.497ZM298.585 312.497C298.585 312.497 298.583 312.334 298.578 312.03C298.545 311.729 298.638 311.273 298.471 310.723C298.404 310.449 298.359 310.135 298.255 309.812C298.114 309.502 297.962 309.167 297.8 308.809C297.6 308.473 297.335 308.146 297.087 307.787C296.798 307.46 296.437 307.165 296.087 306.847C295.267 306.325 294.414 305.838 293.302 305.701C292.245 305.464 291.106 305.67 290.039 306.017C288.98 306.448 288.051 307.178 287.304 308.07C286.613 309.065 286.211 309.983 286.022 311.364C286.04 311.241 286.027 311.338 286.031 311.314V311.328V311.356V311.411L286.032 311.521V311.741L286.03 312.181C286.001 312.478 286.077 312.763 286.135 313.051C286.202 313.64 286.467 314.166 286.668 314.715C287.233 315.732 288.006 316.629 288.967 317.25C289.199 317.409 289.456 317.494 289.698 317.623C289.937 317.749 290.184 317.872 290.485 317.922C290.77 317.992 291.051 318.061 291.33 318.129C291.543 318.171 291.854 318.158 292.108 318.176C293.186 318.257 294.183 317.931 295.065 317.575C295.469 317.33 295.878 317.105 296.223 316.84C296.535 316.534 296.857 316.262 297.117 315.97C297.345 315.649 297.557 315.348 297.754 315.07C297.917 314.773 298.02 314.474 298.138 314.217C298.405 313.71 298.402 313.242 298.491 312.953C298.552 312.656 298.585 312.497 298.585 312.497Z" fill="white"/>
<path d="M238.209 255.922C238.209 255.922 238.001 255.999 237.611 256.144C237.42 256.226 237.173 256.292 236.88 256.365C236.59 256.453 236.249 256.514 235.863 256.567C235.096 256.666 234.141 256.716 233.068 256.534C231.996 256.36 230.811 255.96 229.653 255.262C228.505 254.554 227.408 253.514 226.584 252.172C226.388 251.827 226.203 251.49 226.029 251.101C225.886 250.733 225.72 250.387 225.617 249.965C225.356 249.151 225.257 248.309 225.228 247.435C225.207 246.561 225.341 245.674 225.562 244.797C225.807 243.924 226.2 243.086 226.683 242.293C227.672 240.712 229.199 239.458 230.934 238.696C231.776 238.363 232.745 238.099 233.679 238.005C234.619 237.924 235.566 237.962 236.477 238.153C237.382 238.359 238.256 238.664 239.054 239.094C239.837 239.548 240.567 240.071 241.179 240.695C242.411 241.926 243.237 243.467 243.625 244.96C244.021 246.511 243.994 248.006 243.702 249.328C243.394 250.645 242.853 251.772 242.231 252.662C241.613 253.558 240.911 254.208 240.305 254.689C239.998 254.928 239.717 255.13 239.451 255.276C239.195 255.435 238.974 255.566 238.782 255.647C238.41 255.827 238.209 255.922 238.209 255.922ZM238.209 255.922C238.209 255.922 238.408 255.824 238.78 255.641C238.971 255.558 239.189 255.424 239.443 255.262C239.706 255.113 239.983 254.908 240.286 254.665C240.883 254.18 241.578 253.524 242.146 252.606C242.72 251.703 243.226 250.575 243.424 249.276C243.624 247.988 243.536 246.528 243.086 245.147C242.61 243.725 241.76 242.393 240.569 241.346C239.376 240.306 237.867 239.587 236.258 239.303C235.45 239.175 234.626 239.161 233.809 239.236C232.985 239.335 232.235 239.549 231.428 239.867C230.674 240.202 229.953 240.614 229.315 241.134C228.692 241.669 228.124 242.267 227.653 242.935C226.735 244.287 226.195 245.87 226.11 247.451C226.083 248.234 226.126 249.038 226.307 249.764C226.366 250.128 226.514 250.511 226.63 250.882C226.754 251.213 226.916 251.57 227.075 251.896C227.763 253.204 228.739 254.27 229.804 255.029C230.874 255.793 232.036 256.215 233.083 256.433C234.137 256.666 235.092 256.624 235.856 256.534C236.241 256.487 236.582 256.431 236.872 256.346C237.165 256.278 237.413 256.215 237.606 256.135C238 255.996 238.209 255.922 238.209 255.922Z" fill="white"/>
<path d="M205.742 173.042C205.742 173.042 205.588 173.091 205.297 173.184C205.001 173.248 204.598 173.48 204.022 173.497C203.739 173.52 203.424 173.578 203.082 173.582C202.739 173.556 202.367 173.529 201.97 173.499C201.579 173.43 201.174 173.295 200.738 173.185C200.323 173.019 199.899 172.802 199.449 172.589C198.635 172.034 197.754 171.336 197.178 170.317C197.031 170.053 196.865 169.848 196.728 169.521C196.631 169.251 196.534 168.978 196.434 168.702C196.316 168.439 196.264 168.127 196.224 167.799C196.186 167.478 196.108 167.144 196.11 166.818C196.086 165.512 196.453 164.165 197.163 162.965C197.916 161.781 199.06 160.872 200.342 160.255C201.104 160.042 201.558 159.812 202.373 159.773C203.122 159.644 203.811 159.772 204.501 159.861C205.857 160.189 207.081 160.862 207.999 161.793C208.855 162.759 209.543 163.848 209.762 164.997C209.945 165.515 209.943 166.117 209.976 166.662C210.007 167.211 209.857 167.721 209.809 168.214C209.65 168.686 209.507 169.14 209.338 169.554C209.112 169.944 208.926 170.328 208.704 170.658C208.448 170.963 208.209 171.249 207.987 171.512C207.746 171.755 207.485 171.939 207.271 172.126C206.858 172.526 206.409 172.656 206.156 172.823C205.884 172.965 205.742 173.042 205.742 173.042ZM205.742 173.042C205.742 173.042 205.884 172.963 206.149 172.814C206.399 172.642 206.843 172.506 207.248 172.099C207.458 171.909 207.713 171.721 207.947 171.477C208.153 171.206 208.376 170.913 208.614 170.599C208.814 170.263 208.977 169.875 209.176 169.486C209.324 169.076 209.415 168.619 209.528 168.16C209.598 167.19 209.623 166.208 209.215 165.164C208.921 164.122 208.199 163.216 207.388 162.442C206.506 161.714 205.422 161.243 204.283 161.009C203.7 160.982 203.107 160.887 202.569 160.994C202.074 160.967 201.323 161.298 200.836 161.425C199.762 161.917 198.836 162.667 198.133 163.606C197.506 164.587 197.084 165.693 196.993 166.834C196.965 167.114 197.011 167.38 197.012 167.655C197.014 167.925 197.025 168.201 197.123 168.49C197.196 168.774 197.269 169.054 197.341 169.332C197.407 169.537 197.565 169.807 197.67 170.039C198.11 171.025 198.871 171.748 199.603 172.355C200.011 172.594 200.403 172.847 200.801 173.025C201.218 173.154 201.61 173.309 201.99 173.398C202.381 173.446 202.746 173.49 203.084 173.531C203.423 173.533 203.734 173.482 204.017 173.464C204.59 173.459 205 173.234 205.297 173.175C205.586 173.089 205.742 173.042 205.742 173.042Z" fill="white"/>
<path d="M315.479 213.746C315.479 213.746 315.395 213.773 315.237 213.825C315.076 213.861 314.856 213.989 314.542 214.001C314.388 214.015 314.216 214.048 314.028 214.052C313.839 214.041 313.634 214.03 313.417 214.018C313.202 213.984 312.978 213.915 312.734 213.859C312.505 213.772 312.266 213.659 312.012 213.548C311.554 213.252 311.048 212.878 310.698 212.318C310.608 212.168 310.515 212.07 310.423 211.865C310.364 211.72 310.304 211.573 310.243 211.425C310.114 211.15 310.06 210.714 310.016 210.344C309.982 209.593 310.175 208.805 310.579 208.1C311.001 207.399 311.676 206.868 312.421 206.502C312.899 206.367 313.08 206.264 313.598 206.228C314.055 206.153 314.452 206.231 314.853 206.293C315.641 206.496 316.34 206.906 316.855 207.456C317.334 208.027 317.696 208.668 317.793 209.32C317.877 209.601 317.869 209.953 317.874 210.261C317.881 210.571 317.791 210.852 317.756 211.124C317.659 211.384 317.573 211.633 317.475 211.859C317.346 212.072 317.239 212.281 317.113 212.459C316.969 212.624 316.835 212.777 316.711 212.92C316.577 213.051 316.435 213.152 316.317 213.253C316.089 213.47 315.842 213.539 315.705 213.629C315.557 213.705 315.479 213.746 315.479 213.746ZM315.479 213.746C315.479 213.746 315.556 213.702 315.701 213.62C315.836 213.525 316.078 213.449 316.296 213.225C316.409 213.121 316.547 213.017 316.674 212.883C316.783 212.734 316.901 212.572 317.027 212.399C317.132 212.214 317.215 212.002 317.317 211.79C317.394 211.567 317.432 211.318 317.486 211.07C317.507 210.537 317.504 210.043 317.255 209.485C317.076 208.941 316.665 208.496 316.236 208.117C315.767 207.763 315.21 207.546 314.636 207.442C314.342 207.441 314.04 207.397 313.795 207.45C313.598 207.42 313.121 207.623 312.917 207.673C312.379 207.913 311.922 208.286 311.55 208.742C311.226 209.226 310.987 209.777 310.917 210.36C310.897 210.502 310.914 210.63 310.904 210.77C310.895 210.904 310.89 211.046 310.939 211.21C310.972 211.367 311.004 211.522 311.037 211.676C311.056 211.762 311.14 211.923 311.185 212.044C311.388 212.58 311.778 212.982 312.163 213.319C312.377 213.454 312.584 213.598 312.797 213.699C313.02 213.773 313.231 213.863 313.436 213.916C313.648 213.946 313.846 213.975 314.029 214.001C314.214 214.003 314.383 213.977 314.537 213.969C314.849 213.969 315.074 213.848 315.236 213.817C315.394 213.77 315.479 213.746 315.479 213.746Z" fill="white"/>
<path d="M171.145 483.565C171.145 483.565 171.115 483.784 171.057 484.196C171.038 484.403 170.98 484.653 170.905 484.946C170.845 485.243 170.737 485.571 170.601 485.936C170.324 486.659 169.915 487.522 169.246 488.381C168.584 489.242 167.67 490.096 166.507 490.783C165.339 491.459 163.903 491.931 162.33 492.019C161.934 492.029 161.549 492.031 161.123 491.999C160.732 491.95 160.349 491.933 159.928 491.823C159.088 491.667 158.3 491.354 157.516 490.966C156.738 490.57 156.02 490.032 155.352 489.421C154.7 488.792 154.148 488.048 153.68 487.245C152.757 485.624 152.377 483.686 152.531 481.798C152.637 480.898 152.865 479.921 153.225 479.052C153.6 478.187 154.081 477.37 154.683 476.659C155.293 475.96 155.976 475.335 156.734 474.837C157.505 474.362 158.311 473.968 159.151 473.726C160.82 473.224 162.568 473.23 164.067 473.595C165.62 473.984 166.923 474.714 167.949 475.599C168.964 476.494 169.699 477.505 170.188 478.474C170.684 479.445 170.921 480.37 171.058 481.132C171.122 481.515 171.167 481.859 171.169 482.161C171.188 482.462 171.198 482.72 171.179 482.927C171.157 483.342 171.145 483.565 171.145 483.565ZM171.145 483.565C171.145 483.565 171.154 483.342 171.169 482.928C171.187 482.721 171.172 482.465 171.149 482.164C171.142 481.861 171.093 481.519 171.023 481.139C170.879 480.383 170.632 479.459 170.093 478.524C169.57 477.59 168.818 476.61 167.768 475.819C166.729 475.032 165.401 474.419 163.972 474.161C162.494 473.903 160.918 474.02 159.432 474.571C157.952 475.13 156.602 476.116 155.589 477.399C155.093 478.047 154.69 478.766 154.368 479.522C154.063 480.295 153.896 481.057 153.794 481.919C153.73 482.741 153.752 483.571 153.905 484.38C154.08 485.183 154.338 485.966 154.703 486.698C155.457 488.147 156.595 489.374 157.947 490.198C158.623 490.592 159.351 490.936 160.077 491.12C160.425 491.243 160.833 491.292 161.214 491.366C161.565 491.413 161.955 491.44 162.318 491.456C163.796 491.47 165.197 491.116 166.371 490.538C167.552 489.96 168.474 489.136 169.164 488.317C169.868 487.501 170.284 486.639 170.568 485.924C170.709 485.563 170.821 485.235 170.884 484.94C170.962 484.651 171.025 484.401 171.046 484.194C171.112 483.783 171.145 483.565 171.145 483.565Z" fill="white"/>
</g>
</svg>
