<svg width="301" height="444" viewBox="0 0 301 444" fill="none" xmlns="http://www.w3.org/2000/svg">
<path d="M292.993 120.699H7.65039C3.24939 120.699 -0.244576 124.652 0.0134238 129.344L18.1414 235.059C18.3794 239.379 21.7284 242.753 25.7804 242.753H30.0333L63.5643 440.96C63.9473 442.472 65.9264 443.583 68.2454 443.583H240.071C242.377 443.583 244.348 442.484 244.746 440.982L274.097 242.753H274.339C278.391 242.753 281.739 239.379 281.975 235.059L300.63 129.344C300.885 124.652 297.393 120.699 292.993 120.699Z" fill="#B5F3EF"/>
<path d="M292.994 120.699H149.008V443.584H240.072C242.378 443.584 244.349 442.485 244.747 440.983L274.098 242.754H274.34C278.392 242.754 281.74 239.38 281.976 235.06L300.631 129.345C300.886 124.652 297.394 120.699 292.994 120.699Z" fill="#83EBE3"/>
<path d="M204.844 167.206L181.808 138.935C159.087 111.052 151.53 74.8626 161.062 39.6096L166.378 19.9526L180.591 34.3516C206.077 60.1666 217.174 95.4046 211.052 131.06L204.844 167.206Z" fill="#2D9A00"/>
<path opacity="0.37" d="M166.378 19.9517L166.002 21.3417L204.687 167.013L204.844 167.206L211.052 131.06C217.174 95.4047 206.077 60.1667 180.591 34.3517L166.378 19.9517Z" fill="#43D700"/>
<path d="M178.292 173.441L180.279 129.596C182.242 86.3528 200.989 48.0028 231.739 24.3318L248.887 11.1338L249.708 35.4738C251.18 79.1178 235.69 119.49 207.188 146.278L178.292 173.441Z" fill="#2D9A00"/>
<path opacity="0.37" d="M248.888 11.1348L247.677 12.0678L178.307 173.141L178.292 173.442L207.189 146.279C235.691 119.491 251.18 79.1198 249.709 35.4748L248.888 11.1348Z" fill="#43D700"/>
<path d="M21.3361 121.575H280.34C283.15 121.575 285.279 123.168 284.797 124.908L244.108 388.798C243.73 390.157 238.192 412.358 221.757 412.358H86.0091C70.2301 412.358 65.0101 391.852 64.6441 390.479L16.8741 124.888C16.4111 123.154 18.5371 121.575 21.3361 121.575Z" fill="white"/>
<path d="M91.5489 36.9282C48.1029 50.7732 24.105 97.2192 37.952 140.668C51.797 184.114 98.242 208.108 141.688 194.264L91.5489 36.9282Z" fill="#FFCB00"/>
<path opacity="0.56" d="M94.0574 44.7954C53.5055 57.7184 30.7345 99.8954 43.1965 138.997C55.6565 178.099 98.6314 199.322 139.183 186.399L94.0574 44.7954Z" fill="white"/>
<path d="M96.0704 51.1182C59.1394 62.8852 38.4024 101.295 49.7514 136.905C61.1004 172.517 100.237 191.847 137.166 180.079L96.0704 51.1182Z" fill="#FFCB00"/>
<path opacity="0.56" d="M49.0664 139.289L113.808 118.03" stroke="white" stroke-width="2.5747" stroke-miterlimit="10"/>
<path opacity="0.56" d="M87.8477 179.409L114.972 119.034" stroke="white" stroke-width="2.5747" stroke-miterlimit="10"/>
<path opacity="0.56" d="M54.9619 80.7441L113.729 116.942" stroke="white" stroke-width="2.5747" stroke-miterlimit="10"/>
<path opacity="0.56" d="M141.401 194.116L91.7588 37.5811" stroke="white" stroke-width="2.5747" stroke-miterlimit="10"/>
<path d="M139.213 194.959C182.66 181.115 206.658 134.669 192.814 91.2235C178.966 47.7785 132.52 23.7804 89.0742 37.6234L139.213 194.959Z" fill="#FFCB00"/>
<path opacity="0.56" d="M136.706 187.094C177.258 174.17 200.027 131.996 187.566 92.8962C175.106 53.7912 132.131 32.5692 91.5801 45.4922L136.706 187.094Z" fill="white"/>
<path d="M134.692 180.772C171.623 169.004 192.362 130.595 181.013 94.9813C169.663 59.3723 130.525 40.0413 93.5957 51.8143L134.692 180.772Z" fill="#FFCB00"/>
<path opacity="0.56" d="M181.696 92.5972L116.35 116.969" stroke="white" stroke-width="2.5747" stroke-miterlimit="10"/>
<path opacity="0.56" d="M142.914 52.4844L115.9 116.784" stroke="white" stroke-width="2.5747" stroke-miterlimit="10"/>
<path opacity="0.56" d="M175.801 151.142L116.771 119.773" stroke="white" stroke-width="2.5747" stroke-miterlimit="10"/>
<path opacity="0.56" d="M89.3613 37.7744L139.003 194.305" stroke="white" stroke-width="2.5747" stroke-miterlimit="10"/>
<path d="M285.561 2.19763L271.289 0L210.167 396.934L224.438 399.132L285.561 2.19763Z" fill="#2B2537"/>
<path d="M101.785 344.778L100.334 311.527C98.9034 278.729 114.538 248.178 143.251 227.672L159.261 216.237L161.981 234.531C166.854 267.335 154.615 299.126 128.384 321.795L101.785 344.778Z" fill="#2D9A00"/>
<path opacity="0.37" d="M159.261 216.237L158.129 217.046L101.775 344.546L101.785 344.779L128.384 321.796C154.614 299.127 166.854 267.336 161.981 234.532L159.261 216.237Z" fill="#43D700"/>
<path d="M229.687 383.125L211.373 359.786C193.313 336.767 186.902 309.556 193.775 285.098L197.608 271.458L208.86 283.646C229.04 305.498 238.185 332.447 233.964 357.613L229.687 383.125Z" fill="#2D9A00"/>
<path opacity="0.37" d="M197.608 271.458L197.337 272.424L229.557 382.966L229.687 383.125L233.964 357.612C238.185 332.446 229.039 305.498 208.86 283.645L197.608 271.458Z" fill="#43D700"/>
<g opacity="0.76">
<path d="M21.3361 121.575H280.34C283.15 121.575 285.279 123.168 284.797 124.908L244.108 388.798C243.73 390.157 238.192 412.358 221.757 412.358H86.0091C70.2301 412.358 65.0101 391.852 64.6441 390.479L16.8741 124.888C16.4111 123.154 18.5371 121.575 21.3361 121.575Z" fill="#00AF9E"/>
<path opacity="0.55" d="M41.501 261.816L64.644 390.479C65.01 391.852 70.23 412.358 86.009 412.358H221.757C238.192 412.358 243.73 390.157 244.108 388.798L263.687 261.817L41.501 261.816Z" fill="#FCAF00"/>
<path opacity="0.47" d="M54.9814 336.757L64.6434 390.48C65.0094 391.853 70.2295 412.359 86.0085 412.359H221.756C238.191 412.359 243.73 390.158 244.108 388.799L252.13 336.758H54.9814V336.757Z" fill="#FCAF00"/>
<path opacity="0.72" d="M62.5479 378.83L64.6439 390.479C65.0099 391.852 70.2299 412.358 86.0089 412.358H221.757C238.192 412.358 243.73 390.157 244.108 388.798L245.645 378.83H62.5479Z" fill="#FCAF00"/>
</g>
<g opacity="0.83">
<path opacity="0.34" d="M72.5056 340.141L103.426 309.598C108.304 304.78 116.164 304.829 120.983 309.707L155.522 344.677C160.34 349.554 160.293 357.415 155.413 362.232L124.494 392.774C119.615 397.595 111.755 397.545 106.936 392.666L72.3966 357.695C67.5786 352.818 67.6266 344.959 72.5056 340.141Z" fill="white"/>
<path opacity="0.41" d="M123.942 393.318L128.806 388.513C121.747 381.125 114.391 373.99 108.187 365.881C101.308 356.892 95.8254 346.443 94.7584 335.177C94.0714 327.93 95.4773 320.332 98.9583 314.011L71.9533 340.683C67.3793 345.2 67.3323 352.573 71.8513 357.148L107.475 393.215C111.995 397.791 119.368 397.836 123.942 393.318Z" fill="white"/>
</g>
<g opacity="0.7">
<path opacity="0.34" d="M45.2417 175.929L95.9998 134.995C101.337 130.692 109.154 131.531 113.456 136.866L154.859 188.204C159.162 193.541 158.324 201.355 152.989 205.66L102.23 246.595C96.8917 250.9 89.0777 250.063 84.7727 244.724L43.3707 193.388C39.0677 188.052 39.9047 180.235 45.2417 175.929Z" fill="white"/>
<path opacity="0.41" d="M104.515 244.756L111.532 239.096C103.838 229.197 95.7182 219.591 89.2342 208.852C82.0462 196.947 76.8822 183.325 77.4762 169.022C77.8572 159.83 80.9583 150.36 86.4833 142.676L47.5272 174.09C40.9292 179.41 39.5933 188.703 44.5463 194.845L83.6002 243.27C88.5512 249.412 97.9153 250.076 104.515 244.756Z" fill="white"/>
</g>
<g opacity="0.55">
<path opacity="0.34" d="M201.524 296.345L156.332 257.896C151.109 253.45 150.478 245.616 154.922 240.397L194.943 193.359C199.386 188.136 207.219 187.505 212.442 191.949L257.634 230.4C262.853 234.844 263.488 242.678 259.044 247.899L219.022 294.935C214.581 300.156 206.746 300.789 201.524 296.345Z" fill="white"/>
<path opacity="0.41" d="M256.161 229.145L249.743 223.684C241.835 232.655 234.271 241.963 225.381 249.968C215.529 258.839 203.741 266.152 190.371 268.251C181.774 269.598 172.472 268.474 164.422 264.775L200.05 295.092C206.084 300.226 214.933 299.743 219.809 294.009L258.261 248.821C263.137 243.09 262.194 234.28 256.161 229.145Z" fill="white"/>
</g>
<g opacity="0.5">
<path d="M160.402 334.567C160.402 334.567 160.356 334.892 160.269 335.504C160.24 335.812 160.152 336.182 160.04 336.615C159.951 337.054 159.789 337.543 159.586 338.083C159.173 339.153 158.565 340.435 157.563 341.699C156.574 342.966 155.215 344.225 153.484 345.221C151.749 346.2 149.626 346.873 147.315 346.981C146.734 346.99 146.163 346.986 145.548 346.936C144.97 346.857 144.395 346.822 143.787 346.658C142.567 346.419 141.412 345.948 140.275 345.368C139.142 344.776 138.103 343.979 137.139 343.08C136.196 342.154 135.398 341.068 134.723 339.897C134.069 338.712 133.603 337.416 133.308 336.076C133.035 334.729 132.98 333.344 133.073 331.969C133.231 330.644 133.556 329.244 134.077 327.979C134.621 326.72 135.318 325.533 136.185 324.492C137.068 323.469 138.058 322.554 139.158 321.82C140.274 321.118 141.445 320.532 142.67 320.165C145.104 319.411 147.657 319.389 149.876 319.906C152.151 320.451 154.092 321.509 155.617 322.799C157.129 324.104 158.224 325.598 158.957 327.028C159.703 328.459 160.059 329.833 160.263 330.962C160.361 331.53 160.428 332.04 160.433 332.489C160.461 332.935 160.478 333.315 160.449 333.624C160.418 334.239 160.402 334.567 160.402 334.567ZM160.402 334.567C160.402 334.567 160.415 334.238 160.439 333.623C160.465 333.314 160.446 332.935 160.413 332.489C160.404 332.041 160.332 331.533 160.229 330.966C160.017 329.843 159.653 328.472 158.864 327.075C158.096 325.68 156.984 324.218 155.435 323.019C153.896 321.827 151.932 320.887 149.783 320.473C147.584 320.067 145.205 320.211 142.956 321.017C140.712 321.829 138.651 323.3 137.104 325.236C136.343 326.215 135.726 327.304 135.236 328.452C134.77 329.621 134.507 330.803 134.353 332.09C134.26 333.34 134.296 334.6 134.533 335.828C134.801 337.047 135.197 338.235 135.76 339.34C136.916 341.532 138.661 343.369 140.713 344.588C141.741 345.174 142.836 345.677 143.94 345.945C144.474 346.123 145.074 346.19 145.641 346.293C146.178 346.361 146.757 346.394 147.304 346.41C149.52 346.407 151.607 345.853 153.348 344.972C155.096 344.087 156.463 342.859 157.48 341.634C158.518 340.411 159.134 339.134 159.554 338.07C159.761 337.534 159.928 337.048 160.021 336.61C160.137 336.178 160.229 335.81 160.26 335.502C160.353 334.892 160.402 334.567 160.402 334.567Z" fill="white"/>
<path d="M194.739 380.949C194.739 380.949 194.708 381.171 194.65 381.588C194.63 381.798 194.571 382.05 194.496 382.346C194.435 382.647 194.326 382.98 194.188 383.348C193.908 384.079 193.495 384.954 192.817 385.824C192.147 386.694 191.222 387.557 190.045 388.255C188.862 388.938 187.409 389.416 185.819 389.506C185.418 389.516 185.029 389.518 184.597 389.486C184.201 389.436 183.814 389.419 183.388 389.309C182.538 389.151 181.74 388.834 180.948 388.441C180.159 388.039 179.433 387.495 178.759 386.877C178.098 386.24 177.54 385.487 177.067 384.677C176.134 383.036 175.75 381.074 175.904 379.163C176.011 378.253 176.242 377.263 176.607 376.386C176.985 375.51 177.472 374.684 178.081 373.965C178.699 373.257 179.389 372.624 180.156 372.12C180.936 371.641 181.752 371.241 182.602 370.996C184.29 370.489 186.059 370.494 187.576 370.864C189.147 371.257 190.467 371.997 191.505 372.891C192.53 373.797 193.275 374.821 193.77 375.801C194.272 376.781 194.512 377.719 194.651 378.489C194.716 378.878 194.761 379.225 194.764 379.531C194.783 379.836 194.794 380.094 194.774 380.305C194.751 380.725 194.739 380.949 194.739 380.949ZM194.739 380.949C194.739 380.949 194.748 380.725 194.763 380.304C194.781 380.094 194.766 379.835 194.743 379.532C194.736 379.227 194.686 378.881 194.616 378.495C194.47 377.73 194.22 376.796 193.675 375.849C193.146 374.905 192.385 373.911 191.322 373.112C190.27 372.315 188.928 371.694 187.482 371.432C185.986 371.173 184.391 371.291 182.887 371.849C181.389 372.412 180.024 373.412 178.998 374.708C178.497 375.366 178.089 376.094 177.764 376.858C177.455 377.639 177.287 378.411 177.183 379.282C177.12 380.114 177.141 380.954 177.296 381.772C177.474 382.585 177.734 383.378 178.104 384.118C178.867 385.585 180.018 386.825 181.385 387.66C182.07 388.059 182.806 388.408 183.54 388.594C183.893 388.717 184.306 388.768 184.69 388.842C185.044 388.89 185.44 388.918 185.807 388.932C187.302 388.947 188.72 388.589 189.909 388.004C191.103 387.418 192.037 386.585 192.734 385.757C193.447 384.93 193.869 384.06 194.156 383.335C194.298 382.97 194.412 382.639 194.476 382.341C194.555 382.047 194.618 381.795 194.64 381.586C194.705 381.171 194.739 380.949 194.739 380.949Z" fill="white"/>
<path d="M181.538 290.748C181.538 290.748 181.508 290.909 181.451 291.212C181.366 291.507 181.379 291.979 181.118 292.499C181.003 292.763 180.903 293.07 180.742 293.377C180.554 293.671 180.351 293.988 180.134 294.328C179.884 294.642 179.57 294.939 179.261 295.274C178.914 295.563 178.517 295.837 178.111 296.134C177.225 296.593 176.18 297.041 174.995 297.064C174.69 297.068 174.427 297.116 174.071 297.082C173.785 297.039 173.494 296.995 173.201 296.951C172.91 296.93 172.607 296.827 172.296 296.706C171.992 296.586 171.655 296.495 171.367 296.337C170.191 295.733 169.17 294.758 168.441 293.549C168.147 292.912 167.81 292.274 167.714 291.556C167.637 291.206 167.546 290.857 167.567 290.496L167.558 289.957L167.555 289.688L167.554 289.552V289.485V289.452V289.435C167.558 289.401 167.543 289.488 167.563 289.355C167.727 288.143 168.295 286.568 169.202 285.525C170.145 284.476 171.333 283.709 172.602 283.338C173.874 283.039 175.174 282.951 176.301 283.308C176.851 283.394 177.387 283.685 177.889 283.917C178.392 284.154 178.775 284.532 179.191 284.812C179.534 285.181 179.87 285.526 180.157 285.875C180.395 286.263 180.649 286.613 180.835 286.97C180.983 287.344 181.123 287.695 181.252 288.018C181.352 288.35 181.392 288.67 181.455 288.951C181.613 289.511 181.512 289.973 181.54 290.279C181.539 290.584 181.538 290.748 181.538 290.748ZM181.538 290.748C181.538 290.748 181.536 290.584 181.531 290.275C181.497 289.97 181.591 289.508 181.422 288.954C181.354 288.676 181.308 288.359 181.203 288.032C181.06 287.719 180.906 287.379 180.741 287.016C180.54 286.676 180.27 286.345 180.02 285.982C179.727 285.651 179.362 285.353 179.008 285.031C178.178 284.503 177.316 284.01 176.191 283.872C175.121 283.633 173.968 283.84 172.889 284.191C171.818 284.626 170.876 285.365 170.121 286.268C169.422 287.275 169.017 288.203 168.825 289.602C168.844 289.478 168.831 289.576 168.835 289.551V289.566V289.593V289.649V289.76L168.836 289.983L168.833 290.429C168.804 290.73 168.881 291.018 168.939 291.309C169.007 291.905 169.275 292.437 169.478 292.993C170.05 294.022 170.832 294.929 171.805 295.558C172.04 295.718 172.299 295.804 172.544 295.935C172.786 296.062 173.037 296.186 173.341 296.236C173.629 296.306 173.914 296.377 174.196 296.445C174.412 296.486 174.726 296.475 174.984 296.493C176.075 296.576 177.084 296.247 177.975 295.887C178.384 295.639 178.798 295.412 179.148 295.144C179.463 294.834 179.789 294.56 180.052 294.264C180.281 293.939 180.497 293.635 180.697 293.354C180.861 293.053 180.965 292.751 181.085 292.491C181.356 291.978 181.352 291.505 181.441 291.213C181.505 290.909 181.538 290.748 181.538 290.748Z" fill="white"/>
<path d="M125.706 245.337C125.706 245.337 125.496 245.415 125.102 245.562C124.908 245.645 124.658 245.712 124.362 245.786C124.068 245.875 123.723 245.936 123.334 245.99C122.558 246.091 121.591 246.141 120.505 245.957C119.42 245.78 118.222 245.376 117.05 244.67C115.888 243.953 114.777 242.901 113.944 241.544C113.745 241.195 113.558 240.854 113.381 240.46C113.236 240.088 113.068 239.737 112.963 239.311C112.698 238.488 112.599 237.636 112.569 236.751C112.548 235.867 112.683 234.97 112.907 234.082C113.154 233.198 113.553 232.351 114.042 231.549C115.043 229.948 116.587 228.68 118.343 227.908C119.196 227.571 120.175 227.304 121.121 227.21C122.072 227.127 123.03 227.165 123.952 227.359C124.868 227.567 125.753 227.876 126.56 228.311C127.352 228.77 128.09 229.299 128.71 229.931C129.956 231.177 130.792 232.736 131.185 234.246C131.586 235.816 131.56 237.328 131.264 238.667C130.954 240 130.406 241.141 129.777 242.041C129.152 242.948 128.441 243.606 127.828 244.092C127.517 244.334 127.233 244.539 126.965 244.687C126.706 244.848 126.484 244.981 126.288 245.063C125.908 245.24 125.706 245.337 125.706 245.337ZM125.706 245.337C125.706 245.337 125.907 245.238 126.284 245.053C126.477 244.968 126.698 244.833 126.955 244.668C127.221 244.518 127.502 244.31 127.808 244.064C128.412 243.573 129.116 242.909 129.69 241.981C130.271 241.066 130.784 239.925 130.984 238.611C131.187 237.307 131.096 235.831 130.641 234.433C130.159 232.994 129.297 231.647 128.093 230.587C126.886 229.535 125.359 228.808 123.731 228.521C122.915 228.391 122.081 228.377 121.252 228.453C120.418 228.553 119.658 228.77 118.843 229.092C118.08 229.431 117.352 229.848 116.704 230.374C116.074 230.915 115.499 231.52 115.022 232.197C114.093 233.564 113.546 235.167 113.461 236.766C113.434 237.558 113.477 238.371 113.661 239.106C113.72 239.474 113.871 239.862 113.989 240.237C114.114 240.571 114.278 240.932 114.439 241.263C115.135 242.586 116.124 243.664 117.203 244.433C118.285 245.205 119.461 245.632 120.521 245.854C121.586 246.089 122.553 246.047 123.327 245.956C123.717 245.908 124.061 245.852 124.354 245.766C124.651 245.697 124.902 245.632 125.097 245.553C125.495 245.412 125.706 245.337 125.706 245.337Z" fill="white"/>
<path d="M176.995 194.341C176.995 194.341 176.839 194.39 176.545 194.483C176.245 194.548 175.837 194.784 175.254 194.801C174.968 194.824 174.65 194.883 174.303 194.888C173.956 194.862 173.579 194.833 173.178 194.803C172.782 194.733 172.372 194.598 171.931 194.486C171.511 194.318 171.082 194.098 170.626 193.883C169.803 193.321 168.911 192.615 168.329 191.582C168.18 191.315 168.013 191.107 167.874 190.777C167.776 190.504 167.677 190.227 167.577 189.949C167.457 189.683 167.404 189.367 167.363 189.035C167.325 188.711 167.245 188.372 167.248 188.043C167.222 186.722 167.594 185.358 168.311 184.144C168.733 183.584 169.135 182.983 169.721 182.558C169.992 182.325 170.257 182.08 170.585 181.925L171.056 181.662L171.292 181.532L171.41 181.467L171.469 181.435L171.499 181.418L171.514 181.41C171.546 181.397 171.463 181.426 171.589 181.379C172.734 180.948 174.389 180.7 175.737 181.004C177.108 181.337 178.347 182.017 179.276 182.959C180.142 183.937 180.837 185.037 181.059 186.199C181.244 186.724 181.243 187.333 181.276 187.886C181.307 188.442 181.155 188.956 181.107 189.454C180.945 189.932 180.801 190.392 180.629 190.811C180.401 191.205 180.212 191.595 179.987 191.928C179.728 192.237 179.486 192.526 179.262 192.793C179.017 193.037 178.754 193.225 178.537 193.413C178.119 193.818 177.664 193.949 177.408 194.118C177.14 194.264 176.995 194.341 176.995 194.341ZM176.995 194.341C176.995 194.341 177.138 194.261 177.407 194.11C177.66 193.936 178.11 193.798 178.519 193.386C178.731 193.195 178.989 193.004 179.226 192.756C179.435 192.482 179.661 192.185 179.901 191.868C180.104 191.528 180.268 191.135 180.469 190.741C180.62 190.326 180.711 189.865 180.825 189.4C180.896 188.419 180.921 187.424 180.508 186.368C180.211 185.314 179.482 184.398 178.659 183.616C177.767 182.879 176.67 182.401 175.516 182.165C174.298 182.026 173.288 182.113 171.967 182.608C172.084 182.566 171.992 182.6 172.015 182.592L172.003 182.599L171.978 182.612L171.929 182.639L171.831 182.691L171.635 182.797L171.241 183.006C170.963 183.122 170.745 183.327 170.517 183.517C170.024 183.86 169.684 184.348 169.29 184.79C168.656 185.783 168.229 186.901 168.138 188.056C168.109 188.339 168.157 188.61 168.158 188.887C168.16 189.161 168.171 189.44 168.27 189.732C168.345 190.019 168.418 190.302 168.492 190.584C168.558 190.793 168.719 191.066 168.824 191.301C169.269 192.3 170.038 193.031 170.778 193.646C171.191 193.888 171.587 194.143 171.99 194.324C172.412 194.454 172.808 194.611 173.193 194.702C173.589 194.751 173.959 194.796 174.3 194.837C174.643 194.839 174.958 194.787 175.244 194.769C175.823 194.764 176.238 194.535 176.539 194.475C176.838 194.386 176.995 194.341 176.995 194.341Z" fill="white"/>
<path d="M197.76 158.249C197.76 158.249 197.675 158.277 197.515 158.329C197.352 158.366 197.13 158.496 196.812 158.508C196.656 158.523 196.482 158.556 196.292 158.56C196.101 158.549 195.895 158.539 195.674 158.526C195.456 158.493 195.229 158.423 194.984 158.366C194.752 158.278 194.51 158.165 194.254 158.051C193.79 157.752 193.279 157.373 192.925 156.808C192.833 156.656 192.739 156.558 192.646 156.35C192.585 156.204 192.525 156.055 192.463 155.905C192.332 155.628 192.278 155.185 192.234 154.812C192.2 154.052 192.394 153.255 192.803 152.541C193.039 152.208 193.273 151.856 193.614 151.606C193.772 151.468 193.927 151.325 194.118 151.232L194.391 151.077L194.53 151.001L194.599 150.963L194.633 150.943L194.651 150.934L194.66 150.929C194.689 150.917 194.605 150.947 194.728 150.903C195.312 150.681 196.362 150.509 197.128 150.713C197.925 150.918 198.633 151.332 199.153 151.889C199.638 152.466 200.003 153.115 200.102 153.774C200.188 154.058 200.179 154.415 200.184 154.726C200.193 155.039 200.1 155.324 200.065 155.599C199.968 155.862 199.88 156.114 199.782 156.342C199.651 156.557 199.543 156.769 199.415 156.948C199.27 157.115 199.134 157.27 199.009 157.415C198.874 157.548 198.729 157.648 198.61 157.751C198.381 157.971 198.131 158.04 197.991 158.131C197.839 158.207 197.76 158.249 197.76 158.249ZM197.76 158.249C197.76 158.249 197.838 158.205 197.984 158.122C198.122 158.026 198.366 157.949 198.588 157.724C198.702 157.619 198.842 157.514 198.97 157.378C199.08 157.227 199.199 157.064 199.326 156.889C199.432 156.702 199.516 156.487 199.619 156.273C199.697 156.047 199.736 155.796 199.79 155.546C199.813 155.006 199.807 154.506 199.556 153.941C199.374 153.39 198.959 152.94 198.525 152.557C198.051 152.199 197.487 151.981 196.907 151.875C196.272 151.837 195.869 151.847 195.108 152.131C195.225 152.088 195.137 152.121 195.162 152.112L195.156 152.115L195.143 152.122L195.119 152.136L195.07 152.162L194.972 152.214L194.775 152.316C194.634 152.371 194.527 152.474 194.413 152.567C194.165 152.735 193.993 152.976 193.786 153.19C193.457 153.68 193.216 154.237 193.145 154.828C193.125 154.971 193.142 155.101 193.132 155.242C193.123 155.378 193.118 155.521 193.167 155.687C193.2 155.846 193.234 156.002 193.267 156.158C193.287 156.245 193.371 156.409 193.417 156.53C193.623 157.072 194.017 157.479 194.406 157.82C194.623 157.957 194.832 158.103 195.047 158.205C195.273 158.28 195.485 158.37 195.693 158.425C195.907 158.455 196.107 158.484 196.293 158.51C196.48 158.512 196.65 158.486 196.807 158.477C197.123 158.476 197.35 158.353 197.514 158.322C197.674 158.274 197.76 158.249 197.76 158.249Z" fill="white"/>
</g>
</svg>
