<svg width="207" height="80" viewBox="0 0 207 80" fill="none" xmlns="http://www.w3.org/2000/svg">
<path d="M71.0625 54.6667H75.75C76.6129 54.6667 77.3125 55.4129 77.3125 56.3333C77.3125 57.2538 76.6129 58 75.75 58H63.25C62.3871 58 61.6875 57.2538 61.6875 56.3333C61.6875 55.4129 62.3871 54.6667 63.25 54.6667H67.9375V43.4167L58.25 35.6667C57.4631 35.0372 57 34.0492 57 33V31.3333C57 29.4924 58.3991 28 60.125 28H78.875C80.6009 28 82 29.4924 82 31.3333V33C82 34.0492 81.5369 35.0372 80.75 35.6667L71.0625 43.4167V54.6667ZM60.125 31.3333V33L69.5 39.6667L78.875 33V31.3333H60.125Z" fill="black"/>
<circle cx="70" cy="20" r="4" fill="black"/>
<path d="M87.65 58V43.25C87.65 40.9833 88.15 39 89.15 37.3C90.1833 35.6 91.6 34.2833 93.4 33.35C95.2 32.3833 97.25 31.9 99.55 31.9C101.883 31.9 103.933 32.3833 105.7 33.35C107.5 34.2833 108.9 35.6 109.9 37.3C110.933 39 111.45 40.9833 111.45 43.25V58H106.85V43.3C106.85 41.7667 106.5 40.45 105.8 39.35C105.133 38.2167 104.233 37.35 103.1 36.75C102 36.15 100.817 35.85 99.55 35.85C98.2833 35.85 97.0833 36.15 95.95 36.75C94.85 37.35 93.95 38.2167 93.25 39.35C92.5833 40.45 92.25 41.7667 92.25 43.3V58H87.65ZM118.754 58V21.5H123.354V43.2H130.354L137.054 32.5H142.154L134.904 43.9C137.304 44.6 139.17 45.9167 140.504 47.85C141.87 49.75 142.554 51.9667 142.554 54.5V58H137.904V54.5C137.904 53.1 137.587 51.85 136.954 50.75C136.354 49.65 135.504 48.7833 134.404 48.15C133.304 47.4833 132.037 47.15 130.604 47.15H123.354V58H118.754ZM149.125 58V32.5H153.775V58H149.125ZM151.475 28.45C150.641 28.45 149.908 28.15 149.275 27.55C148.675 26.9167 148.375 26.1833 148.375 25.35C148.375 24.5167 148.675 23.8 149.275 23.2C149.908 22.5667 150.641 22.25 151.475 22.25C152.308 22.25 153.025 22.5667 153.625 23.2C154.258 23.8 154.575 24.5167 154.575 25.35C154.575 26.1833 154.258 26.9167 153.625 27.55C153.025 28.15 152.308 28.45 151.475 28.45ZM162.539 58V36.45H158.089V32.5H162.539V28.75C162.539 26.4833 163.172 24.7167 164.439 23.45C165.739 22.15 167.522 21.5 169.789 21.5H176.089V25.45H170.689C169.555 25.45 168.689 25.7667 168.089 26.4C167.489 27.0333 167.189 27.9167 167.189 29.05V32.5H175.089V36.45H167.189V58H162.539ZM188.853 68.15V58.4C186.986 58.1333 185.319 57.5167 183.853 56.55C182.419 55.55 181.286 54.2667 180.453 52.7C179.619 51.1 179.203 49.2833 179.203 47.25V32.5H183.853V47.2C183.853 48.7333 184.186 50.0667 184.853 51.2C185.519 52.3 186.403 53.15 187.503 53.75C188.636 54.35 189.836 54.65 191.103 54.65C192.403 54.65 193.603 54.35 194.703 53.75C195.836 53.15 196.736 52.3 197.403 51.2C198.103 50.0667 198.453 48.7333 198.453 47.2V32.5H203.053V47.25C203.053 49.2833 202.636 51.0833 201.803 52.65C201.003 54.2167 199.869 55.5 198.403 56.5C196.969 57.4667 195.319 58.1 193.453 58.4V68.15H188.853Z" fill="black"/>
<path d="M3.65 58V23H15.15C18.8833 23 22.1167 23.75 24.85 25.25C27.5833 26.75 29.7 28.8167 31.2 31.45C32.7 34.0833 33.45 37.1 33.45 40.5C33.45 43.9 32.7 46.9167 31.2 49.55C29.7 52.1833 27.5833 54.25 24.85 55.75C22.1167 57.25 18.8833 58 15.15 58H3.65ZM9.6 52.75H15.2C17.5667 52.75 19.6667 52.2667 21.5 51.3C23.3667 50.3 24.8333 48.8833 25.9 47.05C26.9667 45.1833 27.5 43 27.5 40.5C27.5 37.9667 26.9667 35.7833 25.9 33.95C24.8333 32.1167 23.3667 30.7167 21.5 29.75C19.6667 28.75 17.5667 28.25 15.2 28.25H9.6V52.75ZM38.5039 58V39.75C38.5039 37.4833 39.1372 35.7167 40.4039 34.45C41.7039 33.15 43.4872 32.5 45.7539 32.5H51.9039V37.4H46.8039C46.0039 37.4 45.3706 37.6333 44.9039 38.1C44.4706 38.5667 44.2539 39.2 44.2539 40V58H38.5039Z" fill="black"/>
</svg>
