<svg width="503" height="399" viewBox="0 0 503 399" fill="none" xmlns="http://www.w3.org/2000/svg">
<path d="M216.454 236.524L303.202 225.538L244.337 207.718C284.708 167.638 329.259 128.468 369.304 95.114L412.562 96.696L387.539 80.051C445.732 32.442 490.242 0 490.242 0C517.295 73.695 494.756 149.471 458.486 213.449L411.681 178.15L438.91 245.011C387.469 321.782 323.375 375.074 323.375 375.074L119.029 397.857C117.658 355.695 159.914 296.402 216.314 236.443C216.349 236.464 216.454 236.524 216.454 236.524Z" fill="#0A7029"/>
<path d="M337.469 241.311C272.588 314.362 208.629 377.553 207.989 378.18L205.913 376.071C208.464 373.565 460.989 123.659 474.972 37.749L477.892 38.232C471.949 74.745 424.703 143.075 337.469 241.311Z" fill="#FBE4CD"/>
<path d="M176.246 252.855C172.968 256.399 169.062 258.119 167.524 256.695C165.986 255.271 167.393 251.247 170.669 247.7C173.948 244.154 177.854 242.434 179.393 243.856C180.933 245.28 179.525 249.308 176.246 252.855Z" fill="#035850"/>
<path d="M57.6722 364.912C110.948 366.242 116.817 359.833 119.334 356.936C121.851 354.043 84.5822 367.25 48.4822 353.197C12.3812 339.141 21.4112 314.087 21.4112 314.087C37.5512 324.409 83.3042 327.948 81.7572 316.261C80.2122 304.573 43.3762 320.976 17.1552 300.347C-9.06479 279.72 2.57422 259.43 2.57422 259.43L37.8792 271.626C37.8792 271.626 61.3372 286.8 72.8222 288.422C84.3012 290.047 77.3572 288.119 65.9492 276.036C54.5452 263.956 24.6642 268.014 11.2162 251.07C-11.8858 221.962 18.0622 193.902 18.0622 193.902C18.0622 193.902 75.4372 267.042 91.7782 257.354C108.118 247.666 66.4482 239.148 41.1612 208.914C15.8732 178.683 42.9242 142.969 42.9242 142.969C42.9242 142.969 77.2872 183.172 82.5122 187.798C87.7392 192.425 94.7892 220.631 104.929 218.989C115.068 217.351 109.637 204.797 97.1842 192.387C84.7282 179.977 62.3982 155.733 62.3982 155.733C38.3882 111.866 84.5582 95.936 84.5582 95.936C90.9652 141.659 114.968 170.109 118.07 167.121C121.174 164.13 110.93 135.941 101.87 122.98C92.8102 110.023 91.6602 96.778 93.7052 90.974C95.7492 85.171 118.454 81 118.454 81C118.454 81 145.479 85.085 147.956 91.149C150.427 97.216 142.752 132.78 142.752 132.78C151.336 127.412 157.663 86.595 157.663 86.595C157.663 86.595 171.13 89.886 173.063 107.977C174.996 126.071 161.337 146.189 152.45 165.037C143.562 183.887 150.99 183.68 162.351 170.898C173.715 158.115 189.323 100.87 189.323 100.87C189.323 100.87 218.322 114.086 218.254 129.018C218.183 143.954 189.098 182.485 172.57 203.299C156.04 224.115 172.027 224.546 181.252 220.07C190.477 215.591 232.659 138.129 232.659 138.129C245.534 146.989 257.775 170.379 252.503 193.117C247.23 215.861 197.686 244.768 188.983 258.612C180.28 272.458 202.855 261.341 227.725 242.893C252.599 224.44 275.849 189.837 275.849 189.837C304.039 238.003 282.261 250.981 266.958 260.916C251.65 270.855 213.908 280.447 209.487 293.099C205.067 305.755 209.621 325.203 244.466 293.719C293.355 249.54 292.933 264.672 292.933 264.672L294.032 271.457C298.46 308.05 285.962 334.603 201.379 363.544C187.589 368.262 192.042 373.35 186.556 379.151C182.78 373.948 179.164 368.619 175.86 363.087C173.223 358.607 170.667 354.072 168.242 349.462L176.9 347.875C180.879 346.907 184.876 346.052 188.819 344.992C196.673 342.733 204.495 340.326 211.969 337.013C219.463 333.79 226.75 330.066 233.518 325.534C236.872 323.224 240.172 320.841 243.214 318.14C246.275 315.485 249.196 312.624 251.607 309.37C249.016 312.479 245.957 315.148 242.776 317.609C239.611 320.106 236.214 322.274 232.783 324.362C225.857 328.451 218.481 331.7 210.955 334.443C203.451 337.272 195.642 339.193 187.849 340.963C183.93 341.78 179.967 342.392 176.04 343.117L165.67 344.414C164.394 341.84 163.159 339.244 161.997 336.612C156.957 325.514 152.641 314.082 148.944 302.43C164.396 296.524 179.504 289.909 194.152 282.309C201.645 278.401 209.029 274.249 216.013 269.466C222.921 264.666 229.78 259.408 234.602 252.45C229.423 259.137 222.384 263.961 215.297 268.353C208.145 272.723 200.613 276.452 192.992 279.93C178.165 286.666 162.867 292.434 147.412 297.439C145.665 291.634 144.054 285.785 142.597 279.896C139.008 265.406 136.265 250.697 134.251 235.879C136.236 235.216 137.742 234.146 139.128 233.095C140.92 231.703 142.487 230.188 143.954 228.616C146.888 225.473 149.477 222.144 151.934 218.738C156.834 211.919 161.163 204.783 165.216 197.511C169.245 190.227 172.982 182.791 176.307 175.176C179.574 167.551 182.695 159.779 184.293 151.63C182.269 159.674 178.765 167.22 175.118 174.617C171.415 181.999 167.317 189.18 162.949 196.176C158.566 203.154 153.912 209.972 148.793 216.35C146.234 219.53 143.557 222.614 140.684 225.379C139.249 226.76 137.75 228.051 136.209 229.119C135.363 229.733 134.459 230.248 133.615 230.607C133.203 227.273 132.771 223.94 132.429 220.597C130.433 200.611 129.486 180.467 130.343 160.361C129.683 170.106 129.465 179.877 129.567 189.65C129.68 200.02 130.154 210.388 130.928 220.732C131.195 224.193 131.552 227.652 131.896 231.108C131.877 231.109 131.855 231.117 131.838 231.12L132.389 236.351C132.395 236.349 132.396 236.348 132.402 236.346C133.199 243.53 134.229 250.689 135.384 257.826C132.495 257.374 129.466 256.221 126.599 254.79C122.922 252.949 119.38 250.677 115.937 248.254C109.103 243.305 102.672 237.699 96.4532 231.885C90.2212 226.072 84.3042 219.908 78.4922 213.656C75.5912 210.525 72.7282 207.353 69.9062 204.143L65.7032 199.305L63.6272 196.867L62.5962 195.637C62.2342 195.245 61.9432 194.786 62.2942 193.834L60.5192 195.237C61.5352 195.125 61.9122 195.498 62.2212 195.939L63.2092 197.204L65.2012 199.719L69.2372 204.71C71.9462 208.021 74.7022 211.297 77.4992 214.538C83.0792 221.038 88.8792 227.344 94.8282 233.533C100.805 239.693 107.017 245.658 113.782 251.09C117.161 253.808 120.678 256.403 124.519 258.645C128.008 260.627 131.797 262.41 136.23 263.037C137.257 268.906 138.372 274.762 139.662 280.583C142.512 293.488 146.044 306.269 150.355 318.799C144.559 319.125 138.618 318.07 132.856 316.202C131.005 315.607 129.175 314.926 127.376 314.175C119.054 310.644 111.203 305.803 103.784 300.379C96.3692 294.926 89.3332 288.901 82.6462 282.498C75.9692 276.092 69.5532 269.366 63.6012 262.257L63.2642 262.515C68.8662 269.95 74.9442 277.014 81.3322 283.803C87.7312 290.586 94.5152 297.036 101.778 302.971C109.052 308.884 116.846 314.284 125.443 318.468C133.439 322.271 142.38 324.987 151.758 324.68C151.986 324.672 152.208 324.713 152.44 324.705C154.131 329.318 155.93 333.896 157.853 338.426C160.841 345.679 164.3 352.732 167.995 359.664L167.485 359.18C167.434 359.246 167.36 359.298 167.304 359.365C167.294 359.375 167.283 359.383 167.275 359.392C164.933 362.161 162.341 364.759 159.486 367.094C156.624 369.447 153.509 371.538 150.163 373.285C143.349 376.66 135.949 379.012 128.312 380.29C120.665 381.509 112.858 381.668 105.096 381.266C101.214 381.036 97.3462 380.578 93.5042 379.963C91.5772 379.691 89.6712 379.3 87.7572 378.938L84.9032 378.314L83.4852 377.971C83.0142 377.857 82.5772 377.556 82.3962 376.51L81.7542 378.678C82.5092 377.903 83.0122 377.846 83.4852 377.971L84.8992 378.332L87.7472 379C89.6532 379.386 91.5592 379.802 93.4832 380.102C97.3192 380.779 101.192 381.252 105.076 381.581C112.842 382.356 120.669 382.3 128.494 381.668C136.291 380.808 144.043 379.102 151.512 376.256C154.974 374.925 158.28 373.244 161.465 371.305C164.619 369.38 167.65 367.197 170.597 364.848C170.648 364.808 170.703 364.779 170.754 364.739C170.941 365.075 171.117 365.417 171.308 365.755C172.474 367.819 173.862 369.752 175.105 371.773C175.139 371.824 175.166 371.876 175.199 371.924C177.417 375.519 179.557 379.158 181.963 382.641C174.705 386.869 160.035 391.474 128.459 396.572C64.4532 406.905 39.4872 364.46 57.6722 364.912ZM270.22 240.734C276.839 233.573 279.686 225.438 276.577 222.562C273.467 219.689 265.58 223.167 258.963 230.325C252.341 237.483 249.494 245.62 252.604 248.493C255.713 251.369 263.6 247.894 270.22 240.734ZM170.669 247.7C167.393 251.247 165.986 255.271 167.524 256.695C169.062 258.119 172.967 256.399 176.246 252.855C179.525 249.308 180.934 245.28 179.393 243.856C177.854 242.434 173.948 244.154 170.669 247.7ZM26.4882 222.074C22.7652 216.428 17.7572 213.158 15.3052 214.778C12.8522 216.395 13.8842 222.282 17.6082 227.93C21.3322 233.577 26.3402 236.842 28.7922 235.227C31.2432 233.61 30.2142 227.72 26.4882 222.074ZM94.3472 308.956C91.8972 310.571 99.4612 330.232 103.182 335.88C106.907 341.526 111.915 344.794 114.366 343.174C116.818 341.559 115.787 335.67 112.061 330.024C108.338 324.377 96.8002 307.337 94.3472 308.956ZM88.6452 335.85C87.1072 334.429 83.2002 336.15 79.9242 339.694C76.6452 343.241 75.2362 347.269 76.7752 348.69C78.3172 350.113 82.2212 348.391 85.4962 344.85C88.7762 341.3 90.1842 337.275 88.6452 335.85Z" fill="#035850"/>
<path d="M168.242 349.463L176.9 347.876C180.879 346.908 184.876 346.053 188.819 344.993C196.673 342.734 204.495 340.327 211.969 337.014C219.46 333.79 226.75 330.067 233.518 325.535C236.872 323.225 240.172 320.842 243.212 318.142C246.276 315.488 249.196 312.625 251.607 309.371C249.016 312.48 245.957 315.149 242.776 317.61C239.611 320.107 236.214 322.275 232.783 324.363C225.857 328.452 218.481 331.701 210.955 334.444C203.451 337.273 195.642 339.194 187.849 340.964C183.928 341.782 179.967 342.393 176.04 343.118L165.671 344.417C164.394 341.841 163.158 339.245 161.997 336.613C156.955 325.517 152.641 314.083 148.944 302.431C164.396 296.525 179.504 289.91 194.152 282.31C201.645 278.402 209.029 274.25 216.013 269.467C222.921 264.669 229.78 259.409 234.602 252.451C229.423 259.138 222.384 263.962 215.297 268.354C208.142 272.724 200.613 276.453 192.991 279.937C178.165 286.667 162.867 292.435 147.412 297.44C145.665 291.635 144.054 285.786 142.597 279.897C139.008 265.407 136.263 250.7 134.251 235.88C136.236 235.217 137.739 234.15 139.128 233.096C140.92 231.704 142.485 230.191 143.954 228.617C146.888 225.474 149.477 222.145 151.934 218.739C156.834 211.92 161.163 204.784 165.216 197.512C169.242 190.228 172.98 182.793 176.307 175.177C179.574 167.552 182.695 159.78 184.293 151.631C182.267 159.676 178.762 167.22 175.118 174.618C171.415 182 167.317 189.181 162.949 196.177C158.566 203.155 153.912 209.973 148.793 216.351C146.234 219.531 143.557 222.615 140.684 225.38C139.249 226.761 137.75 228.052 136.209 229.12C135.363 229.734 134.459 230.249 133.615 230.608C133.202 227.272 132.769 223.942 132.429 220.598C130.433 200.612 129.486 180.468 130.343 160.362C128.985 180.447 129.427 200.642 130.928 220.733C131.195 224.194 131.552 227.653 131.893 231.111C131.878 231.11 131.855 231.118 131.838 231.121L132.389 236.352C132.393 236.351 132.396 236.349 132.402 236.347C133.199 243.531 134.229 250.69 135.384 257.827C132.495 257.375 129.466 256.222 126.599 254.791C122.922 252.95 119.376 250.68 115.935 248.254C109.103 243.306 102.671 237.701 96.4534 231.886C90.2214 226.073 84.3044 219.909 78.4924 213.657C75.5914 210.526 72.7284 207.354 69.9064 204.144L65.7034 199.306L63.6274 196.868L62.5964 195.638C62.2344 195.246 61.9434 194.787 62.2914 193.838L60.5194 195.238C61.5324 195.128 61.9125 195.499 62.2205 195.941L63.2104 197.205L65.2025 199.72L69.2385 204.711C71.9475 208.022 74.7034 211.298 77.5004 214.539C83.0804 221.039 88.8804 227.345 94.8294 233.534C100.806 239.694 107.018 245.659 113.783 251.091C117.162 253.809 120.679 256.404 124.52 258.646C128.009 260.628 131.798 262.411 136.231 263.038C137.258 268.907 138.373 274.763 139.663 280.584C142.513 293.489 146.041 306.272 150.352 318.802C142.7 319.23 134.787 317.263 127.376 314.176C119.054 310.645 111.203 305.804 103.783 300.381C96.3684 294.928 89.3344 288.902 82.6464 282.499C75.9694 276.093 69.5534 269.367 63.6014 262.258L63.2645 262.516C68.8665 269.951 74.9445 277.015 81.3325 283.804C87.7285 290.589 94.5154 297.037 101.776 302.973C109.052 308.885 116.845 314.286 125.442 318.469C133.636 322.365 142.809 325.173 152.439 324.706C154.13 329.319 155.929 333.897 157.852 338.427C160.84 345.68 164.299 352.733 167.994 359.665L167.484 359.181C162.753 364.831 156.927 369.757 150.163 373.286C143.349 376.661 135.949 379.013 128.312 380.291C120.665 381.51 112.858 381.669 105.096 381.267C101.214 381.037 97.3464 380.579 93.5024 379.965C91.5774 379.692 89.6704 379.301 87.7564 378.939L84.9025 378.315L83.4835 377.97C83.0145 377.858 82.5754 377.555 82.3944 376.512L81.7545 378.679C82.5095 377.904 83.0114 377.847 83.4844 377.972L84.8994 378.333L87.7474 379C89.6534 379.386 91.5595 379.802 93.4835 380.102C97.3195 380.779 101.191 381.254 105.074 381.582C112.841 382.356 120.668 382.3 128.493 381.668C136.29 380.808 144.042 379.102 151.511 376.256C158.458 373.589 164.786 369.506 170.753 364.738C170.94 365.074 171.116 365.416 171.307 365.754C174.578 371.549 178.174 377.152 181.961 382.641C181.962 382.643 181.965 382.647 181.965 382.647C182.005 382.626 182.029 382.603 182.068 382.58C182.986 382.042 183.777 381.507 184.47 380.981C184.582 380.896 184.686 380.816 184.792 380.733C185.46 380.205 186.057 379.681 186.544 379.163C186.549 379.16 186.552 379.157 186.555 379.155C186.554 379.153 186.554 379.153 186.554 379.153C182.775 373.952 179.162 368.621 175.858 363.089C173.223 358.608 170.666 354.074 168.242 349.463Z" fill="white"/>
</svg>
