<svg width="446" height="408" viewBox="0 0 446 408" fill="none" xmlns="http://www.w3.org/2000/svg">
<path d="M59.8807 401.077C62.2187 400.112 64.6027 399.238 66.9407 398.26C78.9177 393.252 91.1697 389.05 103.635 385.39C109.927 383.54 116.27 381.946 122.63 380.43C127.242 379.333 132.01 378.903 136.663 377.955C144.502 376.364 152.445 377.186 160.323 376.711C164.251 376.474 168.116 377.018 171.864 377.762C180.503 379.483 189.009 381.89 196.812 386.091C201.128 388.414 205.125 391.324 209.27 393.963C209.71 394.239 210.187 394.455 210.981 394.308C209.868 392.808 208.935 391.121 207.61 389.841C203.524 385.92 199.68 381.77 195.166 378.255C191.495 375.401 187.646 372.854 183.732 370.426C178.421 367.129 172.939 364.149 167.125 361.707C161.876 359.505 156.58 357.548 151.149 355.924C145.299 354.176 139.408 352.663 133.325 351.859C128.911 351.273 124.494 350.712 120.077 350.166C116.035 349.665 112.052 349.656 108.038 349.665C101.757 349.683 95.4747 349.805 89.1947 349.929C86.2217 349.986 83.2037 349.705 80.3287 350.802C79.9227 350.957 79.4387 350.936 78.9897 350.931C73.3067 350.902 67.7707 352.065 62.1787 352.868C48.3257 354.85 34.6949 357.822 21.1568 361.31C16.4105 362.534 11.6016 363.511 6.82527 364.615C5.49587 364.924 4.22046 365.345 3.50296 366.658C2.36936 365.901 2.49997 364.775 3.08477 363.926C3.63217 363.14 4.61577 362.661 5.40807 362.049C6.14077 362.81 6.96237 362.671 7.87637 362.4C15.2979 360.185 22.6851 357.84 30.1652 355.849C38.0637 353.755 46.0077 351.782 54.0807 350.414C59.4957 349.496 64.8977 348.508 70.3217 347.605C71.3447 347.432 72.4147 347.541 73.4507 347.434C75.0757 347.262 76.6917 347.021 78.3087 346.797C78.7477 346.733 79.1807 346.538 79.6227 346.527C89.9077 346.193 100.173 344.489 110.465 345.288C114.483 345.599 118.52 345.495 122.493 345.968C128.975 346.738 135.511 347.262 141.888 348.789C147.243 350.07 152.718 351.007 157.909 352.776C165.799 355.47 173.651 358.314 180.926 362.589C184.92 364.931 188.909 367.254 192.807 369.749C197.595 372.822 202.074 376.263 206.107 380.283C207.892 382.063 209.722 383.798 212.053 385.242C211.918 384.741 211.855 384.21 211.638 383.753C209.099 378.287 205.346 373.641 201.687 368.923C198.195 364.415 194.055 360.525 189.92 356.642C185.684 352.663 181.111 349.083 176.317 345.775C168.944 340.683 161.235 336.183 153.341 331.928C139.853 324.657 125.605 319.542 110.938 315.313C102.613 312.912 94.1117 311.463 85.6537 309.81C79.6797 308.641 73.6237 307.723 67.5647 307.273C63.4137 306.96 59.3067 305.848 55.0997 306.376C49.9337 305.251 44.6337 306.217 39.4967 305.579C29.9274 304.383 20.3937 305.424 10.848 305.239C7.26077 305.171 3.66347 305.311 0.0738726 305.355C0.0453726 303.547 1.10357 302.857 2.73397 302.744C4.49907 304.099 6.52517 303.658 8.32377 303.168C10.2449 302.647 12.1387 302.523 14.0749 302.495C26.3468 302.318 38.6147 302.125 50.8807 302.002C52.6527 301.981 54.4287 302.308 56.2037 302.49C56.7907 302.547 57.3947 302.767 57.9707 302.705C62.9207 302.171 67.7747 303.406 72.6867 303.51C75.3517 303.566 78.0357 303.905 80.6607 304.391C89.2827 305.986 98.0057 306.97 106.522 309.162C116.796 311.803 126.993 314.684 136.778 318.768C144.218 321.87 151.548 325.278 158.736 328.926C167.121 333.18 175.068 338.223 182.738 343.664C185.523 345.638 188.021 348.022 190.663 350.212C192.495 351.733 194.44 353.136 196.171 354.765C202.606 360.821 208.117 367.661 213.014 375.003C213.33 375.479 213.7 375.92 214.107 376.452C214.327 376.031 214.598 375.747 214.538 375.6C210.427 365.449 204.929 356.062 198.596 347.161C195.833 343.283 192.817 339.598 189.758 335.93C183.983 329.009 177.307 323.022 170.783 316.892C165.799 312.211 160.335 308.029 154.679 304.141C151.121 301.692 147.676 299.058 144.01 296.785C138.436 293.328 132.735 290.07 127.048 286.793C117.301 281.175 106.835 277.185 96.1617 273.823C87.6467 271.139 78.9507 269.035 70.1337 267.484C65.0157 266.581 59.9397 265.39 54.8127 264.542C49.9787 263.74 45.0927 263.236 40.2337 262.568C37.2967 262.162 34.3749 261.59 31.4239 261.271C29.2064 261.035 26.96 261.092 24.7227 261.013C25.0495 259.042 26.4309 258.492 28.1848 258.435C30.9899 259.455 33.8692 260.007 36.8657 259.955C39.0987 259.92 41.3427 259.746 43.5217 260.559C44.1917 260.812 45.0047 260.72 45.7497 260.709C49.6417 260.658 53.4247 261.544 57.2587 262.016C59.9137 262.341 62.5597 262.742 65.2027 263.116C74.0507 264.363 82.8127 266.037 91.4547 268.336C100.259 270.676 108.925 273.459 117.33 276.95C122.433 279.07 127.489 281.398 132.297 284.117C138.915 287.854 145.333 291.963 151.739 296.066C157.512 299.762 163.056 303.784 168.374 308.135C173.563 312.391 178.761 316.634 183.604 321.283C189.965 327.391 195.487 334.23 200.921 341.154C208.617 350.966 214.157 362.031 219.634 373.18C220.549 373.008 220.117 372.305 220.168 371.859C220.214 371.425 220.137 370.96 220.025 370.529C217.203 359.849 214.191 349.243 209.057 339.372C206.854 335.134 205.077 330.667 202.746 326.502C196.192 314.778 189.189 303.327 180.79 292.792C178.096 289.42 175.457 286.003 172.787 282.606C172.604 282.369 172.429 282.125 172.229 281.907C165.733 274.887 159.264 267.825 152.089 261.502C147.288 257.271 142.206 253.353 137.109 249.48C130.585 244.519 124.078 239.518 117.285 234.945C106.763 227.868 95.9527 221.221 84.8077 215.146C79.5637 212.288 74.3337 209.406 69.0427 206.64C63.4837 203.734 57.8587 200.949 52.2577 198.12C51.5917 197.785 50.9147 197.346 50.2007 197.267C49.7697 197.213 49.2657 197.75 48.7897 198.023C47.0577 196.892 45.5827 195.544 45.0357 193.441C47.6917 194.375 50.4037 195.182 52.9947 196.273C57.2617 198.067 61.5157 199.904 65.6517 201.973C72.8557 205.579 80.0027 209.304 87.1077 213.112C93.2837 216.426 99.4757 219.727 105.451 223.382C113.078 228.049 120.522 233.019 127.982 237.951C131.459 240.248 134.833 242.71 138.191 245.182C143.589 249.146 148.778 253.377 153.933 257.667C159.12 261.983 163.864 266.716 168.681 271.384C171.459 274.075 174.098 276.94 176.545 279.933C181.911 286.506 187.333 293.036 192.026 300.137C199.116 310.867 205.297 322.104 211.008 333.611C211.788 335.184 211.828 337.154 213.456 338.282C213.488 338.557 213.501 338.832 213.558 339.101C213.59 339.224 213.708 339.328 213.784 339.44C213.878 339.235 214.099 338.967 214.036 338.831C213.931 338.609 213.641 338.477 213.433 338.303C213.285 334.597 211.28 331.505 209.963 328.211C203.797 312.805 196.478 297.931 188.557 283.361C184.852 276.547 180.86 269.888 176.888 263.224C172.843 256.432 168.761 249.656 164.493 243.009C160.78 237.234 156.904 231.56 152.897 225.988C146.901 217.639 140.818 209.345 134.58 201.172C131.518 197.148 128.02 193.458 124.735 189.602C122.227 186.654 119.751 183.681 117.257 180.721C116.87 180.266 116.433 179.856 116.022 179.417C107.128 169.928 97.9057 160.768 88.5107 151.78C87.4597 150.77 86.4727 149.685 85.3777 148.555C85.8847 148.402 86.2607 148.174 86.3827 148.27C89.1567 150.518 91.8557 152.864 94.6707 155.061C103.542 161.98 111.009 170.394 119.177 178.063C123.53 182.149 127.323 186.757 131.168 191.32C133.57 194.162 136.227 196.799 138.604 199.661C141.937 203.672 145.241 207.716 148.336 211.904C154.36 220.056 160.424 228.189 166.118 236.57C172.568 246.068 178.643 255.816 184.538 265.682C192.443 278.911 199.414 292.629 206.328 306.375C210.683 315.027 214.321 324.029 217.852 333.066C221.007 341.137 223.612 349.364 225.765 357.737C226.756 361.591 227.542 365.497 228.977 369.372C229.027 368.62 229.122 367.866 229.11 367.113C228.979 357.09 228.858 347.071 228.662 337.048C228.631 335.431 228.233 333.817 228.01 332.201C227.908 331.463 227.776 330.73 227.724 329.987C227.224 322.699 225.769 315.564 224.218 308.449C221.968 298.106 218.942 287.986 215.749 277.895C212.957 269.067 209.678 260.441 206.315 251.825C203.009 243.34 199.453 234.975 195.515 226.765C193.253 222.057 190.927 217.375 188.662 212.666C187.167 209.578 185.84 206.399 184.245 203.366C179.925 195.171 175.627 186.965 171.09 178.887C165.904 169.655 160.432 160.578 155.146 151.4C150.454 143.248 145.436 135.317 140.209 127.495C133.335 117.2 125.951 107.282 118.396 97.4921C115.571 93.8391 112.895 90.0731 110.127 86.3791C109.69 85.7931 109.114 85.3071 108.6 84.7741C108.753 83.9151 109.31 83.6931 110.092 83.8251C114.899 89.5101 119.776 95.1381 124.485 100.902C128.439 105.741 132.225 110.728 136.033 115.687C138.578 118.994 141.153 122.285 143.502 125.724C147.292 131.265 150.972 136.882 154.57 142.545C158.327 148.459 161.957 154.458 165.591 160.448C167.369 163.383 169.022 166.388 170.737 169.365C173.711 174.538 176.693 179.706 179.658 184.885C180.253 185.922 180.778 186.999 181.331 188.056C185.735 196.552 190.123 205.059 194.549 213.54C199.114 222.276 203.067 231.292 207.114 240.273C211.957 251.032 216.051 262.073 219.971 273.178C223.394 282.874 226.353 292.724 228.803 302.709C230.396 309.193 231.679 315.768 232.842 322.353C233.513 326.15 233.661 330.034 234.063 333.881C234.168 334.916 234.338 335.941 234.489 336.968C234.659 338.145 234.974 339.315 234.995 340.495C235.146 348.418 235.251 356.343 235.336 364.272C235.348 365.3 235.162 366.343 235.043 367.374C234.906 368.554 234.608 369.731 234.611 370.903C234.615 373.083 234.44 375.28 235.003 378.523C236.07 373.287 236.822 369.098 237.205 364.837C237.36 363.067 237.747 361.321 237.993 359.551C238.508 355.881 239.022 352.208 239.488 348.525C239.615 347.493 239.522 346.432 239.607 345.395C239.756 343.622 239.995 341.857 240.135 340.083C240.258 338.598 240.309 337.107 240.349 335.617C240.446 332.347 239.963 329.059 240.959 325.823C241.256 324.862 241.063 323.746 241.046 322.696C240.97 316.418 240.911 310.136 240.758 303.858C240.724 302.234 240.398 300.615 240.183 298.997C240.105 298.409 239.862 297.824 239.88 297.244C240.055 291.261 239.262 285.343 238.654 279.418C238.319 276.164 237.943 272.914 237.446 269.682C236.989 266.753 236.237 263.868 235.786 260.941C234.516 252.7 232.653 244.583 230.39 236.571C228.451 229.69 226.405 222.835 224.164 216.044C221.547 208.123 218.882 200.201 215.851 192.432C212.002 182.574 207.886 172.82 203.668 163.112C199.627 153.811 195.312 144.631 191.111 135.402C190.676 134.451 190.182 133.528 189.702 132.596C183.789 121.182 177.95 109.725 171.928 98.3611C168.929 92.6981 165.588 87.2101 162.437 81.6201C161.339 79.6681 160.365 77.6401 159.318 75.6601C158.704 74.4981 158.062 73.3491 157.053 71.5031C156.879 73.2661 156.787 74.2271 156.689 75.1811C155.775 74.1051 155.717 72.8141 155.885 71.5181C156.092 69.9431 157.469 69.5401 159.398 70.4411C158.508 71.3561 159.266 72.1361 159.697 72.8251C161.362 75.4751 163.168 78.0341 164.817 80.6931C170.311 89.5631 175.993 98.3221 180.837 107.585C186.034 117.506 191.45 127.309 196.574 137.266C199.578 143.093 202.19 149.124 204.985 155.059C206.836 158.971 208.785 162.838 210.549 166.783C214.551 175.768 218.751 184.665 222.173 193.9C224.449 200.05 227.046 206.088 229.1 212.31C232.135 221.492 235.054 230.73 237.566 240.071C239.415 246.943 241.081 253.884 242.113 260.963C242.783 265.513 243.3 270.12 244.203 274.589C245.123 279.157 244.272 283.863 245.873 288.304C246.206 289.242 245.991 290.382 246.009 291.428C246.085 295.911 246.12 300.399 246.253 304.879C246.297 306.354 246.67 307.818 246.775 309.295C246.949 311.817 247.473 314.424 247.031 316.848C246.512 319.69 246.517 322.48 246.521 325.3C246.525 328.296 246.639 331.285 246.586 334.269C246.558 335.894 246.279 337.516 246.1 339.137C246.048 339.58 245.832 340.028 245.883 340.454C246.351 344.366 245.214 348.151 245.012 352.016C244.828 355.558 244.107 359.071 243.716 362.606C243.537 364.229 243.569 365.88 243.506 367.515C242.805 368.06 242.316 368.639 243.355 369.676C243.409 368.805 243.447 368.152 243.486 367.495C244.876 365.169 245.296 362.496 245.945 359.949C247.679 353.164 249.255 346.343 250.718 339.496C251.583 335.434 252.144 331.3 252.798 327.192C253.332 323.817 253.832 320.441 254.281 317.055C254.436 315.876 254.335 314.665 254.424 313.473C254.549 311.848 254.775 310.226 254.911 308.601C255.03 307.115 255.124 305.629 255.166 304.139C255.27 300.421 254.735 296.678 255.809 292.994C256.087 292.029 255.868 290.913 255.855 289.864C255.788 284.631 255.726 279.392 255.628 274.155C255.583 271.624 255.717 269.093 254.856 266.614C254.48 265.525 254.677 264.239 254.619 263.047C254.389 258.588 254.9 254.083 253.614 249.686C253.287 248.572 253.565 247.297 253.451 246.11C253.294 244.487 253.04 242.871 252.815 241.253C252.729 240.666 252.559 240.085 252.518 239.494C252.053 232.508 250.636 225.661 249.648 218.751C247.98 207.102 245.439 195.648 242.853 184.193C240.399 173.301 237.815 162.444 234.535 151.755C232.963 146.632 231.726 141.407 230.257 136.25C228.623 130.518 226.943 124.798 225.203 119.099C221.237 106.122 217.32 93.1211 212.566 80.3981C209.322 71.7381 205.963 63.1191 202.657 54.4799C200.098 47.7898 197.526 41.106 195.019 34.4035C194.594 33.2651 194.342 32.099 193.154 31.49C194.241 29.5297 194.767 29.3601 196.599 30.3539C196.384 30.869 195.869 31.4915 196.006 31.8812C196.655 33.7047 197.465 35.4708 198.25 37.2476C202.835 47.6139 207.559 57.9281 211.989 68.3631C216.239 78.3911 220.181 88.5501 223.537 98.9151C226.844 109.125 229.973 119.392 233.101 129.653C236.144 139.627 239.189 149.603 242.04 159.634C243.911 166.219 245.508 172.885 247.101 179.543C249.042 187.639 251.009 195.737 252.654 203.895C253.976 210.445 254.811 217.095 255.91 223.692C256.399 226.616 257.008 229.525 257.562 232.441C257.618 232.735 257.691 233.026 257.721 233.321C258.11 237.469 258.182 241.677 258.948 245.753C259.843 250.497 259.296 255.341 260.119 259.991C261.25 266.395 260.878 272.792 261.101 279.196C261.324 285.623 261.372 292.061 261.334 298.495C261.32 301.006 260.773 303.513 260.638 306.034C260.498 308.559 260.441 311.056 260.069 313.588C259.603 316.805 259.652 320.11 259.077 323.346C258.504 326.56 258.052 329.795 257.593 333.024C257.502 333.657 257.596 334.317 257.617 335.958C260.718 328.718 262.744 322.189 264.245 315.511C266.007 307.675 267.635 299.811 269.133 291.92C269.961 287.542 270.377 283.094 271.019 278.68C271.488 275.446 272.201 272.239 272.466 268.989C272.698 266.171 273.008 263.371 273.347 260.562C273.635 258.21 273.722 255.839 274.04 253.466C274.631 249.055 274.706 244.571 274.93 240.11C275.029 238.18 274.991 236.275 275.457 234.339C275.875 232.634 275.658 230.775 275.675 228.984C275.703 226.004 275.432 223.021 276.324 220.082C276.615 219.124 276.406 218.006 276.397 216.957C276.365 213.516 276.263 210.074 276.311 206.635C276.338 204.858 276.646 203.093 276.794 201.315C276.895 200.129 277.024 198.937 277.006 197.75C276.746 178.001 276.465 158.256 276.185 138.505C276.176 137.905 276.273 137.278 276.125 136.713C274.644 131.136 275.321 125.419 275.046 119.769C274.914 117.094 274.84 114.453 274.282 111.777C273.711 109.037 274.007 106.117 273.911 103.277C273.828 100.75 273.724 98.2611 273.172 95.7311C272.607 93.1461 272.891 90.3761 272.791 87.6871C272.707 85.3071 272.905 82.9131 272.007 80.5961C271.697 79.7971 271.816 78.8241 271.783 77.9311C271.637 74.3571 271.914 70.7661 270.825 67.2591C270.482 66.1571 270.722 64.8771 270.67 63.6821C270.552 60.8591 270.765 58.0281 269.842 55.2461C269.433 54.0158 269.654 52.5811 269.6 51.2367C269.496 48.7064 269.655 46.1755 268.79 43.6943C268.413 42.6083 268.599 41.3252 268.549 40.1308C268.441 37.7533 268.648 35.3561 267.744 33.0414C267.434 32.2457 267.551 31.269 267.521 30.3782C267.408 27.5484 267.582 24.7061 266.639 21.9462C266.317 20.9952 266.492 19.8693 266.447 18.8249C266.36 16.7421 266.236 14.7012 265.758 12.6224C265.241 10.3265 265.45 7.86692 265.35 5.47762C265.306 4.43162 265.306 3.38582 265.244 2.33832C265.194 1.46112 264.569 1.07642 263.819 0.833219C265.413 -0.451181 265.989 -0.303681 267.068 1.64672C266.829 2.16392 266.301 2.74462 266.399 3.18852C267.733 9.29342 268.418 15.4935 269.296 21.6667C269.985 26.5197 270.857 31.3393 271.263 36.2407C271.585 40.0769 272.441 43.8652 272.995 47.6854C273.167 48.8637 273.08 50.0769 273.198 51.2665C273.342 52.7432 273.561 54.2132 273.773 55.6841C273.836 56.1221 274.075 56.5531 274.076 56.9871C274.064 61.3221 274.859 65.5901 275.14 69.8871C275.477 74.9451 276.805 79.9151 276.41 85.0231C277.575 88.3441 276.89 91.8841 277.523 95.2131C278.364 99.6661 277.919 104.186 278.63 108.558C279.447 113.619 278.941 118.743 279.745 123.704C280.832 130.41 280.006 137.173 280.914 143.791C282.121 152.585 281.763 161.384 282.017 170.179C282.273 178.851 282.289 187.533 282.388 196.214C282.413 198.296 282.543 200.368 281.88 202.436C281.525 203.533 281.677 204.806 281.679 205.996C281.688 209.139 281.809 212.284 281.75 215.426C281.706 217.349 281.378 219.264 281.235 221.187C281.122 222.672 281.078 224.167 281.046 225.658C280.967 228.93 281.441 232.23 280.4 235.451C280.177 236.136 280.321 236.937 280.311 237.684C280.289 240.514 280.608 243.363 279.656 246.13C279.471 246.674 279.557 247.317 279.562 247.913C279.605 252.695 278.771 257.388 278.125 262.095C277.687 265.313 277.532 268.562 277.466 271.851C279.301 268.613 280.078 265.005 281.169 261.531C282.419 257.557 283.322 253.473 284.463 249.461C286.627 241.857 288.897 234.283 291.039 226.678C293.668 217.358 296.175 208.001 298.795 198.676C300.653 192.073 302.654 185.51 304.507 178.909C306.357 172.307 308.075 165.671 309.906 159.064C311.458 153.465 313.153 147.901 314.67 142.29C316.772 134.523 318.807 126.737 320.797 118.945C323.821 107.108 326.768 95.2581 329.796 83.4231C330.079 82.3201 330.272 81.3931 329.266 80.6071C329.777 79.8791 330.441 79.9111 331.107 80.2911C332.658 81.1721 333.204 82.5181 332.861 84.2481C332.408 83.9311 331.954 83.6121 331.521 83.3071C329.94 91.2091 328.482 99.0611 326.779 106.858C324.69 116.451 322.477 126.016 320.163 135.559C318.234 143.516 316.117 151.426 314.035 159.343C311.869 167.545 309.633 175.735 307.436 183.927C305.467 191.259 303.491 198.589 301.533 205.925C298.881 215.848 296.255 225.778 293.59 235.698C291.811 242.313 290.013 248.923 288.167 255.515C285.033 266.702 281.965 277.907 278.663 289.045C275.101 301.05 271.326 312.995 267.584 324.946C266.471 328.503 265.037 331.958 263.946 335.519C262.556 340.062 261.006 344.577 260.32 349.315C260.115 349.489 259.831 349.637 259.736 349.856C259.675 349.995 259.905 350.259 260.003 350.461C260.08 350.348 260.195 350.239 260.219 350.115C260.272 349.846 260.276 349.567 260.298 349.294C262.365 347.035 263.144 344.09 264.464 341.43C265.32 339.7 265.895 337.827 266.708 336.073C270.652 327.526 274.675 319.016 278.589 310.457C282.686 301.494 286.752 292.516 290.713 283.494C293.889 276.258 296.86 268.929 299.978 261.662C302.866 254.945 305.867 248.274 308.733 241.546C311.302 235.506 313.738 229.416 316.268 223.361C317.645 220.058 319.074 216.77 320.512 213.489C323.691 206.246 326.976 199.047 330.052 191.761C333.129 184.483 336.006 177.12 338.975 169.795C343.008 159.843 347.108 149.92 351.057 139.931C354.786 130.505 358.341 121.004 361.993 111.546C364.303 105.565 366.69 99.6131 368.971 93.6251C369.656 91.8281 370.1 89.9411 370.653 88.0921C372.792 88.5761 373.31 88.9191 373.412 90.5621C373.544 92.5711 373.817 94.6291 372.793 96.5381C372.662 94.6811 372.531 92.8181 372.318 89.8861C370.469 95.0581 368.971 99.2181 367.496 103.39C364.709 111.26 361.998 119.153 359.142 127C355.628 136.665 352.039 146.308 348.399 155.927C345.552 163.453 342.63 170.958 339.644 178.427C335.77 188.119 331.838 197.787 327.851 207.428C324.598 215.282 321.178 223.068 317.921 230.917C314.892 238.216 312.007 245.57 309.002 252.877C306.792 258.257 304.482 263.596 302.216 268.958C299.202 276.097 296.203 283.252 293.167 290.382C291.645 293.951 290.084 297.503 288.479 301.035C285.581 307.428 282.596 313.782 279.729 320.185C276.864 326.582 274.111 333.032 271.273 339.442C269.221 344.084 267.135 348.707 265.03 353.327C261.996 359.985 258.929 366.63 255.905 373.293C255.604 373.957 255.497 374.711 255.297 375.422C255.094 375.597 254.813 375.742 254.718 375.967C254.657 376.102 254.885 376.36 254.983 376.565C255.057 376.449 255.172 376.345 255.195 376.219C255.246 375.955 255.254 375.674 255.276 375.401C255.732 375.03 256.35 374.756 256.632 374.279C260.965 366.968 265.25 359.63 269.554 352.3C273.251 346.001 276.971 339.712 280.658 333.403C284.65 326.583 288.619 319.751 292.585 312.914C296.096 306.849 299.619 300.79 303.072 294.697C306.676 288.333 310.185 281.923 313.768 275.559C315.821 271.917 317.963 268.337 320.026 264.704C322.824 259.777 325.577 254.826 328.362 249.89C331.653 244.044 334.938 238.189 338.267 232.359C341.668 226.404 345.097 220.469 348.543 214.535C353.484 206.025 358.45 197.531 363.41 189.028C367.993 181.169 372.555 173.303 377.176 165.468C379.374 161.743 381.657 158.068 383.957 154.407C388.405 147.339 392.918 140.308 397.342 133.224C398.12 131.978 398.593 130.55 399.21 129.208C401.078 129.033 401.333 129.202 401.806 130.866C400.812 130.959 400.262 131.55 399.792 132.404C394.984 141.167 390.174 149.928 385.298 158.651C381.588 165.291 377.731 171.849 374.025 178.488C371.115 183.699 368.363 188.999 365.479 194.22C362.593 199.44 359.611 204.608 356.704 209.817C354.086 214.509 351.533 219.232 348.918 223.925C346.448 228.353 343.926 232.752 341.443 237.172C338.733 241.983 336.048 246.802 333.345 251.61C330.784 256.162 328.21 260.705 325.651 265.253C322.948 270.061 320.267 274.887 317.553 279.69C314.1 285.791 310.605 291.868 307.162 297.971C304.445 302.774 301.795 307.617 299.073 312.418C295.623 318.516 292.117 324.585 288.663 330.685C288.31 331.314 288.171 332.06 287.929 332.752C287.72 332.93 287.437 333.072 287.341 333.294C287.282 333.433 287.506 333.697 287.609 333.902C287.689 333.794 287.81 333.685 287.834 333.567C287.891 333.297 287.893 333.017 287.922 332.742C289.021 331.752 290.268 330.884 291.201 329.751C295.462 324.597 299.634 319.37 303.84 314.167C303.934 314.055 304.04 313.948 304.142 313.837C308.027 309.521 312.097 305.351 315.747 300.843C319.608 296.078 324.187 291.97 328.019 287.233C331.881 282.454 336.502 278.414 340.368 273.699C346.34 266.405 353.457 260.187 359.53 253.038C368.142 242.89 377.643 233.606 387.026 224.228C392.611 218.65 398.171 213.013 403.984 207.68C407.061 204.864 409.875 201.728 413.123 199.156C417.815 195.443 421.41 190.577 426.328 187.138C427.29 186.466 428.05 185.484 428.801 184.562C428.968 184.355 428.712 183.804 428.656 183.411C430.289 182.799 430.289 182.799 431.374 184.293C430.377 185.188 429.323 186.022 428.39 186.979C410.03 205.839 391.573 224.609 373.406 243.657C368.783 248.503 364.155 253.403 359.858 258.549C357.073 261.88 354.06 264.965 351.183 268.193C348.904 270.749 346.717 273.392 344.456 275.963C342.193 278.536 339.531 280.735 337.671 283.696C336.811 285.059 335.45 286.11 334.322 287.304C328.374 293.586 322.621 300.035 317.147 306.736C316.957 306.965 316.739 307.168 316.535 307.393C312.852 311.5 309.109 315.558 305.507 319.736C302.985 322.664 300.679 325.778 298.233 328.776C296.065 331.428 293.809 334.011 291.638 336.665C289.097 339.777 286.608 342.927 284.098 346.064C281.122 349.784 278.126 353.492 275.176 357.232C272.502 360.619 269.856 364.038 267.235 367.462C267.118 367.613 267.294 367.98 267.375 368.514C267.905 368.115 268.38 367.844 268.751 367.471C270.538 365.669 272.27 363.796 274.083 362.019C279.945 356.273 285.682 350.386 291.758 344.872C297.703 339.478 303.999 334.465 310.162 329.309C315.072 325.201 319.958 321.055 324.961 317.063C329.15 313.719 333.476 310.542 337.77 307.338C345.412 301.635 353.009 295.864 360.761 290.319C366.823 285.977 373.087 281.916 379.278 277.762C383.239 275.107 387.211 272.455 391.236 269.893C399.537 264.613 407.848 259.341 416.22 254.162C422.157 250.489 428.204 246.974 434.381 243.283C433.843 242.984 433.482 242.785 433.12 242.582C435.287 241.762 435.369 241.785 436.574 243.551C431.371 247.033 426.152 250.491 420.966 254C410.227 261.276 399.508 268.591 388.774 275.868C382.726 279.969 376.568 283.912 370.605 288.13C357.843 297.165 345.103 306.238 332.894 316.025C326.858 320.864 320.661 325.513 314.683 330.422C310.203 334.104 305.952 338.072 301.579 341.897C300.912 342.481 300.131 342.943 299.462 343.53C298.485 344.392 297.563 345.31 296.607 346.208C297.444 347.071 297.896 346.486 298.325 346.156C303.98 341.751 309.985 337.874 316.145 334.221C317.167 333.615 318.154 332.93 319.211 332.387C328.11 327.828 336.803 322.834 346.211 319.324C354.452 316.252 362.68 313.135 370.974 310.205C384.758 305.341 398.625 300.698 412.395 295.782C422.488 292.186 432.485 288.298 442.579 284.52C441.573 283.262 440.138 284.395 439.078 283.774C440.352 283.556 441.613 283.21 442.891 283.169C443.916 283.134 444.914 283.518 445.198 284.749C433.122 290.618 420.633 295.528 408.268 300.722C405.38 301.931 402.478 303.11 399.534 304.172C388.173 308.275 376.756 312.222 365.431 316.42C356.207 319.838 346.898 323.062 338.103 327.543C334.782 329.233 331.286 330.598 328.016 332.376C317.646 338.005 307.721 344.335 298.373 351.543C293.897 355 289.388 358.412 284.982 361.953C282.596 363.875 280.397 366.027 277.981 368.197C278.572 368.328 278.913 368.522 279.08 368.421C280.747 367.432 282.385 366.404 284.026 365.369C296.236 357.671 309.291 352.032 323.511 349.254C328.318 348.316 333.118 347.314 337.954 346.568C340.3 346.211 342.729 346.382 345.115 346.295C347.347 346.213 349.565 346.332 351.765 345.581C352.991 345.163 354.425 345.311 355.766 345.287C362.642 345.174 369.521 345.042 376.399 345.019C378.318 345.016 380.236 345.501 382.154 345.518C386.475 345.558 390.799 345.452 395.118 345.371C395.363 345.364 395.601 345.051 395.848 344.88C398.075 345.214 400.478 345.112 401.973 347.305C398.829 347.354 395.686 347.39 392.543 347.464C390.012 347.52 387.481 347.381 384.998 348.237C383.912 348.612 382.625 348.443 381.431 348.468C376.194 348.565 370.953 348.609 365.714 348.737C362.443 348.814 359.201 348.815 355.924 349.539C353.198 350.145 350.263 349.838 347.421 349.863C343.079 349.905 338.879 350.991 334.595 351.489C330.449 351.968 326.375 352.792 322.33 353.812C311.845 356.457 301.89 360.465 292.47 365.736C286.34 369.163 280.569 373.174 275.075 377.54C269.943 381.618 265.004 385.932 260.018 390.188C259.183 390.907 258.558 391.869 257.423 393.204C261.066 392.55 263.695 391.106 266.363 389.932C272.691 387.144 279.368 385.567 286.045 384.047C291.107 382.893 296.238 381.854 301.497 381.921C310.368 380.059 319.385 381.175 328.317 380.629C330.241 380.509 332.148 380.155 334.07 379.963C335.554 379.816 337.044 379.69 338.531 379.665C350.807 379.462 363.082 379.303 375.352 379.071C377.126 379.033 378.888 378.632 380.659 378.441C381.991 378.294 383.331 378.141 384.67 378.11C388.836 378.017 393.006 377.98 397.507 377.918C397.038 377.181 396.756 376.743 396.479 376.306C397.599 376.54 398.737 376.704 399.827 377.032C400.592 377.267 400.93 377.92 400.795 378.756C397.128 379.286 393.461 379.827 389.792 380.343C388.612 380.508 387.429 380.676 386.248 380.731C383.868 380.845 381.493 380.747 379.163 381.544C378.075 381.919 376.795 381.741 375.603 381.79C372.486 381.92 369.393 381.911 366.277 382.62C363.703 383.208 360.923 382.859 358.236 382.951C355.264 383.054 352.273 382.795 349.359 383.797C348.413 384.125 347.288 383.966 346.244 383.985C341.313 384.075 336.38 384.131 331.45 384.237C328.777 384.291 326.133 384.317 323.463 384.992C321.337 385.529 319.006 385.218 316.77 385.317C313.209 385.482 309.59 385.02 306.114 386.258C305.577 386.452 304.93 386.372 304.332 386.378C298.791 386.418 293.421 387.682 288.053 388.822C283.407 389.815 278.781 390.993 274.256 392.44C270.434 393.663 266.758 395.349 263.051 396.911C258.697 398.745 254.378 400.671 249.888 402.62C250.452 403.23 250.836 403.647 251.225 404.062C250.636 404.101 250.038 404.219 249.457 404.167C242.953 403.595 236.463 402.913 229.954 402.43C223 401.911 216.034 401.592 209.074 401.143C206.871 401.003 204.667 400.732 202.468 400.521C204.351 400.365 206.243 400.211 208.564 400.022C208.007 399.282 207.764 398.739 207.345 398.432C202.558 394.868 197.646 391.427 192.281 388.845C187.875 386.727 183.122 385.334 178.535 383.6C173.758 381.788 168.65 381.551 163.718 380.483C162.574 380.232 161.335 380.337 160.146 380.349C154.911 380.41 149.674 380.349 144.45 380.611C140.598 380.803 136.737 381.239 132.938 381.9C127.095 382.92 121.275 384.131 115.484 385.441C109.831 386.723 104.156 388 98.6177 389.689C89.2127 392.548 79.8857 395.685 70.5637 398.815C66.4687 400.184 62.4747 401.86 58.4087 403.323C57.3267 403.712 56.6187 404.342 56.1817 405.356C55.2927 404.75 55.3787 403.882 55.6867 403.062C56.1037 401.976 56.7157 401.006 57.9127 400.61C58.4547 401.282 59.0687 401.413 59.8807 401.077ZM234.116 382.048C234.247 382.046 234.378 382.045 234.507 382.043C234.499 381.406 234.491 380.773 234.481 380.138C234.352 380.141 234.22 380.142 234.09 380.142C234.101 380.777 234.107 381.412 234.116 382.048Z" fill="#275283"/>
<path d="M45.0367 193.441C47.6937 194.374 50.4047 195.181 52.9957 196.273C57.2627 198.066 61.5157 199.904 65.6517 201.973C72.8557 205.579 80.0037 209.304 87.1087 213.111C93.2847 216.425 99.4767 219.727 105.452 223.382C113.079 228.048 120.523 233.019 127.983 237.95C131.46 240.248 134.834 242.709 138.192 245.181C143.59 249.146 148.779 253.377 153.934 257.666C159.121 261.982 163.865 266.715 168.682 271.384C171.46 274.075 174.099 276.94 176.546 279.932C181.912 286.506 187.334 293.036 192.027 300.137C199.117 310.867 205.298 322.103 211.009 333.611C211.789 335.184 211.829 337.154 213.457 338.281L213.434 338.303C213.286 334.597 211.281 331.504 209.964 328.211C203.798 312.804 196.479 297.931 188.558 283.361C184.853 276.546 180.861 269.887 176.889 263.223C172.844 256.432 168.761 249.655 164.493 243.009C160.78 237.234 156.905 231.56 152.898 225.987C146.902 217.639 140.819 209.345 134.581 201.172C131.519 197.147 128.021 193.458 124.736 189.601C122.228 186.654 119.752 183.681 117.258 180.721C116.871 180.266 116.434 179.855 116.023 179.417C107.129 169.928 97.9067 160.768 88.5117 151.78C87.4607 150.77 86.4737 149.685 85.3787 148.555C85.8857 148.402 86.2607 148.174 86.3827 148.27C89.1567 150.517 91.8567 152.864 94.6717 155.061C103.543 161.98 111.01 170.394 119.178 178.063C123.531 182.149 127.324 186.757 131.169 191.319C133.571 194.162 136.228 196.799 138.605 199.661C141.938 203.671 145.241 207.716 148.336 211.904C154.36 220.056 160.424 228.189 166.118 236.57C172.568 246.067 178.644 255.816 184.539 265.681C192.444 278.911 199.415 292.628 206.329 306.375C210.684 315.027 214.321 324.029 217.852 333.066C221.007 341.137 223.613 349.364 225.766 357.737C226.757 361.591 227.543 365.497 228.978 369.371C229.028 368.62 229.122 367.866 229.11 367.113C228.979 357.09 228.858 347.071 228.662 337.048C228.631 335.431 228.234 333.817 228.011 332.201C227.909 331.463 227.777 330.729 227.725 329.987C227.225 322.699 225.77 315.564 224.219 308.448C221.969 298.106 218.943 287.986 215.75 277.895C212.958 269.066 209.679 260.441 206.316 251.825C203.01 243.339 199.454 234.974 195.516 226.765C193.254 222.056 190.928 217.375 188.663 212.666C187.168 209.577 185.84 206.399 184.245 203.366C179.926 195.17 175.627 186.964 171.09 178.887C165.904 169.655 160.432 160.578 155.146 151.4C150.454 143.247 145.437 135.317 140.21 127.494C133.336 117.2 125.951 107.281 118.396 97.4921C115.571 93.8381 112.896 90.0731 110.128 86.3781C109.691 85.7921 109.115 85.3071 108.601 84.7731C107.896 86.1151 108.311 87.4091 108.849 88.6511C109.614 90.4351 110.4 92.2151 111.282 93.9441C120.447 111.923 129.515 129.952 138.848 147.843C150.686 170.552 164.553 192.03 178.947 213.182C181.892 217.504 184.846 221.813 187.795 226.134C189.257 228.011 190.717 229.891 192.173 231.772C193.384 232.838 194.368 234.046 195.13 236.331C193.126 235.121 192.031 234.089 191.325 232.635C189.786 230.886 188.247 229.136 186.709 227.385C185.441 226.12 184.146 224.884 182.914 223.587C165.591 205.335 147.444 187.956 127.769 172.233C115.02 162.043 101.711 152.622 87.9327 143.877C85.9157 142.599 83.8417 141.391 81.7507 140.229C80.8487 139.73 79.8537 139.333 78.8527 139.08C77.9567 138.853 76.9547 139.03 76.5287 139.963C76.2507 140.578 76.0877 141.471 76.3257 142.052C76.8267 143.284 77.5357 144.457 78.3197 145.537C80.7677 148.938 83.2597 152.306 85.7817 155.65C97.1287 170.699 108.44 185.776 119.864 200.769C132.589 217.459 146.666 232.952 161.824 247.464C163.341 248.078 164.278 249.258 165.745 251.277C163.359 250.401 161.985 249.738 161.003 248.396C147.602 239.71 134.113 231.176 120.148 223.405C99.2607 211.781 77.6937 201.584 55.5127 192.695C53.0277 191.702 50.4427 190.935 47.8797 190.167C46.6107 189.792 45.5137 190.281 44.8047 191.43C44.3757 192.131 44.4077 192.834 45.0367 193.441Z" fill="#1D375A"/>
<path d="M110.092 83.8251C114.899 89.5101 119.777 95.1381 124.486 100.902C128.44 105.741 132.226 110.728 136.035 115.686C138.579 118.993 141.153 122.284 143.502 125.724C147.292 131.265 150.973 136.882 154.571 142.545C158.328 148.459 161.959 154.457 165.593 160.448C167.37 163.382 169.023 166.388 170.739 169.365C173.713 174.538 176.694 179.706 179.659 184.885C180.254 185.922 180.778 186.999 181.331 188.056C185.736 196.552 190.124 205.059 194.551 213.54C199.115 222.275 203.068 231.292 207.115 240.273C211.958 251.032 216.052 262.073 219.973 273.178C223.395 282.873 226.355 292.724 228.804 302.708C230.397 309.193 231.68 315.768 232.843 322.352C233.514 326.15 233.663 330.033 234.064 333.88C234.169 334.916 234.34 335.941 234.49 336.967C234.661 338.144 234.975 339.314 234.996 340.495C235.147 348.417 235.252 356.342 235.337 364.271C235.349 365.3 235.163 366.343 235.045 367.374C234.907 368.554 234.609 369.731 234.612 370.903C234.616 373.083 234.441 375.279 235.004 378.522C236.071 373.287 236.822 369.098 237.205 364.837C237.361 363.067 237.748 361.32 237.994 359.551C238.509 355.881 239.023 352.208 239.489 348.524C239.616 347.492 239.523 346.432 239.608 345.395C239.757 343.622 239.996 341.857 240.136 340.082C240.26 338.598 240.31 337.106 240.351 335.616C240.447 332.347 239.964 329.059 240.96 325.823C241.257 324.862 241.064 323.745 241.048 322.696C240.971 316.417 240.912 310.135 240.76 303.857C240.725 302.234 240.399 300.615 240.184 298.997C240.106 298.408 239.863 297.824 239.881 297.244C240.056 291.261 239.262 285.343 238.654 279.418C238.32 276.164 237.944 272.914 237.447 269.681C236.99 266.752 236.238 263.868 235.787 260.941C234.517 252.699 232.655 244.583 230.392 236.571C228.452 229.69 226.406 222.834 224.165 216.044C221.548 208.123 218.883 200.201 215.852 192.432C212.003 182.573 207.887 172.82 203.669 163.112C199.628 153.81 195.313 144.631 191.112 135.401C190.677 134.451 190.182 133.527 189.702 132.596C183.789 121.182 177.951 109.724 171.929 98.3601C168.93 92.6981 165.588 87.2091 162.437 81.6201C161.339 79.6681 160.366 77.6391 159.319 75.6591C158.705 74.4981 158.063 73.3491 157.054 71.5021C156.88 73.2661 156.787 74.2271 156.689 75.1811C157.811 78.8861 158.81 82.6281 160.077 86.2791C170.457 116.201 182.614 145.39 196.189 173.998C199.58 181.139 202.816 188.352 206.126 195.534C208.813 199.77 209.859 202.164 210.361 205.459C208.268 202.746 206.452 200.27 205.238 197.394C201.53 191.781 197.826 186.166 194.115 180.552C181.648 161.707 168.499 143.36 153.749 126.205C143.012 113.714 131.655 101.814 119.777 90.4141C117.728 88.4491 115.541 86.6281 113.362 84.8041C112.447 84.0391 111.425 83.3511 110.092 83.8251Z" fill="#1D375A"/>
<path d="M196.602 30.3525C196.387 30.8677 195.872 31.4901 196.009 31.8799C196.658 33.7033 197.468 35.4695 198.253 37.2463C202.838 47.6126 207.562 57.9271 211.992 68.3621C216.242 78.3901 220.184 88.5491 223.54 98.9141C226.847 109.123 229.976 119.391 233.104 129.651C236.147 139.626 239.192 149.602 242.043 159.633C243.914 166.218 245.511 172.884 247.104 179.542C249.045 187.638 251.012 195.735 252.657 203.894C253.98 210.444 254.814 217.093 255.913 223.69C256.402 226.615 257.011 229.523 257.565 232.44C257.621 232.733 257.694 233.025 257.724 233.32C258.113 237.468 258.185 241.675 258.951 245.751C259.846 250.496 259.299 255.34 260.122 259.99C261.253 266.394 260.881 272.79 261.104 279.195C261.327 285.622 261.375 292.06 261.337 298.493C261.323 301.005 260.776 303.511 260.641 306.032C260.501 308.557 260.444 311.054 260.072 313.587C259.606 316.804 259.655 320.108 259.08 323.344C258.507 326.559 258.056 329.793 257.596 333.023C257.505 333.655 257.599 334.315 257.62 335.957C260.721 328.717 262.747 322.187 264.248 315.51C266.01 307.673 267.638 299.809 269.136 291.919C269.964 287.541 270.38 283.093 271.022 278.678C271.491 275.445 272.204 272.238 272.469 268.988C272.701 266.17 273.012 263.369 273.35 260.56C273.638 258.208 273.725 255.838 274.043 253.465C274.634 249.053 274.709 244.57 274.933 240.108C275.032 238.178 274.993 236.274 275.46 234.338C275.878 232.633 275.661 230.773 275.678 228.983C275.706 226.003 275.436 223.02 276.327 220.081C276.618 219.123 276.409 218.004 276.4 216.956C276.368 213.515 276.266 210.072 276.314 206.634C276.341 204.857 276.649 203.092 276.797 201.314C276.898 200.127 277.027 198.936 277.009 197.749C276.749 177.999 276.468 158.255 276.188 138.504C276.179 137.904 276.276 137.276 276.128 136.712C274.647 131.134 275.324 125.418 275.049 119.767C274.917 117.093 274.843 114.451 274.285 111.775C273.714 109.036 274.01 106.115 273.914 103.275C273.831 100.748 273.727 98.2601 273.175 95.7301C272.61 93.1441 272.894 90.3751 272.794 87.6851C272.71 85.3061 272.908 82.9121 272.01 80.5941C271.7 79.7961 271.819 78.8231 271.786 77.9301C271.64 74.3561 271.917 70.7651 270.828 67.2571C270.485 66.1561 270.725 64.8761 270.673 63.6811C270.555 60.8581 270.769 58.0261 269.845 55.2451C269.436 54.0145 269.657 52.5798 269.603 51.2354C269.499 48.705 269.658 46.1741 268.793 43.693C268.416 42.607 268.602 41.3238 268.552 40.1295C268.444 37.7519 268.651 35.3549 267.747 33.0401C267.437 32.2445 267.554 31.2676 267.524 30.3768C267.411 27.5471 267.585 24.7048 266.642 21.9449C266.32 20.9938 266.495 19.868 266.45 18.8236C266.363 16.7408 266.239 14.6999 265.761 12.6212C265.244 10.3252 265.453 7.86572 265.353 5.47632C265.309 4.43042 265.309 3.38462 265.247 2.33702C265.197 1.45982 264.572 1.07522 263.822 0.832016C263.499 2.42112 262.959 4.00302 262.898 5.60182C262.066 27.5542 261.955 49.4945 263.15 71.4611C263.957 86.3721 263.728 101.335 264.023 116.271C264.343 132.552 264.615 148.839 265.145 165.116C265.422 173.621 266.225 182.11 266.773 190.609C266.98 193.737 267.147 196.875 267.326 200.005C268.478 203.323 268.346 206.733 268.217 210.315C267.807 209.99 267.47 209.858 267.425 209.66C267.093 208.257 266.824 206.841 266.537 205.429C260.791 182.985 254.531 160.686 247.441 138.625C236.146 103.463 220.825 70.1231 202.43 38.1476C201.462 36.4591 200.483 34.7685 199.346 33.2043C198.574 32.1471 197.526 31.2937 196.602 30.3525Z" fill="#1D375A"/>
<path d="M243.49 367.492C244.881 365.167 245.3 362.493 245.95 359.946C247.683 353.162 249.26 346.341 250.723 339.494C251.588 335.431 252.148 331.298 252.802 327.19C253.336 323.815 253.837 320.439 254.286 317.052C254.441 315.873 254.339 314.662 254.429 313.47C254.553 311.845 254.78 310.223 254.916 308.598C255.035 307.113 255.129 305.626 255.17 304.137C255.275 300.418 254.74 296.676 255.813 292.992C256.091 292.027 255.873 290.911 255.86 289.861C255.793 284.628 255.73 279.39 255.633 274.153C255.587 271.622 255.722 269.091 254.86 266.611C254.485 265.523 254.681 264.237 254.624 263.044C254.393 258.586 254.905 254.081 253.618 249.683C253.292 248.57 253.57 247.294 253.456 246.108C253.299 244.484 253.045 242.869 252.82 241.251C252.734 240.664 252.564 240.083 252.522 239.492C252.058 232.505 250.641 225.658 249.653 218.748C247.985 207.1 245.443 195.646 242.857 184.191C240.403 173.298 237.82 162.442 234.54 151.753C232.968 146.629 231.731 141.404 230.262 136.247C228.628 130.516 226.948 124.796 225.207 119.097C221.242 106.119 217.325 93.1191 212.571 80.3961C209.327 71.7351 205.968 63.1171 202.662 54.4774C200.103 47.7873 197.531 41.1035 195.024 34.401C194.599 33.2626 194.347 32.0966 193.158 31.4876C192.527 33.7383 193.052 35.9424 193.468 38.1358C195.793 50.4834 199.08 62.5941 202.334 74.7201C206.433 90.0181 210.242 105.397 214.345 120.69C219.422 139.601 225.309 158.27 231.34 176.893C231.571 177.595 231.713 178.331 231.898 179.055C232.564 180.821 233.227 182.59 233.89 184.359C234.945 185.762 235.336 187.361 235.591 189.526C233.957 188.141 233.415 186.724 232.961 185.249C232.34 183.783 231.715 182.311 231.094 180.842C227.677 174.377 224.298 167.899 220.846 161.452C205.585 132.968 188.348 105.759 168.387 80.3051C166.639 78.0761 164.865 75.8531 162.985 73.7331C161.914 72.5281 160.602 71.5301 159.401 70.4381C158.511 71.3531 159.268 72.1331 159.699 72.8221C161.364 75.4721 163.171 78.0321 164.82 80.6901C170.313 89.5611 175.995 98.3191 180.84 107.582C186.036 117.503 191.453 127.306 196.577 137.263C199.58 143.091 202.192 149.121 204.988 155.056C206.838 158.968 208.788 162.835 210.551 166.78C214.553 175.765 218.753 184.662 222.175 193.897C224.452 200.047 227.049 206.085 229.102 212.307C232.138 221.489 235.057 230.727 237.569 240.068C239.418 246.94 241.084 253.881 242.116 260.96C242.785 265.51 243.302 270.117 244.205 274.586C245.125 279.154 244.274 283.86 245.875 288.301C246.208 289.239 245.994 290.379 246.011 291.425C246.087 295.908 246.123 300.396 246.256 304.876C246.299 306.351 246.673 307.815 246.777 309.292C246.952 311.814 247.476 314.421 247.034 316.845C246.514 319.687 246.519 322.477 246.523 325.297C246.527 328.293 246.641 331.282 246.589 334.266C246.56 335.891 246.281 337.513 246.102 339.135C246.051 339.577 245.835 340.025 245.885 340.451C246.353 344.363 245.217 348.149 245.014 352.013C244.831 355.555 244.109 359.068 243.719 362.603C243.54 364.226 243.571 365.877 243.508 367.512L243.49 367.492Z" fill="#1D375A"/>
<path d="M28.1865 258.435C30.9916 259.455 33.8709 260.007 36.8677 259.955C39.1007 259.92 41.3437 259.745 43.5237 260.559C44.1937 260.812 45.0057 260.72 45.7507 260.709C49.6427 260.658 53.4267 261.544 57.2597 262.016C59.9157 262.341 62.5617 262.742 65.2047 263.116C74.0517 264.363 82.8137 266.037 91.4567 268.336C100.261 270.676 108.927 273.459 117.332 276.95C122.435 279.07 127.489 281.398 132.297 284.117C138.915 287.854 145.333 291.963 151.739 296.066C157.513 299.762 163.058 303.784 168.376 308.135C173.565 312.391 178.763 316.634 183.606 321.283C189.967 327.391 195.488 334.23 200.921 341.154C208.618 350.966 214.159 362.031 219.636 373.18C220.55 373.008 220.119 372.305 220.169 371.859C220.216 371.425 220.139 370.96 220.026 370.529C217.204 359.849 214.193 349.243 209.059 339.372C206.855 335.134 205.078 330.667 202.748 326.502C196.194 314.778 189.191 303.327 180.792 292.792C178.098 289.42 175.458 286.003 172.789 282.606C172.606 282.369 172.431 282.125 172.231 281.907C165.735 274.887 159.266 267.825 152.091 261.502C147.29 257.27 142.207 253.353 137.109 249.48C130.586 244.519 124.08 239.518 117.286 234.945C106.765 227.868 95.9537 221.221 84.8097 215.146C79.5657 212.288 74.3357 209.405 69.0447 206.64C63.4857 203.734 57.8597 200.949 52.2597 198.12C51.5937 197.785 50.9167 197.346 50.2027 197.267C49.7717 197.213 49.2667 197.75 48.7917 198.023C49.0667 198.373 49.2997 198.763 49.6207 199.062C67.5897 216.012 86.0337 232.398 106.306 246.605C119.306 255.72 132.909 263.84 146.806 271.486C148.081 272.182 149.384 272.826 150.676 273.497C152.08 274.154 153.646 274.58 154.798 276.29C152.97 276.158 151.635 275.82 150.557 274.775C135.825 269.934 120.926 265.739 105.731 262.594C83.2097 257.93 60.4697 256.274 37.5197 257.344C34.3958 257.485 31.2979 258.059 28.1865 258.435Z" fill="#1D375A"/>
<path d="M260.301 349.298C262.367 347.039 263.146 344.094 264.466 341.435C265.322 339.704 265.898 337.831 266.71 336.077C270.654 327.53 274.677 319.02 278.592 310.461C282.689 301.499 286.755 292.521 290.716 283.498C293.891 276.262 296.862 268.933 299.981 261.667C302.868 254.949 305.87 248.278 308.735 241.551C311.304 235.51 313.74 229.42 316.27 223.365C317.647 220.062 319.076 216.774 320.514 213.493C323.693 206.25 326.979 199.051 330.054 191.766C333.132 184.487 336.008 177.125 338.977 169.799C343.011 159.847 347.11 149.924 351.059 139.935C354.788 130.509 358.343 121.008 361.995 111.551C364.306 105.57 366.692 99.6171 368.973 93.6291C369.658 91.8331 370.102 89.9451 370.655 88.0971C369.231 87.9471 368.453 88.9411 367.783 89.8981C366.324 91.9701 364.892 94.0671 363.612 96.2471C356.509 108.341 350.101 120.806 344.407 133.609C337.564 148.989 331.063 164.521 324.415 179.987C323.825 181.356 323.231 182.719 322.643 184.085C322.06 185.871 321.477 187.661 320.891 189.447C320.348 191.1 320.099 192.886 318.583 194.485C318.012 192.096 318.82 190.315 319.826 188.573C320.407 186.719 320.988 184.871 321.568 183.019C322.79 177.345 324.032 171.671 325.221 165.988C327.975 152.842 329.809 139.571 331.027 126.202C332.067 114.762 332.914 103.319 333.111 91.8351C333.158 89.3101 332.954 86.7781 332.861 84.2531C332.407 83.9351 331.954 83.6171 331.52 83.3121C329.94 91.2131 328.481 99.0661 326.778 106.863C324.689 116.456 322.476 126.021 320.163 135.563C318.233 143.52 316.116 151.431 314.035 159.348C311.868 167.55 309.632 175.739 307.436 183.931C305.466 191.264 303.491 198.594 301.532 205.929C298.881 215.852 296.254 225.783 293.589 235.702C291.81 242.318 290.012 248.928 288.166 255.519C285.033 266.706 281.965 277.911 278.663 289.05C275.1 301.055 271.326 312.999 267.583 324.951C266.47 328.508 265.036 331.963 263.945 335.524C262.555 340.066 261.005 344.582 260.319 349.32L260.301 349.298Z" fill="#1D375A"/>
<path d="M372.797 96.5431C372.665 94.6861 372.534 92.8231 372.322 89.8911C370.472 95.0631 368.975 99.2231 367.499 103.395C364.712 111.265 362.001 119.158 359.146 127.005C355.631 136.67 352.043 146.313 348.402 155.932C345.555 163.458 342.634 170.963 339.647 178.432C335.773 188.124 331.842 197.792 327.854 207.433C324.601 215.287 321.181 223.073 317.925 230.922C314.895 238.221 312.011 245.575 309.006 252.882C306.796 258.262 304.486 263.601 302.219 268.963C299.206 276.103 296.206 283.257 293.17 290.388C291.649 293.956 290.087 297.508 288.483 301.04C285.584 307.433 282.599 313.787 279.733 320.19C276.868 326.587 274.115 333.037 271.277 339.447C269.225 344.089 267.138 348.712 265.034 353.332C262 359.99 258.933 366.635 255.909 373.298C255.608 373.962 255.5 374.716 255.3 375.427C255.304 375.427 255.28 375.407 255.28 375.407C255.736 375.036 256.354 374.762 256.636 374.285C260.969 366.974 265.254 359.635 269.559 352.306C273.256 346.007 276.975 339.718 280.662 333.409C284.654 326.588 288.624 319.757 292.589 312.92C296.1 306.854 299.623 300.796 303.076 294.703C306.681 288.339 310.189 281.928 313.772 275.564C315.826 271.923 317.967 268.342 320.03 264.71C322.828 259.783 325.582 254.832 328.366 249.896C331.657 244.049 334.942 238.195 338.272 232.365C341.672 226.41 345.101 220.474 348.547 214.541C353.488 206.031 358.454 197.536 363.415 189.034C367.997 181.175 372.56 173.309 377.18 165.473C379.378 161.749 381.662 158.074 383.961 154.413C388.41 147.344 392.922 140.314 397.347 133.229C398.125 131.984 398.597 130.556 399.215 129.213C396.701 129.985 394.992 131.846 393.237 133.643C377.205 150.043 362.763 167.718 350.55 187.154C346.023 194.36 341.726 201.713 337.318 208.998C335.541 212.222 333.767 215.45 331.958 218.659C331.856 218.84 331.454 218.859 331.191 218.949C331.159 219.5 331.125 220.045 331.091 220.588C330.628 221.483 330.161 222.378 329.694 223.272C329.276 224.072 328.938 224.943 327.863 225.263C328.413 223.322 328.794 221.351 330.349 219.902C330.657 219.608 330.965 219.317 331.274 219.021C332.193 215.001 334.158 211.454 336.289 207.981C340.259 198.811 344.323 189.681 348.18 180.461C356.19 161.306 363.223 141.807 367.985 121.557C369.59 114.733 370.955 107.856 372.366 100.986C372.657 99.5391 372.66 98.0251 372.797 96.5431Z" fill="#1D375A"/>
<path d="M2.73567 302.744C4.50077 304.099 6.52697 303.658 8.32547 303.168C10.2467 302.647 12.1404 302.523 14.0766 302.495C26.3485 302.318 38.6167 302.125 50.8827 302.002C52.6547 301.981 54.4307 302.308 56.2057 302.49C56.7927 302.547 57.3957 302.767 57.9727 302.706C62.9227 302.171 67.7757 303.406 72.6887 303.51C75.3537 303.566 78.0377 303.905 80.6627 304.391C89.2837 305.986 98.0077 306.97 106.524 309.162C116.798 311.803 126.995 314.684 136.78 318.768C144.22 321.87 151.55 325.278 158.738 328.926C167.123 333.18 175.07 338.223 182.739 343.664C185.525 345.638 188.022 348.022 190.665 350.212C192.497 351.733 194.442 353.136 196.173 354.765C202.608 360.821 208.119 367.661 213.015 375.004C213.332 375.48 213.702 375.92 214.109 376.453C214.328 376.031 214.6 375.747 214.54 375.6C210.428 365.449 204.931 356.062 198.598 347.161C195.835 343.283 192.819 339.598 189.76 335.93C183.985 329.009 177.309 323.022 170.785 316.892C165.801 312.211 160.337 308.03 154.681 304.141C151.123 301.692 147.678 299.058 144.012 296.785C138.437 293.328 132.736 290.07 127.05 286.793C117.303 281.175 106.836 277.185 96.1637 273.823C87.6487 271.139 78.9527 269.035 70.1357 267.484C65.0177 266.581 59.9417 265.39 54.8147 264.543C49.9807 263.74 45.0937 263.236 40.2347 262.568C37.2977 262.162 34.3766 261.59 31.4257 261.271C29.2081 261.036 26.9617 261.092 24.7245 261.013C24.4107 262.262 25.136 263.07 26.0433 263.604C27.7152 264.578 29.4168 265.55 31.2128 266.259C38.7157 269.215 46.2237 272.169 53.7947 274.932C73.9967 282.31 94.2297 289.585 114.45 296.911C115.242 297.2 116.005 297.585 116.698 298.334C115.401 298.274 114.092 298.302 112.806 298.15C94.5107 295.97 76.1567 295.006 57.7457 295.723C46.9877 296.137 36.2497 296.981 25.5902 298.544C18.9371 299.512 12.3051 300.617 5.67647 301.726C4.67177 301.893 3.71207 302.395 2.73567 302.744Z" fill="#1D375A"/>
<path d="M57.9157 400.619C58.4537 401.282 59.0677 401.412 59.8807 401.077C62.2187 400.112 64.6027 399.237 66.9417 398.259C78.9177 393.251 91.1697 389.049 103.635 385.389C109.927 383.54 116.27 381.946 122.63 380.43C127.243 379.333 132.01 378.902 136.663 377.954C144.502 376.363 152.445 377.185 160.323 376.71C164.252 376.473 168.116 377.018 171.864 377.762C180.503 379.483 189.009 381.889 196.812 386.09C201.128 388.413 205.125 391.322 209.27 393.962C209.71 394.238 210.187 394.454 210.981 394.307C209.868 392.807 208.936 391.12 207.61 389.84C203.524 385.919 199.68 381.769 195.166 378.254C191.496 375.4 187.646 372.854 183.732 370.426C178.422 367.129 172.94 364.148 167.126 361.706C161.877 359.504 156.581 357.547 151.149 355.923C145.299 354.175 139.408 352.662 133.326 351.858C128.911 351.272 124.494 350.711 120.077 350.165C116.035 349.664 112.052 349.655 108.039 349.664C101.757 349.683 95.4747 349.804 89.1947 349.929C86.2217 349.985 83.2037 349.704 80.3287 350.801C79.9237 350.956 79.4387 350.935 78.9897 350.93C73.3067 350.901 67.7707 352.064 62.1787 352.867C48.3267 354.849 34.6951 357.821 21.1571 361.309C16.4107 362.533 11.6018 363.51 6.82547 364.614C5.49607 364.923 4.22067 365.344 3.50317 366.657C4.25947 367.732 5.39807 368.051 6.61097 368.18C9.13947 368.447 11.6581 368.85 14.1937 368.923C25.1127 369.239 36.0267 369.453 46.9457 369.717C63.2637 370.111 79.5687 369.543 95.8407 368.521C105.234 367.932 114.573 366.524 123.934 365.482C126.508 364.017 129.389 364.409 132.171 364.06C130.607 365.51 128.733 366.112 126.708 366.352C113.609 370.844 100.965 376.416 88.6417 382.693C80.4357 386.876 72.4267 391.448 64.4007 395.982C62.0997 397.286 60.0727 399.061 57.9157 400.619Z" fill="#1D375A"/>
<path d="M267.068 1.64672C266.829 2.16392 266.301 2.74462 266.399 3.18852C267.732 9.29342 268.418 15.4935 269.296 21.6667C269.985 26.5197 270.857 31.3393 271.263 36.2407C271.585 40.0769 272.441 43.8652 272.995 47.6854C273.167 48.8637 273.08 50.0769 273.198 51.2665C273.342 52.7432 273.561 54.2132 273.773 55.6841C273.836 56.1221 274.075 56.5521 274.076 56.9871C274.064 61.3221 274.858 65.5911 275.139 69.8881C275.477 74.9461 276.805 79.9161 276.409 85.0241C277.575 88.3451 276.89 91.8841 277.523 95.2131C278.364 99.6661 277.919 104.186 278.63 108.559C279.447 113.62 278.94 118.743 279.745 123.704C280.832 130.41 280.006 137.174 280.914 143.792C282.121 152.586 281.763 161.385 282.017 170.18C282.272 178.852 282.289 187.534 282.388 196.215C282.412 198.297 282.543 200.369 281.879 202.437C281.525 203.534 281.677 204.807 281.679 205.997C281.687 209.14 281.808 212.285 281.75 215.427C281.706 217.35 281.378 219.265 281.235 221.188C281.122 222.673 281.078 224.168 281.046 225.658C280.967 228.93 281.441 232.23 280.4 235.451C280.176 236.136 280.321 236.936 280.311 237.684C280.288 240.514 280.608 243.364 279.656 246.131C279.471 246.675 279.556 247.318 279.562 247.914C279.605 252.696 278.771 257.388 278.125 262.095C277.687 265.313 277.532 268.562 277.466 271.851C279.3 268.614 280.078 265.005 281.169 261.531C282.419 257.557 283.321 253.473 284.463 249.462C286.627 241.858 288.896 234.284 291.039 226.679C293.667 217.359 296.175 208.001 298.795 198.676C300.653 192.073 302.654 185.51 304.507 178.909C306.357 172.307 308.075 165.671 309.906 159.064C311.458 153.465 313.152 147.902 314.67 142.291C316.772 134.523 318.806 126.737 320.797 118.945C323.821 107.108 326.768 95.2591 329.795 83.4241C330.079 82.3211 330.272 81.3931 329.266 80.6071C327.159 81.6131 326.587 83.7531 325.76 85.6091C322.515 92.8331 319.306 100.073 316.253 107.376C306.676 130.285 298.373 153.628 292.567 177.805C292.392 178.534 292.15 179.244 291.942 179.957C291.677 181.458 291.419 182.961 291.156 184.457C291.222 185.937 290.737 187.198 289.517 188.931C289.49 187.072 289.391 185.897 289.488 184.74C289.545 184.033 289.906 183.353 290.129 182.66C290.413 180.835 290.696 179.012 290.98 177.189C291.343 171.531 291.733 165.873 292.076 160.21C292.974 145.432 292.796 130.661 291.437 115.926C290.547 106.272 289.399 96.6341 288.167 87.0191C286.171 71.4611 282.929 56.1301 278.899 40.9837C275.792 29.3161 272.312 17.7484 268.942 6.14931C268.489 4.60191 267.7 3.14622 267.068 1.64672Z" fill="#1D375A"/>
<path d="M5.40857 362.05C6.14137 362.812 6.96287 362.673 7.87697 362.402C15.2984 360.186 22.6856 357.841 30.1658 355.851C38.0637 353.756 46.0077 351.783 54.0817 350.416C59.4967 349.497 64.8987 348.509 70.3217 347.607C71.3447 347.433 72.4157 347.542 73.4517 347.435C75.0757 347.264 76.6917 347.023 78.3097 346.799C78.7487 346.735 79.1817 346.539 79.6227 346.527C89.9087 346.194 100.174 344.49 110.466 345.29C114.483 345.601 118.52 345.495 122.493 345.968C128.976 346.739 135.512 347.263 141.888 348.791C147.244 350.072 152.719 351.008 157.91 352.777C165.799 355.472 173.651 358.316 180.927 362.591C184.92 364.933 188.909 367.255 192.807 369.751C197.596 372.824 202.074 376.264 206.108 380.284C207.892 382.065 209.723 383.799 212.053 385.242C211.919 384.742 211.855 384.211 211.638 383.753C209.1 378.288 205.347 373.642 201.687 368.923C198.196 364.415 194.055 360.526 189.921 356.644C185.685 352.664 181.111 349.083 176.317 345.775C168.945 340.684 161.236 336.185 153.341 331.93C139.854 324.659 125.606 319.543 110.939 315.315C102.613 312.913 94.1117 311.465 85.6547 309.811C79.6807 308.642 73.6247 307.725 67.5647 307.275C63.4137 306.961 59.3077 305.849 55.0997 306.376C49.9337 305.251 44.6337 306.217 39.4967 305.579C29.9279 304.384 20.3943 305.425 10.8486 305.241C7.26127 305.172 3.66397 305.312 0.0743695 305.357C-0.243031 306.631 0.497671 307.417 1.49587 307.828C3.28207 308.567 5.10507 309.284 6.98467 309.719C13.5291 311.231 20.0892 312.694 26.6729 314.031C57.9877 320.394 89.3147 326.716 120.643 333.03C126.033 334.116 131.45 335.079 136.914 336.11C136.077 337.406 134.881 336.873 133.891 336.918C126.72 337.229 119.55 337.411 112.379 337.754C94.5667 338.605 77.0157 341.431 59.6377 345.298C43.4477 348.894 27.5105 353.439 11.9196 359.125C9.69237 359.938 7.57727 361.064 5.40857 362.05Z" fill="#1D375A"/>
<path d="M287.923 332.75C289.022 331.761 290.269 330.893 291.201 329.76C295.463 324.606 299.634 319.378 303.841 314.176C303.935 314.063 304.041 313.957 304.143 313.846C308.027 309.53 312.097 305.36 315.747 300.852C319.609 296.087 324.188 291.979 328.019 287.242C331.881 282.463 336.502 278.423 340.368 273.708C346.34 266.414 353.458 260.196 359.53 253.046C368.142 242.899 377.644 233.615 387.026 224.237C392.612 218.659 398.171 213.022 403.985 207.688C407.061 204.873 409.876 201.737 413.124 199.165C417.816 195.452 421.41 190.586 426.328 187.147C427.29 186.475 428.05 185.492 428.802 184.571C428.968 184.363 428.712 183.813 428.656 183.42C426.464 183.595 424.812 184.977 423.041 186.026C412.633 192.196 402.81 199.23 393.263 206.647C381.001 216.178 369.336 226.404 358.176 237.207C357.106 238.242 356.011 239.254 354.927 240.271C354.299 241.048 353.719 241.862 353.033 242.581C352.406 243.238 351.666 243.79 350.977 244.386C351.379 242.222 352.251 240.499 353.818 239.203C360.971 227.821 367.734 216.212 373.62 204.114C383.566 183.688 392.426 162.815 399.61 141.251C400.266 139.272 400.992 137.299 401.455 135.266C401.778 133.851 401.702 132.34 401.806 130.872C400.812 130.965 400.262 131.556 399.792 132.411C394.984 141.173 390.174 149.934 385.298 158.657C381.588 165.297 377.731 171.855 374.025 178.494C371.115 183.706 368.363 189.005 365.479 194.226C362.593 199.446 359.611 204.614 356.704 209.823C354.086 214.515 351.533 219.238 348.918 223.931C346.448 228.359 343.926 232.758 341.443 237.178C338.733 241.989 336.048 246.808 333.345 251.616C330.784 256.168 328.21 260.711 325.651 265.259C322.948 270.067 320.267 274.893 317.553 279.696C314.1 285.797 310.605 291.874 307.162 297.977C304.445 302.78 301.795 307.623 299.073 312.424C295.623 318.522 292.117 324.591 288.663 330.691C288.31 331.32 288.171 332.066 287.929 332.758L287.923 332.75Z" fill="#1D375A"/>
<path d="M431.377 184.301C430.38 185.196 429.327 186.03 428.393 186.988C410.034 205.848 391.576 224.618 373.409 243.666C368.787 248.512 364.159 253.412 359.861 258.557C357.076 261.889 354.063 264.973 351.186 268.202C348.907 270.758 346.72 273.4 344.459 275.972C342.196 278.545 339.535 280.743 337.675 283.704C336.814 285.068 335.453 286.119 334.325 287.312C328.377 293.594 322.624 300.044 317.15 306.745C316.96 306.974 316.742 307.176 316.538 307.402C312.855 311.508 309.113 315.566 305.51 319.745C302.988 322.672 300.682 325.786 298.236 328.784C296.068 331.436 293.812 334.019 291.641 336.673C289.1 339.785 286.611 342.935 284.101 346.072C281.125 349.793 278.13 353.5 275.179 357.24C272.505 360.627 269.86 364.047 267.238 367.471C267.121 367.622 267.297 367.989 267.378 368.523C267.908 368.124 268.383 367.852 268.754 367.479C270.541 365.677 272.273 363.804 274.087 362.027C279.948 356.281 285.685 350.394 291.761 344.88C297.706 339.487 304.002 334.474 310.165 329.317C315.076 325.209 319.961 321.064 324.964 317.071C329.153 313.727 333.479 310.551 337.773 307.347C345.415 301.644 353.012 295.873 360.764 290.327C366.826 285.986 373.09 281.925 379.281 277.77C383.242 275.115 387.214 272.463 391.239 269.902C399.541 264.622 407.852 259.349 416.223 254.171C422.161 250.497 428.207 246.983 434.384 243.291C433.846 242.993 433.485 242.794 433.124 242.591C431.116 243.117 429.077 243.544 427.112 244.193C409.661 249.941 393.059 257.598 377.026 266.528C371.304 269.716 365.62 272.967 359.918 276.19C356.331 278.976 356.331 278.976 353.652 279.077C355.671 277.637 357.341 276.446 359.015 275.249C378.854 259.109 395.537 240.085 410.128 219.173C416.611 209.873 422.846 200.4 429.151 190.97C430.137 189.491 430.902 187.86 431.72 186.276C432.081 185.579 432.117 184.852 431.377 184.301Z" fill="#1D375A"/>
<path d="M401.975 347.315C398.831 347.364 395.688 347.4 392.545 347.474C390.014 347.53 387.483 347.391 385 348.247C383.914 348.622 382.627 348.454 381.433 348.478C376.196 348.575 370.955 348.619 365.716 348.748C362.445 348.824 359.203 348.825 355.926 349.55C353.2 350.155 350.265 349.848 347.423 349.873C343.081 349.915 338.881 351.001 334.597 351.499C330.451 351.978 326.377 352.802 322.332 353.822C311.847 356.468 301.892 360.475 292.472 365.747C286.342 369.174 280.571 373.184 275.077 377.551C269.945 381.628 265.006 385.942 260.019 390.198C259.185 390.918 258.56 391.88 257.425 393.214C261.067 392.56 263.697 391.117 266.365 389.942C272.692 387.154 279.37 385.577 286.047 384.058C291.109 382.903 296.24 381.865 301.499 381.931C310.37 380.069 319.387 381.185 328.319 380.639C330.243 380.519 332.15 380.166 334.072 379.974C335.556 379.826 337.046 379.7 338.533 379.675C350.809 379.472 363.084 379.313 375.354 379.081C377.128 379.043 378.89 378.642 380.661 378.451C381.993 378.305 383.333 378.151 384.672 378.12C388.838 378.028 393.008 377.99 397.509 377.929C397.04 377.191 396.758 376.753 396.481 376.316C387.494 374.901 378.484 373.625 369.528 372.035C354.987 369.449 340.663 365.9 326.409 362.042C325.883 361.904 325.359 361.763 324.211 361.462C325.831 360.479 326.967 360.729 328.023 360.739C335.489 360.829 342.94 360.584 350.387 359.934C360.666 359.04 370.809 357.329 380.899 355.29C385.864 354.285 390.798 353.091 395.715 351.856C397.579 351.389 399.394 350.662 401.156 349.882C402.217 349.417 402.689 348.485 401.975 347.315Z" fill="#1D375A"/>
<path d="M445.202 284.76C433.125 290.629 420.637 295.538 408.271 300.732C405.383 301.941 402.482 303.12 399.537 304.182C388.176 308.285 376.76 312.232 365.434 316.43C356.211 319.848 346.902 323.072 338.107 327.553C334.785 329.243 331.289 330.608 328.02 332.386C317.65 338.015 307.724 344.345 298.377 351.553C293.901 355.01 289.392 358.422 284.986 361.963C282.6 363.886 280.4 366.038 277.984 368.208C278.575 368.338 278.916 368.532 279.084 368.431C280.75 367.442 282.388 366.414 284.029 365.379C296.24 357.681 309.294 352.043 323.515 349.264C328.321 348.326 333.122 347.324 337.957 346.579C340.303 346.221 342.732 346.393 345.118 346.306C347.35 346.223 349.569 346.342 351.768 345.591C352.994 345.173 354.428 345.321 355.77 345.297C362.646 345.184 369.524 345.052 376.403 345.029C378.321 345.027 380.24 345.512 382.158 345.528C386.479 345.568 390.803 345.462 395.122 345.381C395.367 345.374 395.605 345.062 395.85 344.892C388.943 343.749 382.062 342.501 375.146 341.478C362.896 339.673 350.551 338.96 338.205 338.318C336.974 338.536 335.753 338.707 334.039 337.581C335.965 337.552 337.251 337.535 338.529 337.517C347.767 336.439 356.794 334.369 365.692 331.713C388.057 325.047 409.131 315.606 428.125 301.91C432.969 298.416 437.467 294.443 442.07 290.628C443.099 289.778 443.942 288.691 444.798 287.656C445.5 286.808 445.814 285.83 445.202 284.76Z" fill="#1D375A"/>
<path d="M202.47 400.532C204.353 400.376 206.246 400.222 208.567 400.032C208.009 399.292 207.766 398.749 207.347 398.443C202.56 394.879 197.649 391.438 192.284 388.855C187.878 386.738 183.125 385.344 178.537 383.611C173.76 381.798 168.653 381.562 163.721 380.493C162.576 380.243 161.337 380.348 160.149 380.36C154.913 380.421 149.676 380.36 144.453 380.622C140.601 380.814 136.739 381.249 132.94 381.91C127.098 382.931 121.277 384.142 115.487 385.452C109.833 386.734 104.158 388.01 98.6207 389.699C89.2147 392.559 79.8887 395.696 70.5667 398.825C66.4717 400.195 62.4767 401.87 58.4107 403.333C57.3297 403.723 56.6207 404.353 56.1847 405.367C57.1567 407.145 58.9017 407.07 60.5197 407.016C65.7527 406.848 70.9967 406.752 76.2077 406.297C84.7027 405.554 93.1757 404.544 101.656 403.661C110.583 402.734 119.499 401.648 128.445 400.946C140.828 399.972 153.219 399.183 165.668 399.619C177.931 400.052 190.201 400.238 202.47 400.532Z" fill="#1D375A"/>
<path d="M436.578 243.561C431.375 247.042 426.156 250.5 420.97 254.01C410.231 261.286 399.512 268.601 388.778 275.877C382.73 279.978 376.572 283.921 370.609 288.139C357.847 297.175 345.107 306.248 332.898 316.034C326.862 320.874 320.665 325.522 314.687 330.431C310.207 334.113 305.956 338.081 301.583 341.907C300.916 342.49 300.136 342.953 299.466 343.539C298.489 344.401 297.567 345.319 296.611 346.217C297.448 347.08 297.9 346.495 298.329 346.165C303.984 341.76 309.989 337.883 316.149 334.231C317.171 333.624 318.158 332.939 319.216 332.396C328.114 327.837 336.807 322.843 346.215 319.333C354.456 316.261 362.684 313.144 370.978 310.215C384.762 305.35 398.629 300.708 412.4 295.791C422.493 292.195 432.489 288.307 442.583 284.529C441.577 283.271 440.143 284.404 439.082 283.783C433.933 284.65 428.762 285.416 423.631 286.403C408.372 289.336 393.254 292.913 378.177 296.663C376.518 297.855 374.649 298.08 372.567 297.578C373.883 296.984 375.2 296.385 376.512 295.789C395.706 285.683 412.837 272.854 427.54 256.874C430.366 253.801 432.94 250.499 435.544 247.227C436.353 246.214 437.238 245.063 436.578 243.561Z" fill="#1D375A"/>
<path d="M400.796 378.768C397.13 379.299 393.462 379.839 389.793 380.355C388.613 380.521 387.43 380.689 386.249 380.744C383.869 380.857 381.495 380.759 379.165 381.556C378.076 381.931 376.796 381.753 375.604 381.802C372.488 381.933 369.394 381.923 366.278 382.632C363.704 383.221 360.924 382.872 358.238 382.963C355.265 383.067 352.274 382.808 349.361 383.81C348.414 384.138 347.29 383.979 346.245 383.997C341.314 384.088 336.382 384.143 331.452 384.249C328.779 384.303 326.134 384.329 323.464 385.004C321.338 385.542 319.007 385.231 316.772 385.329C313.21 385.495 309.592 385.033 306.115 386.271C305.578 386.464 304.932 386.385 304.334 386.39C298.792 386.431 293.423 387.695 288.054 388.834C283.408 389.827 278.782 391.005 274.258 392.453C270.435 393.676 266.759 395.361 263.052 396.924C258.698 398.757 254.379 400.683 249.889 402.632C250.453 403.242 250.837 403.66 251.227 404.074C265.656 405.718 280.132 406.116 294.626 405.253C309.861 404.349 324.91 402.005 339.639 397.968C358.34 392.841 376.972 387.462 395.625 382.161C397.054 381.753 398.417 381.127 399.79 380.545C400.533 380.231 400.94 379.631 400.796 378.768Z" fill="#1D375A"/>
<path d="M336.285 207.983C334.154 211.456 332.189 215.003 331.27 219.023L331.187 218.95C331.45 218.86 331.853 218.842 331.954 218.659C333.763 215.451 335.537 212.223 337.314 208.999C336.975 208.661 336.626 208.323 336.285 207.983Z" fill="#B3BCC8"/>
<path d="M205.239 197.392C206.453 200.268 208.269 202.745 210.362 205.457C209.86 202.163 208.815 199.769 206.127 195.532C205.833 196.152 205.533 196.775 205.239 197.392Z" fill="#BBC2CD"/>
<path d="M266.533 205.431C266.82 206.842 267.089 208.259 267.42 209.662C267.466 209.86 267.803 209.992 268.213 210.317C268.342 206.736 268.475 203.326 267.322 200.007C267.27 201.008 267.279 202.015 267.142 203.003C267.028 203.826 266.741 204.622 266.533 205.431Z" fill="#B9BEC9"/>
<path d="M186.709 227.386C188.247 229.137 189.785 230.887 191.325 232.636C191.609 232.349 191.892 232.058 192.172 231.773C190.716 229.891 189.256 228.011 187.794 226.135C187.432 226.552 187.069 226.967 186.709 227.386Z" fill="#C8DCE1"/>
<path d="M126.708 366.352C128.733 366.112 130.608 365.511 132.171 364.062C129.389 364.41 126.507 364.018 123.935 365.483C124.818 365.905 126.053 365.204 126.708 366.352Z" fill="#618C9F"/>
<path d="M321.57 183.019C320.989 184.871 320.407 186.719 319.826 188.573C320.183 188.863 320.538 189.155 320.891 189.447C321.477 187.661 322.062 185.872 322.645 184.085C322.285 183.731 321.929 183.375 321.57 183.019Z" fill="#C9CBD3"/>
<path d="M353.82 239.205C352.253 240.501 351.381 242.224 350.979 244.389C351.668 243.792 352.408 243.241 353.035 242.583C353.721 241.865 354.301 241.05 354.929 240.273C354.56 239.918 354.19 239.565 353.82 239.205Z" fill="#B5B9C5"/>
<path d="M359.014 275.249C357.341 276.445 355.671 277.637 353.651 279.077C356.331 278.975 356.331 278.975 359.918 276.19C359.619 275.875 359.317 275.564 359.014 275.249Z" fill="#94A6B4"/>
<path d="M291.157 184.46C291.42 182.965 291.678 181.461 291.943 179.961C291.62 179.039 291.303 178.118 290.981 177.192C290.696 179.015 290.413 180.838 290.13 182.664C290.473 183.262 290.816 183.863 291.157 184.46Z" fill="#C1C5CF"/>
<path d="M376.512 295.79C375.199 296.386 373.882 296.985 372.566 297.579C374.649 298.082 376.517 297.857 378.176 296.664C377.624 296.371 377.07 296.081 376.512 295.79Z" fill="#9BABB8"/>
<path d="M231.093 180.843C231.713 182.314 232.338 183.784 232.959 185.25C233.269 184.957 233.576 184.66 233.889 184.36C233.225 182.591 232.563 180.82 231.898 179.055C231.632 179.648 231.362 180.244 231.093 180.843Z" fill="#CDD1D9"/>
<path d="M161.003 248.398C161.986 249.742 163.36 250.403 165.745 251.28C164.278 249.261 163.342 248.081 161.824 247.466C161.552 247.776 161.275 248.088 161.003 248.398Z" fill="#98B2BE"/>
<path d="M150.556 274.774C151.635 275.818 152.97 276.157 154.798 276.29C153.647 274.581 152.08 274.154 150.675 273.497C150.638 273.923 150.592 274.346 150.556 274.774Z" fill="#B3BFCB"/>
<path d="M338.526 337.517C337.248 337.535 335.962 337.553 334.035 337.582C335.75 338.707 336.971 338.537 338.201 338.319C338.256 338.032 338.37 337.765 338.526 337.517Z" fill="#00A6B4"/>
<path d="M234.09 380.142C234.1 380.777 234.108 381.412 234.116 382.048C234.247 382.046 234.378 382.044 234.507 382.043C234.5 381.406 234.491 380.772 234.48 380.137C234.352 380.141 234.22 380.142 234.09 380.142Z" fill="#1D375A"/>
<path d="M243.51 367.512C242.809 368.058 242.321 368.636 243.36 369.673C243.413 368.803 243.452 368.149 243.49 367.492L243.51 367.512Z" fill="#1D375A"/>
<path d="M287.928 332.76C287.72 332.938 287.437 333.08 287.34 333.303C287.282 333.441 287.506 333.706 287.608 333.911C287.689 333.802 287.81 333.693 287.834 333.575C287.891 333.305 287.894 333.026 287.923 332.75L287.928 332.76Z" fill="#1D375A"/>
<path d="M213.458 338.28C213.49 338.556 213.502 338.831 213.56 339.099C213.591 339.223 213.71 339.327 213.785 339.439C213.879 339.234 214.1 338.965 214.037 338.83C213.933 338.607 213.643 338.475 213.434 338.302L213.458 338.28Z" fill="#1D375A"/>
<path d="M260.322 349.318C260.117 349.492 259.833 349.64 259.738 349.859C259.677 349.998 259.907 350.262 260.005 350.464C260.082 350.35 260.197 350.242 260.221 350.118C260.274 349.848 260.278 349.57 260.3 349.297L260.322 349.318Z" fill="#1D375A"/>
<path d="M255.302 375.43C255.096 375.605 254.815 375.751 254.72 375.975C254.659 376.11 254.887 376.368 254.985 376.573C255.06 376.458 255.174 376.353 255.197 376.227C255.248 375.963 255.256 375.682 255.278 375.409L255.302 375.43Z" fill="#1D375A"/>
<path d="M192.171 231.772C191.891 232.057 191.608 232.349 191.324 232.636C192.03 234.089 193.125 235.122 195.129 236.331C194.367 234.046 193.383 232.838 192.171 231.772Z" fill="#95A0B0"/>
<path d="M233.888 184.359C233.575 184.659 233.268 184.957 232.959 185.25C233.413 186.725 233.956 188.142 235.589 189.527C235.335 187.363 234.944 185.764 233.888 184.359Z" fill="#828C9F"/>
<path d="M320.891 189.446C320.538 189.156 320.183 188.862 319.826 188.572C318.821 190.313 318.013 192.095 318.583 194.485C320.099 192.884 320.349 191.099 320.891 189.446Z" fill="#66748B"/>
<path d="M330.345 219.904C328.789 221.352 328.409 223.324 327.858 225.265C328.933 224.945 329.272 224.073 329.69 223.274C330.157 222.38 330.624 221.485 331.087 220.59C330.839 220.362 330.593 220.136 330.345 219.904Z" fill="#566982"/>
<path d="M330.345 219.904C330.592 220.136 330.839 220.362 331.087 220.59C331.119 220.046 331.154 219.501 331.186 218.951L331.269 219.023C330.961 219.318 330.653 219.61 330.345 219.904Z" fill="#B3BCC8"/>
<path d="M291.157 184.46C290.816 183.863 290.473 183.262 290.13 182.664C289.907 183.357 289.547 184.038 289.489 184.744C289.392 185.901 289.491 187.076 289.518 188.934C290.739 187.202 291.224 185.939 291.157 184.46Z" fill="#7B8297"/>
</svg>
