<svg width="140" height="143" viewBox="0 0 140 143" fill="none" xmlns="http://www.w3.org/2000/svg">
<path d="M3.49667 104.981C8.40067 119.296 2.55866 122.605 8.92266 129.138C12.3397 132.646 22.6017 131.195 29.3737 135.038L29.3707 135.034C58.4157 154.133 102.778 132.129 103.466 126.137C104.154 120.145 35.7617 31.999 30.8787 31.999C25.9967 31.999 -11.4373 61.3881 3.49667 104.981Z" fill="black"/>
<path d="M136.007 37.893C131.103 23.578 136.946 20.269 130.582 13.736C127.165 10.229 116.903 11.679 110.131 7.83597L110.134 7.83997C81.0885 -11.26 39.1115 9.65497 36.0385 16.737C32.9665 23.819 101.62 110.875 108.625 110.875C115.63 110.875 150.941 81.485 136.007 37.893Z" fill="black"/>
</svg>
